<svg width="570" height="570" viewBox="0 0 570 570" fill="none" xmlns="http://www.w3.org/2000/svg">
<path d="M89.1296 276.511C-19.0491 338.961 -19.0374 440.231 89.1296 502.681C197.297 565.132 372.692 565.132 480.87 502.681C589.049 440.231 589.037 338.961 480.87 276.511C372.703 214.06 197.308 214.06 89.1296 276.511Z" fill="#F5F5F5"/>
<path d="M135.231 480.233L142.327 476.134L100.814 472.282L107.501 496.241L114.597 492.154L201.768 542.156C219.142 545.287 236.681 547.414 254.3 548.527L135.231 480.233Z" fill="#EBEBEB"/>
<path d="M255.472 306.524L530.193 464.108C534.877 458.961 539.182 453.482 543.074 447.714L276.106 294.673L283.202 290.575L241.678 286.664L248.364 310.623L255.472 306.524Z" fill="#EBEBEB"/>
<path d="M91.0126 392.816L49.5117 388.952L56.1865 412.946L63.2829 408.848L307.686 548.972C319.783 548.41 331.821 547.391 343.73 545.904L83.9162 396.915L91.0126 392.816Z" fill="#EBEBEB"/>
<path d="M518.037 369.958L525.063 365.871L483.562 362.007L490.284 386.013L497.369 381.914L558.028 416.705C560.118 409.685 561.391 402.447 561.822 395.135L518.037 369.958Z" fill="#EBEBEB"/>
<path d="M511.982 481.298L428.383 433.345L435.468 429.247L393.967 425.394L400.653 449.353L407.738 445.266L493.843 494.648C500.12 490.52 506.174 486.064 511.982 481.298Z" fill="#EBEBEB"/>
<path d="M440.937 346.948C440.937 346.948 436.803 312.344 450.656 279.345C458.397 260.901 471.137 252.809 478.761 252.411C487.262 251.908 495.424 260.339 487.309 272.319C479.592 283.736 465.575 287.823 455.973 318.117C449.649 338.095 449.801 351.515 449.801 351.515L440.937 346.948Z" fill="#34A573"/>
<path opacity="0.5" d="M440.937 346.948C440.937 346.948 436.803 312.344 450.656 279.345C458.397 260.901 471.137 252.809 478.761 252.411C487.262 251.908 495.424 260.339 487.309 272.319C479.592 283.736 465.575 287.823 455.973 318.117C449.649 338.095 449.801 351.515 449.801 351.515L440.937 346.948Z" fill="white"/>
<path d="M446.606 338.528C446.676 338.527 446.745 338.511 446.808 338.482C446.872 338.453 446.929 338.412 446.976 338.361C447.023 338.309 447.059 338.249 447.082 338.183C447.105 338.117 447.114 338.047 447.11 337.978C445.318 300.236 464.968 269.742 479.488 260.128C479.547 260.091 479.598 260.043 479.637 259.986C479.677 259.93 479.704 259.865 479.719 259.798C479.733 259.73 479.733 259.66 479.72 259.592C479.706 259.524 479.679 259.46 479.641 259.402C479.603 259.343 479.553 259.292 479.495 259.253C479.438 259.213 479.372 259.185 479.304 259.171C479.235 259.157 479.164 259.156 479.095 259.17C479.026 259.184 478.961 259.211 478.903 259.25C464.171 268.993 444.264 299.873 446.067 338.001C446.067 338.071 446.081 338.141 446.109 338.205C446.136 338.27 446.176 338.329 446.226 338.378C446.276 338.427 446.336 338.465 446.401 338.491C446.466 338.517 446.536 338.53 446.606 338.528Z" fill="white"/>
<path d="M449.766 351.503C451.453 342.931 456.675 334.312 467.39 325.424C478.105 316.536 492.614 308.667 490.998 300.2C489.382 291.734 478.117 292.858 470.083 297.027C462.05 301.196 443.501 318.433 445.352 349.231L449.766 351.503Z" fill="#34A573"/>
<path opacity="0.65" d="M449.766 351.503C451.453 342.931 456.675 334.312 467.39 325.424C478.105 316.536 492.614 308.667 490.998 300.2C489.382 291.734 478.117 292.858 470.083 297.027C462.05 301.196 443.501 318.433 445.352 349.231L449.766 351.503Z" fill="white"/>
<path d="M448.126 341.737C448.25 341.73 448.368 341.681 448.459 341.598C448.551 341.514 448.611 341.402 448.63 341.28C451.054 323.106 473.315 301.383 483.222 298.421C483.356 298.377 483.468 298.283 483.534 298.159C483.6 298.034 483.614 297.888 483.573 297.753C483.533 297.62 483.441 297.508 483.318 297.442C483.195 297.376 483.051 297.362 482.917 297.402C472.531 300.517 450.129 322.251 447.576 341.139C447.559 341.279 447.598 341.419 447.683 341.531C447.768 341.642 447.894 341.716 448.033 341.737H448.126Z" fill="white"/>
<path d="M426.992 372.382C417.797 375.746 409.047 380.221 400.937 385.708C391.803 391.879 383.454 399.327 373.723 404.444C361.064 411.096 346.52 413.508 332.269 412.829C324.2 412.442 315.429 410.674 310.242 404.316C309.061 402.65 308.498 400.625 308.649 398.589C308.635 397.104 308.933 395.633 309.522 394.27C310.11 392.906 310.978 391.681 312.069 390.673C323.779 379.268 340.173 374.572 355.888 370.895C371.603 367.218 381.1 362.592 396.569 354.395C403.197 350.882 409.72 347.065 416.395 343.727L416.547 343.645C427.262 338.317 437.204 331.361 449.335 337.685C455.308 340.788 458.633 346.713 455.823 353.189C450.963 364.442 437.555 368.541 426.992 372.382Z" fill="#E0E0E0"/>
<path d="M176.734 344.582L109.354 383.483L197.309 434.364L197.625 434.165L200.072 432.76C200.869 432.28 201.63 431.835 202.414 431.401C214.125 424.609 222.404 419.609 221.76 415.803C221.303 412.911 216.068 411.271 211.747 410.756C209.408 410.564 207.132 409.894 205.061 408.789C204.284 408.436 203.618 407.878 203.135 407.174C202.652 406.47 202.37 405.648 202.321 404.796C202.321 403.004 203.632 401.142 206.173 399.667C210.857 396.962 217.883 396.681 221.994 399.023C223.532 399.878 224.721 401.245 225.355 402.887C226.089 404.601 227.31 406.062 228.867 407.089C230.424 408.115 232.249 408.662 234.114 408.66C241.046 409.047 248.798 404.573 261.562 397.161L264.607 395.404L176.734 344.582ZM343.827 441.144C341.063 442.725 338.393 444.224 335.77 445.653C328.264 449.821 322.256 453.17 319.622 455.969C319.159 456.357 318.791 456.846 318.548 457.398C318.304 457.95 318.191 458.551 318.216 459.154C318.685 462.035 323.919 463.686 328.24 464.201C330.579 464.383 332.855 465.045 334.927 466.145C335.579 466.509 336.165 466.98 336.66 467.539C337.304 468.262 337.665 469.194 337.679 470.162C337.679 471.942 336.344 473.816 333.791 475.268C329.107 477.984 322.081 478.254 317.994 475.923C316.455 475.072 315.262 473.709 314.621 472.071C313.708 469.565 310.874 466.544 305.85 466.274C299.995 465.935 293.965 469.6 284.772 475.162L281.06 477.352C279.608 478.219 278.109 479.12 276.505 480.057L380.116 539.779C382.353 539.299 384.566 538.819 386.779 538.315C413.876 532.323 440.174 523.165 465.132 511.031L343.827 441.144Z" fill="#E0E0E0"/>
<path d="M99.6684 184.106L94.0007 183.263C93.6363 183.178 93.3011 182.997 93.0295 182.74C92.7578 182.483 92.5595 182.158 92.455 181.799C92.1829 180.789 91.8304 179.802 91.401 178.848C91.3072 178.389 91.3322 177.913 91.4736 177.466C91.615 177.02 91.8682 176.616 92.2091 176.295L95.0898 173.133C95.8275 172.325 96.0851 171.295 95.6636 170.791L91.2839 166.049C90.8507 165.58 89.8202 165.686 88.9419 166.283L85.2181 168.929C84.8711 169.207 84.4614 169.397 84.0247 169.48C83.5879 169.564 83.1373 169.54 82.7121 169.409C81.7212 168.855 80.6874 168.381 79.6206 167.992C79.2823 167.824 78.9953 167.567 78.7894 167.25C78.5835 166.933 78.4662 166.567 78.4496 166.189L78.192 160.99C78.1827 160.618 78.0387 160.262 77.7866 159.988C77.5346 159.715 77.1917 159.542 76.8219 159.503L70.4984 159.245C70.0946 159.283 69.716 159.458 69.426 159.741C69.1361 160.025 68.9524 160.4 68.9058 160.802L68.0744 165.58C67.9802 166.032 67.7696 166.451 67.4636 166.796C67.1575 167.141 66.7666 167.4 66.3295 167.547C65.4854 167.791 64.6564 168.084 63.847 168.426C63.4847 168.612 63.0832 168.709 62.676 168.709C62.2687 168.709 61.8673 168.612 61.505 168.426L57.0902 164.608C56.6218 164.187 55.5796 164.433 54.7482 165.147L50.9541 168.496C50.1578 169.21 49.7831 170.194 50.1929 170.721L53.5889 175.405C53.7485 175.833 53.802 176.292 53.7449 176.745C53.6878 177.198 53.5218 177.63 53.261 178.005C52.9331 178.578 52.6521 179.176 52.3827 179.773C52.2195 180.214 51.9504 180.608 51.5992 180.92C51.248 181.232 50.8254 181.454 50.3686 181.565L44.8414 181.928C44.4483 181.987 44.0878 182.18 43.821 182.474C43.5542 182.769 43.3975 183.147 43.3776 183.544L43.0263 189.235C42.9778 189.614 43.0703 189.997 43.2862 190.313C43.5021 190.628 43.8264 190.853 44.1973 190.944L49.8767 191.788C50.2407 191.869 50.5762 192.047 50.8481 192.302C51.12 192.558 51.3183 192.881 51.4225 193.24C51.6946 194.25 52.047 195.237 52.4764 196.191C52.5702 196.65 52.5452 197.125 52.4038 197.572C52.2624 198.019 52.0093 198.422 51.6684 198.743L48.7877 201.905C48.0382 202.713 47.7923 203.744 48.2139 204.247L52.5935 209.001C53.0268 209.458 54.0456 209.353 54.9355 208.756L58.6594 206.121C59.002 205.839 59.4092 205.646 59.8445 205.561C60.2798 205.475 60.7297 205.498 61.1536 205.629C62.1461 206.188 63.1842 206.662 64.2568 207.046C64.5968 207.216 64.8849 207.474 65.0909 207.793C65.2969 208.112 65.4133 208.481 65.4279 208.861L65.6855 214.06C65.695 214.431 65.8395 214.785 66.0918 215.057C66.344 215.329 66.6867 215.499 67.0556 215.536L73.3791 215.793C73.7814 215.76 74.1594 215.588 74.448 215.305C74.7366 215.023 74.9177 214.649 74.9599 214.248L75.8031 209.458C75.8983 209.007 76.1093 208.589 76.4152 208.244C76.7211 207.899 77.1114 207.639 77.5479 207.491C78.3914 207.246 79.2203 206.952 80.0305 206.613C80.3936 206.429 80.7947 206.334 81.2015 206.334C81.6082 206.334 82.0093 206.429 82.3725 206.613L86.7755 210.36C87.2556 210.77 88.2861 210.524 89.1176 209.821L92.9117 206.46C93.708 205.758 94.0827 204.762 93.6728 204.247L90.2769 199.563C90.1172 199.134 90.0637 198.672 90.1208 198.217C90.1779 197.763 90.3439 197.328 90.6048 196.952C90.9209 196.378 91.2137 195.781 91.483 195.183C91.6443 194.743 91.9129 194.349 92.2646 194.038C92.6163 193.728 93.0399 193.509 93.4972 193.404L99.0244 193.029C99.4183 192.972 99.7801 192.779 100.047 192.484C100.315 192.189 100.47 191.81 100.488 191.413L100.839 185.722C100.864 185.358 100.761 184.997 100.547 184.701C100.333 184.406 100.022 184.195 99.6684 184.106ZM84.3281 187.993C84.076 191.263 82.5612 194.307 80.1045 196.479C77.6478 198.652 74.442 199.783 71.1659 199.633C69.5642 199.592 67.9872 199.229 66.5283 198.567C65.0694 197.905 63.7583 196.957 62.6728 195.778C61.5872 194.6 60.7494 193.216 60.2088 191.707C59.6683 190.199 59.436 188.598 59.5259 186.998C59.7781 183.728 61.2928 180.685 63.7495 178.512C66.2063 176.34 69.412 175.208 72.6882 175.358C74.2898 175.4 75.8668 175.762 77.3257 176.424C78.7846 177.086 80.0957 178.035 81.1813 179.213C82.2668 180.392 83.1047 181.776 83.6452 183.284C84.1858 184.792 84.418 186.394 84.3281 187.993Z" fill="#F0F0F0"/>
<path d="M52.4517 218.171L49.77 221.285C49.5793 221.473 49.3422 221.606 49.083 221.672C48.8237 221.738 48.5517 221.734 48.2946 221.66C47.5746 221.44 46.8385 221.275 46.0931 221.168C45.7906 221.039 45.5252 220.837 45.3207 220.579C45.1163 220.321 44.9792 220.017 44.922 219.693L44.114 216.742C43.9032 215.981 43.3763 215.43 42.943 215.571L38.376 216.402C37.9311 216.484 37.6032 217.14 37.6383 217.878L37.814 221.145C37.8535 221.462 37.8144 221.784 37.7 222.082C37.5856 222.38 37.3995 222.645 37.1582 222.855C36.4368 223.233 35.7509 223.676 35.1089 224.178C34.8738 224.319 34.6046 224.394 34.3302 224.394C34.0558 224.394 33.7866 224.319 33.5514 224.178L30.296 222.339C30.0665 222.2 29.7938 222.151 29.5302 222.201C29.2665 222.25 29.0305 222.396 28.8674 222.609L26.2092 226.309C26.0772 226.567 26.0377 226.862 26.0974 227.146C26.1571 227.429 26.3123 227.684 26.537 227.867L29.1133 230.209C29.3511 230.439 29.5248 230.728 29.6172 231.046C29.7096 231.365 29.7175 231.701 29.6402 232.024C29.4665 232.628 29.3257 233.242 29.2187 233.862C29.1907 234.16 29.0908 234.447 28.9276 234.698C28.7644 234.949 28.5429 235.156 28.2819 235.303L24.277 236.474C23.8437 236.602 23.5861 237.317 23.7149 238.078L24.2887 241.661C24.4058 242.422 24.8859 243.02 25.3426 242.984L29.4646 242.703C29.9213 242.703 30.5419 243.23 30.9049 243.874C31.1391 244.296 31.3851 244.694 31.6427 245.045C31.8505 245.314 31.9881 245.631 32.0433 245.966C32.0985 246.301 32.0695 246.645 31.9589 246.966L30.0618 250.479C29.9351 250.736 29.9068 251.03 29.9823 251.306C30.0578 251.582 30.2319 251.821 30.4717 251.978L33.7857 254.378C33.9943 254.548 34.2547 254.64 34.5234 254.64C34.792 254.64 35.0525 254.548 35.2611 254.378L37.9193 251.346C38.1101 251.158 38.3472 251.025 38.6064 250.959C38.8657 250.893 39.1377 250.897 39.3948 250.971C40.1148 251.191 40.8509 251.356 41.5963 251.463C41.8979 251.59 42.1629 251.79 42.3674 252.046C42.5719 252.302 42.7094 252.604 42.7674 252.926L43.5754 255.889C43.7861 256.65 44.3131 257.201 44.7464 257.06L49.3134 256.229C49.7583 256.147 50.0862 255.491 50.0511 254.753L49.8754 251.474C49.8382 251.158 49.8797 250.838 49.9961 250.542C50.1126 250.245 50.3004 249.983 50.5429 249.776C51.2567 249.387 51.9381 248.94 52.5805 248.441C52.8165 248.302 53.0853 248.229 53.3592 248.229C53.6331 248.229 53.902 248.302 54.1379 248.441L57.3934 250.28C57.6229 250.419 57.8956 250.468 58.1592 250.419C58.4229 250.369 58.6589 250.224 58.822 250.011L61.3983 246.275C61.5281 246.017 61.5664 245.722 61.5068 245.439C61.4472 245.156 61.2934 244.902 61.0704 244.718L58.4941 242.376C58.2553 242.145 58.081 241.857 57.9885 241.538C57.8961 241.22 57.8887 240.883 57.9672 240.56C58.1422 239.96 58.283 239.35 58.3887 238.734C58.4158 238.435 58.5153 238.148 58.6785 237.897C58.8418 237.646 59.0639 237.439 59.3256 237.293L63.3421 236.122C63.7637 235.993 64.0213 235.267 63.8925 234.518L63.3187 230.935C63.2016 230.174 62.7332 229.576 62.2648 229.611L58.1545 229.892C57.6861 229.892 57.0655 229.366 56.7025 228.721C56.48 228.312 56.2341 227.913 55.9647 227.55C55.7598 227.282 55.6239 226.968 55.5687 226.635C55.5136 226.303 55.541 225.961 55.6486 225.642L57.5573 222.129C57.683 221.871 57.7095 221.575 57.6317 221.299C57.554 221.023 57.3775 220.784 57.1358 220.63L53.8218 218.229C53.6285 218.077 53.3922 217.989 53.1462 217.978C52.9002 217.968 52.6572 218.035 52.4517 218.171ZM48.9386 228.967C50.822 230.374 52.0841 232.459 52.4578 234.78C52.8315 237.101 52.2876 239.476 50.9411 241.404C50.3021 242.36 49.4773 243.179 48.5158 243.81C47.5543 244.442 46.4757 244.873 45.344 245.08C44.2123 245.286 43.0507 245.263 41.9281 245.012C40.8055 244.761 39.7449 244.286 38.8093 243.617C36.9159 242.216 35.6419 240.134 35.2572 237.81C34.8725 235.487 35.4073 233.105 36.7483 231.169C37.3883 230.207 38.216 229.383 39.1818 228.749C40.1476 228.114 41.2316 227.681 42.3689 227.475C43.5062 227.27 44.6732 227.296 45.8001 227.552C46.927 227.809 47.9906 228.29 48.9269 228.967H48.9386Z" fill="#F0F0F0"/>
<path d="M441.055 185.769L441.406 191.46C441.419 191.859 441.574 192.24 441.842 192.536C442.11 192.832 442.474 193.023 442.87 193.076L448.397 193.45C448.854 193.558 449.276 193.777 449.628 194.088C449.979 194.398 450.248 194.791 450.411 195.23C450.67 195.834 450.959 196.425 451.278 196.999C451.537 197.376 451.703 197.809 451.762 198.263C451.821 198.717 451.772 199.179 451.618 199.61L448.21 204.294C447.835 204.809 448.21 205.805 448.983 206.507L452.777 209.868C453.573 210.571 454.615 210.817 455.119 210.407L459.534 206.578C459.897 206.394 460.298 206.299 460.705 206.299C461.111 206.299 461.513 206.394 461.876 206.578C462.681 206.919 463.506 207.212 464.347 207.456C464.783 207.604 465.173 207.864 465.479 208.209C465.785 208.553 465.996 208.972 466.091 209.423L466.934 214.213C466.979 214.613 467.161 214.986 467.449 215.268C467.737 215.55 468.114 215.723 468.515 215.758L474.839 215.501C475.209 215.464 475.553 215.294 475.807 215.023C476.061 214.751 476.208 214.397 476.221 214.025L476.478 208.826C476.493 208.446 476.609 208.077 476.815 207.758C477.021 207.439 477.309 207.181 477.649 207.011C478.717 206.625 479.751 206.151 480.741 205.594C481.167 205.463 481.618 205.44 482.055 205.525C482.493 205.611 482.902 205.804 483.247 206.086L486.959 208.72C487.802 209.318 488.833 209.423 489.301 208.966L493.681 204.212C494.114 203.744 493.856 202.713 493.118 201.87L490.238 198.708C489.897 198.387 489.644 197.984 489.502 197.537C489.361 197.09 489.336 196.615 489.43 196.155C489.854 195.199 490.206 194.213 490.484 193.205C490.586 192.847 490.782 192.524 491.052 192.268C491.322 192.013 491.655 191.835 492.018 191.752L497.697 190.909C498.066 190.813 498.387 190.587 498.602 190.273C498.817 189.959 498.912 189.578 498.868 189.2L498.505 183.508C498.49 183.11 498.335 182.73 498.067 182.434C497.799 182.139 497.436 181.947 497.041 181.892L491.526 181.529C491.067 181.421 490.641 181.201 490.288 180.888C489.934 180.576 489.663 180.181 489.5 179.738C489.242 179.141 488.95 178.567 488.634 177.97C488.374 177.594 488.208 177.163 488.149 176.711C488.09 176.259 488.14 175.799 488.294 175.37L491.702 170.686C492.076 170.159 491.702 169.175 490.929 168.461L487.146 165.112C486.338 164.397 485.308 164.152 484.804 164.573L480.39 168.391C480.027 168.577 479.626 168.674 479.219 168.674C478.811 168.674 478.41 168.577 478.047 168.391C477.242 168.049 476.417 167.756 475.577 167.512C475.14 167.365 474.749 167.106 474.443 166.761C474.137 166.416 473.926 165.997 473.832 165.545L472.989 160.767C472.945 160.365 472.763 159.991 472.475 159.707C472.187 159.424 471.81 159.248 471.408 159.21L465.084 159.467C464.713 159.505 464.369 159.677 464.117 159.951C463.864 160.225 463.721 160.582 463.714 160.955L463.457 166.154C463.439 166.531 463.321 166.897 463.115 167.214C462.909 167.531 462.623 167.788 462.286 167.957C461.22 168.348 460.186 168.822 459.194 169.374C458.771 169.505 458.322 169.529 457.887 169.445C457.452 169.361 457.044 169.172 456.7 168.894L452.976 166.248C452.133 165.65 451.102 165.545 450.634 166.013L446.254 170.756C445.821 171.224 446.079 172.255 446.816 173.098L449.697 176.26C450.039 176.581 450.294 176.984 450.437 177.43C450.581 177.877 450.608 178.353 450.517 178.813C450.084 179.766 449.727 180.753 449.451 181.764C449.348 182.121 449.151 182.445 448.882 182.702C448.612 182.96 448.279 183.141 447.917 183.227L442.238 184.071C441.866 184.157 441.539 184.379 441.32 184.692C441.102 185.006 441.007 185.389 441.055 185.769ZM469.159 175.323C472.435 175.176 475.639 176.309 478.095 178.481C480.551 180.653 482.067 183.694 482.322 186.963C482.412 188.564 482.179 190.166 481.638 191.675C481.096 193.184 480.258 194.569 479.171 195.747C478.084 196.926 476.772 197.874 475.311 198.535C473.851 199.197 472.273 199.558 470.67 199.598C467.394 199.748 464.188 198.617 461.731 196.444C459.275 194.272 457.76 191.228 457.508 187.958C457.424 186.359 457.662 184.759 458.208 183.254C458.753 181.748 459.595 180.367 460.684 179.192C461.772 178.017 463.085 177.073 464.545 176.414C466.005 175.756 467.582 175.397 469.183 175.358L469.159 175.323Z" fill="#F0F0F0"/>
<path d="M502.252 201.788L498.938 204.13C498.696 204.285 498.52 204.523 498.442 204.799C498.365 205.076 498.391 205.371 498.517 205.629L500.414 209.142C500.524 209.461 500.554 209.802 500.501 210.135C500.448 210.468 500.313 210.782 500.109 211.051C499.84 211.449 499.594 211.847 499.371 212.222C498.997 212.901 498.376 213.463 497.919 213.393L493.797 213.112C493.341 213.112 492.872 213.674 492.755 214.435L492.17 218.018C492.053 218.78 492.299 219.494 492.732 219.623L496.748 220.794C497.008 220.942 497.228 221.151 497.39 221.401C497.553 221.651 497.654 221.937 497.685 222.234C497.781 222.856 497.922 223.471 498.107 224.073C498.182 224.395 498.173 224.731 498.08 225.049C497.988 225.367 497.816 225.656 497.58 225.888L495.004 228.23C494.775 228.41 494.617 228.664 494.557 228.949C494.497 229.234 494.539 229.53 494.676 229.787L497.252 233.511C497.415 233.724 497.651 233.869 497.915 233.919C498.178 233.969 498.451 233.919 498.681 233.78L501.924 231.942C502.159 231.8 502.429 231.726 502.703 231.726C502.977 231.726 503.247 231.8 503.482 231.942C504.128 232.437 504.814 232.879 505.531 233.265C505.772 233.475 505.959 233.74 506.075 234.038C506.191 234.336 506.234 234.657 506.199 234.975L506.023 238.242C506.023 238.98 506.316 239.635 506.761 239.717L511.316 240.549C511.761 240.631 512.3 240.08 512.487 239.319L513.295 236.368C513.384 236.071 513.542 235.798 513.755 235.572C513.969 235.347 514.232 235.174 514.524 235.068C515.266 234.963 515.999 234.799 516.714 234.577C516.971 234.502 517.244 234.497 517.503 234.563C517.763 234.629 518 234.763 518.19 234.951L520.883 238.066C521.092 238.235 521.352 238.328 521.621 238.328C521.889 238.328 522.15 238.235 522.359 238.066L525.673 235.666C525.912 235.509 526.086 235.27 526.162 234.994C526.237 234.718 526.209 234.423 526.082 234.167L524.185 230.654C524.075 230.335 524.045 229.994 524.098 229.661C524.152 229.328 524.286 229.013 524.49 228.745C524.759 228.347 525.005 227.949 525.228 227.574C525.602 226.895 526.223 226.333 526.68 226.403L530.802 226.684C531.258 226.684 531.727 226.122 531.856 225.361L532.429 221.777C532.546 221.028 532.301 220.302 531.867 220.173L527.851 219.002C527.591 218.856 527.37 218.648 527.209 218.397C527.048 218.146 526.95 217.859 526.926 217.562C526.819 216.942 526.678 216.328 526.504 215.723C526.424 215.404 526.429 215.069 526.52 214.752C526.61 214.436 526.782 214.149 527.019 213.92L529.595 211.578C529.823 211.4 529.982 211.148 530.044 210.866C530.106 210.584 530.067 210.289 529.935 210.032L527.406 206.238C527.243 206.025 527.007 205.88 526.743 205.83C526.479 205.78 526.207 205.83 525.977 205.969L522.722 207.807C522.486 207.946 522.217 208.019 521.943 208.019C521.669 208.019 521.4 207.946 521.164 207.807C520.518 207.308 519.832 206.862 519.115 206.472C518.874 206.265 518.687 206.002 518.571 205.706C518.455 205.41 518.412 205.09 518.447 204.774L518.623 201.495C518.623 200.758 518.33 200.102 517.885 200.02L513.33 199.188C512.885 199.106 512.358 199.657 512.159 200.418L511.351 203.381C511.284 203.709 511.135 204.016 510.918 204.272C510.701 204.528 510.423 204.725 510.11 204.844C509.368 204.951 508.636 205.116 507.92 205.336C507.663 205.41 507.391 205.414 507.132 205.348C506.872 205.282 506.635 205.149 506.444 204.961L503.751 201.847C503.548 201.663 503.286 201.557 503.012 201.546C502.738 201.535 502.469 201.621 502.252 201.788ZM519.373 214.833C520.723 216.758 521.271 219.133 520.899 221.455C520.527 223.777 519.266 225.862 517.382 227.269C516.447 227.939 515.387 228.414 514.265 228.667C513.143 228.919 511.981 228.943 510.85 228.738C509.718 228.532 508.639 228.102 507.677 227.471C506.715 226.841 505.89 226.024 505.25 225.068C503.9 223.14 503.354 220.762 503.728 218.438C504.102 216.114 505.366 214.027 507.252 212.62C508.187 211.951 509.247 211.477 510.368 211.226C511.49 210.974 512.651 210.951 513.782 211.158C514.912 211.364 515.99 211.796 516.95 212.427C517.911 213.059 518.735 213.877 519.373 214.833Z" fill="#F0F0F0"/>
<path d="M109.352 378.155L197.318 429.036L197.635 428.837L200.094 427.432L202.436 426.073C214.146 419.293 222.425 414.293 221.793 410.475C221.324 407.583 216.09 405.943 211.769 405.428C209.43 405.241 207.154 404.575 205.082 403.473C204.303 403.119 203.636 402.559 203.153 401.853C202.67 401.147 202.39 400.322 202.342 399.468C202.342 397.688 203.654 395.814 206.195 394.339C210.879 391.645 217.905 391.353 222.004 393.706C223.551 394.551 224.75 395.916 225.388 397.559C226.289 400.065 229.135 403.086 234.147 403.344C241.068 403.719 248.82 399.245 261.596 391.844L264.629 390.088L176.802 339.254L109.352 378.155ZM343.825 435.828C341.061 437.397 338.391 438.884 335.768 440.336C325.229 446.191 317.641 450.384 318.203 453.838C318.394 454.697 318.894 455.456 319.608 455.969C321.552 457.55 325.112 458.51 328.227 458.873C330.564 459.061 332.839 459.723 334.913 460.817C335.692 461.179 336.359 461.744 336.844 462.453C337.328 463.162 337.612 463.989 337.665 464.846C337.622 465.829 337.265 466.773 336.646 467.539C335.858 468.524 334.883 469.344 333.777 469.951C329.093 472.656 322.067 472.926 317.98 470.595C316.439 469.747 315.245 468.383 314.608 466.743C313.694 464.237 310.86 461.216 305.837 460.946C299.982 460.618 293.951 464.272 284.758 469.834C282.311 471.321 279.536 472.996 276.561 474.788L281.117 477.399L386.836 538.386C413.933 532.393 440.231 523.235 465.189 511.101C466.844 510.32 468.483 509.489 470.107 508.607L343.825 435.828Z" fill="#34A573"/>
<path opacity="0.2" d="M109.352 378.155L197.318 429.036L197.635 428.837L200.094 427.432L202.436 426.073C214.146 419.293 222.425 414.293 221.793 410.475C221.324 407.583 216.09 405.943 211.769 405.428C209.43 405.241 207.154 404.575 205.082 403.473C204.303 403.119 203.636 402.559 203.153 401.853C202.67 401.147 202.39 400.322 202.342 399.468C202.342 397.688 203.654 395.814 206.195 394.339C210.879 391.645 217.905 391.353 222.004 393.706C223.551 394.551 224.75 395.916 225.388 397.559C226.289 400.065 229.135 403.086 234.147 403.344C241.068 403.719 248.82 399.245 261.596 391.844L264.629 390.088L176.802 339.254L109.352 378.155ZM343.825 435.828C341.061 437.397 338.391 438.884 335.768 440.336C325.229 446.191 317.641 450.384 318.203 453.838C318.394 454.697 318.894 455.456 319.608 455.969C321.552 457.55 325.112 458.51 328.227 458.873C330.564 459.061 332.839 459.723 334.913 460.817C335.692 461.179 336.359 461.744 336.844 462.453C337.328 463.162 337.612 463.989 337.665 464.846C337.622 465.829 337.265 466.773 336.646 467.539C335.858 468.524 334.883 469.344 333.777 469.951C329.093 472.656 322.067 472.926 317.98 470.595C316.439 469.747 315.245 468.383 314.608 466.743C313.694 464.237 310.86 461.216 305.837 460.946C299.982 460.618 293.951 464.272 284.758 469.834C282.311 471.321 279.536 472.996 276.561 474.788L281.117 477.399L386.836 538.386C413.933 532.393 440.231 523.235 465.189 511.101C466.844 510.32 468.483 509.489 470.107 508.607L343.825 435.828Z" fill="white"/>
<path d="M199.884 225.22L143.042 167.208L86.2012 290.856L109.352 277.494V378.167L176.733 339.254V238.581L199.884 225.22Z" fill="#34A573"/>
<path d="M175.154 45.7264L178.046 39.6956L165.399 32.3651C163.904 31.4965 162.302 30.8272 160.633 30.3743C160.048 30.2221 159.462 30.0933 158.865 29.9879C155.91 29.5001 152.889 29.5836 149.965 30.2338C148.88 30.4599 147.808 30.7492 146.756 31.1004C145.631 31.4642 144.524 31.8864 143.442 32.3651C141.981 33.0136 140.558 33.7447 139.18 34.5549C137.649 35.4458 136.167 36.4192 134.742 37.4707C133.641 38.267 132.564 39.1219 131.486 40.0235C115.795 53.3029 103.499 76.9223 100.314 99.6401C100.091 101.186 99.9274 102.72 99.7986 104.254C99.6113 106.455 99.5293 108.633 99.5293 110.776C99.5293 112.545 99.6113 114.29 99.7401 115.894C99.8572 117.322 100.021 118.704 100.22 120.039C100.419 121.374 100.677 122.639 100.97 123.88C101.747 127.283 102.992 130.562 104.67 133.623C105.01 134.232 105.361 134.794 105.736 135.38C107.232 137.71 109.127 139.76 111.333 141.434C111.996 141.919 112.684 142.369 113.394 142.78L125.35 149.678L127.997 144.162C128.699 144.01 129.402 143.823 130.116 143.612C133.027 142.714 135.822 141.476 138.442 139.923C140.127 138.931 141.757 137.848 143.325 136.679C145.43 135.102 147.433 133.393 149.321 131.562C162.425 118.95 172.741 99.2302 176.524 79.5922C177.084 76.7109 177.498 73.803 177.765 70.8799C177.976 68.4676 178.093 66.0787 178.081 63.7249C178.082 60.3237 177.804 56.928 177.25 53.5722C176.79 50.8989 176.088 48.2729 175.154 45.7264Z" fill="#34A573"/>
<path opacity="0.25" d="M103.193 86.2319L128.85 101.045L132.223 91.279L106.542 76.4305C105.266 79.6391 104.142 82.9062 103.193 86.2319Z" fill="white"/>
<path opacity="0.25" d="M165.4 32.3651C163.905 31.4965 162.303 30.8272 160.634 30.3743C160.048 30.2221 159.463 30.0933 158.866 29.9879C155.911 29.5001 152.89 29.5836 149.966 30.2338L148.795 30.5149L175.19 45.7381C175.19 45.7381 175.19 45.7381 175.19 45.6796L178.082 39.6488L165.4 32.3651Z" fill="white"/>
<path opacity="0.25" d="M162.659 69.8377L166.032 65.7742L127.564 43.6537C126.346 44.8637 125.151 46.1362 123.98 47.4712L162.659 69.8377Z" fill="white"/>
<path opacity="0.25" d="M115.805 58.35L149.167 77.5898L152.832 67.9992L121.8 50.0826C119.655 52.7287 117.653 55.4885 115.805 58.35Z" fill="white"/>
<path opacity="0.4" d="M165.398 32.3651C163.903 31.4965 162.301 30.8272 160.632 30.3743C160.047 30.2221 159.461 30.0933 158.864 29.9879C155.909 29.5001 152.888 29.5836 149.964 30.2338C148.879 30.4599 147.807 30.7492 146.756 31.1004C145.63 31.4642 144.524 31.8864 143.442 32.3651C141.98 33.0136 140.557 33.7447 139.179 34.5549C137.648 35.4458 136.167 36.4192 134.741 37.4707C133.64 38.267 132.563 39.1219 131.486 40.0235C116.871 52.3661 105.161 73.702 101.039 94.9209L154.555 125.824C165.578 112.458 173.1 96.5574 176.441 79.5571C177.001 76.6758 177.415 73.7679 177.682 70.8447C177.893 68.4324 178.01 66.0436 177.998 63.6898C177.999 60.2885 177.721 56.8929 177.167 53.5371C176.719 50.8649 176.029 48.2389 175.106 45.6913L177.998 39.6605L165.398 32.3651Z" fill="white"/>
<path opacity="0.1" d="M125.315 149.678L127.962 144.162C128.664 144.01 129.367 143.823 130.081 143.612C132.992 142.714 135.787 141.476 138.407 139.923C140.092 138.931 141.722 137.848 143.29 136.679C145.395 135.102 147.398 133.393 149.286 131.562C151.156 129.754 152.93 127.851 154.602 125.859L101.087 94.956C100.782 96.5134 100.525 98.0826 100.314 99.6401C100.103 101.198 99.9274 102.72 99.7986 104.254C99.6113 106.455 99.5293 108.633 99.5293 110.776C99.5293 112.545 99.6113 114.29 99.7401 115.894C99.8572 117.322 100.021 118.704 100.22 120.039C100.419 121.374 100.677 122.639 100.97 123.88C101.747 127.283 102.992 130.562 104.67 133.623C105.01 134.232 105.361 134.794 105.736 135.38C107.232 137.71 109.127 139.76 111.333 141.434C111.996 141.919 112.684 142.369 113.394 142.78L125.315 149.678Z" fill="black"/>
<path opacity="0.1" d="M104.67 133.623C105.009 134.232 105.361 134.794 105.735 135.38C107.232 137.71 109.126 139.76 111.333 141.434C111.995 141.919 112.683 142.369 113.394 142.78L125.35 149.678L127.996 144.162H128.102L128.289 141.902L101.707 126.55C102.439 129.007 103.432 131.378 104.67 133.623Z" fill="black"/>
<path d="M190.729 61.3712C190.182 57.9016 189.203 54.5143 187.813 51.2888C186.125 47.2727 183.456 43.7452 180.049 41.0306C177.96 39.4235 175.571 38.2491 173.023 37.5761C172.437 37.4239 171.852 37.2951 171.243 37.1897C168.288 36.7019 165.267 36.7853 162.343 37.4356C161.258 37.6646 160.187 37.9539 159.134 38.3022C158.009 38.668 156.903 39.0901 155.82 39.5669C154.372 40.2086 152.96 40.9319 151.593 41.7332C150.056 42.6199 148.57 43.5935 147.143 44.6491C146.054 45.4454 144.965 46.3002 143.899 47.2019C128.208 60.4461 115.795 84.0656 112.715 106.783C112.504 108.329 112.329 109.863 112.212 111.397C112.024 113.587 111.931 115.777 111.942 117.92C111.942 119.688 112.013 121.433 112.153 123.037C112.27 124.466 112.423 125.847 112.633 127.182C112.844 128.517 113.09 129.782 113.383 131.023C114.138 134.428 115.372 137.708 117.048 140.766C117.392 141.375 117.743 141.961 118.102 142.523C119.602 144.854 121.501 146.903 123.711 148.577C126.914 150.978 130.767 152.357 134.766 152.535C137.759 152.67 140.752 152.274 143.607 151.364C146.519 150.469 149.313 149.231 151.933 147.675C153.62 146.687 155.251 145.604 156.816 144.432C158.921 142.855 160.923 141.145 162.811 139.314C175.915 126.714 186.232 106.982 190.014 87.3444C190.571 84.4629 190.981 81.555 191.244 78.632C191.466 76.29 191.572 73.8309 191.572 71.4771C191.572 68.0909 191.29 64.7106 190.729 61.3712Z" fill="#34A573"/>
<path opacity="0.05" d="M113.5 102.088C113.195 103.657 112.938 105.238 112.715 106.772C112.493 108.306 112.329 109.851 112.212 111.385C112.024 113.575 111.931 115.765 111.942 117.908C111.942 119.676 112.013 121.421 112.153 123.025C112.27 124.454 112.423 125.836 112.633 127.171C112.844 128.506 113.09 129.77 113.383 131.012C114.138 134.416 115.372 137.696 117.048 140.755C117.392 141.363 117.743 141.949 118.102 142.511C119.602 144.842 121.501 146.892 123.711 148.565C126.914 150.966 130.767 152.345 134.766 152.523C137.759 152.659 140.752 152.262 143.607 151.352C146.519 150.457 149.313 149.219 151.933 147.664C153.396 146.809 154.849 145.837 156.277 144.806L113.5 102.088Z" fill="black"/>
<path opacity="0.05" d="M114.119 133.799C114.84 136.239 115.822 138.594 117.047 140.825C117.39 141.434 117.741 142.019 118.101 142.581C119.601 144.913 121.5 146.962 123.71 148.635C126.337 150.601 129.411 151.885 132.656 152.371L114.119 133.799Z" fill="black"/>
<path opacity="0.1" d="M118.945 83.6088C117.668 86.8174 116.603 90.0846 115.596 93.3751L162.179 139.958L162.811 139.361C164.828 137.411 166.736 135.351 168.526 133.19L118.945 83.6088Z" fill="white"/>
<path opacity="0.1" d="M134.168 57.2492C132.034 59.8935 130.048 62.6535 128.219 65.5166L179.486 116.796C181.149 113.669 182.671 110.425 184.041 107.123L134.168 57.2492Z" fill="white"/>
<path opacity="0.1" d="M139.988 50.8086C138.817 51.9796 137.552 53.3146 136.369 54.6495L185.388 103.668C186.075 101.842 186.715 99.9914 187.308 98.1177L139.988 50.8086Z" fill="white"/>
<path opacity="0.1" d="M191.456 67.9758C191.456 67.0272 191.328 66.1021 191.234 65.1887C191.234 64.896 191.234 64.5915 191.14 64.2871L191.035 63.362C190.941 62.6945 190.847 62.027 190.73 61.3712C190.184 57.9016 189.205 54.5143 187.814 51.2888C186.127 47.2727 183.458 43.7452 180.051 41.0306C177.962 39.4235 175.573 38.2491 173.025 37.5761C172.439 37.4239 171.854 37.2951 171.245 37.1897C168.29 36.7019 165.268 36.7853 162.345 37.4356L161.174 37.7166L191.456 67.9758Z" fill="white"/>
<path d="M181.418 77.6132C181.418 98.5628 169.204 122.768 153.746 133.049C153.091 133.494 152.423 133.904 151.756 134.291C135.361 143.752 122.082 133.717 122.082 111.866C122.082 90.0143 135.361 64.6384 151.756 55.1765C152.423 54.8018 153.091 54.4388 153.746 54.1226C169.204 46.5578 181.418 56.652 181.418 77.6132Z" fill="#34A573"/>
<path opacity="0.4" d="M181.418 77.6132C181.418 98.5628 169.204 122.768 153.746 133.049C153.091 133.494 152.423 133.904 151.756 134.291C135.361 143.752 122.082 133.717 122.082 111.866C122.082 90.0143 135.361 64.6384 151.756 55.1765C152.423 54.8018 153.091 54.4388 153.746 54.1226C169.204 46.5578 181.418 56.652 181.418 77.6132Z" fill="black"/>
<path d="M180.107 78.3744C180.107 79.0536 180.107 79.7328 180.107 80.4119C179.357 99.9445 167.975 121.843 153.7 131.351L153.314 131.609C152.811 131.925 152.307 132.241 151.803 132.534C149.072 134.183 146.045 135.285 142.892 135.778C136.241 136.679 130.678 133.764 127.235 127.803C124.988 123.655 123.715 119.05 123.512 114.336C123.441 113.306 123.406 112.252 123.406 111.151C123.406 110.05 123.406 109.149 123.5 108.13C123.624 105.972 123.862 103.822 124.214 101.689C126.72 86.5949 134.753 71.2429 145.012 61.9684C146.428 60.673 147.935 59.4795 149.52 58.3968C150.258 57.8933 151.007 57.4249 151.757 56.9916C152.506 56.5583 153.033 56.289 153.654 55.9728L154.181 55.7269C157.789 53.8851 161.889 53.2333 165.891 53.865C171.863 55.036 176.43 59.7201 178.667 67.3668C179.657 70.951 180.142 74.656 180.107 78.3744Z" fill="#34A573"/>
<path opacity="0.5" d="M180.107 78.3744C180.107 79.0536 180.107 79.7328 180.107 80.4119C179.357 99.9445 167.975 121.843 153.7 131.351L153.314 131.609C152.811 131.925 152.307 132.241 151.803 132.534C149.072 134.183 146.045 135.285 142.892 135.778C136.241 136.679 130.678 133.764 127.235 127.803C124.988 123.655 123.715 119.05 123.512 114.336C123.441 113.306 123.406 112.252 123.406 111.151C123.406 110.05 123.406 109.149 123.5 108.13C123.624 105.972 123.862 103.822 124.214 101.689C126.72 86.5949 134.753 71.2429 145.012 61.9684C146.428 60.673 147.935 59.4795 149.52 58.3968C150.258 57.8933 151.007 57.4249 151.757 56.9916C152.506 56.5583 153.033 56.289 153.654 55.9728L154.181 55.7269C157.789 53.8851 161.889 53.2333 165.891 53.865C171.863 55.036 176.43 59.7201 178.667 67.3668C179.657 70.951 180.142 74.656 180.107 78.3744Z" fill="black"/>
<path d="M175.353 77.6835C175.353 76.9926 175.353 76.3134 175.353 75.6342C175.395 71.9008 174.914 68.1798 173.924 64.5798C172.945 60.6597 170.855 57.1057 167.905 54.3451C167.263 54.1201 166.606 53.944 165.938 53.8181C161.936 53.1865 157.836 53.8382 154.227 55.6801L153.701 55.926C153.08 56.2422 152.436 56.57 151.803 56.9448C151.171 57.3195 150.305 57.8464 149.567 58.35C147.982 59.4327 146.475 60.6262 145.058 61.9216C134.812 71.1609 126.767 86.513 124.261 101.643C123.909 103.775 123.67 105.925 123.547 108.083C123.477 109.102 123.453 110.109 123.453 111.104C123.453 112.1 123.453 113.259 123.559 114.29C123.74 119.015 124.998 123.637 127.236 127.803C128.212 129.53 129.471 131.082 130.959 132.393C133.283 133.175 135.759 133.395 138.185 133.038C141.337 132.548 144.363 131.451 147.096 129.806C147.6 129.513 148.115 129.197 148.607 128.869L148.993 128.611C163.221 119.114 174.603 97.2161 175.353 77.6835Z" fill="#34A573"/>
<path opacity="0.25" d="M175.353 77.6835C175.353 76.9926 175.353 76.3134 175.353 75.6342C175.395 71.9008 174.914 68.1798 173.924 64.5798C172.945 60.6597 170.855 57.1057 167.905 54.3451C167.263 54.1201 166.606 53.944 165.938 53.8181C161.936 53.1865 157.836 53.8382 154.227 55.6801L153.701 55.926C153.08 56.2422 152.436 56.57 151.803 56.9448C151.171 57.3195 150.305 57.8464 149.567 58.35C147.982 59.4327 146.475 60.6262 145.058 61.9216C134.812 71.1609 126.767 86.513 124.261 101.643C123.909 103.775 123.67 105.925 123.547 108.083C123.477 109.102 123.453 110.109 123.453 111.104C123.453 112.1 123.453 113.259 123.559 114.29C123.74 119.015 124.998 123.637 127.236 127.803C128.212 129.53 129.471 131.082 130.959 132.393C133.283 133.175 135.759 133.395 138.185 133.038C141.337 132.548 144.363 131.451 147.096 129.806C147.6 129.513 148.115 129.197 148.607 128.869L148.993 128.611C163.221 119.114 174.603 97.2161 175.353 77.6835Z" fill="black"/>
<path d="M171.265 37.1897C154.133 35.2575 140.197 49.4502 130.9 62.2026C117.468 82.0046 108.955 107.076 113.604 131.047C115.126 137.71 118.171 144.408 123.721 148.612C118.053 144.455 114.763 137.768 113.182 131.047C108.896 111.421 114.283 90.7989 123.265 73.2453C132.855 55.9143 149.167 34.8242 171.265 37.1897Z" fill="#F5F5F5"/>
<path opacity="0.35" d="M158.302 83.6322L152.611 80.3416L163.619 70.9501L169.31 74.2406L158.302 83.6322Z" fill="black"/>
<path opacity="0.35" d="M161.803 85.7986C158.887 83.7376 153.84 85.2951 149.554 86.6417C148.524 86.9931 147.599 87.2975 146.756 87.5551C146.489 88.1856 146.346 88.8614 146.334 89.5459C146.334 92.8599 149.144 91.8879 155.257 89.944C157.318 89.2369 159.427 88.6811 161.569 88.2812C161.756 89.9674 162.927 91.5015 167.494 89.0892L161.803 85.7986Z" fill="black"/>
<path opacity="0.45" d="M147.705 128.962L142.014 125.672V118.95L147.705 122.241V128.962Z" fill="black"/>
<path opacity="0.35" d="M157.365 103.446C157.365 106.116 155.363 108.505 152.389 110.238C147.705 112.99 145.796 110.741 145.363 108.552L144.355 107.966C145.175 107.724 145.962 107.382 146.698 106.947C148.758 105.893 150.392 104.16 151.323 102.041C154.813 100.893 157.365 100.448 157.365 103.446Z" fill="black"/>
<path opacity="0.35" d="M136.182 119.922C135.555 119.555 134.834 119.38 134.109 119.419C133.987 119.07 133.885 118.714 133.804 118.353L128.09 115.062C128.243 116.053 128.607 116.999 129.157 117.837C129.706 118.675 130.428 119.386 131.275 119.922L136.954 123.213C137.223 122.659 137.292 122.029 137.152 121.43C137.011 120.831 136.668 120.299 136.182 119.922Z" fill="black"/>
<path d="M155.257 89.944C149.145 91.9465 146.334 92.8599 146.334 89.5459C146.346 88.8614 146.489 88.1856 146.756 87.5552C142.587 88.8433 140.643 89.0072 140.643 86.2553C140.643 84.2295 142.013 81.7352 145.784 79.5454C149.801 77.2034 152.049 77.7537 152.611 80.3417L163.619 70.9736C163.619 70.833 163.525 70.7042 163.466 70.5637C164.152 70.414 164.812 70.1613 165.422 69.8142L160.878 67.0975L160.445 66.8399H160.375C159.034 66.1875 157.533 65.9393 156.054 66.1255C154.081 66.3392 152.154 66.8566 150.339 67.6596V67.4956L156.03 64.1816L150.339 60.9379L146.487 63.1863L141.264 66.2192V72.9292C133.547 78.55 128.734 85.8806 128.734 93.8201C128.734 97.4269 129.706 99.4761 131.287 100.518H131.357C131.492 100.605 131.633 100.684 131.779 100.753L136.545 103.434C136.676 102.726 136.586 101.994 136.287 101.338C137.8 101.146 139.293 100.82 140.749 100.366C146.533 98.6213 151.674 95.8694 151.674 100.155C151.677 100.8 151.557 101.44 151.323 102.041C154.836 100.87 157.365 100.448 157.365 103.446C157.365 106.116 155.363 108.505 152.388 110.238C147.704 112.99 145.796 110.741 145.362 108.552L144.355 107.966L139.671 105.261L128.09 115.062L133.781 118.353C133.962 119.192 134.253 120.003 134.648 120.765C137.194 120.675 139.695 120.057 141.99 118.95V121.667L150.983 120.437V113.727C158.782 107.978 164.157 100.237 164.157 92.1456C164.204 90.7662 163.985 89.3908 163.513 88.0938C160.692 88.3429 157.915 88.9651 155.257 89.944Z" fill="#34A573"/>
<path opacity="0.15" d="M155.257 89.944C149.145 91.9465 146.334 92.8599 146.334 89.5459C146.346 88.8614 146.489 88.1856 146.756 87.5552C142.587 88.8433 140.643 89.0072 140.643 86.2553C140.643 84.2295 142.013 81.7352 145.784 79.5454C149.801 77.2034 152.049 77.7537 152.611 80.3417L163.619 70.9736C163.619 70.833 163.525 70.7042 163.466 70.5637C164.152 70.414 164.812 70.1613 165.422 69.8142L160.878 67.0975L160.445 66.8399H160.375C159.034 66.1875 157.533 65.9393 156.054 66.1255C154.081 66.3392 152.154 66.8566 150.339 67.6596V67.4956L156.03 64.1816L150.339 60.9379L146.487 63.1863L141.264 66.2192V72.9292C133.547 78.55 128.734 85.8806 128.734 93.8201C128.734 97.4269 129.706 99.4761 131.287 100.518H131.357C131.492 100.605 131.633 100.684 131.779 100.753L136.545 103.434C136.676 102.726 136.586 101.994 136.287 101.338C137.8 101.146 139.293 100.82 140.749 100.366C146.533 98.6213 151.674 95.8694 151.674 100.155C151.677 100.8 151.557 101.44 151.323 102.041C154.836 100.87 157.365 100.448 157.365 103.446C157.365 106.116 155.363 108.505 152.388 110.238C147.704 112.99 145.796 110.741 145.362 108.552L144.355 107.966L139.671 105.261L128.09 115.062L133.781 118.353C133.962 119.192 134.253 120.003 134.648 120.765C137.194 120.675 139.695 120.057 141.99 118.95V121.667L150.983 120.437V113.727C158.782 107.978 164.157 100.237 164.157 92.1456C164.204 90.7662 163.985 89.3908 163.513 88.0938C160.692 88.3429 157.915 88.9651 155.257 89.944Z" fill="black"/>
<g opacity="0.2">
<path d="M141.285 72.9291C136.951 76.2232 133.433 80.4704 131.004 85.3419C129.865 87.7863 129.201 90.4251 129.048 93.1175C128.919 94.4555 128.99 95.8053 129.259 97.1224C129.487 98.4645 130.205 99.6744 131.273 100.518C130.103 99.7534 129.266 98.5734 128.931 97.216C128.58 95.8716 128.43 94.4825 128.486 93.094C128.591 90.3133 129.252 87.5818 130.43 85.0609C131.637 82.5615 133.217 80.2597 135.114 78.2338C136.951 76.224 139.023 74.443 141.285 72.9291Z" fill="black"/>
</g>
<path d="M163.537 88.0938C160.707 88.3409 157.923 88.9631 155.258 89.944C149.145 91.9465 146.335 92.8599 146.335 89.5459C146.346 88.8614 146.489 88.1856 146.756 87.5552C147.78 85.5354 149.42 83.8945 151.44 82.8711C155.457 80.5291 157.705 81.0912 158.267 83.6791L169.275 74.311C168.925 72.8908 168.102 71.6318 166.943 70.7403C165.783 69.8488 164.355 69.3778 162.893 69.4044C160.515 69.4603 158.175 70.0064 156.019 71.0087V64.2285L150.339 67.4956L146.955 69.4629V76.1729C139.238 81.7938 134.425 89.136 134.425 97.0521C134.375 98.5503 134.61 100.044 135.116 101.455C136.826 105.706 141.487 105.12 146.405 103.68C148.126 103.165 149.801 102.509 151.288 102.064C154.801 100.893 157.33 100.472 157.33 103.469C157.33 106.139 155.328 108.528 152.354 110.261C147.67 113.013 145.761 110.765 145.327 108.575L133.758 118.376C133.939 119.215 134.23 120.027 134.624 120.789C136.135 123.611 138.828 124.395 141.967 123.974C143.935 123.675 145.851 123.099 147.658 122.264V128.986L156.651 123.786V117.03C164.45 111.292 169.825 103.551 169.825 95.4595C169.872 89.6162 167.108 88.0119 163.537 88.0938Z" fill="#34A573"/>
<g opacity="0.1">
<path d="M163.537 88.0938C160.707 88.3408 157.923 88.963 155.258 89.944C149.145 91.9465 146.335 92.8599 146.335 89.5459C146.346 88.8614 146.489 88.1856 146.756 87.5551C147.78 85.5353 149.42 83.8945 151.44 82.8711C155.457 80.529 157.705 81.0911 158.267 83.6791L169.275 74.3109C168.925 72.8908 168.102 71.6318 166.943 70.7403C165.783 69.8488 164.355 69.3777 162.893 69.4044C160.515 69.4602 158.175 70.0064 156.019 71.0087V64.2285L150.339 67.4956L146.955 69.4629V76.1728C139.238 81.7937 134.425 89.136 134.425 97.0521C134.375 98.5502 134.61 100.044 135.116 101.455C136.826 105.706 141.487 105.12 146.405 103.68C148.126 103.165 149.801 102.509 151.288 102.064C154.801 100.893 157.33 100.471 157.33 103.469C157.33 106.139 155.328 108.528 152.354 110.261C147.67 113.013 145.761 110.765 145.327 108.575L133.758 118.376C133.939 119.215 134.23 120.026 134.624 120.789C136.135 123.611 138.828 124.395 141.967 123.974C143.935 123.675 145.851 123.099 147.658 122.264V128.986L156.651 123.786V117.03C164.45 111.292 169.825 103.551 169.825 95.4595C169.872 89.6161 167.108 88.0118 163.537 88.0938Z" fill="white"/>
</g>
<path opacity="0.1" d="M144.565 109.231L137.457 115.238L145.35 123.142C146.123 122.885 146.907 122.592 147.692 122.241V125.484L149.893 127.686L156.685 123.763V121.421L144.565 109.231Z" fill="white"/>
<path opacity="0.1" d="M163.537 88.0938C160.708 88.3409 157.924 88.9631 155.258 89.9441L153.279 90.5881L167.507 104.804C169.012 101.908 169.814 98.6993 169.849 95.4361C169.858 94.5163 169.771 93.598 169.592 92.6959L165.083 88.1875C164.572 88.1093 164.054 88.078 163.537 88.0938Z" fill="white"/>
<path opacity="0.1" d="M148.15 85.4473C149.128 84.4038 150.261 83.5188 151.511 82.8242C155.528 80.4822 157.776 81.0443 158.338 83.6322L159.509 82.6017L146.979 70.0601V76.2197C145.436 77.3466 143.973 78.5791 142.6 79.9084L148.15 85.4473Z" fill="white"/>
<path opacity="0.1" d="M159.077 69.8962C158.051 70.1846 157.042 70.5326 156.056 70.9384V66.875L154.381 65.1536L150.341 67.4956L149.65 67.8937L162.11 80.3768L166.138 76.9457L159.077 69.8962Z" fill="white"/>
<path opacity="0.1" d="M140.033 104.699L134.588 99.2653C134.677 100.013 134.854 100.748 135.115 101.455C135.493 102.442 136.171 103.285 137.053 103.867C137.935 104.449 138.977 104.74 140.033 104.699Z" fill="white"/>
<path d="M146.98 76.2197L141.289 72.9291V66.2192L146.98 69.5098V76.2197Z" fill="#34A573"/>
<path opacity="0.35" d="M146.98 76.2197L141.289 72.9291V66.2192L146.98 69.5098V76.2197Z" fill="black"/>
<path d="M156.699 117.006C156.699 117.006 157.027 116.76 157.577 116.304C157.924 116.048 158.256 115.775 158.573 115.484C158.948 115.156 159.393 114.805 159.838 114.383C160.283 113.962 160.774 113.517 161.266 113.013L162.016 112.24C162.273 111.971 162.519 111.69 162.777 111.409C163.034 111.128 163.292 110.835 163.538 110.531C163.784 110.226 164.053 109.922 164.299 109.605C164.779 108.961 165.283 108.317 165.716 107.626C166.149 106.936 166.583 106.245 166.992 105.554C167.374 104.866 167.718 104.159 168.023 103.434C168.351 102.743 168.573 102.041 168.831 101.385C168.925 101.049 169.018 100.721 169.112 100.401L169.253 99.9328C169.253 99.7806 169.323 99.6284 169.346 99.4761C169.475 98.8789 169.604 98.3051 169.662 97.8367C169.721 97.3683 169.803 96.9116 169.815 96.5603C169.815 95.846 169.873 95.3893 169.873 95.3893C169.873 95.3893 169.873 95.7991 169.873 96.5603C169.862 96.9913 169.827 97.4213 169.768 97.8484C169.714 98.4072 169.628 98.9624 169.51 99.5113C169.51 99.6635 169.51 99.8157 169.416 99.968C169.323 100.12 169.335 100.284 169.288 100.448C169.241 100.612 169.112 101.104 169.018 101.443C168.796 102.147 168.538 102.839 168.245 103.516C167.953 104.242 167.59 104.945 167.215 105.659C166.84 106.373 166.419 107.088 165.939 107.755C165.458 108.423 164.99 109.102 164.498 109.746C164.252 110.062 163.983 110.367 163.737 110.671L162.964 111.549L162.191 112.381L161.407 113.142C160.915 113.634 160.4 114.067 159.943 114.477C159.486 114.887 159.041 115.238 158.655 115.554C158.268 115.87 157.917 116.128 157.636 116.339L156.699 117.006Z" fill="white"/>
<path d="M146.979 69.5098L156.054 64.2285V70.9384L155.445 65.3175L146.979 69.5098Z" fill="#FAFAFA"/>
<path d="M147.703 122.241L148.183 128.072L156.697 123.763L147.703 128.962V122.241Z" fill="#FAFAFA"/>
<path d="M175.411 43.1619L176.172 33.1731L176.933 43.1619L186.922 43.923L176.933 44.6842L176.172 54.673L175.411 44.6842L165.422 43.923L175.411 43.1619Z" fill="white"/>
<path d="M183.784 51.6752L184.147 46.8272L184.521 51.6752L189.358 52.0382L184.521 52.4129L184.147 57.2492L183.784 52.4129L178.936 52.0382L183.784 51.6752Z" fill="white"/>
<path d="M426.607 326.103L419.792 328.633L418.387 323.879L424.136 323.996L426.607 326.103Z" fill="black"/>
<path d="M423.68 312.754C423.68 312.754 426.842 315.763 427.825 316.735C428.809 317.707 427.24 324.64 426.654 326.103L424.183 323.996C424.245 326.028 424.571 328.044 425.155 329.991C425.624 332.158 427.052 335.846 426.397 339.675C425.436 345.413 421.268 351.479 415.857 356.444C410.447 361.41 406.056 362.827 403.386 363.026C400.716 363.225 398.971 362.288 398.105 360.59C397.238 358.892 423.68 312.754 423.68 312.754Z" fill="#263238"/>
<path d="M398.668 314.581L396.888 312.777C395.834 313.632 398.199 316.419 398.878 320.049C399.98 325.44 400.35 330.954 399.979 336.444C398.913 346.222 396.747 353.646 396.302 358.025C395.681 363.881 406.01 363.553 414.652 355.285C418.938 351.175 424.933 342.135 424.805 337.65C424.676 333.165 422.369 327.989 422.463 324.581C422.556 321.173 424.676 315.986 423.704 312.766C423.165 310.997 420.191 308.374 417.498 306.231C415.062 304.264 412.813 299.791 411.736 301.208L412.696 302.73C413.071 304.182 412.333 307.672 409.242 311.384C407.673 313.222 402.403 318.012 398.668 314.581Z" fill="#455A64"/>
<path opacity="0.15" d="M406.384 313.96C404.51 315.307 402.133 316.302 400.002 315.471H399.932C400.615 316.015 401.162 316.711 401.53 317.504C401.898 318.297 402.076 319.164 402.051 320.038C402.121 323.246 403.808 344.922 403.808 344.922C403.808 344.922 403.503 326.115 403.48 322.544C403.48 317.262 403.995 316.185 406.396 313.983L406.384 313.96Z" fill="black"/>
<path d="M396.253 358.014C396.628 354.313 398.232 348.446 399.357 340.811C399.755 343.153 399.415 345.495 399.731 346.081C400.492 347.592 405.797 346.081 408.619 344.711C411.441 343.341 411.102 338.001 411.828 332.298C412.554 326.595 418.596 327.368 423.421 330.366C424.129 332.734 424.576 335.173 424.756 337.638C424.885 342.123 418.901 351.163 414.603 355.273C406.008 363.541 395.68 363.88 396.253 358.014Z" fill="#37474F"/>
<path opacity="0.15" d="M407.282 319.265C407.422 319.4 407.609 319.476 407.803 319.476C407.998 319.476 408.184 319.4 408.324 319.265C408.393 319.2 408.448 319.122 408.485 319.035C408.523 318.949 408.542 318.856 408.542 318.761C408.542 318.667 408.523 318.573 408.485 318.487C408.448 318.4 408.393 318.322 408.324 318.258C408.183 318.122 407.994 318.046 407.797 318.046C407.601 318.046 407.412 318.122 407.27 318.258C407.201 318.322 407.145 318.4 407.108 318.488C407.07 318.575 407.052 318.669 407.053 318.764C407.054 318.859 407.075 318.952 407.114 319.039C407.154 319.125 407.211 319.202 407.282 319.265Z" fill="black"/>
<path opacity="0.15" d="M407.238 324.464C407.388 324.59 407.581 324.654 407.777 324.643C407.972 324.632 408.156 324.547 408.292 324.405C408.359 324.34 408.413 324.262 408.449 324.175C408.486 324.089 408.504 323.996 408.504 323.902C408.504 323.808 408.486 323.715 408.449 323.629C408.413 323.542 408.359 323.464 408.292 323.398C408.144 323.267 407.95 323.2 407.753 323.211C407.555 323.222 407.37 323.31 407.238 323.457C407.171 323.522 407.117 323.601 407.081 323.687C407.044 323.774 407.025 323.867 407.025 323.96C407.025 324.054 407.044 324.147 407.081 324.234C407.117 324.32 407.171 324.399 407.238 324.464Z" fill="black"/>
<path opacity="0.15" d="M407.204 329.605C407.345 329.741 407.534 329.817 407.731 329.817C407.927 329.817 408.116 329.741 408.258 329.605C408.322 329.534 408.371 329.452 408.403 329.363C408.434 329.273 408.448 329.178 408.442 329.083C408.437 328.988 408.413 328.895 408.371 328.81C408.329 328.725 408.271 328.648 408.199 328.586C408.049 328.46 407.856 328.396 407.661 328.407C407.465 328.418 407.281 328.503 407.145 328.645C407.028 328.781 406.969 328.957 406.98 329.137C406.991 329.316 407.071 329.484 407.204 329.605Z" fill="black"/>
<path opacity="0.15" d="M407.157 334.757C407.307 334.883 407.5 334.947 407.695 334.936C407.891 334.925 408.075 334.84 408.211 334.699C408.279 334.634 408.334 334.556 408.372 334.469C408.409 334.383 408.429 334.29 408.429 334.195C408.429 334.101 408.409 334.007 408.372 333.921C408.334 333.834 408.279 333.756 408.211 333.692C408.071 333.556 407.884 333.481 407.69 333.481C407.495 333.481 407.308 333.556 407.168 333.692C407.091 333.757 407.029 333.838 406.985 333.929C406.942 334.021 406.919 334.121 406.918 334.222C406.917 334.323 406.938 334.423 406.979 334.516C407.02 334.608 407.081 334.69 407.157 334.757Z" fill="black"/>
<path opacity="0.15" d="M407.122 339.898C407.27 340.029 407.464 340.097 407.662 340.086C407.859 340.075 408.044 339.986 408.176 339.839C408.24 339.77 408.289 339.689 408.321 339.6C408.352 339.512 408.366 339.417 408.36 339.324C408.355 339.23 408.331 339.138 408.289 339.053C408.247 338.969 408.189 338.894 408.118 338.832C407.968 338.707 407.775 338.643 407.579 338.654C407.384 338.665 407.199 338.749 407.064 338.891C407 338.96 406.951 339.042 406.92 339.13C406.888 339.219 406.875 339.313 406.88 339.407C406.886 339.501 406.91 339.593 406.951 339.677C406.993 339.761 407.051 339.837 407.122 339.898Z" fill="black"/>
<path d="M407.965 318.984C408.011 318.931 408.04 318.866 408.047 318.796C408.044 318.718 408.013 318.644 407.959 318.588C407.905 318.532 407.832 318.497 407.754 318.492C407.544 318.492 402.567 318.304 399.253 321.49C399.225 321.516 399.202 321.548 399.187 321.583C399.172 321.618 399.164 321.656 399.164 321.695C399.164 321.733 399.172 321.771 399.187 321.806C399.202 321.841 399.225 321.873 399.253 321.899C399.311 321.951 399.386 321.98 399.464 321.98C399.541 321.98 399.616 321.951 399.674 321.899C402.813 318.89 407.684 319.066 407.731 319.077C407.774 319.078 407.817 319.07 407.857 319.054C407.898 319.038 407.934 319.014 407.965 318.984Z" fill="#263238"/>
<path d="M407.963 324.124C408.013 324.074 408.042 324.008 408.045 323.937C408.047 323.899 408.041 323.86 408.027 323.824C408.014 323.788 407.994 323.755 407.968 323.727C407.941 323.698 407.91 323.675 407.875 323.659C407.84 323.643 407.802 323.634 407.764 323.633C407.553 323.633 402.576 323.434 399.262 326.63C399.236 326.657 399.215 326.688 399.201 326.722C399.187 326.756 399.18 326.792 399.18 326.829C399.18 326.866 399.187 326.903 399.201 326.937C399.215 326.971 399.236 327.002 399.262 327.029C399.29 327.057 399.322 327.079 399.359 327.095C399.395 327.11 399.434 327.118 399.473 327.118C399.512 327.118 399.551 327.11 399.588 327.095C399.624 327.079 399.657 327.057 399.684 327.029C402.811 324.031 407.682 324.206 407.741 324.206C407.781 324.211 407.823 324.205 407.861 324.191C407.9 324.177 407.935 324.154 407.963 324.124Z" fill="#263238"/>
<path d="M407.964 329.277C408.014 329.227 408.044 329.16 408.046 329.09C408.046 329.011 408.016 328.935 407.961 328.878C407.907 328.821 407.832 328.788 407.754 328.785C407.543 328.785 402.578 328.586 399.252 331.783C399.224 331.808 399.202 331.839 399.187 331.873C399.172 331.907 399.164 331.944 399.164 331.982C399.164 332.019 399.172 332.056 399.187 332.091C399.202 332.125 399.224 332.156 399.252 332.181C399.279 332.209 399.312 332.232 399.348 332.247C399.384 332.263 399.423 332.271 399.463 332.271C399.502 332.271 399.541 332.263 399.577 332.247C399.614 332.232 399.646 332.209 399.674 332.181C402.8 329.183 407.683 329.359 407.73 329.359C407.773 329.364 407.816 329.359 407.857 329.345C407.897 329.331 407.934 329.308 407.964 329.277Z" fill="#263238"/>
<path d="M407.87 334.418C407.897 334.395 407.919 334.366 407.933 334.333C407.947 334.301 407.954 334.266 407.952 334.23C407.954 334.192 407.948 334.155 407.934 334.119C407.921 334.084 407.9 334.051 407.874 334.024C407.848 333.997 407.816 333.975 407.782 333.96C407.747 333.945 407.709 333.937 407.671 333.938C407.46 333.938 402.484 333.738 399.17 336.924C399.116 336.978 399.086 337.052 399.086 337.129C399.086 337.205 399.116 337.279 399.17 337.333C399.228 337.385 399.303 337.414 399.38 337.414C399.458 337.414 399.533 337.385 399.591 337.333C402.718 334.324 407.601 334.511 407.648 334.511C407.731 334.511 407.811 334.477 407.87 334.418Z" fill="#263238"/>
<path d="M407.835 339.57C407.884 339.519 407.913 339.453 407.917 339.383C407.919 339.344 407.913 339.306 407.9 339.27C407.886 339.234 407.866 339.2 407.84 339.172C407.814 339.144 407.783 339.121 407.748 339.105C407.713 339.089 407.675 339.08 407.636 339.078C407.426 339.078 402.449 338.879 399.123 342.064C399.095 342.09 399.073 342.12 399.058 342.155C399.043 342.189 399.035 342.226 399.035 342.263C399.035 342.301 399.043 342.338 399.058 342.372C399.073 342.406 399.095 342.437 399.123 342.462C399.15 342.491 399.183 342.513 399.219 342.529C399.256 342.544 399.295 342.552 399.334 342.552C399.373 342.552 399.412 342.544 399.448 342.529C399.485 342.513 399.517 342.491 399.545 342.462C402.683 339.465 407.554 339.64 407.601 339.64C407.643 339.645 407.685 339.641 407.725 339.629C407.766 339.617 407.803 339.597 407.835 339.57Z" fill="#263238"/>
<path d="M322.794 174.222C321.929 187.962 321.835 201.739 322.513 215.489C323.462 237.598 324.727 248.149 334.996 261.545C344.166 273.513 394.449 313.901 398.489 317.988C398.489 317.988 414.883 318.293 414.45 302.226C414.45 302.226 402.072 281.242 393.817 267.002C385.561 252.762 375.28 246.392 375.28 246.392L383.805 181.26L322.794 174.222Z" fill="#263238"/>
<path d="M378.055 180.722L383.77 181.26V181.494L375.573 244.296L375.257 245.877H375.362L375.304 246.357C380.975 250.308 385.907 255.227 389.871 260.889C388.033 266.604 384.274 276.651 384.274 276.651C383.993 278.197 388.958 284.076 387.787 302.882C387.705 304.241 387.506 306.208 387.271 308.327C374.87 297.94 357.996 283.736 346.52 273.197C345.782 270.316 343.522 260.831 343.85 253.442C344.178 246.053 344.951 209.856 344.951 209.856C341.514 208.12 338.425 205.766 335.84 202.912C333.692 200.636 332.115 197.883 331.238 194.879C329.092 190.201 327.25 185.39 325.723 180.476L378.055 180.722Z" fill="black"/>
<path d="M366.583 386.469L359.639 384.291L361.641 379.759L366.032 383.331L366.583 386.469Z" fill="black"/>
<path d="M373.02 374.303C373.02 374.303 373.524 378.565 373.653 379.9C373.781 381.235 368.032 385.673 366.627 386.434L366.076 383.296C364.803 384.903 363.74 386.666 362.914 388.542C361.872 390.509 360.572 394.198 357.563 396.798C353.066 400.674 345.853 402.84 338.417 403.426C330.981 404.011 326.613 402.419 324.364 400.955C322.116 399.491 321.402 397.7 321.835 395.861C322.268 394.023 373.02 374.303 373.02 374.303Z" fill="#263238"/>
<path d="M352.328 360.613L352.117 358.143C350.735 358.143 350.759 361.761 348.92 364.993C346.237 369.842 342.934 374.322 339.095 378.319C331.882 385.263 325.348 389.701 322.127 392.828C317.818 396.997 326.074 402.993 338.205 401.833C344.236 401.248 354.811 397.875 357.644 394.315C360.478 390.755 362.059 385.345 364.343 382.746C366.626 380.146 371.673 377.429 373.02 374.338C373.769 372.64 373.125 368.787 372.469 365.508C371.861 362.51 373.02 357.674 371.298 358.119L371.041 359.887C370.385 361.234 367.528 363.494 362.703 364.489C360.256 364.993 353.019 365.508 352.328 360.613Z" fill="#455A64"/>
<path opacity="0.15" d="M358.781 364.782C356.439 364.688 353.909 364.056 352.832 362.077V362.019C353.011 362.87 352.984 363.752 352.754 364.591C352.524 365.43 352.097 366.202 351.509 366.843C349.412 369.384 336.531 387.184 336.531 387.184C336.531 387.184 348.581 372.417 350.9 369.618C354.319 365.496 355.443 364.934 358.757 364.735L358.781 364.782Z" fill="black"/>
<path d="M322.128 392.828C324.845 390.181 329.927 386.598 335.794 381.375C334.623 383.401 332.796 385.017 332.644 385.685C332.246 387.324 337.328 389.362 340.455 390.006C343.581 390.65 346.778 386.317 351.064 382.336C355.35 378.354 359.554 382.617 361.346 387.863C360.346 390.139 359.105 392.302 357.645 394.315C354.811 397.828 344.237 401.248 338.206 401.833C326.075 402.992 317.795 396.997 322.128 392.828Z" fill="#37474F"/>
<path opacity="0.15" d="M355.97 369.478C356.007 369.669 356.117 369.838 356.276 369.95C356.436 370.061 356.632 370.106 356.825 370.075C356.919 370.062 357.01 370.031 357.091 369.982C357.173 369.934 357.245 369.87 357.301 369.793C357.358 369.717 357.399 369.63 357.422 369.538C357.444 369.445 357.448 369.349 357.434 369.255C357.396 369.064 357.287 368.895 357.127 368.784C356.967 368.672 356.771 368.627 356.579 368.658C356.484 368.671 356.394 368.703 356.312 368.751C356.23 368.799 356.159 368.864 356.102 368.94C356.045 369.016 356.004 369.103 355.982 369.196C355.959 369.288 355.955 369.384 355.97 369.478Z" fill="black"/>
<path opacity="0.15" d="M352.575 373.448C352.612 373.639 352.722 373.808 352.882 373.919C353.041 374.031 353.238 374.076 353.43 374.045C353.524 374.032 353.616 374 353.698 373.952C353.78 373.904 353.853 373.84 353.91 373.764C353.968 373.688 354.01 373.601 354.034 373.508C354.058 373.416 354.064 373.32 354.05 373.225C354.011 373.036 353.9 372.868 353.741 372.757C353.583 372.646 353.387 372.6 353.196 372.628C353.1 372.639 353.008 372.67 352.925 372.718C352.842 372.765 352.769 372.829 352.711 372.906C352.653 372.983 352.611 373.07 352.588 373.163C352.565 373.256 352.56 373.353 352.575 373.448Z" fill="black"/>
<path opacity="0.15" d="M349.179 377.406C349.216 377.597 349.326 377.766 349.485 377.877C349.645 377.989 349.841 378.034 350.034 378.003C350.129 377.992 350.221 377.961 350.304 377.913C350.387 377.866 350.46 377.801 350.518 377.725C350.576 377.648 350.618 377.561 350.641 377.468C350.665 377.375 350.669 377.278 350.654 377.183C350.617 376.993 350.507 376.825 350.347 376.715C350.187 376.606 349.99 376.563 349.799 376.598C349.705 376.609 349.614 376.639 349.532 376.686C349.45 376.734 349.377 376.796 349.32 376.872C349.262 376.947 349.22 377.033 349.196 377.125C349.171 377.216 349.166 377.312 349.179 377.406Z" fill="black"/>
<path opacity="0.15" d="M345.796 381.329C345.83 381.519 345.938 381.688 346.095 381.8C346.253 381.911 346.448 381.957 346.639 381.926C346.734 381.914 346.826 381.884 346.91 381.836C346.993 381.788 347.066 381.724 347.123 381.648C347.181 381.571 347.223 381.484 347.247 381.391C347.27 381.298 347.275 381.201 347.26 381.106C347.223 380.915 347.113 380.746 346.953 380.634C346.794 380.523 346.597 380.478 346.405 380.509C346.311 380.522 346.22 380.553 346.138 380.602C346.056 380.65 345.985 380.714 345.928 380.791C345.871 380.867 345.83 380.954 345.808 381.046C345.785 381.139 345.781 381.235 345.796 381.329Z" fill="black"/>
<path opacity="0.15" d="M342.386 385.334C342.401 385.43 342.436 385.521 342.488 385.604C342.539 385.686 342.607 385.757 342.687 385.813C342.766 385.869 342.857 385.908 342.952 385.928C343.047 385.948 343.145 385.949 343.241 385.931C343.334 385.919 343.425 385.889 343.507 385.842C343.588 385.795 343.66 385.732 343.717 385.656C343.774 385.581 343.815 385.495 343.837 385.403C343.86 385.311 343.864 385.216 343.849 385.123C343.815 384.93 343.706 384.759 343.546 384.647C343.385 384.535 343.187 384.491 342.995 384.526C342.901 384.537 342.81 384.567 342.729 384.614C342.647 384.661 342.575 384.725 342.518 384.8C342.462 384.875 342.421 384.962 342.398 385.053C342.375 385.145 342.371 385.24 342.386 385.334Z" fill="black"/>
<path d="M356.744 369.618C356.816 369.611 356.883 369.578 356.931 369.525C356.985 369.47 357.015 369.396 357.015 369.32C357.015 369.243 356.985 369.17 356.931 369.115C354.515 367.149 351.46 366.14 348.348 366.281C348.31 366.284 348.273 366.294 348.239 366.312C348.205 366.33 348.175 366.354 348.151 366.384C348.127 366.413 348.109 366.448 348.099 366.484C348.088 366.521 348.085 366.559 348.09 366.597C348.102 366.674 348.142 366.743 348.203 366.791C348.264 366.839 348.341 366.862 348.418 366.855C351.36 366.742 354.243 367.699 356.533 369.548C356.562 369.574 356.595 369.593 356.631 369.605C356.668 369.617 356.706 369.622 356.744 369.618Z" fill="#263238"/>
<path d="M353.346 373.612C353.417 373.6 353.482 373.568 353.534 373.518C353.587 373.463 353.617 373.39 353.617 373.313C353.617 373.236 353.587 373.163 353.534 373.108C351.123 371.131 348.065 370.117 344.95 370.263C344.908 370.261 344.866 370.269 344.827 370.285C344.787 370.301 344.752 370.326 344.724 370.357C344.695 370.388 344.673 370.425 344.66 370.466C344.648 370.506 344.644 370.549 344.649 370.591C344.654 370.633 344.668 370.673 344.69 370.709C344.713 370.745 344.742 370.776 344.778 370.799C344.813 370.823 344.853 370.838 344.895 370.845C344.937 370.851 344.98 370.848 345.02 370.836C349.412 370.403 353.101 373.506 353.136 373.53C353.194 373.58 353.269 373.609 353.346 373.612Z" fill="#263238"/>
<path d="M349.952 377.581C349.988 377.58 350.024 377.572 350.056 377.555C350.088 377.539 350.117 377.516 350.139 377.488C350.169 377.463 350.192 377.433 350.209 377.399C350.225 377.364 350.233 377.327 350.233 377.289C350.233 377.25 350.225 377.213 350.209 377.178C350.192 377.144 350.169 377.114 350.139 377.089C347.733 375.111 344.679 374.097 341.567 374.244C341.492 374.253 341.423 374.291 341.374 374.35C341.326 374.409 341.303 374.484 341.31 374.56C341.321 374.637 341.362 374.706 341.423 374.754C341.484 374.802 341.56 374.825 341.638 374.818C346.041 374.384 349.718 377.488 349.753 377.511C349.808 377.558 349.879 377.583 349.952 377.581Z" fill="#263238"/>
<path d="M346.566 381.551C346.636 381.537 346.7 381.504 346.754 381.457C346.782 381.431 346.804 381.399 346.819 381.364C346.834 381.329 346.842 381.291 346.842 381.253C346.842 381.214 346.834 381.176 346.819 381.141C346.804 381.106 346.782 381.074 346.754 381.048C344.347 379.073 341.292 378.063 338.182 378.214C338.145 378.218 338.109 378.23 338.077 378.249C338.044 378.267 338.016 378.292 337.993 378.321C337.97 378.35 337.954 378.384 337.944 378.42C337.934 378.456 337.931 378.493 337.936 378.53C337.94 378.567 337.952 378.602 337.971 378.635C337.989 378.667 338.014 378.695 338.043 378.718C338.072 378.741 338.106 378.758 338.142 378.768C338.178 378.778 338.215 378.78 338.252 378.776C341.195 378.664 344.079 379.626 346.367 381.481C346.423 381.526 346.494 381.551 346.566 381.551Z" fill="#263238"/>
<path d="M343.172 385.509C343.208 385.507 343.243 385.497 343.275 385.481C343.307 385.465 343.336 385.443 343.359 385.415C343.385 385.389 343.406 385.358 343.42 385.324C343.434 385.29 343.442 385.253 343.442 385.216C343.442 385.179 343.434 385.143 343.42 385.109C343.406 385.074 343.385 385.043 343.359 385.017C340.948 383.04 337.89 382.027 334.776 382.172C334.699 382.181 334.629 382.218 334.579 382.277C334.529 382.335 334.503 382.411 334.506 382.488C334.52 382.565 334.563 382.635 334.626 382.683C334.689 382.73 334.767 382.753 334.846 382.746C339.237 382.312 342.914 385.415 342.961 385.439C342.989 385.464 343.023 385.484 343.059 385.496C343.095 385.508 343.134 385.512 343.172 385.509Z" fill="#263238"/>
<path d="M394.709 170.651C394.709 170.651 396.149 182.747 396.618 190.066C397.568 202.897 396.457 215.797 393.327 228.277C390.985 238.71 382.483 273.946 381.793 277.635C383.736 285.457 385.142 291.886 383.174 309.311C380.153 336.104 372.424 365.016 372.424 365.016C370.293 368.354 353.583 367.862 348.512 363.599C348.512 363.599 346.908 285.434 346.17 269.087C345.538 254.882 348.945 207.913 348.945 207.913C348.945 207.913 326.204 200.523 322.48 175.698L394.709 170.651Z" fill="#263238"/>
<path d="M335.548 92.8015C327.585 95.4597 324.212 99.1835 316.659 109.371C309.294 119.313 298.579 133.846 298.579 133.846L259.479 129.489L263.425 149.221C263.425 149.221 291.728 156.317 300.956 157.512C307.865 158.414 311.495 154.678 316.039 149.315C324.13 139.642 334.459 125.367 334.459 125.367L335.548 92.8015Z" fill="#F0F0F0"/>
<path d="M375.17 86.9111C375.17 86.9111 351.82 85.9743 337.698 91.4781C334.559 92.6491 326.386 99.9211 324.594 120.437C322.392 145.532 322.252 178.11 322.252 178.11C322.873 180.253 330.051 192.162 351.598 195.5C373.847 198.931 386.553 197.362 397.572 188.766C397.572 169.269 397.63 167.922 397.689 152.816C397.689 143.061 400.64 124.278 402.291 116.116C403.462 110.378 402.291 100.893 398.708 98.551C394.937 96.1153 380.932 91.1034 380.932 91.1034C378.741 90.1213 376.779 88.6935 375.17 86.9111Z" fill="#FAFAFA"/>
<path d="M371.191 87.9065C372.842 87.9065 374.071 87.9065 374.704 87.9065C376.343 89.6566 378.303 91.0758 380.477 92.0871H380.535C380.676 92.0871 394.471 97.0756 398.101 99.4176C401.122 101.373 402.363 110.25 401.227 115.882C399.635 123.751 396.637 142.663 396.543 152.793C396.543 157.828 396.543 161.341 396.543 164.503C396.543 170.709 396.473 175.616 396.485 188.228C389.224 193.743 381.379 196.109 370.348 196.109C364.108 196.018 357.884 195.459 351.728 194.434C329.901 191.05 323.835 179.129 323.273 177.899C323.273 175.124 323.554 144.256 325.615 120.519C327.676 96.7828 337.957 92.4969 338.063 92.415C348.602 88.293 364.692 87.8597 371.132 87.8597M371.132 86.7941C363.848 86.7941 348.18 87.321 337.676 91.4781C334.538 92.6492 326.364 99.9212 324.573 120.437C322.371 145.532 322.23 178.11 322.23 178.11C322.851 180.253 330.029 192.162 351.576 195.5C357.77 196.531 364.034 197.095 370.312 197.186C381.765 197.186 390.032 194.586 397.504 188.766C397.504 169.269 397.562 167.922 397.621 152.816C397.621 143.061 400.572 124.278 402.223 116.116C403.394 110.378 402.223 100.893 398.639 98.5511C394.869 96.1154 380.863 91.1034 380.863 91.1034C378.698 90.113 376.76 88.6857 375.172 86.9112C375.172 86.9112 373.673 86.8409 371.202 86.8409L371.132 86.7941Z" fill="#E0E0E0"/>
<path d="M381.095 39.5083C387.22 47.319 384.608 55.9026 381.704 64.533C378.355 74.3461 378.004 77.5664 372.125 79.7562C375.264 48.5134 362.406 82.754 338.728 56.9214C334.442 52.2373 334.512 40.0938 340.379 34.2387C348.682 25.9245 369.081 24.7535 381.095 39.5083Z" fill="#37474F"/>
<path d="M381.179 74.8379C376.495 76.4774 374.364 73.14 374.364 73.14L373.614 85.3771C373.614 85.3771 379.832 93.2229 373.239 95.12C356.997 99.804 355.826 103.118 350.627 108.634C348.215 103.949 349.725 96.373 349.608 93.5977L350.205 84.4871C348.338 84.5512 346.47 84.3581 344.655 83.9133C339.971 82.5784 336.821 79.1004 335.825 72.6716C334.654 64.9077 335.825 52.6823 339.128 42.2251C344.175 38.712 360.756 39.1804 370.745 46.1129C369.867 54.7433 372.127 56.2773 371.916 60.0011C371.67 64.1934 371.916 65.1653 373.146 65.8562C374.375 66.5471 375.652 64.6032 376.237 63.3971C377.233 61.3829 378.064 60.0948 380.137 59.6967C382.209 59.2985 384.458 59.7786 386.167 62.6359C388.755 66.9921 384.54 73.6552 381.179 74.8379Z" fill="#FFA8A7"/>
<path d="M357.08 57.5654C357.056 57.9397 357.143 58.3126 357.33 58.6376C357.517 58.9627 357.796 59.2254 358.131 59.3931C358.467 59.5608 358.844 59.6259 359.216 59.5804C359.589 59.535 359.939 59.3808 360.224 59.1373C360.51 58.8938 360.717 58.5717 360.82 58.2112C360.923 57.8507 360.918 57.4677 360.805 57.1102C360.692 56.7527 360.476 56.4364 360.184 56.2008C359.892 55.9652 359.538 55.8207 359.164 55.7855C358.91 55.7647 358.655 55.7943 358.413 55.8726C358.17 55.9509 357.946 56.0764 357.752 56.2419C357.558 56.4073 357.399 56.6094 357.284 56.8365C357.168 57.0637 357.099 57.3114 357.08 57.5654Z" fill="#263238"/>
<path d="M356.261 69.5918L349.316 71.0087C349.393 71.4699 349.56 71.9112 349.809 72.3069C350.058 72.7025 350.383 73.0445 350.766 73.3128C351.149 73.5811 351.581 73.7702 352.038 73.8693C352.495 73.9683 352.967 73.9751 353.427 73.8894C354.363 73.6784 355.181 73.1129 355.71 72.3116C356.238 71.5103 356.435 70.5355 356.261 69.5918Z" fill="#B16668"/>
<path d="M355.476 71.1024C354.697 71.1027 353.944 71.3889 353.361 71.9069C352.779 72.4249 352.406 73.1386 352.314 73.9128C352.683 73.9719 353.058 73.9719 353.427 73.9128C354.083 73.7698 354.686 73.4479 355.169 72.9828C355.653 72.5176 355.998 71.9275 356.167 71.278C355.944 71.1946 355.712 71.1357 355.476 71.1024Z" fill="#F28F8F"/>
<path d="M340.121 51.3473L345.309 48.7594C345.145 48.4226 344.915 48.122 344.633 47.8753C344.351 47.6287 344.022 47.4409 343.666 47.323C343.311 47.2052 342.935 47.1597 342.561 47.1892C342.188 47.2186 341.824 47.3225 341.491 47.4947C340.814 47.8399 340.294 48.4317 340.039 49.1482C339.784 49.8648 339.814 50.6517 340.121 51.3473Z" fill="#263238"/>
<path d="M358.777 50.7384L363.379 54.31C363.615 54.0163 363.789 53.6783 363.892 53.316C363.994 52.9537 364.023 52.5745 363.976 52.2009C363.929 51.8274 363.807 51.4671 363.618 51.1414C363.429 50.8157 363.177 50.5313 362.876 50.3051C362.27 49.8312 361.504 49.6114 360.739 49.6923C359.974 49.7732 359.271 50.1483 358.777 50.7384Z" fill="#263238"/>
<path d="M341.048 55.7854C341.027 56.1611 341.117 56.5348 341.306 56.8599C341.496 57.185 341.776 57.4473 342.114 57.6143C342.451 57.7812 342.83 57.8453 343.203 57.7988C343.576 57.7522 343.928 57.597 344.214 57.3523C344.5 57.1077 344.708 56.7845 344.811 56.4228C344.915 56.0611 344.91 55.6768 344.798 55.3178C344.685 54.9588 344.469 54.6408 344.177 54.4033C343.885 54.1658 343.53 54.0194 343.156 53.9821C342.638 53.9463 342.127 54.1153 341.733 54.4526C341.339 54.7899 341.093 55.2685 341.048 55.7854Z" fill="#263238"/>
<path d="M353.905 54.1226L350.697 66.9101L344.596 64.0646C346.68 59.7318 350.053 57.015 353.905 54.1226Z" fill="#F28F8F"/>
<path d="M350.205 84.4871C355.381 84.4871 362.641 83.3161 365.791 80.8101C368.594 78.678 370.691 75.7527 371.81 72.4139C371.654 74.5947 371.067 76.7228 370.082 78.6747C369.097 80.6267 367.734 82.3635 366.072 83.7845C361.587 87.7894 349.994 88.1173 349.994 88.1173L350.205 84.4871Z" fill="#F28F8F"/>
<path d="M390.399 94.7218C390.399 94.7218 387.518 107.498 388.935 117.24C390.352 126.983 396.09 131.902 400.259 136.785C404.427 141.668 411.231 148.062 419.323 148.495L420.845 123.26C417.627 118.201 414.107 113.34 410.306 108.704C404.662 101.783 404.041 99.3356 390.399 94.7218Z" fill="#F0F0F0"/>
<path opacity="0.1" d="M390.399 94.7218C390.399 94.7218 387.518 107.498 388.935 117.24C390.352 126.983 396.09 131.902 400.259 136.785C404.427 141.668 411.231 148.062 419.323 148.495L420.845 123.26C417.627 118.201 414.107 113.34 410.306 108.704C404.662 101.783 404.041 99.3356 390.399 94.7218Z" fill="black"/>
<path d="M350.58 108.634C353.074 105.542 356.868 99.1131 359.07 97.6025C361.271 96.0919 372.139 90.916 373.602 85.6113L373.813 82.5081C375.312 81.9226 375.675 85.8338 380.945 91.1151C380.861 95.4474 379.355 99.6321 376.659 103.024C375.231 105.095 373.299 106.767 371.045 107.884C368.791 109.001 366.29 109.525 363.777 109.406C363.777 109.406 360.1 102.287 359.093 101.924C358.086 101.561 353.812 106.35 350.58 108.634Z" fill="#F0F0F0"/>
<path d="M350.583 108.634C349.213 105.882 349.412 95.5181 349.412 95.5181L349.951 87.8011C349.951 87.8011 347.609 87.6606 345.747 90.7521C341.566 97.8953 341.496 102.755 342.081 104.125C343.733 101.104 346.988 99.6635 347.55 100.495C348.112 101.326 348.885 106.139 350.583 108.634Z" fill="#F0F0F0"/>
<path d="M403.279 89.5929C401.336 86.3664 400.062 82.7823 399.532 79.0537C399.052 74.7443 396.276 70.4584 395.363 68.7253C394.449 66.9922 392.353 64.3457 390.808 61.8748C389.262 59.404 388.805 58.7248 386.205 57.9168C382.692 56.8043 379.859 55.8558 378.371 56.09C376.884 56.3242 376.802 57.261 377.88 58.7131C378.957 60.1652 381.51 60.7975 382.294 61.1488C383.079 61.5001 384.742 62.5189 384.742 62.5189L387.447 67.9407C385.09 68.0259 382.742 68.2764 380.421 68.6902C379.25 69.1469 377.868 71.9222 378.137 73.585C378.137 73.585 375.795 74.756 376.392 76.9107C376.392 76.9107 374.893 78.4096 375.584 79.8968C376.386 81.4139 377.357 82.8359 378.477 84.1359C379.097 84.8268 381.838 85.3069 381.838 85.3069C382.801 87.3307 384.029 89.217 385.491 90.9161C387.259 92.6375 388.559 92.7195 390.304 96.0569L403.279 89.5929Z" fill="#FFA8A7"/>
<path d="M384.858 68.1163C383.582 67.3552 383.406 66.395 382.059 66.7111C380.713 67.0273 381.005 68.5496 381.005 68.5496L384.858 68.1163Z" fill="#F28F8F"/>
<path d="M378.171 73.7372C379.116 73.1309 380.135 72.6506 381.204 72.3086C382.2 71.9807 384.249 71.5591 384.249 71.5591C382.871 71.488 381.489 71.6222 380.15 71.9573C379.463 72.1266 378.793 72.3579 378.148 72.6482C378.107 72.963 378.107 73.2819 378.148 73.5967L378.171 73.7372Z" fill="#F28F8F"/>
<path d="M377.727 75.6928C377.25 75.8193 376.784 75.9838 376.333 76.1846C376.32 76.5037 376.351 76.823 376.427 77.1332C377.317 76.1729 380.326 75.3766 380.326 75.3766C379.451 75.3868 378.579 75.4928 377.727 75.6928Z" fill="#F28F8F"/>
<path d="M382.259 86.232C381.689 84.5373 380.956 82.9019 380.07 81.3489C379.778 80.913 379.33 80.6049 378.819 80.4874C378.308 80.3699 377.771 80.4518 377.318 80.7165C376.873 81.2083 378.746 81.3957 379.25 81.7002C380.481 83.046 381.497 84.5748 382.259 86.232Z" fill="#F28F8F"/>
<path d="M389.085 68.0226C389.085 68.0226 388.242 66.3949 386.673 63.7952C385.104 61.1956 385.186 61.5469 383.418 60.9379C381.649 60.329 378.277 59.2985 377.516 58.0455C377.647 58.2825 377.796 58.5095 377.961 58.7247C378.991 60.1065 381.591 60.8091 382.375 61.1604C383.16 61.5117 384.823 62.5305 384.823 62.5305L387.61 68.1046L389.085 68.0226Z" fill="#F28F8F"/>
<path d="M403.278 89.5928C408.395 97.79 422.506 117.768 425.363 125.344C427.354 130.578 426.534 142.031 423.243 145.79C419.953 149.549 412.529 146.785 407.037 140.485C402.294 135.04 399.331 123.072 396.497 114.454C393.664 105.835 390.232 96.092 390.232 96.092L403.278 89.5928Z" fill="#FFA8A7"/>
<path d="M392.201 102.954C392.201 102.954 398.572 103.715 402.74 101.35C405.088 100.147 406.952 98.1757 408.022 95.7641C408.022 95.7641 419.006 112.451 422.074 117.545C425.142 122.639 427.706 126.14 427.144 133.74C426.582 141.34 425.809 148.062 420.352 148.518C414.895 148.975 408.794 144.139 405.551 140.321C402.307 136.504 396.019 118.599 392.201 102.954Z" fill="#F0F0F0"/>
<path d="M403.278 89.5928C402.107 87.5486 401.127 85.4004 400.351 83.1756C399.543 80.9507 399.566 78.4915 398.84 76.29C397.23 71.871 394.96 67.7215 392.107 63.9826C390.678 62.2027 389.87 59.685 387.739 58.6311C386.392 58.151 375.865 54.0407 377.586 57.8582C379.05 60.575 382.762 60.575 384.952 62.4369L387.645 67.8704C387.774 68.1515 387.821 68.0812 387.505 68.1046C385.381 68.1857 383.263 68.3733 381.158 68.6667C380.069 68.6667 379.436 69.6621 378.956 70.5755C378.425 71.5141 378.196 72.5935 378.3 73.6669C377.672 73.9234 377.152 74.3913 376.831 74.9899C376.511 75.5885 376.409 76.2802 376.544 76.9458C376.173 77.2715 375.892 77.687 375.728 78.1525C375.564 78.618 375.522 79.1178 375.607 79.604C376.011 80.5112 376.514 81.3712 377.106 82.1685C377.611 83.0134 378.261 83.7626 379.027 84.3818C379.946 84.7974 380.914 85.0964 381.907 85.2717C382.863 87.3886 384.147 89.341 385.713 91.0566C387.47 92.5203 389.39 93.9021 390.339 96.0919C389.355 93.9021 387.434 92.5789 385.654 91.1385C384.082 89.4407 382.782 87.509 381.802 85.4123C380.826 85.2743 379.875 84.9942 378.98 84.5808C378.178 83.9504 377.495 83.1809 376.966 82.3091C375.666 80.5057 374.471 78.796 376.368 76.8287V76.9458C376.226 76.2425 376.326 75.5116 376.654 74.8731C376.982 74.2347 377.517 73.7267 378.172 73.4327L378.101 73.5733C378.054 72.7527 378.171 71.9309 378.447 71.1566C378.722 70.3822 379.15 69.6709 379.706 69.0648C380.094 68.6524 380.618 68.3945 381.181 68.3388C383.301 68.0295 385.435 67.8302 387.575 67.7416L387.434 67.9758L384.718 62.5657C382.739 61.0902 378.663 60.6101 377.364 57.987C375.49 53.3732 386.275 57.7411 387.903 58.3383C388.968 58.9298 389.835 59.8217 390.397 60.9028C393.571 65.8445 397.294 70.5403 399.074 76.2315C399.777 78.4915 399.718 80.9156 400.491 83.1405C401.22 85.3724 402.153 87.5323 403.278 89.5928Z" fill="#B16668"/>
<path d="M336.823 167.032C336.67 162.688 333.637 157.605 330.054 155.662C328.725 154.912 327.187 154.616 325.675 154.818C324.07 154.979 322.453 154.702 320.993 154.017C319.534 153.333 318.286 152.266 317.384 150.931C314.48 146.949 314.398 141.246 314.281 132.616C314.281 130.274 314.222 127.674 314.152 124.852C301.13 117.065 287.535 109.254 284.455 110.566L284.314 110.636C282.651 111.549 283.834 114.828 285.392 117.451C286.526 119.1 287.223 121.01 287.417 123.002C287.57 126.749 283.366 127.463 278.049 124.63C272.733 121.796 268.388 116.432 268.248 112.709C268.203 112.025 268.338 111.342 268.637 110.726C268.937 110.11 269.392 109.582 269.958 109.196C271.433 108.177 272.44 105.975 270.473 103.106C267.252 98.4222 257.065 93.5157 244.09 87.3093V87.4029L244.172 89.6864C244.172 90.4242 244.172 91.1385 244.172 91.8528C244.558 102.79 244.64 110.589 241.537 111.596C239.195 112.404 235.588 109.383 233.223 106.537C232.005 104.968 230.504 103.641 228.796 102.626C228.18 102.218 227.47 101.972 226.733 101.911C225.997 101.85 225.256 101.975 224.581 102.275C223.269 102.989 222.484 104.617 222.566 106.959C222.719 111.315 225.74 116.409 229.335 118.33C230.668 119.081 232.209 119.38 233.726 119.184C235.328 119.021 236.944 119.296 238.401 119.978C239.859 120.661 241.105 121.726 242.005 123.06C245.518 127.745 245.694 134.993 246.092 146.891L246.186 149.725C258.025 156.751 269.243 162.98 272.475 161.575L272.604 161.517C274.267 160.627 273.084 157.324 271.527 154.725C270.408 153.059 269.712 151.146 269.501 149.151C269.384 145.415 273.564 144.701 278.869 147.546C284.174 150.392 288.553 155.744 288.67 159.456C288.711 160.139 288.576 160.821 288.276 161.436C287.977 162.052 287.524 162.579 286.961 162.969C285.497 163.988 284.478 166.189 286.469 169.046C289.408 173.297 300.135 178.941 312.559 185.441C313.73 186.073 314.983 186.705 316.236 187.349C316.119 184.785 316.002 182.314 315.861 179.902C315.346 170.206 314.971 163.215 317.77 162.254C320.112 161.446 323.719 164.479 326.084 167.313C327.321 168.902 328.852 170.237 330.593 171.248C331.207 171.662 331.917 171.911 332.655 171.973C333.393 172.034 334.134 171.906 334.809 171.599C336.12 171.037 336.905 169.374 336.823 167.032Z" fill="#34A573"/>
<path opacity="0.3" d="M336.823 167.032C336.67 162.688 333.637 157.605 330.054 155.662C328.725 154.912 327.187 154.616 325.675 154.818C324.07 154.979 322.453 154.702 320.993 154.017C319.534 153.333 318.286 152.266 317.384 150.931C314.48 146.949 314.398 141.246 314.281 132.616C314.281 130.274 314.222 127.674 314.152 124.852C301.13 117.065 287.535 109.254 284.455 110.566L284.314 110.636C282.651 111.549 283.834 114.828 285.392 117.451C286.526 119.1 287.223 121.01 287.417 123.002C287.57 126.749 283.366 127.463 278.049 124.63C272.733 121.796 268.388 116.432 268.248 112.709C268.203 112.025 268.338 111.342 268.637 110.726C268.937 110.11 269.392 109.582 269.958 109.196C271.433 108.177 272.44 105.975 270.473 103.106C267.252 98.4222 257.065 93.5157 244.09 87.3093V87.4029L244.172 89.6864C244.172 90.4242 244.172 91.1385 244.172 91.8528C244.558 102.79 244.64 110.589 241.537 111.596C239.195 112.404 235.588 109.383 233.223 106.537C232.005 104.968 230.504 103.641 228.796 102.626C228.18 102.218 227.47 101.972 226.733 101.911C225.997 101.85 225.256 101.975 224.581 102.275C223.269 102.989 222.484 104.617 222.566 106.959C222.719 111.315 225.74 116.409 229.335 118.33C230.668 119.081 232.209 119.38 233.726 119.184C235.328 119.021 236.944 119.296 238.401 119.978C239.859 120.661 241.105 121.726 242.005 123.06C245.518 127.745 245.694 134.993 246.092 146.891L246.186 149.725C258.025 156.751 269.243 162.98 272.475 161.575L272.604 161.517C274.267 160.627 273.084 157.324 271.527 154.725C270.408 153.059 269.712 151.146 269.501 149.151C269.384 145.415 273.564 144.701 278.869 147.546C284.174 150.392 288.553 155.744 288.67 159.456C288.711 160.139 288.576 160.821 288.276 161.436C287.977 162.052 287.524 162.579 286.961 162.969C285.497 163.988 284.478 166.189 286.469 169.046C289.408 173.297 300.135 178.941 312.559 185.441C313.73 186.073 314.983 186.705 316.236 187.349C316.119 184.785 316.002 182.314 315.861 179.902C315.346 170.206 314.971 163.215 317.77 162.254C320.112 161.446 323.719 164.479 326.084 167.313C327.321 168.902 328.852 170.237 330.593 171.248C331.207 171.662 331.917 171.911 332.655 171.973C333.393 172.034 334.134 171.906 334.809 171.599C336.12 171.037 336.905 169.374 336.823 167.032Z" fill="white"/>
<path d="M236.877 127.733C235.108 125.262 235.272 124.934 236.221 123.681C236.942 122.677 237.891 121.86 238.991 121.296C240.091 120.732 241.309 120.438 242.544 120.437C244.722 120.508 246.912 120.437 248.025 121.035C249.137 121.632 248.2 123.974 245.366 124.548C240.917 125.543 240.94 126.749 240.94 126.749C242.838 126.316 244.757 125.979 246.69 125.742C248.891 125.895 251.077 126.228 253.224 126.737C255.109 127.03 255.484 129.454 252.299 130.251L255.742 130.801C258.142 131.187 258.962 132.475 257.077 133.963C256.458 134.471 255.687 134.759 254.887 134.782C254.887 134.782 257.463 134.782 257.51 135.637C257.662 138.085 256.081 138.729 250.894 140.228C248.939 140.66 247.211 141.793 246.034 143.413L246.151 146.668C246.151 146.668 243.914 145.005 242.146 143.787C240.846 142.886 239.734 141.879 240.319 139.853C240.319 139.853 237.497 139.853 237.322 138.155C237.286 136.871 237.521 135.594 238.012 134.408C237.504 134.121 237.088 133.696 236.813 133.181C236.537 132.667 236.413 132.085 236.455 131.504C236.443 130.396 236.801 129.316 237.474 128.435L236.877 127.733Z" fill="#FFA8A7"/>
<path d="M252.3 130.344C251.271 130.135 250.224 130.021 249.173 130.005C248.119 130.166 247.096 130.49 246.141 130.965C244.243 131.787 242.418 132.766 240.684 133.892C242.69 133.363 244.649 132.666 246.539 131.808C247.422 131.362 248.343 130.994 249.291 130.707C250.192 130.555 251.281 130.543 252.3 130.344Z" fill="#F28F8F"/>
<path d="M254.887 134.876C253.788 134.567 252.631 134.531 251.515 134.771C250.409 135.013 249.327 135.353 248.283 135.789C246.229 136.638 244.268 137.694 242.428 138.939C244.549 138.271 246.632 137.489 248.669 136.597C250.62 135.649 252.727 135.066 254.887 134.876Z" fill="#F28F8F"/>
<path d="M446.78 22.7628C439.858 25.5748 433.926 30.3769 429.733 36.5615C425.541 42.746 423.278 50.0351 423.229 57.5064C423.181 64.9777 425.35 72.2955 429.461 78.5339C433.573 84.7722 439.443 89.6509 446.328 92.5524C453.213 95.454 460.804 96.2481 468.14 94.8343C475.477 93.4204 482.229 89.8622 487.543 84.6098C492.856 79.3575 496.493 72.6469 497.991 65.3273C499.49 58.0078 498.784 50.4081 495.963 43.4898C492.174 34.2319 484.871 26.8526 475.653 22.9678C466.434 19.083 456.053 19.0093 446.78 22.7628ZM448.057 25.9128C454.353 23.3503 461.267 22.7123 467.926 24.0796C474.584 25.4468 480.688 28.7578 485.465 33.5939C490.242 38.43 493.477 44.5741 494.763 51.2491C496.048 57.924 495.324 64.8302 492.685 71.0942C490.045 77.3582 485.607 82.6987 479.932 86.4405C474.256 90.1822 467.599 92.157 460.802 92.1153C454.004 92.0736 447.372 90.0171 441.743 86.206C436.115 82.3949 431.742 77.0002 429.18 70.7043C425.749 62.2608 425.811 52.801 429.35 44.4027C432.89 36.0043 439.618 29.3542 448.057 25.9128Z" fill="#455A64"/>
<path d="M448.054 25.9128C441.758 28.4765 436.364 32.8496 432.554 38.4791C428.743 44.1086 426.688 50.7416 426.647 57.5393C426.607 64.3371 428.583 70.9941 432.326 76.6687C436.069 82.3432 441.41 86.7804 447.675 89.419C453.94 92.0576 460.847 92.7791 467.522 91.4924C474.197 90.2056 480.34 86.9683 485.175 82.19C490.01 77.4116 493.32 71.3067 494.685 64.6474C496.05 57.9881 495.41 51.0734 492.846 44.7779C489.399 36.3431 482.748 29.6198 474.351 26.0831C465.954 22.5464 456.496 22.4851 448.054 25.9128Z" fill="white"/>
<path d="M417.176 77.8007L430.561 77.5782L425.374 64.8258L415.631 74.0183C415.309 74.3217 415.087 74.7154 414.993 75.1477C414.899 75.5799 414.939 76.0303 415.106 76.4397C415.273 76.849 415.561 77.1982 415.93 77.4411C416.3 77.684 416.734 77.8094 417.176 77.8007Z" fill="#455A64"/>
<path d="M466.185 72.2968H455.845C455.743 72.2984 455.642 72.2795 455.548 72.2412C455.453 72.2029 455.367 72.1461 455.295 72.074C455.223 72.0019 455.166 71.9161 455.128 71.8216C455.09 71.7271 455.071 71.6259 455.072 71.524C455.071 71.4215 455.09 71.3197 455.128 71.2246C455.166 71.1295 455.223 71.0429 455.295 70.9699C455.366 70.8969 455.452 70.8389 455.547 70.7993C455.641 70.7597 455.743 70.7394 455.845 70.7394H466.185C466.288 70.7394 466.389 70.7597 466.484 70.7993C466.578 70.8389 466.664 70.8969 466.736 70.9699C466.808 71.0429 466.865 71.1295 466.903 71.2246C466.941 71.3197 466.96 71.4215 466.958 71.524C466.96 71.6259 466.941 71.7271 466.903 71.8216C466.864 71.9161 466.807 72.0019 466.735 72.074C466.663 72.1461 466.577 72.2029 466.483 72.2412C466.388 72.2795 466.287 72.2984 466.185 72.2968Z" fill="#455A64"/>
<path d="M461.021 80.3769C459.443 80.3769 457.93 79.7501 456.815 78.6345C455.699 77.5189 455.072 76.0058 455.072 74.4281C455.071 74.3262 455.09 74.225 455.128 74.1305C455.166 74.036 455.223 73.9502 455.295 73.8781C455.367 73.806 455.453 73.7491 455.548 73.7108C455.642 73.6726 455.743 73.6537 455.845 73.6552H466.185C466.287 73.6537 466.388 73.6726 466.483 73.7108C466.577 73.7491 466.663 73.806 466.735 73.8781C466.807 73.9502 466.864 74.036 466.903 74.1305C466.941 74.225 466.96 74.3262 466.958 74.4281C466.958 76.0038 466.333 77.5151 465.22 78.6304C464.107 79.7457 462.597 80.3738 461.021 80.3769Z" fill="#455A64"/>
<path d="M472.062 39.5435C470.495 38.0419 468.638 36.8766 466.604 36.1194C464.57 35.3622 462.403 35.0291 460.235 35.1404C456.192 35.3874 452.388 37.1383 449.571 40.0487C446.753 42.9591 445.127 46.8183 445.012 50.8672C444.966 53.6957 445.67 56.4859 447.052 58.9542C448.434 61.4224 450.445 63.4806 452.881 64.9194C453.525 65.2885 454.061 65.8202 454.435 66.4614C454.809 67.1026 455.008 67.8307 455.012 68.573C455.009 68.6651 455.025 68.757 455.058 68.8429C455.092 68.9288 455.142 69.007 455.207 69.0728C455.271 69.1385 455.349 69.1904 455.434 69.2253C455.52 69.2601 455.611 69.2773 455.703 69.2756H466.324C466.511 69.2756 466.689 69.2016 466.821 69.0698C466.953 68.9381 467.027 68.7594 467.027 68.573C467.034 67.8357 467.232 67.1129 467.602 66.4747C467.971 65.8366 468.499 65.3048 469.135 64.9311C471.542 63.5126 473.539 61.4911 474.927 59.066C476.315 56.6408 477.047 53.8958 477.051 51.1014C477.051 48.9366 476.609 46.7946 475.751 44.807C474.893 42.8194 473.638 41.0282 472.062 39.5435Z" fill="#34A573"/>
<g opacity="0.35">
<path d="M472.062 39.5435C470.495 38.0419 468.638 36.8766 466.604 36.1194C464.57 35.3622 462.403 35.0291 460.235 35.1404C456.192 35.3874 452.388 37.1383 449.571 40.0487C446.753 42.9591 445.127 46.8183 445.012 50.8672C444.966 53.6957 445.67 56.4859 447.052 58.9542C448.434 61.4224 450.445 63.4806 452.881 64.9194C453.525 65.2885 454.061 65.8202 454.435 66.4614C454.809 67.1026 455.008 67.8307 455.012 68.573C455.009 68.6651 455.025 68.757 455.058 68.8429C455.092 68.9288 455.142 69.007 455.207 69.0728C455.271 69.1385 455.349 69.1904 455.434 69.2253C455.52 69.2601 455.611 69.2773 455.703 69.2756H466.324C466.511 69.2756 466.689 69.2016 466.821 69.0698C466.953 68.9381 467.027 68.7594 467.027 68.573C467.034 67.8357 467.232 67.1129 467.602 66.4747C467.971 65.8366 468.499 65.3048 469.135 64.9311C471.542 63.5126 473.539 61.4911 474.927 59.066C476.315 56.6408 477.047 53.8958 477.051 51.1014C477.051 48.9366 476.609 46.7946 475.751 44.807C474.893 42.8194 473.638 41.0282 472.062 39.5435Z" fill="white"/>
</g>
<path d="M469.874 54.4154C469.771 54.0894 469.565 53.8062 469.285 53.6095C469.006 53.4127 468.67 53.3132 468.328 53.3263C467.744 53.3978 467.185 53.6017 466.691 53.9223C466.198 54.2429 465.785 54.6719 465.483 55.1766L465.366 55.3405H465.166C464.322 55.0493 463.531 54.6221 462.824 54.0758C462.429 53.7812 462.064 53.4478 461.735 53.0804L461.571 52.9282L461.7 52.7291C462.162 52.1866 462.493 51.546 462.67 50.8561C462.846 50.1662 462.863 49.4451 462.719 48.7477C462.597 48.3991 462.37 48.097 462.069 47.8832C461.768 47.6694 461.408 47.5546 461.039 47.5546C460.669 47.5546 460.309 47.6694 460.008 47.8832C459.707 48.097 459.48 48.3991 459.358 48.7477C459.221 49.4453 459.241 50.1647 459.418 50.8535C459.594 51.5423 459.922 52.1831 460.377 52.7291L460.506 52.9282L460.342 53.0804C460.013 53.4478 459.648 53.7812 459.253 54.0758C458.546 54.6221 457.755 55.0493 456.911 55.3405H456.712L456.595 55.1766C456.292 54.6719 455.879 54.2429 455.386 53.9223C454.893 53.6017 454.333 53.3978 453.749 53.3263C453.408 53.3132 453.071 53.4127 452.792 53.6095C452.513 53.8062 452.306 54.0894 452.203 54.4154C452.114 54.6885 452.12 54.9842 452.223 55.2528C452.325 55.5215 452.517 55.7467 452.765 55.8909C453.406 56.2795 454.148 56.4671 454.897 56.4295C455.313 56.4279 455.728 56.3926 456.138 56.3241H456.337L456.431 56.5115C456.79 57.1736 457.088 57.8674 457.321 58.5842C458.12 61.5667 458.425 64.6603 458.222 67.7416C458.222 68.2685 458.222 68.7838 458.222 69.2873H459.054V67.6713C459.261 64.5183 458.944 61.3528 458.117 58.3032C457.902 57.6358 457.635 56.9859 457.321 56.3593L457.18 56.0782L457.485 55.9611C458.324 55.653 459.113 55.2229 459.827 54.6847C460.21 54.389 460.574 54.0682 460.916 53.7245L461.115 53.5137L461.326 53.7245C461.667 54.0686 462.03 54.3894 462.415 54.6847C463.127 55.2254 463.916 55.6557 464.757 55.9611L465.061 56.0782L464.921 56.3593C464.606 56.9859 464.34 57.6358 464.124 58.3032C463.298 61.3529 462.981 64.5183 463.187 67.6713C463.187 68.1983 463.187 68.7135 463.187 69.2288H464.007C464.007 68.7252 464.007 68.21 464.007 67.6362C463.806 64.5704 464.11 61.4924 464.909 58.5257C465.141 57.8089 465.439 57.115 465.799 56.453L465.893 56.2656H466.092C466.502 56.3346 466.917 56.3698 467.333 56.371C468.081 56.4085 468.824 56.2209 469.464 55.8323C469.674 55.6698 469.826 55.4452 469.9 55.1906C469.973 54.936 469.964 54.6646 469.874 54.4154ZM455.248 55.5864H454.885C454.294 55.6191 453.706 55.4852 453.187 55.2C453.092 55.1461 453.017 55.0642 452.971 54.9657C452.925 54.8671 452.91 54.7567 452.929 54.6496C452.979 54.4871 453.083 54.3465 453.223 54.2507C453.364 54.155 453.533 54.1098 453.702 54.1226C454.386 54.2122 455.008 54.5651 455.435 55.1063L455.845 55.5396L455.248 55.5864ZM461.009 52.1905L460.775 51.7923C460.476 51.3861 460.263 50.9233 460.148 50.4322C460.033 49.941 460.02 49.4317 460.108 48.935C460.164 48.7436 460.284 48.5774 460.448 48.4643C460.612 48.3512 460.811 48.2983 461.009 48.3144C461.21 48.2977 461.41 48.3502 461.576 48.4632C461.742 48.5761 461.864 48.7427 461.923 48.935C462.011 49.4317 461.997 49.941 461.882 50.4322C461.768 50.9233 461.554 51.3861 461.255 51.7923L461.009 52.1905ZM468.855 55.2234C468.332 55.5084 467.74 55.6422 467.146 55.6098H466.794H466.197L466.607 55.1766C467.034 54.6354 467.656 54.2824 468.34 54.1929C468.509 54.1822 468.677 54.2282 468.817 54.3236C468.957 54.4191 469.061 54.5585 469.113 54.7199C469.195 54.9775 468.925 55.1531 468.855 55.2234Z" fill="#FAFAFA"/>
</svg>
