<svg width="570" height="570" viewBox="0 0 570 570" fill="none" xmlns="http://www.w3.org/2000/svg">
<path d="M89.1296 276.511C-19.0491 338.961 -19.0374 440.231 89.1296 502.681C197.297 565.132 372.692 565.132 480.87 502.681C589.049 440.231 589.037 338.961 480.87 276.511C372.703 214.06 197.308 214.06 89.1296 276.511Z" fill="#F5F5F5"/>
<path d="M135.231 480.233L142.327 476.134L100.814 472.282L107.501 496.241L114.597 492.154L201.768 542.156C219.142 545.287 236.681 547.414 254.3 548.527L135.231 480.233Z" fill="#EBEBEB"/>
<path d="M255.472 306.524L530.193 464.108C534.877 458.961 539.182 453.482 543.074 447.714L276.106 294.673L283.202 290.575L241.678 286.663L248.364 310.622L255.472 306.524Z" fill="#EBEBEB"/>
<path d="M91.0135 392.816L49.5126 388.952L56.1874 412.946L63.2837 408.847L307.687 548.972C319.784 548.409 331.822 547.391 343.731 545.904L83.9171 396.915L91.0135 392.816Z" fill="#EBEBEB"/>
<path d="M518.037 369.958L525.063 365.871L483.562 362.007L490.284 386.013L497.369 381.914L558.028 416.705C560.118 409.685 561.391 402.447 561.822 395.135L518.037 369.958Z" fill="#EBEBEB"/>
<path d="M511.982 481.298L428.383 433.345L435.468 429.247L393.967 425.394L400.653 449.353L407.738 445.266L493.843 494.648C500.12 490.52 506.174 486.064 511.982 481.298Z" fill="#EBEBEB"/>
<path d="M440.938 346.948C440.938 346.948 436.804 312.344 450.657 279.345C458.398 260.901 471.138 252.809 478.762 252.411C487.263 251.908 495.425 260.339 487.31 272.318C479.593 283.736 465.576 287.823 455.974 318.117C449.65 338.095 449.802 351.514 449.802 351.514L440.938 346.948Z" fill="#34A573"/>
<path opacity="0.5" d="M440.938 346.948C440.938 346.948 436.804 312.344 450.657 279.345C458.398 260.901 471.138 252.809 478.762 252.411C487.263 251.908 495.425 260.339 487.31 272.318C479.593 283.736 465.576 287.823 455.974 318.117C449.65 338.095 449.802 351.514 449.802 351.514L440.938 346.948Z" fill="white"/>
<path d="M446.606 338.528C446.676 338.526 446.745 338.511 446.808 338.482C446.872 338.453 446.929 338.412 446.976 338.361C447.023 338.309 447.059 338.249 447.082 338.183C447.105 338.117 447.114 338.047 447.11 337.978C445.318 300.236 464.968 269.742 479.488 260.128C479.547 260.091 479.598 260.043 479.637 259.986C479.677 259.93 479.704 259.865 479.719 259.798C479.733 259.73 479.733 259.66 479.72 259.592C479.706 259.524 479.679 259.459 479.641 259.402C479.603 259.343 479.553 259.292 479.495 259.253C479.438 259.213 479.372 259.185 479.304 259.171C479.235 259.157 479.164 259.156 479.095 259.17C479.026 259.184 478.961 259.211 478.903 259.25C464.171 268.993 444.264 299.873 446.067 338.001C446.067 338.071 446.081 338.141 446.109 338.205C446.136 338.27 446.176 338.329 446.226 338.378C446.276 338.427 446.336 338.465 446.401 338.491C446.466 338.517 446.536 338.529 446.606 338.528Z" fill="white"/>
<path d="M449.767 351.503C451.453 342.931 456.676 334.312 467.39 325.424C478.105 316.536 492.614 308.667 490.998 300.2C489.382 291.734 478.117 292.858 470.084 297.027C462.051 301.196 443.502 318.433 445.352 349.231L449.767 351.503Z" fill="#34A573"/>
<path opacity="0.65" d="M449.767 351.503C451.453 342.931 456.676 334.312 467.39 325.424C478.105 316.536 492.614 308.667 490.998 300.2C489.382 291.734 478.117 292.858 470.084 297.027C462.051 301.196 443.502 318.433 445.352 349.231L449.767 351.503Z" fill="white"/>
<path d="M448.128 341.736C448.252 341.73 448.369 341.681 448.461 341.598C448.553 341.514 448.613 341.402 448.632 341.28C451.056 323.106 473.317 301.383 483.224 298.42C483.358 298.377 483.47 298.283 483.536 298.158C483.601 298.034 483.615 297.888 483.575 297.753C483.534 297.62 483.443 297.508 483.32 297.442C483.197 297.376 483.053 297.362 482.919 297.402C472.532 300.517 450.131 322.251 447.578 341.139C447.561 341.279 447.6 341.419 447.685 341.531C447.77 341.642 447.896 341.716 448.035 341.736H448.128Z" fill="white"/>
<path d="M426.992 372.382C417.797 375.746 409.047 380.221 400.937 385.708C391.803 391.879 383.454 399.327 373.723 404.444C361.064 411.096 346.52 413.508 332.269 412.829C324.2 412.442 315.429 410.674 310.242 404.316C309.061 402.65 308.498 400.625 308.649 398.589C308.635 397.104 308.933 395.633 309.522 394.27C310.11 392.906 310.978 391.681 312.069 390.673C323.779 379.268 340.173 374.572 355.888 370.895C371.603 367.218 381.1 362.592 396.569 354.395C403.197 350.882 409.72 347.064 416.395 343.727L416.547 343.645C427.262 338.317 437.204 331.361 449.335 337.685C455.308 340.788 458.633 346.713 455.823 353.189C450.963 364.442 437.555 368.541 426.992 372.382Z" fill="#E0E0E0"/>
<path d="M176.733 344.582L109.353 383.483L197.308 434.364L197.624 434.165L200.072 432.76C200.868 432.279 201.629 431.835 202.414 431.401C214.124 424.609 222.403 419.609 221.759 415.803C221.302 412.911 216.068 411.271 211.747 410.756C209.407 410.564 207.131 409.894 205.06 408.789C204.283 408.436 203.617 407.878 203.134 407.174C202.651 406.47 202.37 405.648 202.32 404.796C202.32 403.004 203.632 401.142 206.173 399.667C210.857 396.962 217.883 396.681 221.993 399.023C223.531 399.878 224.721 401.245 225.354 402.887C226.088 404.601 227.31 406.062 228.867 407.089C230.424 408.115 232.248 408.661 234.113 408.66C241.046 409.046 248.798 404.573 261.562 397.161L264.607 395.404L176.733 344.582ZM343.826 441.144C341.062 442.725 338.393 444.224 335.769 445.653C328.263 449.821 322.256 453.17 319.621 455.969C319.158 456.357 318.791 456.846 318.547 457.398C318.303 457.95 318.19 458.551 318.216 459.154C318.684 462.035 323.919 463.686 328.24 464.201C330.578 464.383 332.855 465.045 334.926 466.145C335.578 466.509 336.164 466.98 336.659 467.539C337.303 468.262 337.665 469.194 337.678 470.162C337.678 471.942 336.343 473.816 333.79 475.268C329.106 477.984 322.08 478.254 317.993 475.923C316.454 475.072 315.261 473.709 314.621 472.071C313.707 469.565 310.874 466.543 305.85 466.274C299.995 465.935 293.964 469.6 284.772 475.162L281.059 477.352C279.607 478.219 278.108 479.12 276.504 480.057L380.116 539.779C382.353 539.299 384.566 538.819 386.779 538.315C413.876 532.323 440.174 523.165 465.132 511.03L343.826 441.144Z" fill="#E0E0E0"/>
<path d="M99.6673 184.106L93.9995 183.263C93.6352 183.178 93.3 182.997 93.0283 182.74C92.7567 182.483 92.5584 182.158 92.4538 181.799C92.1817 180.789 91.8293 179.802 91.3999 178.848C91.3061 178.389 91.3311 177.913 91.4725 177.467C91.6139 177.02 91.867 176.617 92.2079 176.295L95.0886 173.133C95.8263 172.325 96.084 171.295 95.6624 170.791L91.2828 166.049C90.8495 165.58 89.819 165.686 88.9408 166.283L85.2169 168.929C84.87 169.207 84.4603 169.397 84.0235 169.48C83.5867 169.564 83.1361 169.54 82.7109 169.409C81.7201 168.855 80.6862 168.381 79.6194 167.993C79.2812 167.824 78.9942 167.567 78.7883 167.25C78.5824 166.933 78.465 166.567 78.4484 166.189L78.1908 160.99C78.1816 160.618 78.0375 160.262 77.7855 159.989C77.5334 159.715 77.1906 159.542 76.8207 159.503L70.4972 159.245C70.0934 159.283 69.7148 159.458 69.4248 159.741C69.1349 160.025 68.9512 160.4 68.9046 160.802L68.0732 165.58C67.979 166.032 67.7685 166.451 67.4624 166.796C67.1564 167.141 66.7654 167.4 66.3284 167.548C65.4843 167.791 64.6553 168.084 63.8458 168.426C63.4835 168.612 63.0821 168.709 62.6748 168.709C62.2675 168.709 61.8661 168.612 61.5038 168.426L57.0891 164.608C56.6206 164.187 55.5784 164.433 54.747 165.147L50.9529 168.496C50.1566 169.21 49.7819 170.194 50.1918 170.721L53.5877 175.405C53.7473 175.833 53.8009 176.292 53.7438 176.745C53.6867 177.198 53.5206 177.63 53.2598 178.005C52.9319 178.578 52.6509 179.176 52.3816 179.773C52.2183 180.214 51.9492 180.608 51.598 180.92C51.2468 181.232 50.8242 181.454 50.3674 181.565L44.8402 181.928C44.4472 181.987 44.0867 182.18 43.8198 182.474C43.553 182.769 43.3964 183.147 43.3764 183.544L43.0251 189.235C42.9766 189.614 43.0691 189.997 43.285 190.313C43.5009 190.628 43.8252 190.853 44.1961 190.944L49.8756 191.788C50.2396 191.869 50.575 192.047 50.8469 192.302C51.1188 192.558 51.3172 192.881 51.4213 193.24C51.6934 194.25 52.0458 195.237 52.4752 196.191C52.569 196.65 52.5441 197.125 52.4027 197.572C52.2613 198.019 52.0081 198.422 51.6672 198.743L48.7865 201.905C48.0371 202.713 47.7912 203.744 48.2127 204.247L52.5923 209.002C53.0256 209.458 54.0444 209.353 54.9344 208.756L58.6582 206.121C59.0008 205.839 59.408 205.646 59.8434 205.561C60.2787 205.475 60.7285 205.498 61.1525 205.629C62.145 206.188 63.1831 206.662 64.2557 207.046C64.5957 207.216 64.8837 207.474 65.0898 207.793C65.2958 208.112 65.4122 208.481 65.4267 208.861L65.6843 214.06C65.6939 214.431 65.8383 214.785 66.0906 215.057C66.3428 215.329 66.6856 215.499 67.0544 215.536L73.3779 215.793C73.7802 215.76 74.1583 215.588 74.4469 215.305C74.7355 215.023 74.9165 214.649 74.9588 214.248L75.8019 209.458C75.8972 209.007 76.1081 208.589 76.414 208.244C76.7199 207.899 77.1103 207.639 77.5467 207.491C78.3903 207.246 79.2191 206.952 80.0293 206.613C80.3925 206.429 80.7936 206.334 81.2003 206.334C81.6071 206.334 82.0082 206.429 82.3713 206.613L86.7744 210.36C87.2545 210.77 88.285 210.524 89.1164 209.821L92.9105 206.46C93.7068 205.758 94.0815 204.762 93.6717 204.247L90.2757 199.563C90.1161 199.134 90.0625 198.672 90.1196 198.217C90.1767 197.763 90.3427 197.328 90.6036 196.952C90.9198 196.378 91.2125 195.781 91.4819 195.184C91.6431 194.743 91.9117 194.349 92.2634 194.038C92.6151 193.728 93.0388 193.509 93.496 193.404L99.0232 193.029C99.4172 192.972 99.7789 192.779 100.046 192.484C100.313 192.189 100.469 191.811 100.487 191.413L100.838 185.722C100.863 185.358 100.76 184.997 100.546 184.702C100.332 184.406 100.021 184.195 99.6673 184.106ZM84.3269 187.993C84.0748 191.263 82.56 194.307 80.1033 196.479C77.6466 198.652 74.4408 199.783 71.1647 199.633C69.5631 199.592 67.986 199.23 66.5271 198.567C65.0682 197.905 63.7571 196.957 62.6716 195.778C61.5861 194.6 60.7482 193.216 60.2076 191.707C59.6671 190.199 59.4349 188.598 59.5248 186.998C59.7769 183.728 61.2917 180.685 63.7484 178.512C66.2051 176.34 69.4109 175.209 72.687 175.358C74.2886 175.4 75.8657 175.762 77.3246 176.424C78.7835 177.087 80.0946 178.035 81.1801 179.213C82.2656 180.392 83.1035 181.776 83.6441 183.284C84.1846 184.792 84.4168 186.394 84.3269 187.993Z" fill="#F0F0F0"/>
<path d="M52.4515 218.171L49.7698 221.285C49.5791 221.473 49.342 221.606 49.0828 221.672C48.8235 221.738 48.5515 221.734 48.2944 221.66C47.5744 221.44 46.8383 221.275 46.0929 221.168C45.7904 221.039 45.525 220.837 45.3205 220.579C45.1161 220.321 44.979 220.017 44.9218 219.693L44.1138 216.742C43.903 215.981 43.3761 215.43 42.9428 215.571L38.3758 216.402C37.9309 216.484 37.603 217.14 37.6381 217.878L37.8138 221.145C37.8533 221.462 37.8142 221.784 37.6998 222.082C37.5854 222.38 37.3993 222.645 37.158 222.855C36.4366 223.233 35.7507 223.676 35.1087 224.178C34.8736 224.319 34.6044 224.394 34.33 224.394C34.0556 224.394 33.7864 224.319 33.5512 224.178L30.2958 222.339C30.0663 222.2 29.7936 222.151 29.53 222.201C29.2663 222.25 29.0303 222.396 28.8672 222.609L26.209 226.309C26.077 226.567 26.0375 226.862 26.0972 227.146C26.1569 227.429 26.3121 227.684 26.5368 227.867L29.1131 230.209C29.3509 230.439 29.5246 230.728 29.617 231.046C29.7094 231.365 29.7173 231.701 29.64 232.024C29.4663 232.628 29.3255 233.242 29.2185 233.862C29.1905 234.16 29.0906 234.447 28.9274 234.698C28.7642 234.949 28.5427 235.156 28.2817 235.303L24.2768 236.474C23.8435 236.602 23.5859 237.317 23.7147 238.078L24.2885 241.661C24.4056 242.422 24.8857 243.02 25.3424 242.984L29.4644 242.703C29.9211 242.703 30.5417 243.23 30.9047 243.874C31.1389 244.296 31.3849 244.694 31.6425 245.045C31.8503 245.314 31.9879 245.631 32.0431 245.966C32.0983 246.301 32.0693 246.645 31.9587 246.966L30.0616 250.479C29.9349 250.736 29.9066 251.03 29.9821 251.306C30.0576 251.582 30.2317 251.821 30.4715 251.978L33.7855 254.378C33.9941 254.548 34.2545 254.64 34.5232 254.64C34.7918 254.64 35.0523 254.548 35.2609 254.378L37.9191 251.346C38.1099 251.158 38.347 251.025 38.6062 250.959C38.8655 250.893 39.1375 250.897 39.3946 250.971C40.1146 251.191 40.8507 251.356 41.5961 251.463C41.8977 251.59 42.1627 251.79 42.3672 252.046C42.5717 252.302 42.7092 252.604 42.7672 252.926L43.5752 255.889C43.7859 256.65 44.3129 257.201 44.7462 257.06L49.3132 256.229C49.7581 256.147 50.086 255.491 50.0509 254.753L49.8752 251.474C49.838 251.158 49.8795 250.838 49.996 250.542C50.1124 250.245 50.3002 249.983 50.5427 249.776C51.2565 249.387 51.9379 248.94 52.5803 248.441C52.8163 248.302 53.0851 248.229 53.359 248.229C53.6329 248.229 53.9018 248.302 54.1377 248.441L57.3932 250.28C57.6227 250.419 57.8954 250.468 58.159 250.419C58.4227 250.369 58.6587 250.224 58.8218 250.011L61.3981 246.275C61.5279 246.017 61.5662 245.722 61.5066 245.439C61.447 245.156 61.2932 244.902 61.0702 244.718L58.4939 242.376C58.2551 242.145 58.0808 241.857 57.9883 241.538C57.8959 241.22 57.8885 240.883 57.967 240.56C58.142 239.96 58.2828 239.35 58.3885 238.734C58.4156 238.435 58.5151 238.148 58.6783 237.897C58.8416 237.646 59.0637 237.439 59.3254 237.293L63.3419 236.122C63.7635 235.993 64.0211 235.267 63.8923 234.518L63.3185 230.935C63.2014 230.174 62.733 229.576 62.2646 229.611L58.1543 229.892C57.6859 229.892 57.0653 229.366 56.7023 228.721C56.4798 228.312 56.2339 227.913 55.9645 227.55C55.7597 227.282 55.6237 226.968 55.5685 226.635C55.5134 226.303 55.5408 225.961 55.6484 225.642L57.5571 222.129C57.6828 221.871 57.7093 221.575 57.6315 221.299C57.5538 221.023 57.3773 220.784 57.1356 220.63L53.8216 218.229C53.6283 218.077 53.392 217.989 53.146 217.978C52.9 217.968 52.657 218.035 52.4515 218.171ZM48.9384 228.967C50.8218 230.374 52.0839 232.459 52.4576 234.78C52.8313 237.101 52.2874 239.476 50.9409 241.404C50.3019 242.36 49.4771 243.179 48.5156 243.81C47.5541 244.442 46.4755 244.873 45.3438 245.08C44.2121 245.286 43.0505 245.263 41.9279 245.012C40.8053 244.761 39.7447 244.286 38.8091 243.617C36.9157 242.216 35.6417 240.134 35.257 237.81C34.8723 235.487 35.4071 233.105 36.7481 231.169C37.3881 230.207 38.2158 229.383 39.1816 228.749C40.1474 228.114 41.2314 227.681 42.3687 227.475C43.506 227.27 44.673 227.296 45.7999 227.552C46.9268 227.809 47.9904 228.29 48.9267 228.967H48.9384Z" fill="#F0F0F0"/>
<path d="M441.054 185.769L441.406 191.46C441.419 191.859 441.573 192.24 441.841 192.536C442.109 192.832 442.474 193.023 442.87 193.076L448.397 193.45C448.853 193.558 449.276 193.777 449.627 194.088C449.979 194.398 450.248 194.791 450.411 195.23C450.669 195.834 450.958 196.425 451.277 196.999C451.537 197.376 451.703 197.809 451.762 198.263C451.821 198.717 451.771 199.179 451.617 199.61L448.209 204.294C447.835 204.809 448.209 205.805 448.982 206.507L452.776 209.868C453.573 210.571 454.615 210.817 455.118 210.407L459.533 206.578C459.896 206.394 460.297 206.299 460.704 206.299C461.111 206.299 461.512 206.394 461.875 206.578C462.681 206.919 463.506 207.212 464.346 207.456C464.782 207.604 465.173 207.864 465.479 208.209C465.785 208.553 465.996 208.972 466.091 209.423L466.934 214.213C466.978 214.613 467.16 214.986 467.448 215.268C467.736 215.55 468.113 215.723 468.515 215.758L474.838 215.501C475.208 215.464 475.552 215.294 475.807 215.023C476.061 214.751 476.208 214.397 476.22 214.025L476.478 208.826C476.492 208.446 476.609 208.077 476.815 207.758C477.021 207.439 477.309 207.181 477.649 207.011C478.717 206.625 479.751 206.151 480.74 205.594C481.166 205.463 481.618 205.44 482.055 205.525C482.492 205.611 482.901 205.804 483.246 206.086L486.958 208.72C487.802 209.318 488.832 209.423 489.3 208.966L493.68 204.212C494.113 203.744 493.856 202.713 493.118 201.87L490.237 198.708C489.896 198.387 489.643 197.984 489.502 197.537C489.36 197.09 489.335 196.615 489.429 196.155C489.854 195.199 490.206 194.213 490.483 193.205C490.585 192.847 490.781 192.524 491.051 192.268C491.321 192.013 491.655 191.835 492.017 191.752L497.697 190.909C498.065 190.813 498.386 190.587 498.601 190.273C498.816 189.959 498.911 189.578 498.868 189.2L498.505 183.508C498.489 183.11 498.334 182.73 498.066 182.434C497.799 182.139 497.436 181.947 497.041 181.892L491.525 181.529C491.066 181.421 490.641 181.201 490.287 180.888C489.934 180.576 489.663 180.181 489.499 179.738C489.242 179.141 488.949 178.567 488.633 177.97C488.374 177.594 488.208 177.163 488.149 176.711C488.09 176.259 488.139 175.799 488.293 175.37L491.701 170.686C492.076 170.159 491.701 169.175 490.928 168.461L487.146 165.112C486.338 164.397 485.307 164.152 484.804 164.573L480.389 168.391C480.027 168.577 479.625 168.674 479.218 168.674C478.811 168.674 478.409 168.577 478.047 168.391C477.241 168.049 476.416 167.756 475.576 167.512C475.139 167.365 474.748 167.106 474.442 166.761C474.136 166.416 473.925 165.997 473.831 165.545L472.988 160.767C472.944 160.365 472.763 159.991 472.475 159.707C472.187 159.424 471.81 159.248 471.407 159.21L465.084 159.467C464.713 159.505 464.369 159.677 464.116 159.951C463.864 160.225 463.72 160.582 463.714 160.955L463.456 166.154C463.438 166.531 463.32 166.897 463.115 167.214C462.909 167.531 462.623 167.788 462.285 167.957C461.219 168.348 460.185 168.822 459.194 169.374C458.77 169.505 458.321 169.529 457.887 169.445C457.452 169.361 457.044 169.172 456.699 168.894L452.975 166.248C452.132 165.65 451.102 165.545 450.633 166.013L446.254 170.756C445.821 171.224 446.078 172.255 446.816 173.098L449.697 176.26C450.039 176.581 450.293 176.984 450.437 177.43C450.58 177.877 450.608 178.353 450.516 178.813C450.083 179.766 449.727 180.753 449.451 181.764C449.347 182.121 449.151 182.445 448.881 182.702C448.612 182.96 448.279 183.141 447.917 183.227L442.237 184.071C441.865 184.157 441.538 184.379 441.32 184.692C441.101 185.006 441.007 185.389 441.054 185.769ZM469.159 175.323C472.434 175.176 475.638 176.309 478.095 178.481C480.551 180.653 482.066 183.694 482.321 186.963C482.411 188.564 482.178 190.166 481.637 191.675C481.096 193.184 480.257 194.569 479.17 195.747C478.083 196.926 476.771 197.874 475.311 198.535C473.85 199.197 472.272 199.558 470.67 199.598C467.393 199.748 464.188 198.617 461.731 196.444C459.274 194.272 457.759 191.228 457.507 187.958C457.424 186.359 457.662 184.759 458.207 183.254C458.753 181.748 459.595 180.367 460.683 179.192C461.772 178.017 463.085 177.073 464.544 176.414C466.004 175.756 467.581 175.397 469.182 175.358L469.159 175.323Z" fill="#F0F0F0"/>
<path d="M502.252 201.788L498.938 204.13C498.697 204.285 498.52 204.523 498.442 204.799C498.365 205.076 498.391 205.371 498.517 205.629L500.414 209.142C500.524 209.461 500.554 209.802 500.501 210.135C500.448 210.468 500.313 210.782 500.109 211.051C499.84 211.449 499.594 211.847 499.372 212.222C498.997 212.901 498.376 213.463 497.92 213.393L493.798 213.112C493.341 213.112 492.873 213.674 492.755 214.435L492.17 218.018C492.053 218.78 492.299 219.494 492.732 219.623L496.749 220.794C497.008 220.942 497.228 221.151 497.391 221.401C497.554 221.651 497.655 221.937 497.685 222.234C497.781 222.856 497.922 223.471 498.107 224.073C498.182 224.395 498.173 224.731 498.081 225.049C497.988 225.367 497.816 225.656 497.58 225.888L495.004 228.23C494.775 228.41 494.617 228.664 494.557 228.949C494.498 229.234 494.539 229.53 494.676 229.787L497.252 233.511C497.415 233.724 497.651 233.869 497.915 233.919C498.179 233.969 498.451 233.919 498.681 233.78L501.925 231.942C502.16 231.8 502.429 231.726 502.703 231.726C502.978 231.726 503.247 231.8 503.482 231.942C504.129 232.437 504.814 232.879 505.531 233.265C505.772 233.475 505.959 233.74 506.075 234.038C506.191 234.336 506.234 234.657 506.199 234.975L506.023 238.242C506.023 238.98 506.316 239.635 506.761 239.717L511.316 240.549C511.761 240.631 512.3 240.08 512.487 239.319L513.295 236.368C513.384 236.071 513.542 235.798 513.756 235.572C513.969 235.347 514.233 235.174 514.525 235.068C515.267 234.963 515.999 234.799 516.715 234.577C516.972 234.502 517.244 234.497 517.503 234.563C517.763 234.629 518 234.763 518.19 234.951L520.883 238.066C521.092 238.235 521.352 238.328 521.621 238.328C521.89 238.328 522.15 238.235 522.359 238.066L525.673 235.666C525.913 235.509 526.087 235.27 526.162 234.994C526.238 234.718 526.209 234.423 526.083 234.167L524.186 230.654C524.075 230.335 524.046 229.994 524.099 229.661C524.152 229.328 524.286 229.013 524.49 228.745C524.759 228.347 525.005 227.949 525.228 227.574C525.603 226.895 526.223 226.333 526.68 226.403L530.802 226.684C531.259 226.684 531.727 226.122 531.856 225.361L532.43 221.777C532.547 221.028 532.301 220.302 531.867 220.173L527.851 219.002C527.591 218.856 527.37 218.648 527.209 218.397C527.048 218.146 526.951 217.859 526.926 217.562C526.819 216.942 526.678 216.328 526.504 215.723C526.424 215.404 526.43 215.069 526.52 214.752C526.61 214.436 526.783 214.149 527.019 213.92L529.596 211.578C529.823 211.4 529.982 211.148 530.044 210.866C530.106 210.584 530.067 210.289 529.935 210.032L527.406 206.238C527.243 206.025 527.007 205.88 526.743 205.83C526.479 205.78 526.207 205.83 525.977 205.969L522.722 207.807C522.486 207.946 522.217 208.019 521.943 208.019C521.669 208.019 521.4 207.946 521.164 207.807C520.518 207.308 519.833 206.862 519.115 206.472C518.874 206.265 518.688 206.002 518.571 205.706C518.455 205.41 518.412 205.09 518.448 204.774L518.623 201.495C518.623 200.758 518.331 200.102 517.886 200.02L513.33 199.188C512.885 199.106 512.358 199.657 512.159 200.418L511.351 203.381C511.284 203.709 511.136 204.016 510.919 204.272C510.702 204.528 510.423 204.725 510.11 204.844C509.368 204.951 508.636 205.116 507.92 205.336C507.663 205.41 507.391 205.414 507.132 205.348C506.873 205.282 506.635 205.149 506.445 204.961L503.751 201.847C503.548 201.663 503.286 201.557 503.013 201.546C502.739 201.535 502.47 201.621 502.252 201.788ZM519.373 214.833C520.723 216.758 521.271 219.133 520.899 221.455C520.528 223.777 519.266 225.862 517.382 227.269C516.447 227.939 515.387 228.414 514.265 228.667C513.143 228.919 511.982 228.943 510.85 228.738C509.718 228.532 508.639 228.102 507.678 227.471C506.716 226.841 505.89 226.024 505.25 225.068C503.9 223.14 503.354 220.762 503.728 218.438C504.102 216.114 505.366 214.027 507.253 212.62C508.187 211.951 509.247 211.477 510.369 211.226C511.49 210.974 512.651 210.951 513.782 211.158C514.913 211.364 515.99 211.796 516.951 212.427C517.911 213.059 518.735 213.877 519.373 214.833Z" fill="#F0F0F0"/>
<path d="M109.353 378.155L197.32 429.036L197.636 428.837L200.095 427.432L202.437 426.073C214.147 419.293 222.426 414.293 221.794 410.475C221.326 407.583 216.091 405.943 211.77 405.428C209.431 405.241 207.155 404.575 205.084 403.473C204.305 403.119 203.638 402.559 203.154 401.853C202.671 401.147 202.391 400.322 202.343 399.468C202.343 397.688 203.655 395.814 206.196 394.339C210.88 391.645 217.906 391.353 222.005 393.706C223.552 394.551 224.751 395.916 225.389 397.559C226.291 400.065 229.136 403.086 234.148 403.344C241.069 403.719 248.821 399.245 261.597 391.844L264.63 390.088L176.804 339.254L109.353 378.155ZM343.826 435.828C341.062 437.397 338.392 438.884 335.769 440.336C325.23 446.191 317.642 450.384 318.204 453.838C318.395 454.697 318.895 455.456 319.609 455.969C321.553 457.55 325.113 458.511 328.228 458.874C330.566 459.061 332.841 459.723 334.914 460.817C335.693 461.179 336.36 461.744 336.845 462.453C337.329 463.162 337.613 463.989 337.666 464.846C337.624 465.829 337.266 466.773 336.648 467.539C335.859 468.524 334.884 469.344 333.779 469.951C329.094 472.656 322.068 472.926 317.981 470.595C316.44 469.747 315.246 468.383 314.609 466.743C313.696 464.237 310.862 461.216 305.838 460.946C299.983 460.618 293.952 464.272 284.76 469.834C282.312 471.321 279.537 472.996 276.563 474.788L281.118 477.399L386.837 538.386C413.934 532.393 440.232 523.235 465.19 511.101C466.845 510.32 468.485 509.489 470.108 508.607L343.826 435.828Z" fill="#34A573"/>
<path opacity="0.2" d="M109.353 378.155L197.32 429.036L197.636 428.837L200.095 427.432L202.437 426.073C214.147 419.293 222.426 414.293 221.794 410.475C221.326 407.583 216.091 405.943 211.77 405.428C209.431 405.241 207.155 404.575 205.084 403.473C204.305 403.119 203.638 402.559 203.154 401.853C202.671 401.147 202.391 400.322 202.343 399.468C202.343 397.688 203.655 395.814 206.196 394.339C210.88 391.645 217.906 391.353 222.005 393.706C223.552 394.551 224.751 395.916 225.389 397.559C226.291 400.065 229.136 403.086 234.148 403.344C241.069 403.719 248.821 399.245 261.597 391.844L264.63 390.088L176.804 339.254L109.353 378.155ZM343.826 435.828C341.062 437.397 338.392 438.884 335.769 440.336C325.23 446.191 317.642 450.384 318.204 453.838C318.395 454.697 318.895 455.456 319.609 455.969C321.553 457.55 325.113 458.511 328.228 458.874C330.566 459.061 332.841 459.723 334.914 460.817C335.693 461.179 336.36 461.744 336.845 462.453C337.329 463.162 337.613 463.989 337.666 464.846C337.624 465.829 337.266 466.773 336.648 467.539C335.859 468.524 334.884 469.344 333.779 469.951C329.094 472.656 322.068 472.926 317.981 470.595C316.44 469.747 315.246 468.383 314.609 466.743C313.696 464.237 310.862 461.216 305.838 460.946C299.983 460.618 293.952 464.272 284.76 469.834C282.312 471.321 279.537 472.996 276.563 474.788L281.118 477.399L386.837 538.386C413.934 532.393 440.232 523.235 465.19 511.101C466.845 510.32 468.485 509.489 470.108 508.607L343.826 435.828Z" fill="white"/>
<path d="M199.884 225.22L143.043 167.208L86.2018 290.856L109.353 277.494V378.167L176.733 339.254V238.581L199.884 225.22Z" fill="#34A573"/>
<path d="M175.154 45.7264L178.046 39.6957L165.399 32.3651C163.904 31.4965 162.302 30.8273 160.633 30.3744C160.047 30.2221 159.462 30.0933 158.865 29.9879C155.91 29.5001 152.889 29.5836 149.965 30.2339C148.88 30.4599 147.808 30.7493 146.756 31.1004C145.631 31.4643 144.524 31.8864 143.442 32.3651C141.981 33.0136 140.558 33.7447 139.18 34.5549C137.649 35.4459 136.167 36.4192 134.742 37.4707C133.641 38.267 132.564 39.1219 131.486 40.0236C115.795 53.3029 103.499 76.9223 100.314 99.6401C100.091 101.186 99.9274 102.72 99.7986 104.254C99.6112 106.455 99.5293 108.634 99.5293 110.776C99.5293 112.545 99.6112 114.29 99.7401 115.894C99.8572 117.322 100.021 118.704 100.22 120.039C100.419 121.374 100.677 122.639 100.97 123.88C101.747 127.283 102.992 130.562 104.67 133.623C105.01 134.232 105.361 134.794 105.736 135.38C107.232 137.71 109.127 139.76 111.333 141.434C111.996 141.919 112.684 142.369 113.394 142.78L125.35 149.678L127.997 144.162C128.699 144.01 129.402 143.823 130.116 143.612C133.027 142.714 135.822 141.476 138.442 139.923C140.127 138.931 141.757 137.848 143.325 136.679C145.43 135.102 147.433 133.393 149.321 131.562C162.425 118.95 172.741 99.2303 176.524 79.5923C177.084 76.7109 177.498 73.8031 177.765 70.8799C177.976 68.4676 178.093 66.0787 178.081 63.725C178.082 60.3237 177.804 56.9281 177.25 53.5722C176.79 50.8989 176.088 48.2729 175.154 45.7264Z" fill="#34A573"/>
<path opacity="0.25" d="M103.193 86.232L128.85 101.045L132.222 91.2791L106.542 76.4305C105.266 79.6391 104.141 82.9063 103.193 86.232Z" fill="white"/>
<path opacity="0.25" d="M165.4 32.3651C163.905 31.4965 162.302 30.8273 160.634 30.3744C160.048 30.2221 159.463 30.0933 158.866 29.9879C155.911 29.5001 152.889 29.5836 149.966 30.2339L148.795 30.5149L175.19 45.7381C175.19 45.7381 175.19 45.7381 175.19 45.6796L178.082 39.6488L165.4 32.3651Z" fill="white"/>
<path opacity="0.25" d="M162.659 69.8377L166.031 65.7743L127.563 43.6537C126.345 44.8638 125.151 46.1363 123.98 47.4713L162.659 69.8377Z" fill="white"/>
<path opacity="0.25" d="M115.805 58.35L149.167 77.5899L152.832 67.9992L121.8 50.0826C119.655 52.7288 117.653 55.4886 115.805 58.35Z" fill="white"/>
<path opacity="0.4" d="M165.398 32.3651C163.903 31.4965 162.301 30.8273 160.632 30.3744C160.046 30.2221 159.461 30.0933 158.864 29.9879C155.909 29.5001 152.888 29.5836 149.964 30.2339C148.878 30.4599 147.807 30.7493 146.755 31.1004C145.63 31.4643 144.523 31.8864 143.441 32.3651C141.98 33.0136 140.557 33.7447 139.179 34.5549C137.648 35.4459 136.166 36.4192 134.741 37.4707C133.64 38.267 132.563 39.1219 131.485 40.0236C116.871 52.3661 105.161 73.702 101.039 94.9209L154.554 125.824C165.578 112.458 173.1 96.5574 176.441 79.5571C177.001 76.6758 177.415 73.7679 177.682 70.8448C177.893 68.4325 178.01 66.0436 177.998 63.6898C177.999 60.2886 177.721 56.8929 177.167 53.5371C176.718 50.8649 176.028 48.2389 175.106 45.6913L177.998 39.6605L165.398 32.3651Z" fill="white"/>
<path opacity="0.1" d="M125.315 149.678L127.962 144.162C128.664 144.01 129.367 143.823 130.081 143.612C132.992 142.714 135.786 141.476 138.407 139.923C140.092 138.931 141.722 137.848 143.29 136.679C145.395 135.102 147.398 133.393 149.286 131.562C151.155 129.754 152.93 127.851 154.602 125.859L101.087 94.9561C100.782 96.5135 100.525 98.0827 100.314 99.6401C100.103 101.198 99.9274 102.72 99.7986 104.254C99.6112 106.455 99.5292 108.634 99.5292 110.777C99.5292 112.545 99.6112 114.29 99.74 115.894C99.8571 117.323 100.021 118.704 100.22 120.039C100.419 121.374 100.677 122.639 100.97 123.88C101.747 127.283 102.992 130.562 104.67 133.623C105.01 134.232 105.361 134.794 105.736 135.38C107.232 137.71 109.127 139.76 111.333 141.434C111.996 141.919 112.684 142.369 113.394 142.78L125.315 149.678Z" fill="black"/>
<path opacity="0.1" d="M104.67 133.623C105.009 134.232 105.36 134.794 105.735 135.38C107.231 137.71 109.126 139.76 111.333 141.434C111.995 141.919 112.683 142.369 113.394 142.78L125.35 149.678L127.996 144.162H128.102L128.289 141.902L101.707 126.55C102.439 129.007 103.432 131.378 104.67 133.623Z" fill="black"/>
<path d="M190.729 61.3713C190.183 57.9016 189.203 54.5143 187.813 51.2888C186.126 47.2727 183.456 43.7452 180.049 41.0307C177.96 39.4236 175.572 38.2492 173.023 37.5762C172.438 37.4239 171.852 37.2951 171.243 37.1897C168.288 36.7019 165.267 36.7854 162.344 37.4356C161.259 37.6647 160.188 37.9539 159.135 38.3022C158.01 38.668 156.904 39.0901 155.821 39.5669C154.372 40.2086 152.961 40.9319 151.594 41.7333C150.056 42.62 148.571 43.5935 147.144 44.6491C146.055 45.4454 144.966 46.3002 143.9 47.2019C128.208 60.4461 115.796 84.0656 112.716 106.783C112.505 108.329 112.329 109.863 112.212 111.397C112.025 113.587 111.931 115.777 111.943 117.92C111.943 119.688 112.013 121.433 112.154 123.037C112.271 124.466 112.423 125.848 112.634 127.182C112.845 128.517 113.091 129.782 113.383 131.023C114.139 134.428 115.373 137.708 117.049 140.766C117.392 141.375 117.743 141.961 118.103 142.523C119.603 144.854 121.501 146.903 123.712 148.577C126.915 150.978 130.767 152.357 134.766 152.535C137.759 152.67 140.753 152.274 143.607 151.364C146.519 150.469 149.314 149.231 151.933 147.675C153.621 146.687 155.251 145.604 156.816 144.432C158.921 142.855 160.924 141.145 162.812 139.314C175.916 126.714 186.232 106.982 190.015 87.3444C190.571 84.4629 190.982 81.5551 191.244 78.6321C191.467 76.29 191.572 73.8309 191.572 71.4771C191.572 68.0909 191.29 64.7106 190.729 61.3713Z" fill="#34A573"/>
<path opacity="0.05" d="M113.5 102.088C113.196 103.657 112.938 105.238 112.716 106.772C112.493 108.306 112.329 109.851 112.212 111.385C112.025 113.575 111.931 115.765 111.943 117.908C111.943 119.676 112.013 121.421 112.154 123.025C112.271 124.454 112.423 125.836 112.634 127.171C112.845 128.506 113.091 129.77 113.383 131.012C114.139 134.416 115.373 137.696 117.049 140.755C117.392 141.363 117.743 141.949 118.103 142.511C119.603 144.842 121.501 146.892 123.712 148.565C126.915 150.966 130.767 152.345 134.766 152.523C137.759 152.659 140.753 152.262 143.607 151.352C146.519 150.457 149.314 149.219 151.933 147.664C153.397 146.809 154.849 145.837 156.278 144.806L113.5 102.088Z" fill="black"/>
<path opacity="0.05" d="M114.12 133.799C114.841 136.239 115.822 138.594 117.047 140.825C117.391 141.434 117.742 142.019 118.101 142.581C119.601 144.913 121.5 146.962 123.71 148.635C126.338 150.601 129.412 151.885 132.657 152.371L114.12 133.799Z" fill="black"/>
<path opacity="0.1" d="M118.944 83.6089C117.668 86.8175 116.602 90.0846 115.595 93.3752L162.178 139.958L162.81 139.361C164.828 137.411 166.735 135.351 168.525 133.19L118.944 83.6089Z" fill="white"/>
<path opacity="0.1" d="M134.168 57.2493C132.035 59.8935 130.049 62.6535 128.22 65.5167L179.487 116.796C181.15 113.669 182.672 110.425 184.042 107.123L134.168 57.2493Z" fill="white"/>
<path opacity="0.1" d="M139.988 50.8087C138.817 51.9797 137.552 53.3146 136.369 54.6496L185.388 103.668C186.075 101.842 186.715 99.9914 187.309 98.1178L139.988 50.8087Z" fill="white"/>
<path opacity="0.1" d="M191.456 67.9758C191.456 67.0273 191.327 66.1022 191.233 65.1888C191.233 64.896 191.233 64.5915 191.14 64.2871L191.034 63.362C190.941 62.6945 190.847 62.027 190.73 61.3713C190.184 57.9016 189.204 54.5143 187.814 51.2888C186.127 47.2727 183.457 43.7452 180.05 41.0307C177.961 39.4236 175.572 38.2492 173.024 37.5762C172.438 37.4239 171.853 37.2951 171.244 37.1897C168.289 36.7019 165.268 36.7854 162.344 37.4356L161.173 37.7167L191.456 67.9758Z" fill="white"/>
<path d="M181.418 77.6132C181.418 98.5628 169.205 122.768 153.747 133.049C153.091 133.494 152.424 133.904 151.756 134.291C135.362 143.752 122.083 133.717 122.083 111.866C122.083 90.0143 135.362 64.6384 151.756 55.1765C152.424 54.8018 153.091 54.4388 153.747 54.1226C169.205 46.5578 181.418 56.652 181.418 77.6132Z" fill="#34A573"/>
<path opacity="0.4" d="M181.418 77.6132C181.418 98.5628 169.205 122.768 153.747 133.049C153.091 133.494 152.424 133.904 151.756 134.291C135.362 143.752 122.083 133.717 122.083 111.866C122.083 90.0143 135.362 64.6384 151.756 55.1765C152.424 54.8018 153.091 54.4388 153.747 54.1226C169.205 46.5578 181.418 56.652 181.418 77.6132Z" fill="black"/>
<path d="M180.107 78.3744C180.107 79.0536 180.107 79.7328 180.107 80.412C179.357 99.9446 167.975 121.843 153.7 131.351L153.314 131.609C152.81 131.925 152.307 132.241 151.803 132.534C149.071 134.183 146.045 135.285 142.892 135.778C136.241 136.679 130.678 133.764 127.235 127.803C124.988 123.655 123.715 119.05 123.512 114.336C123.441 113.306 123.406 112.252 123.406 111.151C123.406 110.05 123.406 109.149 123.5 108.13C123.623 105.972 123.862 103.822 124.214 101.689C126.72 86.595 134.753 71.2429 145.011 61.9685C146.428 60.6731 147.935 59.4796 149.52 58.3969C150.258 57.8933 151.007 57.4249 151.757 56.9916C152.506 56.5584 153.033 56.289 153.654 55.9729L154.181 55.7269C157.789 53.8851 161.889 53.2333 165.891 53.865C171.863 55.036 176.43 59.7201 178.667 67.3669C179.657 70.9511 180.142 74.6561 180.107 78.3744Z" fill="#34A573"/>
<path opacity="0.5" d="M180.107 78.3744C180.107 79.0536 180.107 79.7328 180.107 80.412C179.357 99.9446 167.975 121.843 153.7 131.351L153.314 131.609C152.81 131.925 152.307 132.241 151.803 132.534C149.071 134.183 146.045 135.285 142.892 135.778C136.241 136.679 130.678 133.764 127.235 127.803C124.988 123.655 123.715 119.05 123.512 114.336C123.441 113.306 123.406 112.252 123.406 111.151C123.406 110.05 123.406 109.149 123.5 108.13C123.623 105.972 123.862 103.822 124.214 101.689C126.72 86.595 134.753 71.2429 145.011 61.9685C146.428 60.6731 147.935 59.4796 149.52 58.3969C150.258 57.8933 151.007 57.4249 151.757 56.9916C152.506 56.5584 153.033 56.289 153.654 55.9729L154.181 55.7269C157.789 53.8851 161.889 53.2333 165.891 53.865C171.863 55.036 176.43 59.7201 178.667 67.3669C179.657 70.9511 180.142 74.6561 180.107 78.3744Z" fill="black"/>
<path d="M175.353 77.6835C175.353 76.9926 175.353 76.3134 175.353 75.6342C175.395 71.9008 174.914 68.1798 173.924 64.5798C172.946 60.6597 170.855 57.1057 167.905 54.3451C167.264 54.1201 166.606 53.944 165.938 53.8181C161.936 53.1865 157.836 53.8382 154.228 55.6801L153.701 55.926C153.08 56.2422 152.436 56.57 151.804 56.9448C151.171 57.3195 150.305 57.8464 149.567 58.35C147.982 59.4327 146.475 60.6262 145.059 61.9216C134.812 71.1609 126.767 86.513 124.261 101.643C123.909 103.775 123.671 105.925 123.547 108.083C123.477 109.102 123.453 110.109 123.453 111.104C123.453 112.1 123.453 113.259 123.559 114.29C123.74 119.015 124.998 123.637 127.236 127.803C128.212 129.53 129.471 131.082 130.959 132.393C133.283 133.175 135.759 133.395 138.185 133.038C141.337 132.548 144.363 131.451 147.096 129.806C147.6 129.513 148.115 129.197 148.607 128.869L148.993 128.611C163.221 119.114 174.603 97.2161 175.353 77.6835Z" fill="#34A573"/>
<path opacity="0.25" d="M175.353 77.6835C175.353 76.9926 175.353 76.3134 175.353 75.6342C175.395 71.9008 174.914 68.1798 173.924 64.5798C172.946 60.6597 170.855 57.1057 167.905 54.3451C167.264 54.1201 166.606 53.944 165.938 53.8181C161.936 53.1865 157.836 53.8382 154.228 55.6801L153.701 55.926C153.08 56.2422 152.436 56.57 151.804 56.9448C151.171 57.3195 150.305 57.8464 149.567 58.35C147.982 59.4327 146.475 60.6262 145.059 61.9216C134.812 71.1609 126.767 86.513 124.261 101.643C123.909 103.775 123.671 105.925 123.547 108.083C123.477 109.102 123.453 110.109 123.453 111.104C123.453 112.1 123.453 113.259 123.559 114.29C123.74 119.015 124.998 123.637 127.236 127.803C128.212 129.53 129.471 131.082 130.959 132.393C133.283 133.175 135.759 133.395 138.185 133.038C141.337 132.548 144.363 131.451 147.096 129.806C147.6 129.513 148.115 129.197 148.607 128.869L148.993 128.611C163.221 119.114 174.603 97.2161 175.353 77.6835Z" fill="black"/>
<path d="M171.264 37.1897C154.132 35.2575 140.197 49.4503 130.899 62.2027C117.467 82.0046 108.954 107.076 113.603 131.047C115.125 137.71 118.17 144.408 123.721 148.612C118.053 144.455 114.762 137.768 113.181 131.047C108.895 111.421 114.282 90.7989 123.264 73.2454C132.854 55.9143 149.167 34.8243 171.264 37.1897Z" fill="#F5F5F5"/>
<path opacity="0.35" d="M158.303 83.6322L152.612 80.3416L163.62 70.9501L169.311 74.2406L158.303 83.6322Z" fill="black"/>
<path opacity="0.35" d="M161.803 85.7986C158.887 83.7376 153.84 85.2951 149.554 86.6417C148.524 86.9931 147.599 87.2975 146.755 87.5551C146.489 88.1856 146.346 88.8614 146.334 89.5459C146.334 92.8599 149.144 91.8879 155.257 89.944C157.318 89.2369 159.427 88.6811 161.569 88.2812C161.756 89.9674 162.927 91.5015 167.494 89.0892L161.803 85.7986Z" fill="black"/>
<path opacity="0.45" d="M147.706 128.962L142.015 125.672V118.95L147.706 122.241V128.962Z" fill="black"/>
<path opacity="0.35" d="M157.365 103.446C157.365 106.116 155.363 108.505 152.389 110.238C147.705 112.99 145.796 110.741 145.363 108.552L144.355 107.966C145.175 107.724 145.962 107.382 146.697 106.947C148.758 105.893 150.392 104.16 151.323 102.041C154.813 100.893 157.365 100.448 157.365 103.446Z" fill="black"/>
<path opacity="0.35" d="M136.182 119.922C135.556 119.555 134.835 119.38 134.11 119.419C133.987 119.07 133.886 118.714 133.805 118.353L128.091 115.062C128.244 116.053 128.608 116.999 129.157 117.837C129.707 118.675 130.429 119.386 131.276 119.922L136.955 123.213C137.224 122.659 137.293 122.029 137.152 121.43C137.012 120.831 136.669 120.299 136.182 119.922Z" fill="black"/>
<path d="M155.258 89.944C149.146 91.9465 146.335 92.8599 146.335 89.5459C146.347 88.8614 146.49 88.1856 146.757 87.5552C142.588 88.8433 140.644 89.0072 140.644 86.2553C140.644 84.2295 142.014 81.7352 145.785 79.5454C149.801 77.2034 152.05 77.7537 152.612 80.3417L163.619 70.9736C163.619 70.833 163.526 70.7042 163.467 70.5637C164.153 70.414 164.812 70.1613 165.423 69.8142L160.879 67.0975L160.446 66.8399H160.376C159.035 66.1875 157.534 65.9393 156.055 66.1255C154.082 66.3392 152.154 66.8566 150.34 67.6596V67.4956L156.031 64.1816L150.34 60.9379L146.487 63.1863L141.265 66.2192V72.9292C133.548 78.55 128.735 85.8806 128.735 93.8201C128.735 97.4269 129.707 99.4761 131.287 100.518H131.358C131.493 100.605 131.634 100.684 131.779 100.753L136.545 103.434C136.677 102.726 136.587 101.994 136.288 101.338C137.801 101.146 139.294 100.82 140.749 100.366C146.534 98.6213 151.675 95.8694 151.675 100.155C151.677 100.8 151.558 101.44 151.324 102.041C154.837 100.87 157.366 100.448 157.366 103.446C157.366 106.116 155.364 108.505 152.389 110.238C147.705 112.99 145.796 110.741 145.363 108.552L144.356 107.966L139.672 105.261L128.091 115.062L133.782 118.353C133.962 119.192 134.254 120.003 134.648 120.765C137.195 120.675 139.695 120.057 141.991 118.95V121.667L150.984 120.437V113.727C158.783 107.978 164.158 100.237 164.158 92.1456C164.205 90.7662 163.986 89.3908 163.514 88.0938C160.692 88.3429 157.916 88.9651 155.258 89.944Z" fill="#34A573"/>
<path opacity="0.15" d="M155.258 89.944C149.146 91.9465 146.335 92.8599 146.335 89.5459C146.347 88.8614 146.49 88.1856 146.757 87.5552C142.588 88.8433 140.644 89.0072 140.644 86.2553C140.644 84.2295 142.014 81.7352 145.785 79.5454C149.801 77.2034 152.05 77.7537 152.612 80.3417L163.619 70.9736C163.619 70.833 163.526 70.7042 163.467 70.5637C164.153 70.414 164.812 70.1613 165.423 69.8142L160.879 67.0975L160.446 66.8399H160.376C159.035 66.1875 157.534 65.9393 156.055 66.1255C154.082 66.3392 152.154 66.8566 150.34 67.6596V67.4956L156.031 64.1816L150.34 60.9379L146.487 63.1863L141.265 66.2192V72.9292C133.548 78.55 128.735 85.8806 128.735 93.8201C128.735 97.4269 129.707 99.4761 131.287 100.518H131.358C131.493 100.605 131.634 100.684 131.779 100.753L136.545 103.434C136.677 102.726 136.587 101.994 136.288 101.338C137.801 101.146 139.294 100.82 140.749 100.366C146.534 98.6213 151.675 95.8694 151.675 100.155C151.677 100.8 151.558 101.44 151.324 102.041C154.837 100.87 157.366 100.448 157.366 103.446C157.366 106.116 155.364 108.505 152.389 110.238C147.705 112.99 145.796 110.741 145.363 108.552L144.356 107.966L139.672 105.261L128.091 115.062L133.782 118.353C133.962 119.192 134.254 120.003 134.648 120.765C137.195 120.675 139.695 120.057 141.991 118.95V121.667L150.984 120.437V113.727C158.783 107.978 164.158 100.237 164.158 92.1456C164.205 90.7662 163.986 89.3908 163.514 88.0938C160.692 88.3429 157.916 88.9651 155.258 89.944Z" fill="black"/>
<g opacity="0.2">
<path d="M141.287 72.9291C136.953 76.2232 133.435 80.4704 131.005 85.3419C129.866 87.7863 129.203 90.4251 129.05 93.1175C128.92 94.4555 128.991 95.8054 129.26 97.1224C129.489 98.4645 130.206 99.6744 131.275 100.518C130.104 99.7534 129.267 98.5734 128.933 97.2161C128.581 95.8716 128.431 94.4825 128.488 93.0941C128.592 90.3134 129.253 87.5818 130.431 85.0609C131.639 82.5616 133.218 80.2597 135.116 78.2339C136.952 76.2241 139.024 74.443 141.287 72.9291Z" fill="black"/>
</g>
<path d="M163.537 88.0938C160.708 88.3408 157.924 88.963 155.258 89.944C149.146 91.9465 146.335 92.8599 146.335 89.5459C146.347 88.8614 146.49 88.1856 146.757 87.5551C147.78 85.5353 149.421 83.8945 151.441 82.8711C155.457 80.529 157.706 81.0911 158.268 83.6791L169.275 74.3109C168.925 72.8908 168.103 71.6318 166.943 70.7403C165.784 69.8488 164.356 69.3777 162.893 69.4044C160.516 69.4602 158.176 70.0064 156.02 71.0087V64.2285L150.34 67.4956L146.956 69.4629V76.1728C139.239 81.7937 134.426 89.136 134.426 97.0521C134.376 98.5502 134.61 100.044 135.117 101.455C136.827 105.706 141.487 105.12 146.405 103.68C148.127 103.165 149.801 102.509 151.289 102.064C154.802 100.893 157.331 100.471 157.331 103.469C157.331 106.139 155.329 108.528 152.354 110.261C147.67 113.013 145.761 110.765 145.328 108.575L133.758 118.376C133.939 119.215 134.231 120.026 134.625 120.789C136.136 123.611 138.829 124.395 141.967 123.974C143.935 123.675 145.851 123.099 147.658 122.264V128.986L156.652 123.786V117.03C164.451 111.292 169.826 103.551 169.826 95.4595C169.873 89.6161 167.109 88.0118 163.537 88.0938Z" fill="#34A573"/>
<g opacity="0.1">
<path d="M163.537 88.0938C160.707 88.3408 157.923 88.963 155.258 89.944C149.145 91.9465 146.335 92.8599 146.335 89.5459C146.346 88.8614 146.489 88.1856 146.756 87.5551C147.78 85.5353 149.42 83.8945 151.44 82.8711C155.457 80.529 157.705 81.0911 158.267 83.6791L169.275 74.3109C168.925 72.8908 168.102 71.6318 166.943 70.7403C165.783 69.8488 164.355 69.3777 162.893 69.4044C160.515 69.4602 158.175 70.0064 156.019 71.0087V64.2285L150.339 67.4956L146.955 69.4629V76.1728C139.238 81.7937 134.425 89.136 134.425 97.0521C134.375 98.5502 134.61 100.044 135.116 101.455C136.826 105.706 141.486 105.12 146.405 103.68C148.126 103.165 149.801 102.509 151.288 102.064C154.801 100.893 157.33 100.471 157.33 103.469C157.33 106.139 155.328 108.528 152.354 110.261C147.669 113.013 145.761 110.765 145.327 108.575L133.758 118.376C133.938 119.215 134.23 120.026 134.624 120.789C136.135 123.611 138.828 124.395 141.967 123.974C143.935 123.675 145.851 123.099 147.658 122.264V128.986L156.651 123.786V117.03C164.45 111.292 169.825 103.551 169.825 95.4595C169.872 89.6161 167.108 88.0118 163.537 88.0938Z" fill="white"/>
</g>
<path opacity="0.1" d="M144.567 109.231L137.459 115.238L145.351 123.142C146.124 122.885 146.909 122.592 147.693 122.241V125.484L149.895 127.686L156.687 123.763V121.421L144.567 109.231Z" fill="white"/>
<path opacity="0.1" d="M163.538 88.0938C160.709 88.3409 157.925 88.9631 155.259 89.9441L153.28 90.5881L167.508 104.804C169.012 101.908 169.815 98.6993 169.85 95.4361C169.859 94.5163 169.772 93.598 169.592 92.6959L165.084 88.1875C164.573 88.1093 164.055 88.078 163.538 88.0938Z" fill="white"/>
<path opacity="0.1" d="M148.15 85.4473C149.128 84.4038 150.261 83.5188 151.511 82.8242C155.528 80.4822 157.776 81.0443 158.338 83.6322L159.509 82.6017L146.979 70.0601V76.2197C145.436 77.3466 143.973 78.5791 142.6 79.9084L148.15 85.4473Z" fill="white"/>
<path opacity="0.1" d="M159.077 69.8962C158.051 70.1846 157.042 70.5326 156.056 70.9384V66.875L154.382 65.1536L150.342 67.4956L149.651 67.8937L162.11 80.3768L166.139 76.9457L159.077 69.8962Z" fill="white"/>
<path opacity="0.1" d="M140.034 104.699L134.589 99.2653C134.678 100.013 134.855 100.748 135.116 101.455C135.495 102.442 136.172 103.285 137.054 103.867C137.937 104.449 138.979 104.739 140.034 104.699Z" fill="white"/>
<path d="M146.98 76.2197L141.289 72.9292V66.2192L146.98 69.5098V76.2197Z" fill="#34A573"/>
<path opacity="0.35" d="M146.98 76.2197L141.289 72.9292V66.2192L146.98 69.5098V76.2197Z" fill="black"/>
<path d="M156.7 117.006C156.7 117.006 157.028 116.76 157.578 116.304C157.924 116.048 158.256 115.775 158.573 115.484C158.948 115.156 159.393 114.805 159.838 114.383C160.283 113.962 160.775 113.517 161.267 113.013L162.016 112.24C162.274 111.971 162.52 111.69 162.777 111.409C163.035 111.128 163.292 110.835 163.538 110.531C163.784 110.226 164.054 109.922 164.3 109.605C164.78 108.961 165.283 108.317 165.717 107.626C166.15 106.936 166.583 106.245 166.993 105.554C167.374 104.866 167.718 104.159 168.023 103.434C168.351 102.743 168.574 102.041 168.831 101.385C168.925 101.049 169.019 100.721 169.112 100.401L169.253 99.9328C169.253 99.7806 169.323 99.6284 169.347 99.4761C169.475 98.8789 169.604 98.3051 169.663 97.8367C169.721 97.3683 169.803 96.9116 169.815 96.5603C169.815 95.846 169.874 95.3893 169.874 95.3893C169.874 95.3893 169.874 95.7991 169.874 96.5603C169.863 96.9913 169.827 97.4213 169.768 97.8484C169.715 98.4072 169.629 98.9624 169.511 99.5113C169.511 99.6635 169.511 99.8157 169.417 99.968C169.323 100.12 169.335 100.284 169.288 100.448C169.241 100.612 169.112 101.104 169.019 101.443C168.797 102.147 168.539 102.839 168.246 103.516C167.953 104.242 167.59 104.945 167.215 105.659C166.841 106.373 166.419 107.088 165.939 107.755C165.459 108.423 164.99 109.102 164.499 109.746C164.253 110.062 163.983 110.367 163.737 110.671L162.965 111.549L162.192 112.381L161.407 113.142C160.915 113.634 160.4 114.067 159.943 114.477C159.487 114.887 159.042 115.238 158.655 115.554C158.269 115.87 157.918 116.128 157.636 116.339L156.7 117.006Z" fill="white"/>
<path d="M146.978 69.5097L156.054 64.2285V70.9384L155.445 65.3175L146.978 69.5097Z" fill="#FAFAFA"/>
<path d="M147.704 122.241L148.184 128.072L156.698 123.763L147.704 128.962V122.241Z" fill="#FAFAFA"/>
<path d="M175.41 43.1619L176.171 33.1731L176.933 43.1619L186.921 43.923L176.933 44.6842L176.171 54.673L175.41 44.6842L165.422 43.923L175.41 43.1619Z" fill="white"/>
<path d="M183.783 51.6752L184.146 46.8272L184.521 51.6752L189.357 52.0382L184.521 52.413L184.146 57.2493L183.783 52.413L178.935 52.0382L183.783 51.6752Z" fill="white"/>
<path d="M426.608 326.103L419.792 328.633L418.387 323.879L424.137 323.996L426.608 326.103Z" fill="black"/>
<path d="M423.68 312.754C423.68 312.754 426.842 315.763 427.825 316.735C428.809 317.707 427.24 324.64 426.654 326.103L424.183 323.996C424.245 326.028 424.571 328.044 425.155 329.991C425.624 332.158 427.052 335.846 426.397 339.675C425.436 345.413 421.268 351.479 415.857 356.444C410.447 361.41 406.056 362.827 403.386 363.026C400.716 363.225 398.971 362.288 398.105 360.59C397.238 358.892 423.68 312.754 423.68 312.754Z" fill="#263238"/>
<path d="M398.667 314.581L396.887 312.777C395.833 313.632 398.198 316.419 398.878 320.049C399.979 325.44 400.349 330.954 399.978 336.444C398.913 346.222 396.746 353.646 396.301 358.025C395.681 363.881 406.009 363.553 414.651 355.285C418.937 351.175 424.933 342.135 424.804 337.65C424.675 333.165 422.368 327.989 422.462 324.581C422.556 321.173 424.675 315.986 423.703 312.766C423.164 310.997 420.19 308.374 417.497 306.231C415.061 304.264 412.813 299.791 411.735 301.208L412.696 302.73C413.07 304.182 412.333 307.672 409.241 311.384C407.672 313.222 402.402 318.012 398.667 314.581Z" fill="#455A64"/>
<path opacity="0.15" d="M406.384 313.96C404.511 315.307 402.133 316.302 400.002 315.471H399.932C400.615 316.015 401.162 316.711 401.53 317.504C401.898 318.297 402.077 319.164 402.051 320.038C402.122 323.246 403.808 344.922 403.808 344.922C403.808 344.922 403.503 326.115 403.48 322.544C403.48 317.262 403.995 316.185 406.396 313.983L406.384 313.96Z" fill="black"/>
<path d="M396.253 358.014C396.627 354.313 398.232 348.446 399.356 340.811C399.754 343.153 399.414 345.495 399.73 346.081C400.492 347.592 405.796 346.081 408.619 344.711C411.441 343.341 411.101 338.001 411.827 332.298C412.553 326.595 418.596 327.368 423.42 330.366C424.128 332.734 424.576 335.173 424.755 337.638C424.884 342.123 418.9 351.163 414.602 355.273C406.007 363.541 395.679 363.88 396.253 358.014Z" fill="#37474F"/>
<path opacity="0.15" d="M407.283 319.265C407.423 319.4 407.61 319.475 407.804 319.475C407.998 319.475 408.185 319.4 408.325 319.265C408.394 319.2 408.449 319.122 408.486 319.035C408.524 318.949 408.543 318.855 408.543 318.761C408.543 318.667 408.524 318.573 408.486 318.487C408.449 318.4 408.394 318.322 408.325 318.258C408.183 318.122 407.995 318.046 407.798 318.046C407.602 318.046 407.413 318.122 407.271 318.258C407.202 318.322 407.146 318.4 407.109 318.488C407.071 318.575 407.053 318.669 407.054 318.764C407.055 318.859 407.076 318.952 407.115 319.038C407.155 319.125 407.212 319.202 407.283 319.265Z" fill="black"/>
<path opacity="0.15" d="M407.238 324.464C407.389 324.59 407.581 324.654 407.777 324.643C407.973 324.632 408.157 324.547 408.292 324.405C408.36 324.34 408.413 324.262 408.45 324.175C408.486 324.089 408.505 323.996 408.505 323.902C408.505 323.808 408.486 323.715 408.45 323.629C408.413 323.542 408.36 323.464 408.292 323.398C408.144 323.267 407.951 323.2 407.753 323.211C407.556 323.222 407.371 323.31 407.238 323.457C407.171 323.522 407.118 323.601 407.081 323.687C407.045 323.774 407.026 323.867 407.026 323.96C407.026 324.054 407.045 324.147 407.081 324.234C407.118 324.32 407.171 324.399 407.238 324.464Z" fill="black"/>
<path opacity="0.15" d="M407.204 329.605C407.346 329.741 407.534 329.817 407.731 329.817C407.927 329.817 408.116 329.741 408.258 329.605C408.322 329.534 408.371 329.452 408.403 329.363C408.434 329.273 408.448 329.178 408.442 329.083C408.437 328.988 408.413 328.895 408.371 328.81C408.329 328.725 408.271 328.648 408.199 328.586C408.049 328.46 407.856 328.396 407.661 328.407C407.465 328.418 407.281 328.503 407.145 328.645C407.028 328.781 406.969 328.957 406.98 329.137C406.991 329.316 407.071 329.484 407.204 329.605Z" fill="black"/>
<path opacity="0.15" d="M407.158 334.757C407.308 334.883 407.5 334.947 407.696 334.936C407.892 334.925 408.076 334.84 408.211 334.699C408.28 334.634 408.335 334.556 408.372 334.469C408.41 334.383 408.429 334.29 408.429 334.195C408.429 334.101 408.41 334.007 408.372 333.921C408.335 333.834 408.28 333.756 408.211 333.692C408.072 333.556 407.885 333.481 407.69 333.481C407.496 333.481 407.309 333.556 407.169 333.692C407.092 333.757 407.029 333.838 406.986 333.929C406.943 334.021 406.92 334.121 406.919 334.222C406.918 334.323 406.938 334.423 406.98 334.516C407.021 334.608 407.081 334.69 407.158 334.757Z" fill="black"/>
<path opacity="0.15" d="M407.122 339.898C407.27 340.029 407.463 340.097 407.661 340.086C407.858 340.075 408.043 339.986 408.176 339.839C408.239 339.77 408.288 339.689 408.32 339.6C408.351 339.511 408.365 339.417 408.359 339.323C408.354 339.23 408.33 339.138 408.288 339.053C408.246 338.969 408.188 338.894 408.117 338.832C407.967 338.707 407.774 338.643 407.578 338.654C407.383 338.665 407.199 338.749 407.063 338.891C406.999 338.96 406.95 339.042 406.919 339.13C406.887 339.219 406.874 339.313 406.879 339.407C406.885 339.501 406.909 339.593 406.951 339.677C406.992 339.761 407.05 339.836 407.122 339.898Z" fill="black"/>
<path d="M407.964 318.984C408.01 318.931 408.039 318.866 408.046 318.796C408.044 318.718 408.012 318.644 407.958 318.588C407.904 318.532 407.831 318.498 407.753 318.492C407.543 318.492 402.566 318.304 399.252 321.49C399.224 321.516 399.202 321.548 399.186 321.583C399.171 321.618 399.163 321.656 399.163 321.695C399.163 321.733 399.171 321.771 399.186 321.806C399.202 321.841 399.224 321.873 399.252 321.899C399.31 321.951 399.385 321.98 399.463 321.98C399.54 321.98 399.615 321.951 399.673 321.899C402.812 318.89 407.683 319.066 407.73 319.077C407.773 319.078 407.816 319.07 407.856 319.054C407.897 319.038 407.933 319.014 407.964 318.984Z" fill="#263238"/>
<path d="M407.964 324.124C408.013 324.075 408.043 324.008 408.046 323.937C408.047 323.899 408.041 323.86 408.028 323.824C408.015 323.788 407.994 323.755 407.968 323.727C407.942 323.698 407.911 323.676 407.876 323.659C407.841 323.643 407.803 323.634 407.765 323.633C407.554 323.633 402.577 323.434 399.263 326.63C399.237 326.657 399.216 326.688 399.202 326.722C399.188 326.756 399.18 326.793 399.18 326.83C399.18 326.867 399.188 326.903 399.202 326.937C399.216 326.971 399.237 327.003 399.263 327.029C399.29 327.057 399.323 327.079 399.359 327.095C399.395 327.11 399.434 327.118 399.474 327.118C399.513 327.118 399.552 327.11 399.588 327.095C399.624 327.079 399.657 327.057 399.685 327.029C402.811 324.031 407.683 324.206 407.741 324.206C407.782 324.211 407.823 324.205 407.862 324.191C407.9 324.177 407.935 324.154 407.964 324.124Z" fill="#263238"/>
<path d="M407.963 329.277C408.013 329.227 408.043 329.16 408.045 329.09C408.045 329.011 408.015 328.935 407.96 328.878C407.906 328.821 407.831 328.788 407.753 328.785C407.542 328.785 402.577 328.586 399.251 331.783C399.223 331.808 399.201 331.839 399.186 331.873C399.171 331.907 399.163 331.944 399.163 331.982C399.163 332.019 399.171 332.056 399.186 332.091C399.201 332.125 399.223 332.156 399.251 332.181C399.278 332.209 399.311 332.232 399.347 332.247C399.384 332.263 399.422 332.271 399.462 332.271C399.501 332.271 399.54 332.263 399.576 332.247C399.613 332.232 399.645 332.209 399.673 332.181C402.799 329.183 407.682 329.359 407.729 329.359C407.772 329.364 407.815 329.359 407.856 329.345C407.896 329.331 407.933 329.308 407.963 329.277Z" fill="#263238"/>
<path d="M407.87 334.418C407.897 334.395 407.919 334.366 407.933 334.333C407.947 334.301 407.954 334.266 407.952 334.23C407.954 334.192 407.948 334.155 407.934 334.119C407.921 334.084 407.901 334.051 407.874 334.024C407.848 333.997 407.817 333.975 407.782 333.96C407.747 333.945 407.709 333.937 407.671 333.938C407.461 333.938 402.484 333.738 399.17 336.924C399.116 336.978 399.086 337.052 399.086 337.129C399.086 337.205 399.116 337.279 399.17 337.333C399.228 337.385 399.303 337.414 399.381 337.414C399.458 337.414 399.533 337.385 399.591 337.333C402.718 334.324 407.601 334.511 407.648 334.511C407.732 334.511 407.812 334.477 407.87 334.418Z" fill="#263238"/>
<path d="M407.835 339.57C407.883 339.519 407.912 339.453 407.917 339.383C407.919 339.344 407.912 339.306 407.899 339.27C407.886 339.234 407.866 339.2 407.84 339.172C407.813 339.144 407.782 339.121 407.747 339.105C407.712 339.089 407.674 339.08 407.636 339.078C407.425 339.078 402.448 338.879 399.123 342.064C399.095 342.09 399.073 342.12 399.058 342.155C399.043 342.189 399.035 342.226 399.035 342.263C399.035 342.301 399.043 342.338 399.058 342.372C399.073 342.406 399.095 342.437 399.123 342.462C399.15 342.491 399.183 342.513 399.219 342.529C399.255 342.544 399.294 342.552 399.333 342.552C399.373 342.552 399.412 342.544 399.448 342.529C399.484 342.513 399.517 342.491 399.544 342.462C402.682 339.465 407.554 339.64 407.601 339.64C407.643 339.645 407.685 339.641 407.725 339.629C407.765 339.617 407.803 339.597 407.835 339.57Z" fill="#263238"/>
<path d="M322.794 174.222C321.928 187.962 321.834 201.739 322.513 215.489C323.461 237.598 324.726 248.149 334.996 261.545C344.165 273.513 394.449 313.901 398.489 317.988C398.489 317.988 414.883 318.293 414.45 302.226C414.45 302.226 402.072 281.242 393.816 267.002C385.56 252.762 375.279 246.392 375.279 246.392L383.804 181.26L322.794 174.222Z" fill="#263238"/>
<path d="M378.056 180.722L383.77 181.26V181.494L375.573 244.296L375.257 245.877H375.363L375.304 246.357C380.976 250.308 385.907 255.227 389.871 260.889C388.033 266.604 384.274 276.651 384.274 276.651C383.993 278.197 388.958 284.076 387.787 302.882C387.705 304.241 387.506 306.208 387.272 308.327C374.871 297.94 357.996 283.736 346.52 273.197C345.783 270.316 343.523 260.831 343.85 253.442C344.178 246.053 344.951 209.856 344.951 209.856C341.514 208.12 338.426 205.766 335.841 202.912C333.693 200.636 332.115 197.883 331.239 194.879C329.093 190.201 327.25 185.39 325.723 180.476L378.056 180.722Z" fill="black"/>
<path d="M366.582 386.469L359.638 384.291L361.64 379.759L366.032 383.331L366.582 386.469Z" fill="black"/>
<path d="M373.02 374.302C373.02 374.302 373.524 378.565 373.652 379.9C373.781 381.235 368.032 385.673 366.626 386.434L366.076 383.296C364.802 384.902 363.74 386.666 362.914 388.542C361.872 390.509 360.572 394.198 357.563 396.798C353.066 400.674 345.852 402.84 338.416 403.426C330.98 404.011 326.613 402.419 324.364 400.955C322.116 399.491 321.402 397.699 321.835 395.861C322.268 394.022 373.02 374.302 373.02 374.302Z" fill="#263238"/>
<path d="M352.329 360.613L352.118 358.142C350.736 358.142 350.76 361.761 348.921 364.993C346.238 369.842 342.935 374.322 339.096 378.319C331.883 385.263 325.349 389.701 322.128 392.828C317.819 396.997 326.075 402.992 338.206 401.833C344.237 401.248 354.811 397.875 357.645 394.315C360.479 390.755 362.06 385.345 364.344 382.746C366.627 380.146 371.674 377.429 373.021 374.338C373.77 372.64 373.126 368.787 372.47 365.508C371.862 362.51 373.021 357.674 371.299 358.119L371.042 359.887C370.386 361.234 367.529 363.494 362.704 364.489C360.257 364.993 353.02 365.508 352.329 360.613Z" fill="#455A64"/>
<path opacity="0.15" d="M358.781 364.782C356.439 364.688 353.91 364.056 352.833 362.077V362.019C353.012 362.87 352.985 363.752 352.755 364.591C352.525 365.43 352.098 366.202 351.509 366.843C349.413 369.384 336.532 387.184 336.532 387.184C336.532 387.184 348.582 372.417 350.9 369.618C354.32 365.496 355.444 364.934 358.758 364.735L358.781 364.782Z" fill="black"/>
<path d="M322.128 392.828C324.845 390.181 329.927 386.598 335.794 381.375C334.623 383.401 332.796 385.017 332.644 385.685C332.246 387.324 337.328 389.362 340.455 390.006C343.581 390.65 346.778 386.317 351.064 382.336C355.35 378.354 359.554 382.617 361.346 387.863C360.346 390.139 359.105 392.302 357.645 394.315C354.811 397.828 344.237 401.248 338.206 401.833C326.075 402.992 317.796 396.997 322.128 392.828Z" fill="#37474F"/>
<path opacity="0.15" d="M355.97 369.478C356.007 369.669 356.117 369.838 356.277 369.95C356.436 370.061 356.633 370.106 356.825 370.075C356.919 370.062 357.01 370.031 357.092 369.982C357.174 369.934 357.245 369.87 357.302 369.793C357.359 369.717 357.4 369.63 357.422 369.538C357.445 369.445 357.449 369.349 357.434 369.255C357.397 369.064 357.287 368.895 357.128 368.784C356.968 368.672 356.771 368.627 356.579 368.658C356.485 368.671 356.394 368.703 356.312 368.751C356.231 368.799 356.159 368.864 356.102 368.94C356.046 369.016 356.005 369.103 355.982 369.196C355.959 369.288 355.956 369.384 355.97 369.478Z" fill="black"/>
<path opacity="0.15" d="M352.574 373.448C352.611 373.639 352.721 373.808 352.881 373.919C353.04 374.031 353.237 374.076 353.429 374.045C353.524 374.032 353.615 374 353.697 373.952C353.78 373.904 353.852 373.84 353.909 373.764C353.967 373.688 354.009 373.601 354.033 373.508C354.057 373.416 354.063 373.32 354.05 373.225C354.01 373.036 353.899 372.868 353.741 372.757C353.582 372.646 353.387 372.6 353.195 372.628C353.1 372.639 353.008 372.67 352.924 372.718C352.841 372.765 352.768 372.829 352.71 372.906C352.652 372.983 352.611 373.07 352.587 373.163C352.564 373.256 352.559 373.353 352.574 373.448Z" fill="black"/>
<path opacity="0.15" d="M349.179 377.406C349.216 377.597 349.326 377.766 349.485 377.877C349.645 377.989 349.841 378.034 350.033 378.003C350.129 377.992 350.221 377.961 350.304 377.913C350.387 377.865 350.46 377.801 350.518 377.725C350.576 377.648 350.618 377.561 350.641 377.468C350.665 377.375 350.669 377.278 350.654 377.183C350.617 376.993 350.507 376.825 350.347 376.715C350.187 376.606 349.99 376.563 349.799 376.598C349.705 376.609 349.614 376.639 349.532 376.686C349.45 376.733 349.377 376.796 349.32 376.872C349.262 376.947 349.22 377.033 349.195 377.125C349.171 377.216 349.165 377.312 349.179 377.406Z" fill="black"/>
<path opacity="0.15" d="M345.795 381.329C345.83 381.519 345.937 381.688 346.095 381.8C346.252 381.911 346.448 381.957 346.638 381.926C346.734 381.914 346.826 381.884 346.909 381.836C346.992 381.788 347.065 381.724 347.123 381.648C347.181 381.571 347.223 381.484 347.246 381.391C347.269 381.298 347.274 381.201 347.259 381.106C347.222 380.915 347.112 380.746 346.953 380.634C346.793 380.523 346.596 380.478 346.404 380.509C346.31 380.522 346.219 380.553 346.137 380.602C346.055 380.65 345.984 380.714 345.927 380.791C345.871 380.867 345.83 380.954 345.807 381.046C345.784 381.139 345.78 381.235 345.795 381.329Z" fill="black"/>
<path opacity="0.15" d="M342.386 385.334C342.402 385.43 342.436 385.522 342.488 385.604C342.54 385.686 342.608 385.757 342.687 385.813C342.767 385.869 342.857 385.908 342.952 385.928C343.047 385.948 343.146 385.949 343.241 385.931C343.335 385.919 343.425 385.889 343.507 385.842C343.589 385.795 343.66 385.732 343.717 385.656C343.774 385.581 343.815 385.495 343.838 385.403C343.861 385.311 343.865 385.216 343.85 385.123C343.816 384.93 343.707 384.759 343.546 384.647C343.386 384.535 343.188 384.492 342.995 384.526C342.901 384.537 342.811 384.567 342.729 384.614C342.647 384.662 342.576 384.725 342.519 384.8C342.462 384.876 342.421 384.962 342.398 385.053C342.376 385.145 342.371 385.24 342.386 385.334Z" fill="black"/>
<path d="M356.744 369.618C356.816 369.611 356.883 369.578 356.932 369.525C356.985 369.47 357.015 369.396 357.015 369.32C357.015 369.243 356.985 369.17 356.932 369.115C354.515 367.149 351.46 366.14 348.348 366.281C348.31 366.284 348.273 366.294 348.239 366.312C348.205 366.33 348.176 366.354 348.151 366.384C348.127 366.413 348.109 366.448 348.099 366.484C348.089 366.521 348.086 366.559 348.091 366.597C348.102 366.674 348.143 366.743 348.203 366.791C348.264 366.839 348.341 366.862 348.418 366.855C351.36 366.742 354.243 367.699 356.534 369.548C356.562 369.574 356.596 369.593 356.632 369.605C356.668 369.617 356.706 369.622 356.744 369.618Z" fill="#263238"/>
<path d="M353.347 373.612C353.418 373.6 353.483 373.568 353.535 373.518C353.588 373.463 353.618 373.39 353.618 373.313C353.618 373.236 353.588 373.163 353.535 373.108C351.124 371.131 348.066 370.117 344.951 370.263C344.909 370.261 344.866 370.269 344.827 370.285C344.788 370.301 344.753 370.326 344.724 370.357C344.696 370.388 344.674 370.425 344.661 370.466C344.648 370.506 344.644 370.549 344.649 370.591C344.655 370.633 344.669 370.673 344.691 370.709C344.713 370.745 344.743 370.776 344.779 370.799C344.814 370.823 344.854 370.838 344.896 370.845C344.938 370.851 344.981 370.848 345.021 370.836C349.413 370.403 353.101 373.506 353.136 373.53C353.195 373.58 353.27 373.609 353.347 373.612Z" fill="#263238"/>
<path d="M349.952 377.581C349.989 377.58 350.024 377.572 350.057 377.555C350.089 377.539 350.117 377.516 350.14 377.488C350.169 377.463 350.193 377.433 350.209 377.399C350.225 377.364 350.234 377.327 350.234 377.289C350.234 377.25 350.225 377.213 350.209 377.178C350.193 377.144 350.169 377.114 350.14 377.089C347.734 375.111 344.679 374.097 341.568 374.244C341.492 374.253 341.423 374.291 341.375 374.35C341.327 374.409 341.304 374.484 341.31 374.56C341.322 374.637 341.362 374.706 341.423 374.754C341.484 374.802 341.561 374.825 341.638 374.818C346.041 374.384 349.718 377.488 349.753 377.511C349.809 377.558 349.88 377.583 349.952 377.581Z" fill="#263238"/>
<path d="M346.567 381.551C346.637 381.537 346.701 381.504 346.754 381.457C346.782 381.431 346.805 381.399 346.82 381.364C346.835 381.329 346.843 381.291 346.843 381.253C346.843 381.214 346.835 381.176 346.82 381.141C346.805 381.106 346.782 381.074 346.754 381.048C344.347 379.073 341.292 378.063 338.183 378.214C338.146 378.218 338.11 378.23 338.078 378.249C338.045 378.267 338.017 378.292 337.994 378.321C337.971 378.35 337.954 378.384 337.945 378.42C337.935 378.456 337.932 378.493 337.937 378.53C337.941 378.567 337.953 378.602 337.972 378.635C337.99 378.667 338.014 378.696 338.044 378.718C338.073 378.741 338.107 378.758 338.143 378.768C338.179 378.778 338.216 378.78 338.253 378.776C341.196 378.664 344.08 379.626 346.368 381.481C346.424 381.526 346.495 381.551 346.567 381.551Z" fill="#263238"/>
<path d="M343.172 385.509C343.208 385.507 343.243 385.497 343.275 385.481C343.308 385.465 343.336 385.443 343.36 385.415C343.386 385.389 343.407 385.358 343.421 385.324C343.435 385.29 343.442 385.253 343.442 385.216C343.442 385.179 343.435 385.143 343.421 385.109C343.407 385.074 343.386 385.043 343.36 385.017C340.949 383.04 337.891 382.027 334.776 382.172C334.699 382.181 334.629 382.218 334.579 382.277C334.529 382.335 334.503 382.411 334.507 382.488C334.521 382.565 334.564 382.635 334.627 382.683C334.689 382.73 334.768 382.753 334.846 382.746C339.238 382.312 342.915 385.415 342.961 385.439C342.99 385.464 343.023 385.484 343.06 385.496C343.096 385.508 343.134 385.512 343.172 385.509Z" fill="#263238"/>
<path d="M394.71 170.651C394.71 170.651 396.15 182.747 396.618 190.066C397.569 202.897 396.458 215.797 393.328 228.277C390.986 238.71 382.484 273.946 381.793 277.635C383.737 285.457 385.142 291.886 383.175 309.311C380.154 336.104 372.425 365.016 372.425 365.016C370.294 368.354 353.583 367.862 348.513 363.599C348.513 363.599 346.909 285.434 346.171 269.087C345.539 254.882 348.946 207.913 348.946 207.913C348.946 207.913 326.205 200.523 322.481 175.698L394.71 170.651Z" fill="#263238"/>
<path d="M335.548 92.8015C327.586 95.4597 324.213 99.1836 316.66 109.371C309.294 119.313 298.579 133.846 298.579 133.846L259.479 129.49L263.425 149.221C263.425 149.221 291.729 156.318 300.957 157.512C307.866 158.414 311.496 154.678 316.039 149.315C324.131 139.642 334.459 125.368 334.459 125.368L335.548 92.8015Z" fill="#F0F0F0"/>
<path d="M375.171 86.9111C375.171 86.9111 351.821 85.9743 337.699 91.4781C334.56 92.6491 326.387 99.9211 324.595 120.437C322.394 145.532 322.253 178.11 322.253 178.11C322.874 180.253 330.052 192.162 351.599 195.5C373.848 198.931 386.554 197.362 397.573 188.766C397.573 169.269 397.632 167.922 397.69 152.816C397.69 143.061 400.641 124.278 402.292 116.116C403.463 110.378 402.292 100.893 398.709 98.551C394.938 96.1153 380.933 91.1034 380.933 91.1034C378.742 90.1213 376.78 88.6935 375.171 86.9111Z" fill="#FAFAFA"/>
<path d="M371.192 87.9065C372.843 87.9065 374.073 87.9065 374.705 87.9065C376.344 89.6566 378.304 91.0758 380.478 92.0871H380.537C380.677 92.0871 394.472 97.0756 398.102 99.4176C401.123 101.373 402.364 110.25 401.229 115.882C399.636 123.751 396.638 142.663 396.544 152.793C396.544 157.828 396.544 161.341 396.544 164.503C396.544 170.709 396.474 175.616 396.486 188.228C389.226 193.743 381.38 196.109 370.349 196.109C364.109 196.018 357.885 195.459 351.73 194.434C329.902 191.05 323.836 179.129 323.274 177.899C323.274 175.124 323.555 144.256 325.616 120.519C327.677 96.7828 337.958 92.4969 338.064 92.415C348.603 88.293 364.693 87.8597 371.133 87.8597M371.133 86.7941C363.85 86.7941 348.181 87.321 337.677 91.4781C334.539 92.6492 326.365 99.9212 324.574 120.437C322.372 145.532 322.232 178.11 322.232 178.11C322.852 180.253 330.031 192.162 351.577 195.5C357.772 196.531 364.035 197.095 370.314 197.186C381.766 197.186 390.034 194.586 397.505 188.766C397.505 169.269 397.563 167.922 397.622 152.816C397.622 143.061 400.573 124.278 402.224 116.116C403.395 110.378 402.224 100.893 398.641 98.5511C394.87 96.1154 380.864 91.1034 380.864 91.1034C378.699 90.113 376.761 88.6857 375.173 86.9112C375.173 86.9112 373.674 86.8409 371.204 86.8409L371.133 86.7941Z" fill="#E0E0E0"/>
<path d="M381.098 39.5083C387.222 47.319 384.611 55.9026 381.706 64.533C378.357 74.3461 378.006 77.5664 372.128 79.7562C375.266 48.5134 362.408 82.754 338.73 56.9214C334.444 52.2373 334.514 40.0938 340.381 34.2387C348.684 25.9245 369.083 24.7535 381.098 39.5083Z" fill="#37474F"/>
<path d="M381.181 74.8379C376.497 76.4774 374.365 73.14 374.365 73.14L373.616 85.3771C373.616 85.3771 379.834 93.2229 373.241 95.12C356.999 99.804 355.828 103.118 350.629 108.634C348.217 103.949 349.727 96.373 349.61 93.5977L350.207 84.4871C348.34 84.5512 346.472 84.3581 344.657 83.9133C339.973 82.5784 336.823 79.1004 335.827 72.6716C334.656 64.9077 335.827 52.6823 339.129 42.2251C344.177 38.712 360.758 39.1804 370.747 46.1129C369.869 54.7433 372.129 56.2773 371.918 60.0011C371.672 64.1934 371.918 65.1653 373.148 65.8562C374.377 66.5471 375.654 64.6032 376.239 63.3971C377.234 61.3829 378.066 60.0948 380.139 59.6967C382.211 59.2985 384.46 59.7786 386.169 62.6359C388.757 66.9921 384.542 73.6552 381.181 74.8379Z" fill="#FFA8A7"/>
<path d="M357.081 57.5654C357.058 57.9396 357.145 58.3126 357.332 58.6376C357.519 58.9626 357.798 59.2254 358.133 59.3931C358.468 59.5607 358.846 59.6259 359.218 59.5804C359.59 59.5349 359.941 59.3808 360.226 59.1373C360.511 58.8938 360.718 58.5717 360.821 58.2111C360.925 57.8506 360.919 57.4677 360.806 57.1102C360.693 56.7526 360.477 56.4363 360.186 56.2007C359.894 55.9651 359.539 55.8207 359.166 55.7854C358.912 55.7646 358.656 55.7943 358.414 55.8726C358.172 55.9509 357.947 56.0764 357.753 56.2418C357.56 56.4073 357.401 56.6094 357.285 56.8365C357.17 57.0637 357.101 57.3114 357.081 57.5654Z" fill="#263238"/>
<path d="M356.262 69.5917L349.318 71.0087C349.394 71.4699 349.561 71.9112 349.81 72.3068C350.059 72.7025 350.385 73.0445 350.768 73.3127C351.15 73.581 351.583 73.7702 352.04 73.8692C352.496 73.9682 352.968 73.9751 353.428 73.8894C354.364 73.6784 355.183 73.1129 355.711 72.3116C356.239 71.5103 356.437 70.5355 356.262 69.5917Z" fill="#B16668"/>
<path d="M355.477 71.1024C354.698 71.1027 353.945 71.3889 353.362 71.9069C352.78 72.4249 352.407 73.1386 352.315 73.9128C352.684 73.9719 353.059 73.9719 353.428 73.9128C354.084 73.7698 354.687 73.4479 355.17 72.9828C355.654 72.5176 356 71.9275 356.168 71.278C355.945 71.1946 355.713 71.1357 355.477 71.1024Z" fill="#F28F8F"/>
<path d="M340.122 51.3473L345.31 48.7594C345.146 48.4226 344.916 48.122 344.634 47.8753C344.352 47.6287 344.023 47.4409 343.668 47.3231C343.312 47.2052 342.936 47.1597 342.563 47.1892C342.189 47.2187 341.825 47.3225 341.492 47.4947C340.815 47.84 340.295 48.4317 340.04 49.1482C339.786 49.8648 339.815 50.6517 340.122 51.3473Z" fill="#263238"/>
<path d="M358.78 50.7384L363.382 54.31C363.618 54.0163 363.792 53.6782 363.894 53.3159C363.997 52.9536 364.025 52.5745 363.978 52.2009C363.931 51.8274 363.81 51.4671 363.621 51.1414C363.432 50.8157 363.179 50.5313 362.878 50.3051C362.273 49.8312 361.506 49.6114 360.741 49.6923C359.977 49.7731 359.273 50.1483 358.78 50.7384Z" fill="#263238"/>
<path d="M341.049 55.7854C341.028 56.1611 341.118 56.5348 341.307 56.8599C341.497 57.185 341.778 57.4473 342.115 57.6143C342.452 57.7812 342.831 57.8453 343.204 57.7988C343.578 57.7522 343.929 57.597 344.215 57.3523C344.501 57.1077 344.709 56.7845 344.813 56.4228C344.916 56.0611 344.912 55.6768 344.799 55.3178C344.686 54.9588 344.471 54.6408 344.179 54.4033C343.887 54.1658 343.531 54.0194 343.157 53.9821C342.639 53.9463 342.128 54.1153 341.734 54.4526C341.34 54.7899 341.094 55.2685 341.049 55.7854Z" fill="#263238"/>
<path d="M353.908 54.1226L350.699 66.9101L344.598 64.0646C346.683 59.7318 350.055 57.015 353.908 54.1226Z" fill="#F28F8F"/>
<path d="M350.207 84.4871C355.383 84.4871 362.644 83.3161 365.794 80.8102C368.596 78.678 370.693 75.7527 371.813 72.4139C371.657 74.5947 371.069 76.7229 370.084 78.6748C369.099 80.6267 367.736 82.3635 366.075 83.7845C361.59 87.7894 349.997 88.1173 349.997 88.1173L350.207 84.4871Z" fill="#F28F8F"/>
<path d="M390.399 94.7218C390.399 94.7218 387.518 107.498 388.935 117.24C390.352 126.983 396.09 131.902 400.259 136.785C404.427 141.668 411.231 148.062 419.323 148.495L420.845 123.26C417.627 118.201 414.107 113.34 410.306 108.704C404.662 101.783 404.041 99.3356 390.399 94.7218Z" fill="#F0F0F0"/>
<path opacity="0.1" d="M390.399 94.7218C390.399 94.7218 387.518 107.498 388.935 117.24C390.352 126.983 396.09 131.902 400.259 136.785C404.427 141.668 411.231 148.062 419.323 148.495L420.845 123.26C417.627 118.201 414.107 113.34 410.306 108.704C404.662 101.783 404.041 99.3356 390.399 94.7218Z" fill="black"/>
<path d="M350.581 108.634C353.076 105.542 356.87 99.1132 359.071 97.6026C361.273 96.092 372.14 90.9161 373.604 85.6113L373.814 82.5081C375.313 81.9226 375.676 85.8338 380.946 91.1151C380.862 95.4475 379.356 99.6321 376.66 103.024C375.232 105.095 373.3 106.768 371.046 107.884C368.792 109.001 366.291 109.525 363.779 109.406C363.779 109.406 360.102 102.287 359.095 101.924C358.088 101.561 353.813 106.35 350.581 108.634Z" fill="#F0F0F0"/>
<path d="M350.584 108.633C349.214 105.882 349.413 95.518 349.413 95.518L349.952 87.801C349.952 87.801 347.61 87.6605 345.748 90.752C341.567 97.8952 341.497 102.755 342.083 104.125C343.734 101.104 346.989 99.6634 347.551 100.495C348.113 101.326 348.886 106.139 350.584 108.633Z" fill="#F0F0F0"/>
<path d="M403.279 89.5928C401.336 86.3663 400.062 82.7823 399.531 79.0537C399.051 74.7443 396.276 70.4584 395.363 68.7253C394.449 66.9922 392.353 64.3457 390.807 61.8748C389.262 59.404 388.805 58.7248 386.205 57.9168C382.692 56.8043 379.858 55.8558 378.371 56.09C376.884 56.3242 376.802 57.261 377.879 58.7131C378.957 60.1651 381.509 60.7975 382.294 61.1488C383.079 61.5001 384.742 62.5189 384.742 62.5189L387.447 67.9407C385.09 68.0259 382.742 68.2763 380.42 68.6901C379.249 69.1468 377.868 71.9221 378.137 73.585C378.137 73.585 375.795 74.756 376.392 76.9107C376.392 76.9107 374.893 78.4096 375.584 79.8968C376.386 81.4139 377.356 82.8358 378.477 84.1359C379.097 84.8268 381.837 85.3069 381.837 85.3069C382.801 87.3306 384.029 89.217 385.491 90.9161C387.259 92.6375 388.559 92.7194 390.304 96.0568L403.279 89.5928Z" fill="#FFA8A7"/>
<path d="M384.857 68.1163C383.581 67.3551 383.405 66.3949 382.059 66.7111C380.712 67.0272 381.005 68.5496 381.005 68.5496L384.857 68.1163Z" fill="#F28F8F"/>
<path d="M378.171 73.7372C379.116 73.1309 380.136 72.6506 381.204 72.3086C382.2 71.9807 384.249 71.5591 384.249 71.5591C382.871 71.4879 381.489 71.6221 380.15 71.9572C379.464 72.1266 378.793 72.3578 378.148 72.6482C378.107 72.963 378.107 73.2818 378.148 73.5967L378.171 73.7372Z" fill="#F28F8F"/>
<path d="M377.726 75.6928C377.249 75.8192 376.783 75.9837 376.332 76.1846C376.319 76.5036 376.35 76.8229 376.426 77.1331C377.316 76.1729 380.326 75.3766 380.326 75.3766C379.45 75.3868 378.578 75.4928 377.726 75.6928Z" fill="#F28F8F"/>
<path d="M382.259 86.232C381.689 84.5373 380.956 82.9019 380.07 81.3489C379.778 80.913 379.33 80.6049 378.819 80.4874C378.308 80.3699 377.771 80.4518 377.318 80.7165C376.873 81.2083 378.746 81.3957 379.25 81.7002C380.482 83.046 381.497 84.5748 382.259 86.232Z" fill="#F28F8F"/>
<path d="M389.085 68.0226C389.085 68.0226 388.242 66.3949 386.673 63.7952C385.104 61.1956 385.186 61.5469 383.418 60.9379C381.649 60.329 378.277 59.2985 377.516 58.0455C377.647 58.2825 377.796 58.5095 377.961 58.7247C378.991 60.1065 381.591 60.8091 382.375 61.1604C383.16 61.5117 384.823 62.5305 384.823 62.5305L387.61 68.1046L389.085 68.0226Z" fill="#F28F8F"/>
<path d="M403.278 89.5928C408.395 97.7899 422.506 117.767 425.363 125.344C427.354 130.578 426.534 142.031 423.243 145.79C419.953 149.549 412.529 146.785 407.036 140.485C402.294 135.04 399.331 123.072 396.497 114.453C393.663 105.835 390.232 96.0919 390.232 96.0919L403.278 89.5928Z" fill="#FFA8A7"/>
<path d="M392.2 102.954C392.2 102.954 398.57 103.715 402.739 101.35C405.087 100.147 406.951 98.1756 408.021 95.764C408.021 95.764 419.005 112.451 422.073 117.545C425.141 122.639 427.705 126.14 427.143 133.74C426.581 141.34 425.808 148.062 420.351 148.518C414.894 148.975 408.793 144.139 405.55 140.321C402.306 136.504 396.018 118.599 392.2 102.954Z" fill="#F0F0F0"/>
<path d="M403.278 89.5928C402.106 87.5486 401.126 85.4004 400.351 83.1756C399.543 80.9507 399.566 78.4915 398.84 76.29C397.23 71.871 394.96 67.7214 392.107 63.9826C390.678 62.2026 389.87 59.685 387.739 58.631C386.392 58.1509 375.865 54.0407 377.586 57.8582C379.05 60.5749 382.762 60.5749 384.952 62.4369L387.645 67.8704C387.774 68.1514 387.821 68.0812 387.505 68.1046C385.381 68.1857 383.263 68.3733 381.158 68.6667C380.069 68.6667 379.436 69.662 378.956 70.5754C378.425 71.514 378.196 72.5935 378.3 73.6669C377.672 73.9234 377.152 74.3913 376.831 74.9899C376.511 75.5885 376.409 76.2802 376.544 76.9458C376.173 77.2715 375.892 77.687 375.728 78.1525C375.564 78.6179 375.522 79.1178 375.607 79.604C376.011 80.5111 376.514 81.3711 377.106 82.1685C377.611 83.0134 378.261 83.7626 379.026 84.3817C379.946 84.7974 380.914 85.0963 381.907 85.2717C382.863 87.3886 384.147 89.341 385.713 91.0565C387.469 92.5203 389.39 93.9021 390.338 96.0919C389.355 93.9021 387.434 92.5789 385.654 91.1385C384.081 89.4407 382.782 87.5089 381.802 85.4122C380.825 85.2742 379.875 84.9941 378.98 84.5808C378.177 83.9503 377.495 83.1809 376.965 82.309C375.666 80.5057 374.471 78.796 376.368 76.8287V76.9458C376.225 76.2425 376.326 75.5115 376.654 74.8731C376.982 74.2346 377.517 73.7267 378.172 73.4327L378.101 73.5732C378.054 72.7527 378.171 71.9309 378.447 71.1565C378.722 70.3822 379.15 69.6709 379.706 69.0648C380.093 68.6524 380.618 68.3945 381.181 68.3388C383.301 68.0295 385.435 67.8302 387.575 67.7416L387.434 67.9758L384.718 62.5657C382.739 61.0902 378.663 60.6101 377.364 57.987C375.49 53.3732 386.275 57.7411 387.903 58.3383C388.968 58.9298 389.835 59.8217 390.397 60.9028C393.57 65.8445 397.294 70.5403 399.074 76.2314C399.777 78.4915 399.718 80.9155 400.491 83.1405C401.22 85.3724 402.153 87.5323 403.278 89.5928Z" fill="#B16668"/>
<path d="M336.822 167.032C336.67 162.688 333.637 157.606 330.054 155.662C328.724 154.912 327.187 154.616 325.674 154.819C324.07 154.979 322.453 154.702 320.993 154.018C319.533 153.333 318.286 152.266 317.383 150.931C314.479 146.949 314.397 141.246 314.28 132.616C314.28 130.274 314.222 127.674 314.151 124.852C301.13 117.065 287.534 109.254 284.454 110.566L284.314 110.636C282.651 111.549 283.834 114.828 285.391 117.451C286.525 119.1 287.222 121.01 287.417 123.002C287.569 126.749 283.365 127.464 278.049 124.63C272.733 121.796 268.388 116.433 268.248 112.709C268.203 112.025 268.337 111.342 268.637 110.726C268.937 110.11 269.392 109.582 269.957 109.196C271.433 108.177 272.44 105.975 270.472 103.106C267.252 98.4223 257.064 93.5157 244.089 87.3093V87.403L244.171 89.6865C244.171 90.4242 244.171 91.1386 244.171 91.8529C244.558 102.79 244.64 110.589 241.537 111.596C239.195 112.404 235.588 109.383 233.222 106.537C232.005 104.968 230.503 103.641 228.796 102.626C228.179 102.218 227.47 101.973 226.733 101.911C225.996 101.85 225.256 101.975 224.58 102.275C223.269 102.989 222.484 104.617 222.566 106.959C222.718 111.315 225.74 116.409 229.335 118.33C230.668 119.081 232.208 119.38 233.726 119.184C235.327 119.021 236.943 119.296 238.401 119.978C239.859 120.661 241.105 121.726 242.005 123.061C245.518 127.745 245.694 134.993 246.092 146.891L246.186 149.725C258.025 156.751 269.243 162.981 272.475 161.575L272.604 161.517C274.267 160.627 273.084 157.325 271.526 154.725C270.407 153.06 269.712 151.146 269.501 149.151C269.383 145.415 273.564 144.701 278.869 147.547C284.173 150.392 288.553 155.744 288.67 159.456C288.711 160.139 288.575 160.821 288.276 161.436C287.976 162.052 287.523 162.58 286.96 162.969C285.497 163.988 284.478 166.189 286.469 169.046C289.408 173.297 300.134 178.942 312.559 185.441C313.73 186.073 314.983 186.705 316.236 187.349C316.119 184.785 316.002 182.314 315.861 179.902C315.346 170.206 314.971 163.215 317.77 162.255C320.112 161.446 323.719 164.479 326.084 167.313C327.321 168.902 328.851 170.237 330.593 171.248C331.207 171.662 331.917 171.912 332.655 171.973C333.393 172.035 334.134 171.906 334.808 171.599C336.12 171.037 336.904 169.374 336.822 167.032Z" fill="#34A573"/>
<path opacity="0.3" d="M336.822 167.032C336.67 162.688 333.637 157.606 330.054 155.662C328.724 154.912 327.187 154.616 325.674 154.819C324.07 154.979 322.453 154.702 320.993 154.018C319.533 153.333 318.286 152.266 317.383 150.931C314.479 146.949 314.397 141.246 314.28 132.616C314.28 130.274 314.222 127.674 314.151 124.852C301.13 117.065 287.534 109.254 284.454 110.566L284.314 110.636C282.651 111.549 283.834 114.828 285.391 117.451C286.525 119.1 287.222 121.01 287.417 123.002C287.569 126.749 283.365 127.464 278.049 124.63C272.733 121.796 268.388 116.433 268.248 112.709C268.203 112.025 268.337 111.342 268.637 110.726C268.937 110.11 269.392 109.582 269.957 109.196C271.433 108.177 272.44 105.975 270.472 103.106C267.252 98.4223 257.064 93.5157 244.089 87.3093V87.403L244.171 89.6865C244.171 90.4242 244.171 91.1386 244.171 91.8529C244.558 102.79 244.64 110.589 241.537 111.596C239.195 112.404 235.588 109.383 233.222 106.537C232.005 104.968 230.503 103.641 228.796 102.626C228.179 102.218 227.47 101.973 226.733 101.911C225.996 101.85 225.256 101.975 224.58 102.275C223.269 102.989 222.484 104.617 222.566 106.959C222.718 111.315 225.74 116.409 229.335 118.33C230.668 119.081 232.208 119.38 233.726 119.184C235.327 119.021 236.943 119.296 238.401 119.978C239.859 120.661 241.105 121.726 242.005 123.061C245.518 127.745 245.694 134.993 246.092 146.891L246.186 149.725C258.025 156.751 269.243 162.981 272.475 161.575L272.604 161.517C274.267 160.627 273.084 157.325 271.526 154.725C270.407 153.06 269.712 151.146 269.501 149.151C269.383 145.415 273.564 144.701 278.869 147.547C284.173 150.392 288.553 155.744 288.67 159.456C288.711 160.139 288.575 160.821 288.276 161.436C287.976 162.052 287.523 162.58 286.96 162.969C285.497 163.988 284.478 166.189 286.469 169.046C289.408 173.297 300.134 178.942 312.559 185.441C313.73 186.073 314.983 186.705 316.236 187.349C316.119 184.785 316.002 182.314 315.861 179.902C315.346 170.206 314.971 163.215 317.77 162.255C320.112 161.446 323.719 164.479 326.084 167.313C327.321 168.902 328.851 170.237 330.593 171.248C331.207 171.662 331.917 171.912 332.655 171.973C333.393 172.035 334.134 171.906 334.808 171.599C336.12 171.037 336.904 169.374 336.822 167.032Z" fill="white"/>
<path d="M236.876 127.733C235.108 125.262 235.272 124.934 236.22 123.681C236.941 122.677 237.891 121.86 238.991 121.296C240.09 120.732 241.308 120.438 242.544 120.437C244.722 120.508 246.912 120.437 248.024 121.035C249.137 121.632 248.2 123.974 245.366 124.548C240.916 125.543 240.94 126.749 240.94 126.749C242.838 126.316 244.757 125.979 246.689 125.742C248.891 125.895 251.076 126.228 253.224 126.737C255.109 127.03 255.484 129.454 252.298 130.251L255.741 130.801C258.142 131.187 258.962 132.475 257.076 133.963C256.457 134.471 255.687 134.759 254.886 134.782C254.886 134.782 257.463 134.782 257.51 135.637C257.662 138.085 256.081 138.729 250.893 140.228C248.939 140.66 247.21 141.793 246.034 143.413L246.151 146.668C246.151 146.668 243.914 145.005 242.146 143.787C240.846 142.886 239.733 141.879 240.319 139.853C240.319 139.853 237.497 139.853 237.321 138.155C237.285 136.871 237.521 135.594 238.012 134.408C237.504 134.121 237.088 133.696 236.812 133.181C236.536 132.667 236.412 132.085 236.455 131.504C236.442 130.396 236.801 129.316 237.473 128.435L236.876 127.733Z" fill="#FFA8A7"/>
<path d="M252.3 130.344C251.27 130.135 250.224 130.021 249.173 130.005C248.119 130.166 247.096 130.49 246.14 130.965C244.243 131.787 242.418 132.766 240.683 133.892C242.69 133.363 244.649 132.666 246.538 131.808C247.422 131.362 248.343 130.994 249.29 130.707C250.192 130.555 251.281 130.543 252.3 130.344Z" fill="#F28F8F"/>
<path d="M254.886 134.876C253.787 134.567 252.629 134.531 251.513 134.771C250.408 135.013 249.326 135.353 248.281 135.789C246.228 136.638 244.266 137.694 242.426 138.939C244.547 138.271 246.631 137.489 248.668 136.597C250.618 135.649 252.726 135.066 254.886 134.876Z" fill="#F28F8F"/>
<path d="M446.779 22.7628C439.857 25.5748 433.925 30.3769 429.733 36.5615C425.541 42.746 423.277 50.0351 423.229 57.5064C423.18 64.9777 425.349 72.2955 429.461 78.5339C433.572 84.7722 439.442 89.6509 446.327 92.5524C453.212 95.454 460.803 96.2481 468.139 94.8343C475.476 93.4204 482.228 89.8622 487.542 84.6098C492.856 79.3575 496.492 72.6469 497.991 65.3273C499.49 58.0078 498.784 50.4081 495.962 43.4898C492.173 34.2319 484.87 26.8526 475.652 22.9678C466.434 19.083 456.052 19.0093 446.779 22.7628ZM448.056 25.9128C454.352 23.3503 461.266 22.7123 467.925 24.0796C474.584 25.4468 480.687 28.7578 485.464 33.5939C490.241 38.43 493.477 44.5741 494.762 51.2491C496.047 57.924 495.324 64.8302 492.684 71.0942C490.044 77.3582 485.606 82.6987 479.931 86.4405C474.256 90.1822 467.599 92.157 460.801 92.1153C454.004 92.0736 447.371 90.0171 441.743 86.206C436.114 82.3949 431.742 77.0002 429.179 70.7043C425.749 62.2608 425.81 52.801 429.349 44.4027C432.889 36.0043 439.617 29.3542 448.056 25.9128Z" fill="#455A64"/>
<path d="M448.055 25.9128C441.759 28.4765 436.365 32.8496 432.554 38.4791C428.744 44.1086 426.688 50.7417 426.648 57.5394C426.607 64.3371 428.584 70.9942 432.327 76.6687C436.07 82.3433 441.411 86.7804 447.676 89.419C453.941 92.0576 460.848 92.7792 467.523 91.4924C474.197 90.2056 480.341 86.9684 485.176 82.19C490.011 77.4116 493.32 71.3067 494.686 64.6474C496.051 57.9881 495.411 51.0735 492.846 44.778C489.4 36.3432 482.749 29.6198 474.352 26.0831C465.954 22.5464 456.497 22.4852 448.055 25.9128Z" fill="white"/>
<path d="M417.176 77.8006L430.561 77.5781L425.374 64.8257L415.631 74.0182C415.309 74.3217 415.087 74.7154 414.993 75.1476C414.899 75.5798 414.939 76.0303 415.106 76.4396C415.273 76.849 415.561 77.1981 415.93 77.4411C416.3 77.684 416.734 77.8094 417.176 77.8006Z" fill="#455A64"/>
<path d="M466.184 72.2968H455.844C455.742 72.2984 455.641 72.2795 455.546 72.2412C455.452 72.2029 455.366 72.1461 455.294 72.074C455.222 72.0019 455.165 71.9161 455.127 71.8216C455.089 71.7271 455.07 71.6259 455.071 71.524C455.07 71.4215 455.089 71.3197 455.127 71.2246C455.165 71.1295 455.222 71.0429 455.293 70.9699C455.365 70.8969 455.451 70.8389 455.546 70.7993C455.64 70.7597 455.742 70.7394 455.844 70.7394H466.184C466.287 70.7394 466.388 70.7597 466.483 70.7993C466.577 70.8389 466.663 70.8969 466.735 70.9699C466.807 71.0429 466.864 71.1295 466.902 71.2246C466.94 71.3197 466.959 71.4215 466.957 71.524C466.959 71.6259 466.94 71.7271 466.901 71.8216C466.863 71.9161 466.806 72.0019 466.734 72.074C466.662 72.1461 466.576 72.2029 466.482 72.2412C466.387 72.2795 466.286 72.2984 466.184 72.2968Z" fill="#455A64"/>
<path d="M461.02 80.3769C459.442 80.3769 457.929 79.7501 456.814 78.6345C455.698 77.5189 455.071 76.0058 455.071 74.4281C455.07 74.3262 455.089 74.225 455.127 74.1305C455.165 74.036 455.222 73.9502 455.294 73.8781C455.366 73.806 455.452 73.7491 455.546 73.7108C455.641 73.6726 455.742 73.6537 455.844 73.6552H466.184C466.286 73.6537 466.387 73.6726 466.482 73.7108C466.576 73.7491 466.662 73.806 466.734 73.8781C466.806 73.9502 466.863 74.036 466.901 74.1305C466.94 74.225 466.959 74.3262 466.957 74.4281C466.957 76.0038 466.332 77.5151 465.219 78.6304C464.106 79.7457 462.596 80.3738 461.02 80.3769Z" fill="#455A64"/>
<path d="M472.062 39.5435C470.495 38.0419 468.637 36.8767 466.604 36.1195C464.57 35.3623 462.402 35.0291 460.235 35.1405C456.192 35.3874 452.387 37.1383 449.57 40.0487C446.753 42.9591 445.127 46.8183 445.012 50.8672C444.966 53.6958 445.67 56.486 447.052 58.9542C448.434 61.4224 450.445 63.4806 452.881 64.9195C453.525 65.2885 454.061 65.8203 454.435 66.4614C454.809 67.1026 455.008 67.8308 455.012 68.573C455.009 68.6652 455.024 68.757 455.058 68.8429C455.091 68.9288 455.142 69.007 455.207 69.0728C455.271 69.1385 455.349 69.1904 455.434 69.2253C455.519 69.2602 455.611 69.2773 455.703 69.2757H466.324C466.51 69.2757 466.689 69.2016 466.821 69.0699C466.953 68.9381 467.027 68.7594 467.027 68.573C467.034 67.8358 467.232 67.1129 467.601 66.4748C467.971 65.8366 468.499 65.3049 469.135 64.9312C471.542 63.5126 473.538 61.4911 474.926 59.066C476.315 56.6408 477.047 53.8958 477.051 51.1014C477.051 48.9366 476.608 46.7946 475.751 44.807C474.893 42.8194 473.638 41.0282 472.062 39.5435Z" fill="#34A573"/>
<g opacity="0.35">
<path d="M472.061 39.5435C470.494 38.0419 468.637 36.8767 466.603 36.1195C464.569 35.3623 462.402 35.0291 460.234 35.1405C456.191 35.3874 452.387 37.1383 449.57 40.0487C446.752 42.9591 445.126 46.8183 445.011 50.8672C444.965 53.6958 445.669 56.486 447.051 58.9542C448.433 61.4224 450.445 63.4806 452.88 64.9195C453.524 65.2885 454.06 65.8203 454.434 66.4614C454.808 67.1026 455.007 67.8308 455.011 68.573C455.008 68.6652 455.024 68.757 455.057 68.8429C455.091 68.9288 455.141 69.007 455.206 69.0728C455.271 69.1385 455.348 69.1904 455.433 69.2253C455.519 69.2602 455.61 69.2773 455.702 69.2757H466.323C466.51 69.2757 466.689 69.2016 466.82 69.0699C466.952 68.9381 467.026 68.7594 467.026 68.573C467.033 67.8358 467.231 67.1129 467.601 66.4748C467.97 65.8366 468.498 65.3049 469.134 64.9312C471.541 63.5126 473.538 61.4911 474.926 59.066C476.314 56.6408 477.046 53.8958 477.05 51.1014C477.05 48.9366 476.608 46.7946 475.75 44.807C474.892 42.8194 473.637 41.0282 472.061 39.5435Z" fill="white"/>
</g>
<path d="M469.873 54.4154C469.771 54.0895 469.564 53.8063 469.284 53.6095C469.005 53.4127 468.669 53.3132 468.327 53.3264C467.744 53.3979 467.184 53.6017 466.691 53.9223C466.198 54.243 465.784 54.672 465.482 55.1766L465.365 55.3405H465.166C464.321 55.0494 463.53 54.6222 462.824 54.0758C462.428 53.7813 462.063 53.4478 461.735 53.0805L461.571 52.9282L461.699 52.7292C462.161 52.1866 462.492 51.546 462.669 50.8561C462.845 50.1662 462.862 49.4451 462.718 48.7477C462.597 48.3991 462.369 48.097 462.068 47.8832C461.767 47.6695 461.407 47.5546 461.038 47.5546C460.669 47.5546 460.308 47.6695 460.007 47.8832C459.706 48.097 459.479 48.3991 459.357 48.7477C459.22 49.4453 459.241 50.1648 459.417 50.8536C459.593 51.5424 459.921 52.1831 460.376 52.7292L460.505 52.9282L460.341 53.0805C460.012 53.4478 459.647 53.7813 459.252 54.0758C458.545 54.6222 457.754 55.0494 456.91 55.3405H456.711L456.594 55.1766C456.292 54.672 455.878 54.243 455.385 53.9223C454.892 53.6017 454.332 53.3979 453.748 53.3264C453.407 53.3132 453.071 53.4127 452.791 53.6095C452.512 53.8063 452.305 54.0895 452.203 54.4154C452.113 54.6885 452.12 54.9842 452.222 55.2528C452.324 55.5215 452.516 55.7468 452.765 55.8909C453.405 56.2795 454.148 56.4671 454.896 56.4296C455.312 56.4279 455.727 56.3927 456.137 56.3242H456.336L456.43 56.5115C456.79 57.1736 457.088 57.8674 457.32 58.5842C458.12 61.5668 458.424 64.6604 458.222 67.7416C458.222 68.2686 458.222 68.7838 458.222 69.2874H459.053V67.6713C459.26 64.5183 458.943 61.3528 458.116 58.3032C457.901 57.6358 457.635 56.9859 457.32 56.3593L457.179 56.0783L457.484 55.9612C458.323 55.6531 459.112 55.223 459.826 54.6848C460.21 54.389 460.573 54.0683 460.915 53.7245L461.114 53.5137L461.325 53.7245C461.666 54.0686 462.03 54.3894 462.414 54.6848C463.126 55.2255 463.915 55.6558 464.756 55.9612L465.06 56.0783L464.92 56.3593C464.605 56.9859 464.339 57.6358 464.123 58.3032C463.297 61.3529 462.981 64.5183 463.187 67.6713C463.187 68.1983 463.187 68.7136 463.187 69.2288H464.006C464.006 68.7253 464.006 68.21 464.006 67.6362C463.805 64.5705 464.109 61.4925 464.908 58.5257C465.14 57.8089 465.438 57.115 465.798 56.453L465.892 56.2656H466.091C466.501 56.3346 466.916 56.3699 467.332 56.371C468.08 56.4086 468.823 56.2209 469.463 55.8324C469.673 55.6699 469.825 55.4452 469.899 55.1906C469.972 54.936 469.963 54.6646 469.873 54.4154ZM455.247 55.5864H454.884C454.293 55.6191 453.705 55.4852 453.186 55.2C453.092 55.1461 453.016 55.0642 452.97 54.9657C452.924 54.8671 452.909 54.7567 452.929 54.6496C452.979 54.4872 453.082 54.3465 453.223 54.2508C453.363 54.155 453.532 54.1098 453.701 54.1227C454.385 54.2122 455.007 54.5651 455.435 55.1063L455.844 55.5396L455.247 55.5864ZM461.009 52.1905L460.774 51.7923C460.475 51.3861 460.262 50.9234 460.147 50.4322C460.033 49.9411 460.019 49.4317 460.107 48.9351C460.163 48.7437 460.283 48.5774 460.447 48.4643C460.612 48.3513 460.81 48.2983 461.009 48.3144C461.209 48.2977 461.409 48.3503 461.575 48.4632C461.741 48.5762 461.864 48.7427 461.922 48.9351C462.01 49.4317 461.996 49.9411 461.881 50.4322C461.767 50.9234 461.553 51.3861 461.254 51.7923L461.009 52.1905ZM468.854 55.2234C468.331 55.5084 467.739 55.6422 467.145 55.6099H466.793H466.196L466.606 55.1766C467.033 54.6354 467.655 54.2825 468.339 54.1929C468.508 54.1822 468.676 54.2282 468.816 54.3237C468.956 54.4191 469.06 54.5586 469.112 54.7199C469.194 54.9775 468.925 55.1532 468.854 55.2234Z" fill="#FAFAFA"/>
</svg>
