<svg width="30" height="30" viewBox="0 0 30 30" fill="none" xmlns="http://www.w3.org/2000/svg">
<path d="M4.19531 14.5078L12.6328 6.0703C12.6974 6.00566 12.7742 5.95439 12.8586 5.91941C12.9431 5.88443 13.0336 5.86643 13.125 5.86643C13.2164 5.86643 13.3069 5.88443 13.3914 5.91941C13.4758 5.95439 13.5526 6.00566 13.6172 6.0703C13.6818 6.13494 13.7331 6.21167 13.7681 6.29612C13.8031 6.38057 13.8211 6.47108 13.8211 6.56249C13.8211 6.65389 13.8031 6.74441 13.7681 6.82886C13.7331 6.91331 13.6818 6.99004 13.6172 7.05467L6.38672 14.2969L25.3125 14.2969C25.499 14.2969 25.6778 14.3709 25.8097 14.5028C25.9415 14.6347 26.0156 14.8135 26.0156 15C26.0156 15.1865 25.9415 15.3653 25.8097 15.4972C25.6778 15.629 25.499 15.7031 25.3125 15.7031L6.38672 15.7031L13.6172 22.9453C13.7477 23.0758 13.8211 23.2529 13.8211 23.4375C13.8211 23.6221 13.7477 23.7991 13.6172 23.9297C13.4867 24.0602 13.3096 24.1335 13.125 24.1335C12.9404 24.1335 12.7633 24.0602 12.6328 23.9297L4.19531 15.4922C4.12866 15.4287 4.07559 15.3523 4.03933 15.2677C4.00307 15.1831 3.98438 15.092 3.98438 15C3.98438 14.9079 4.00307 14.8169 4.03933 14.7322C4.07559 14.6476 4.12866 14.5713 4.19531 14.5078Z" fill="#909090"/>
</svg>
