<svg width="30" height="30" viewBox="0 0 30 30" fill="none" xmlns="http://www.w3.org/2000/svg">
<path d="M25.8047 15.4922L17.3672 23.9297C17.3026 23.9943 17.2258 24.0456 17.1414 24.0806C17.0569 24.1156 16.9664 24.1336 16.875 24.1336C16.7836 24.1336 16.6931 24.1156 16.6086 24.0806C16.5242 24.0456 16.4474 23.9943 16.3828 23.9297C16.3182 23.8651 16.2669 23.7883 16.2319 23.7039C16.1969 23.6194 16.1789 23.5289 16.1789 23.4375C16.1789 23.3461 16.1969 23.2556 16.2319 23.1711C16.2669 23.0867 16.3182 23.01 16.3828 22.9453L23.6133 15.7031H4.6875C4.50102 15.7031 4.32218 15.6291 4.19032 15.4972C4.05845 15.3653 3.98438 15.1865 3.98438 15C3.98438 14.8135 4.05845 14.6347 4.19032 14.5028C4.32218 14.371 4.50102 14.2969 4.6875 14.2969H23.6133L16.3828 7.0547C16.2523 6.92416 16.1789 6.74712 16.1789 6.56251C16.1789 6.37791 16.2523 6.20086 16.3828 6.07033C16.5133 5.93979 16.6904 5.86646 16.875 5.86646C17.0596 5.86646 17.2367 5.93979 17.3672 6.07033L25.8047 14.5078C25.8713 14.5713 25.9244 14.6477 25.9607 14.7323C25.9969 14.8169 26.0156 14.908 26.0156 15C26.0156 15.0921 25.9969 15.1831 25.9607 15.2678C25.9244 15.3524 25.8713 15.4287 25.8047 15.4922Z" fill="black"/>
</svg>
