<svg width="40" height="40" viewBox="0 0 40 40" fill="none" xmlns="http://www.w3.org/2000/svg">
<path d="M5.48816 15.4882C5 15.9763 5 16.762 5 18.3333V28.3333C5 29.9047 5 30.6904 5.48816 31.1785C5.97631 31.6667 6.76198 31.6667 8.33333 31.6667C9.90468 31.6667 10.6904 31.6667 11.1785 31.1785C11.6667 30.6904 11.6667 29.9047 11.6667 28.3333V18.3333C11.6667 16.762 11.6667 15.9763 11.1785 15.4882C10.6904 15 9.90468 15 8.33333 15C6.76198 15 5.97631 15 5.48816 15.4882Z" fill="#34A573"/>
<path opacity="0.4" d="M28.8215 3.82141C28.3333 4.30956 28.3333 5.09524 28.3333 6.66659V28.3333C28.3333 29.9046 28.3333 30.6903 28.8215 31.1784C29.3096 31.6666 30.0953 31.6666 31.6666 31.6666C33.238 31.6666 34.0237 31.6666 34.5118 31.1784C35 30.6903 35 29.9046 35 28.3333V6.66659C35 5.09524 35 4.30956 34.5118 3.82141C34.0237 3.33325 33.238 3.33325 31.6666 3.33325C30.0953 3.33325 29.3096 3.33325 28.8215 3.82141Z" fill="#34A573"/>
<path opacity="0.7" d="M16.6667 11.6666C16.6667 10.0952 16.6667 9.30956 17.1548 8.82141C17.643 8.33325 18.4287 8.33325 20 8.33325C21.5714 8.33325 22.357 8.33325 22.8452 8.82141C23.3334 9.30956 23.3334 10.0952 23.3334 11.6666V28.3333C23.3334 29.9046 23.3334 30.6903 22.8452 31.1784C22.357 31.6666 21.5714 31.6666 20 31.6666C18.4287 31.6666 17.643 31.6666 17.1548 31.1784C16.6667 30.6903 16.6667 29.9046 16.6667 28.3333V11.6666Z" fill="#34A573"/>
<path d="M5 35.4167C4.30964 35.4167 3.75 35.9764 3.75 36.6667C3.75 37.3571 4.30964 37.9167 5 37.9167H35C35.6904 37.9167 36.25 37.3571 36.25 36.6667C36.25 35.9764 35.6904 35.4167 35 35.4167H5Z" fill="#34A573"/>
</svg>
