<svg width="40" height="40" viewBox="0 0 40 40" fill="none" xmlns="http://www.w3.org/2000/svg">
<path opacity="0.5" fill-rule="evenodd" clip-rule="evenodd" d="M3.33334 19.9999C3.33334 10.7952 10.7953 3.33325 20 3.33325C29.2047 3.33325 36.6667 10.7952 36.6667 19.9999C36.6667 29.2047 29.2047 36.6666 20 36.6666C10.7953 36.6666 3.33334 29.2047 3.33334 19.9999ZM18.75 8.33325C18.75 7.6429 19.3096 7.08325 20 7.08325C27.1337 7.08325 32.9167 12.8662 32.9167 19.9999C32.9167 27.1336 27.1337 32.9166 20 32.9166C12.8663 32.9166 7.08334 27.1336 7.08334 19.9999C7.08334 19.3096 7.64298 18.7499 8.33334 18.7499C9.02369 18.7499 9.58334 19.3096 9.58334 19.9999C9.58334 25.7529 14.247 30.4166 20 30.4166C25.753 30.4166 30.4167 25.7529 30.4167 19.9999C30.4167 14.247 25.753 9.58325 20 9.58325C19.3096 9.58325 18.75 9.02361 18.75 8.33325ZM20 12.0833C19.3096 12.0833 18.75 12.6429 18.75 13.3333C18.75 14.0236 19.3096 14.5833 20 14.5833C22.9915 14.5833 25.4167 17.0084 25.4167 19.9999C25.4167 22.9915 22.9915 25.4166 20 25.4166C19.3096 25.4166 18.75 25.9762 18.75 26.6666C18.75 27.3569 19.3096 27.9166 20 27.9166C24.3723 27.9166 27.9167 24.3722 27.9167 19.9999C27.9167 15.6277 24.3723 12.0833 20 12.0833Z" fill="#34A573"/>
<path d="M18.75 8.33325C18.75 7.6429 19.3096 7.08325 20 7.08325C27.1337 7.08325 32.9167 12.8662 32.9167 19.9999C32.9167 27.1336 27.1337 32.9166 20 32.9166C12.8663 32.9166 7.08334 27.1336 7.08334 19.9999C7.08334 19.3096 7.64298 18.7499 8.33334 18.7499C9.02369 18.7499 9.58334 19.3096 9.58334 19.9999C9.58334 25.7529 14.247 30.4166 20 30.4166C25.753 30.4166 30.4167 25.7529 30.4167 19.9999C30.4167 14.247 25.753 9.58325 20 9.58325C19.3096 9.58325 18.75 9.02361 18.75 8.33325Z" fill="#34A573"/>
<path d="M20 12.0833C19.3096 12.0833 18.75 12.6429 18.75 13.3333C18.75 14.0236 19.3096 14.5833 20 14.5833C22.9915 14.5833 25.4167 17.0084 25.4167 19.9999C25.4167 22.9915 22.9915 25.4166 20 25.4166C19.3096 25.4166 18.75 25.9762 18.75 26.6666C18.75 27.3569 19.3096 27.9166 20 27.9166C24.3723 27.9166 27.9167 24.3722 27.9167 19.9999C27.9167 15.6277 24.3723 12.0833 20 12.0833Z" fill="#34A573"/>
</svg>
