<svg width="40" height="40" viewBox="0 0 40 40" fill="none" xmlns="http://www.w3.org/2000/svg">
<path d="M40 8.33325C40 11.0947 37.7614 13.3333 35 13.3333C32.2386 13.3333 30 11.0947 30 8.33325C30 5.57183 32.2386 3.33325 35 3.33325C37.7614 3.33325 40 5.57183 40 8.33325Z" fill="#34A573"/>
<path d="M28.7231 12.4399L26.1621 14.5741C24.4517 15.9994 23.2642 16.9858 22.2616 17.6306C21.2911 18.2548 20.633 18.4643 20.0003 18.4643C19.3677 18.4643 18.7096 18.2548 17.7391 17.6306C16.7365 16.9858 15.549 15.9994 13.8386 14.5741L9.88059 11.2758C9.29721 10.7896 8.43019 10.8684 7.94404 11.4518C7.45788 12.0352 7.53671 12.9022 8.12009 13.3884L12.147 16.7441C13.772 18.0983 15.0891 19.1959 16.2515 19.9436C17.4624 20.7224 18.6417 21.2143 20.0003 21.2143C21.359 21.2143 22.5383 20.7224 23.7492 19.9436C24.9116 19.1959 26.2287 18.0983 27.8537 16.7441L30.6307 14.4299C29.879 13.8902 29.2312 13.215 28.7231 12.4399Z" fill="#34A573"/>
<path d="M30.7563 10.9787C31.227 10.8942 31.7286 11.0581 32.0567 11.4518C32.3276 11.7769 32.423 12.1901 32.3535 12.5763C31.7073 12.1724 31.16 11.625 30.7563 10.9787Z" fill="#34A573"/>
<path opacity="0.5" d="M28.2627 5.03498C26.9267 5 25.4061 5 23.6667 5H16.3334C9.41942 5 5.96245 5 3.81457 7.1967C1.66669 9.3934 1.66669 12.9289 1.66669 20C1.66669 27.0711 1.66669 30.6066 3.81457 32.8033C5.96245 35 9.41942 35 16.3334 35H23.6667C30.5806 35 34.0376 35 36.1855 32.8033C38.3334 30.6066 38.3334 27.0711 38.3334 20C38.3334 18.221 38.3334 16.6659 38.2991 15.2995C37.3036 15.7991 36.1838 16.0795 35 16.0795C30.8579 16.0795 27.5 12.6454 27.5 8.40909C27.5 7.19839 27.7743 6.05321 28.2627 5.03498Z" fill="#34A573"/>
</svg>
