<svg width="40" height="40" viewBox="0 0 40 40" fill="none" xmlns="http://www.w3.org/2000/svg">
<path opacity="0.5" d="M3.33334 19.9999C3.33334 12.1432 3.33334 8.21481 5.77411 5.77403C8.21489 3.33325 12.1433 3.33325 20 3.33325C27.8567 3.33325 31.7851 3.33325 34.2259 5.77403C36.6667 8.21481 36.6667 12.1432 36.6667 19.9999C36.6667 27.8567 36.6667 31.785 34.2259 34.2258C31.7851 36.6666 27.8567 36.6666 20 36.6666C12.1433 36.6666 8.21489 36.6666 5.77411 34.2258C3.33334 31.785 3.33334 27.8567 3.33334 19.9999Z" fill="#34A573"/>
<path d="M5.77418 34.226C8.21503 36.6667 12.1435 36.6667 20.0005 36.6667C27.8575 36.6667 31.7859 36.6667 34.2268 34.226C36.4886 31.9643 36.6545 28.4252 36.6667 21.6667H31.4004C29.8917 21.6667 29.1374 21.6667 28.4743 21.9717C27.8113 22.2767 27.3204 22.8494 26.3385 23.9948L26.3385 23.9948L25.3294 25.172L25.3294 25.172C24.3476 26.3175 23.8567 26.8902 23.1937 27.1951C22.5306 27.5001 21.7763 27.5001 20.2676 27.5001H19.7334C18.2247 27.5001 17.4704 27.5001 16.8073 27.1951C16.1443 26.8902 15.6533 26.3175 14.6715 25.172L14.6715 25.172L13.6624 23.9948C12.6806 22.8494 12.1897 22.2767 11.5266 21.9717C10.8636 21.6667 10.1093 21.6667 8.60059 21.6667H3.33334C3.34551 28.4252 3.5124 31.9643 5.77418 34.226Z" fill="#34A573"/>
<path d="M13.3333 10.4167C12.643 10.4167 12.0833 10.9764 12.0833 11.6667C12.0833 12.3571 12.643 12.9167 13.3333 12.9167H26.6667C27.357 12.9167 27.9167 12.3571 27.9167 11.6667C27.9167 10.9764 27.357 10.4167 26.6667 10.4167H13.3333Z" fill="#34A573"/>
<path d="M16.6667 16.2501C15.9763 16.2501 15.4167 16.8097 15.4167 17.5001C15.4167 18.1904 15.9763 18.7501 16.6667 18.7501H23.3333C24.0237 18.7501 24.5833 18.1904 24.5833 17.5001C24.5833 16.8097 24.0237 16.2501 23.3333 16.2501H16.6667Z" fill="#34A573"/>
</svg>
