<svg width="40" height="40" viewBox="0 0 40 40" fill="none" xmlns="http://www.w3.org/2000/svg">
<path d="M10.7405 6.14221C11.6186 5.5555 12.5461 5.05642 13.5096 4.64905C15.8478 3.66049 17.0169 3.1662 18.5084 4.15498C20 5.14375 20 6.76251 20 10V13.3334C20 16.4761 20 18.0474 20.9763 19.0237C21.9526 20 23.524 20 26.6667 20H30C33.2375 20 34.8563 20 35.8451 21.4916C36.8338 22.9832 36.3396 24.1522 35.351 26.4904C34.9436 27.4539 34.4445 28.3815 33.8578 29.2595C32.0265 32.0004 29.4235 34.1366 26.3781 35.398C23.3326 36.6595 19.9815 36.9895 16.7485 36.3465C13.5155 35.7034 10.5458 34.116 8.2149 31.7851C5.88402 29.4543 4.29668 26.4846 3.65359 23.2515C3.0105 20.0185 3.34056 16.6674 4.60202 13.622C5.86348 10.5765 7.99969 7.97357 10.7405 6.14221Z" fill="#34A573"/>
<path opacity="0.5" fill-rule="evenodd" clip-rule="evenodd" d="M22.9561 3.54688C23.1282 2.87832 23.8097 2.47583 24.4782 2.64791C30.776 4.26884 35.7312 9.22407 37.3521 15.5218C37.5242 16.1904 37.1217 16.8719 36.4532 17.0439C35.7846 17.216 35.1031 16.8135 34.9311 16.145C33.5372 10.7293 29.2707 6.46289 23.8551 5.069C23.1865 4.89693 22.784 4.21545 22.9561 3.54688Z" fill="#34A573"/>
</svg>
