<svg width="40" height="40" viewBox="0 0 40 40" fill="none" xmlns="http://www.w3.org/2000/svg">
<path opacity="0.5" d="M14.0626 10.7766L15.1443 12.7148C16.1205 14.464 15.7286 16.7585 14.1912 18.296C14.1912 18.296 14.1912 18.296 14.1912 18.296C14.1911 18.2961 12.3264 20.161 15.7075 23.5421C19.088 26.9226 20.9529 25.0593 20.9537 25.0585C20.9537 25.0585 20.9537 25.0585 20.9537 25.0585C22.4912 23.521 24.7857 23.1292 26.5348 24.1053L28.473 25.187C31.1143 26.661 31.4262 30.3651 29.1046 32.6867C27.7096 34.0817 26.0007 35.1671 24.1115 35.2388C20.9313 35.3593 15.5305 34.5545 10.1128 29.1368C4.69521 23.7192 3.89036 18.3184 4.01092 15.1382C4.08254 13.249 5.168 11.5401 6.56301 10.1451C8.88459 7.82348 12.5886 8.1354 14.0626 10.7766Z" fill="#34A573"/>
<path d="M19.4322 5.04972C19.5426 4.36824 20.1868 3.90595 20.8683 4.01627C20.9105 4.02435 21.0462 4.04972 21.1173 4.06555C21.2595 4.09723 21.4579 4.14599 21.7052 4.21803C22.1999 4.3621 22.8909 4.59944 23.7202 4.97967C25.3807 5.74093 27.5904 7.0726 29.8834 9.3656C32.1764 11.6586 33.5081 13.8683 34.2693 15.5288C34.6495 16.3581 34.8869 17.0491 35.0309 17.5438C35.103 17.7911 35.1518 17.9895 35.1834 18.1317C35.1993 18.2028 35.2108 18.2599 35.2189 18.3021L35.2285 18.3541C35.3388 19.0356 34.8807 19.7064 34.1993 19.8168C33.5197 19.9268 32.8796 19.4667 32.7665 18.7884C32.763 18.7702 32.7535 18.7213 32.7432 18.6751C32.7226 18.5828 32.6871 18.4365 32.6307 18.2429C32.5179 17.8556 32.322 17.2801 31.9968 16.5706C31.347 15.1535 30.1787 13.1965 28.1156 11.1334C26.0525 9.07027 24.0955 7.90194 22.6783 7.25223C21.9689 6.92697 21.3933 6.73108 21.0061 6.61829C20.8125 6.5619 20.5692 6.50605 20.4769 6.48549C19.7986 6.37246 19.3222 5.72926 19.4322 5.04972Z" fill="#34A573"/>
<path fill-rule="evenodd" clip-rule="evenodd" d="M19.8093 10.7988C19.999 10.135 20.6908 9.75067 21.3546 9.94032L21.0112 11.1422C21.3546 9.94032 21.3546 9.94032 21.3546 9.94032L21.357 9.94101L21.3596 9.94175L21.3651 9.94337L21.378 9.94723L21.411 9.9575C21.4362 9.96554 21.4675 9.97601 21.505 9.98928C21.5798 10.0158 21.6787 10.0536 21.8001 10.1056C22.0429 10.2097 22.3747 10.3704 22.7822 10.6116C23.598 11.0944 24.7116 11.8963 26.0199 13.2046C27.3282 14.5129 28.1301 15.6266 28.6129 16.4423C28.8541 16.8498 29.0148 17.1816 29.1189 17.4244C29.1709 17.5458 29.2087 17.6447 29.2352 17.7196C29.2485 17.757 29.259 17.7884 29.267 17.8135L29.2773 17.8465L29.2811 17.8594L29.2828 17.8649L29.2835 17.8675C29.2835 17.8675 29.2842 17.8699 28.0823 18.2133L29.2842 17.8699C29.4738 18.5337 29.0895 19.2255 28.4257 19.4152C27.7675 19.6032 27.0818 19.227 26.8853 18.5735L26.8792 18.5556C26.8703 18.5305 26.8519 18.4812 26.821 18.4092C26.7594 18.2653 26.6475 18.03 26.4615 17.7156C26.0899 17.0877 25.4187 16.139 24.2521 14.9724C23.0855 13.8058 22.1368 13.1346 21.5089 12.763C21.1946 12.577 20.9592 12.4652 20.8153 12.4035C20.7433 12.3726 20.694 12.3542 20.6689 12.3454L20.651 12.3392C19.9975 12.1427 19.6213 11.457 19.8093 10.7988Z" fill="#34A573"/>
</svg>
