<svg width="40" height="40" viewBox="0 0 40 40" fill="none" xmlns="http://www.w3.org/2000/svg">
<path fill-rule="evenodd" clip-rule="evenodd" d="M30 23.3333C30 30.6971 24.0304 36.6667 16.6666 36.6667C14.6075 36.6667 12.6573 36.1999 10.9162 35.3663C10.3178 35.0798 9.63987 34.9793 8.99896 35.1507L6.95556 35.6975C5.345 36.1284 3.87157 34.655 4.3025 33.0444L4.84924 31.001C5.02072 30.3601 4.92014 29.6822 4.63365 29.0837C3.80011 27.3427 3.33331 25.3925 3.33331 23.3333C3.33331 15.9695 9.30285 10 16.6666 10C24.0304 10 30 15.9695 30 23.3333ZM10.8333 25C11.7538 25 12.5 24.2538 12.5 23.3333C12.5 22.4129 11.7538 21.6667 10.8333 21.6667C9.91284 21.6667 9.16665 22.4129 9.16665 23.3333C9.16665 24.2538 9.91284 25 10.8333 25ZM16.6666 25C17.5871 25 18.3333 24.2538 18.3333 23.3333C18.3333 22.4129 17.5871 21.6667 16.6666 21.6667C15.7462 21.6667 15 22.4129 15 23.3333C15 24.2538 15.7462 25 16.6666 25ZM22.5 25C23.4205 25 24.1666 24.2538 24.1666 23.3333C24.1666 22.4129 23.4205 21.6667 22.5 21.6667C21.5795 21.6667 20.8333 22.4129 20.8333 23.3333C20.8333 24.2538 21.5795 25 22.5 25Z" fill="#34A573"/>
<path opacity="0.6" d="M29.9735 24.1807C30.1533 24.1062 30.3307 24.0271 30.5055 23.9434C30.9918 23.7106 31.5426 23.6289 32.0633 23.7682L33.7236 24.2125C35.0322 24.5626 36.2293 23.3654 35.8792 22.0568L35.435 20.3966C35.2957 19.8758 35.3774 19.325 35.6102 18.8388C36.2874 17.4242 36.6667 15.8397 36.6667 14.1666C36.6667 8.1835 31.8164 3.33325 25.8333 3.33325C21.3166 3.33325 17.4455 6.09742 15.8193 10.0264C16.0995 10.0088 16.382 9.99992 16.6667 9.99992C24.0305 9.99992 30 15.9695 30 23.3333C30 23.6179 29.9911 23.9004 29.9735 24.1807Z" fill="#34A573"/>
</svg>
