<svg width="190" height="27" viewBox="0 0 190 27" fill="none" xmlns="http://www.w3.org/2000/svg">
<path d="M45.6816 11.915V9.39419H48.2068V8.29819C48.2068 7.02684 48.5769 6.04775 49.317 5.36092C50.0571 4.6741 51.1238 4.33069 52.517 4.33069C52.8217 4.33069 53.1337 4.34896 53.453 4.3855C53.7723 4.42203 54.048 4.46952 54.2802 4.52797V7.04876C54.0045 6.9903 53.7614 6.94646 53.551 6.91723C53.3405 6.88801 53.1192 6.8734 52.887 6.8734C52.3211 6.8734 51.8966 6.99761 51.6136 7.24604C51.3306 7.49446 51.1891 7.8671 51.1891 8.36395V9.39419H54.2802V11.915H51.1891V20.8144H48.2068V11.915H45.6816ZM57.3278 8.03515C56.8634 8.03515 56.4643 7.8671 56.1305 7.531C55.7968 7.19489 55.6299 6.79302 55.6299 6.3254C55.6299 5.85777 55.7968 5.45591 56.1305 5.11981C56.4643 4.7837 56.8634 4.61565 57.3278 4.61565C57.7922 4.61565 58.1913 4.7837 58.5251 5.11981C58.8589 5.45591 59.0258 5.85777 59.0258 6.3254C59.0258 6.79302 58.8589 7.19489 58.5251 7.531C58.1913 7.8671 57.7922 8.03515 57.3278 8.03515ZM55.8476 9.39419H58.8299V20.8144H55.8476V9.39419ZM64.1414 20.8144H61.1591V9.39419H64.1414V10.2929C64.5767 9.92757 65.0593 9.64992 65.589 9.45995C66.1187 9.26997 66.6956 9.17499 67.3196 9.17499C68.6257 9.17499 69.6996 9.59877 70.5413 10.4463C71.383 11.2939 71.8039 12.3826 71.8039 13.7124V20.8144H68.8216V14.1508C68.8216 13.4347 68.6076 12.8575 68.1794 12.4191C67.7513 11.9807 67.1817 11.7615 66.4706 11.7615C65.9772 11.7615 65.5309 11.8602 65.1318 12.0574C64.7328 12.2547 64.4026 12.536 64.1414 12.9014V20.8144ZM77.6596 21.0117C76.4406 21.0117 75.4465 20.6866 74.6774 20.0363C73.9082 19.386 73.5236 18.5421 73.5236 17.5045C73.5236 16.4232 73.9372 15.5756 74.7644 14.9618C75.5916 14.3481 76.7309 14.0412 78.1821 14.0412C78.6465 14.0412 79.1109 14.0777 79.5753 14.1508C80.0397 14.2239 80.4968 14.3335 80.9467 14.4796V13.6686C80.9467 13.011 80.7435 12.5141 80.3372 12.178C79.9308 11.8419 79.3358 11.6739 78.5522 11.6739C78.0732 11.6739 77.5544 11.7506 76.9957 11.904C76.437 12.0574 75.8021 12.2949 75.091 12.6164L74.0025 10.4025C74.8878 9.99332 75.7476 9.68645 76.5821 9.48186C77.4166 9.27728 78.2401 9.17499 79.0528 9.17499C80.5766 9.17499 81.763 9.54397 82.612 10.2819C83.461 11.0199 83.8855 12.0611 83.8855 13.4055V20.8144H80.9467V20.0253C80.4678 20.3614 79.9635 20.6099 79.4338 20.7706C78.9041 20.9313 78.3127 21.0117 77.6596 21.0117ZM76.3753 17.4388C76.3753 17.8772 76.564 18.2242 76.9413 18.48C77.3186 18.7357 77.8193 18.8636 78.4433 18.8636C78.9367 18.8636 79.3903 18.8015 79.8039 18.6773C80.2175 18.553 80.5984 18.374 80.9467 18.1402V16.4305C80.5839 16.2843 80.2029 16.1784 79.8039 16.1126C79.4048 16.0469 78.9875 16.014 78.5522 16.014C77.8701 16.014 77.3368 16.1419 76.9522 16.3976C76.5676 16.6533 76.3753 17.0004 76.3753 17.4388ZM89.1317 20.8144H86.1494V9.39419H89.1317V10.2929C89.5671 9.92757 90.0496 9.64992 90.5793 9.45995C91.109 9.26997 91.6859 9.17499 92.3099 9.17499C93.616 9.17499 94.6899 9.59877 95.5316 10.4463C96.3734 11.2939 96.7942 12.3826 96.7942 13.7124V20.8144H93.8119V14.1508C93.8119 13.4347 93.5979 12.8575 93.1698 12.4191C92.7416 11.9807 92.172 11.7615 91.4609 11.7615C90.9675 11.7615 90.5212 11.8602 90.1221 12.0574C89.7231 12.2547 89.3929 12.536 89.1317 12.9014V20.8144ZM104.609 18.4033C105.117 18.4033 105.592 18.301 106.035 18.0964C106.478 17.8918 106.902 17.5703 107.308 17.1319L109.093 18.9951C108.513 19.6381 107.816 20.1386 107.004 20.4966C106.191 20.8546 105.349 21.0336 104.479 21.0336C103.651 21.0336 102.871 20.8802 102.138 20.5733C101.406 20.2664 100.774 19.85 100.245 19.3239C99.7148 18.7978 99.2976 18.1731 98.9928 17.4497C98.6881 16.7264 98.5357 15.9482 98.5357 15.1153C98.5357 14.2823 98.6881 13.5042 98.9928 12.7808C99.2976 12.0574 99.7148 11.4291 100.245 10.8957C100.774 10.3623 101.406 9.94218 102.138 9.6353C102.871 9.32842 103.651 9.17499 104.479 9.17499C105.378 9.17499 106.242 9.354 107.069 9.71203C107.896 10.0701 108.6 10.5705 109.181 11.2135L107.352 13.1644C106.946 12.7114 106.51 12.368 106.046 12.1342C105.581 11.9004 105.081 11.7835 104.544 11.7835C103.688 11.7835 102.966 12.1049 102.378 12.7479C101.79 13.3909 101.496 14.18 101.496 15.1153C101.496 16.0505 101.797 16.8323 102.4 17.4607C103.002 18.0891 103.738 18.4033 104.609 18.4033ZM118.41 17.5922L120.37 19.3897C119.673 19.9596 118.958 20.376 118.225 20.6391C117.492 20.9021 116.676 21.0336 115.776 21.0336C114.92 21.0336 114.118 20.8802 113.371 20.5733C112.624 20.2664 111.978 19.85 111.434 19.3239C110.889 18.7978 110.461 18.1731 110.149 17.4497C109.837 16.7264 109.681 15.9482 109.681 15.1153C109.681 14.2969 109.83 13.5261 110.127 12.8027C110.425 12.0794 110.835 11.451 111.357 10.9176C111.88 10.3842 112.5 9.9641 113.219 9.65722C113.937 9.35034 114.702 9.1969 115.515 9.1969C116.313 9.1969 117.057 9.354 117.746 9.66818C118.436 9.98237 119.031 10.4098 119.531 10.9505C120.032 11.4912 120.424 12.1378 120.707 12.8904C120.99 13.643 121.131 14.4577 121.131 15.3345V16.1236H112.685C112.888 16.8396 113.28 17.4169 113.861 17.8553C114.441 18.2937 115.123 18.5129 115.907 18.5129C116.4 18.5129 116.865 18.4325 117.3 18.2717C117.736 18.111 118.106 17.8845 118.41 17.5922ZM115.45 11.6739C114.768 11.6739 114.18 11.8821 113.687 12.2986C113.193 12.7151 112.852 13.274 112.663 13.9754H118.214C118.026 13.3032 117.681 12.7516 117.18 12.3205C116.68 11.8894 116.103 11.6739 115.45 11.6739Z" fill="white"/>
<path d="M130.731 17.5922L132.69 19.3896C131.994 19.9596 131.279 20.376 130.546 20.6391C129.813 20.9021 128.997 21.0336 128.097 21.0336C127.241 21.0336 126.439 20.8802 125.692 20.5733C124.944 20.2664 124.299 19.85 123.754 19.3239C123.21 18.7978 122.782 18.1731 122.47 17.4497C122.158 16.7264 122.002 15.9482 122.002 15.1153C122.002 14.2969 122.151 13.5261 122.448 12.8027C122.746 12.0794 123.156 11.451 123.678 10.9176C124.201 10.3842 124.821 9.96409 125.539 9.65721C126.258 9.35034 127.023 9.1969 127.836 9.1969C128.634 9.1969 129.378 9.35399 130.067 9.66818C130.757 9.98236 131.352 10.4098 131.852 10.9505C132.353 11.4912 132.745 12.1378 133.028 12.8904C133.311 13.643 133.452 14.4577 133.452 15.3345V16.1236H125.006C125.209 16.8396 125.601 17.4169 126.182 17.8553C126.762 18.2936 127.444 18.5128 128.228 18.5128C128.721 18.5128 129.186 18.4325 129.621 18.2717C130.056 18.111 130.426 17.8845 130.731 17.5922ZM127.771 11.6739C127.089 11.6739 126.501 11.8821 126.007 12.2986C125.514 12.715 125.173 13.274 124.984 13.9754H130.535C130.347 13.3032 130.002 12.7516 129.501 12.3205C129.001 11.8894 128.424 11.6739 127.771 11.6739ZM136.543 20.8144H133.213L137.566 15.0057L133.322 9.39418H136.783L139.286 12.7918L141.768 9.39418H145.12L140.941 14.9618L145.381 20.8144H141.898L139.221 17.1757L136.543 20.8144ZM149.496 25.3957H146.513V9.39418H149.452V10.3367C149.902 9.97141 150.403 9.6974 150.954 9.51474C151.506 9.33207 152.079 9.24074 152.674 9.24074C153.472 9.24074 154.223 9.39418 154.927 9.70106C155.631 10.0079 156.244 10.4244 156.766 10.9505C157.289 11.4766 157.699 12.0976 157.996 12.8137C158.294 13.5297 158.443 14.2969 158.443 15.1153C158.443 15.9336 158.29 16.7008 157.985 17.4169C157.681 18.1329 157.267 18.754 156.745 19.28C156.222 19.8061 155.602 20.219 154.883 20.5185C154.165 20.8181 153.399 20.9679 152.587 20.9679C152.035 20.9679 151.495 20.8912 150.965 20.7377C150.435 20.5843 149.946 20.3614 149.496 20.0692V25.3957ZM152.195 11.8054C151.658 11.8054 151.157 11.8967 150.693 12.0794C150.229 12.262 149.829 12.5287 149.496 12.8794V17.373C149.815 17.6945 150.21 17.9502 150.682 18.1402C151.154 18.3302 151.658 18.4252 152.195 18.4252C153.124 18.4252 153.907 18.1073 154.546 17.4717C155.184 16.836 155.504 16.0505 155.504 15.1153C155.504 14.18 155.181 13.3946 154.535 12.7589C153.889 12.1232 153.109 11.8054 152.195 11.8054ZM168.565 17.5922L170.524 19.3896C169.827 19.9596 169.113 20.376 168.38 20.6391C167.647 20.9021 166.831 21.0336 165.931 21.0336C165.075 21.0336 164.273 20.8802 163.525 20.5733C162.778 20.2664 162.132 19.85 161.588 19.3239C161.044 18.7978 160.616 18.1731 160.304 17.4497C159.992 16.7264 159.836 15.9482 159.836 15.1153C159.836 14.2969 159.984 13.5261 160.282 12.8027C160.579 12.0794 160.989 11.451 161.512 10.9176C162.034 10.3842 162.655 9.96409 163.373 9.65721C164.091 9.35034 164.857 9.1969 165.67 9.1969C166.468 9.1969 167.212 9.35399 167.901 9.66818C168.59 9.98236 169.185 10.4098 169.686 10.9505C170.187 11.4912 170.578 12.1378 170.861 12.8904C171.144 13.643 171.286 14.4577 171.286 15.3345V16.1236H162.84C163.043 16.8396 163.435 17.4169 164.015 17.8553C164.596 18.2936 165.278 18.5128 166.062 18.5128C166.555 18.5128 167.019 18.4325 167.455 18.2717C167.89 18.111 168.26 17.8845 168.565 17.5922ZM165.604 11.6739C164.922 11.6739 164.335 11.8821 163.841 12.2986C163.348 12.715 163.007 13.274 162.818 13.9754H168.369C168.18 13.3032 167.836 12.7516 167.335 12.3205C166.834 11.8894 166.257 11.6739 165.604 11.6739ZM176.097 20.8144H173.115V9.39418H176.097V10.6436C176.46 10.1468 176.899 9.77047 177.414 9.51474C177.929 9.25901 178.499 9.13114 179.123 9.13114C179.413 9.14575 179.656 9.17133 179.852 9.20786C180.048 9.2444 180.218 9.3065 180.363 9.39418V12.0246C180.146 11.9223 179.906 11.8456 179.645 11.7944C179.384 11.7433 179.115 11.7177 178.84 11.7177C178.259 11.7177 177.726 11.8638 177.24 12.1561C176.753 12.4483 176.373 12.8721 176.097 13.4274V20.8144ZM183.694 17.5922V11.915H181.365V9.39418H183.694V6.47883L186.676 5.79932V9.39418H189.898V11.915H186.676V16.9785C186.676 17.5191 186.792 17.8991 187.025 18.1183C187.257 18.3375 187.663 18.4471 188.244 18.4471C188.519 18.4471 188.781 18.4288 189.027 18.3923C189.274 18.3558 189.543 18.2863 189.833 18.1841V20.6391C189.514 20.7414 189.129 20.8254 188.679 20.8912C188.229 20.9569 187.845 20.9898 187.525 20.9898C186.263 20.9898 185.309 20.7012 184.663 20.124C184.017 19.5467 183.694 18.7028 183.694 17.5922Z" fill="#34A573"/>
<path d="M26.9238 26.5239L26.961 19.1412L31.556 19.1646L32.6734 26.5532L26.9238 26.5239Z" fill="url(#paint0_linear_65_2038)"/>
<path d="M34.7066 13.3099L39.7877 13.3361L39.3261 14.194L37.7657 17.0932H37.7642L37.3781 17.8102L32.6724 26.5532L31.5547 19.1656L32.6845 17.067L34.2449 14.1681L34.7066 13.3099Z" fill="url(#paint1_linear_65_2038)"/>
<path d="M25.7227 7.71762L25.7617 0.00942993L32.8074 0.0453577L32.7684 7.75385L25.7227 7.71762Z" fill="url(#paint2_linear_65_2038)"/>
<path d="M32.8076 0.0453491L37.7124 9.38352L38.4244 10.738L39.2432 12.2986L39.7886 13.3361L39.3269 14.194L37.765 17.0932L37.3789 17.8102L36.9511 17.089L35.2193 14.173L34.7075 13.3099L34.0919 12.2721L32.3619 9.35613L31.4141 7.76023L31.4159 7.74714L32.8076 0.0453491Z" fill="url(#paint3_linear_65_2038)"/>
<path d="M12.8652 0.0599617L12.828 7.4427L8.23299 7.41926L7.11523 0.030426L12.8652 0.0599617Z" fill="url(#paint4_linear_65_2038)"/>
<path d="M7.11529 0.0301208L8.23305 7.41925L7.25981 9.22733L5.69792 12.1265L5.07933 13.2731V13.2749L0 13.2487L0.618589 12.1007L1.34572 10.7486L2.17867 9.20115L2.40815 8.77493L7.11529 0.0301208Z" fill="url(#paint5_linear_65_2038)"/>
<path d="M14.0652 18.8663L14.0262 26.5748L6.98047 26.5386L7.01947 18.8304L14.0652 18.8663Z" fill="url(#paint6_linear_65_2038)"/>
<path d="M2.40815 8.77493L2.66393 9.20389L4.39422 12.1198L5.07933 13.2731V13.2749L5.52347 14.0208L7.25528 16.9367L8.37455 18.8228L8.37122 18.8377L6.98105 26.5382L1.92259 16.9093L1.36416 15.8468L0.391531 13.9943L0 13.2487L0.618589 12.1007L1.13136 11.1453L2.17716 9.20115H2.17867L2.40815 8.77493Z" fill="url(#paint7_linear_65_2038)"/>
<path d="M12.4175 18.8584L13.7538 16.9699L20.7987 17.0062L14.0253 26.5742L6.98047 26.5383L12.4175 18.8584Z" fill="url(#paint8_linear_65_2038)"/>
<path d="M15.8047 14.0735L17.141 12.1853L24.1874 12.2215L22.8498 14.1097L15.8047 14.0735Z" fill="url(#paint9_linear_65_2038)"/>
<path d="M25.7604 0.00912476L32.807 0.0453498L27.3682 7.72644L26.2378 9.32477L19.1914 9.28853L25.7604 0.00912476Z" fill="url(#paint10_linear_65_2038)"/>
<path d="M7.25916 9.22736L32.3607 9.35614L34.0907 12.2721L5.69727 12.1266L7.25916 9.22736Z" fill="url(#paint11_linear_65_2038)"/>
<path d="M5.52344 14.0208L34.2452 14.1681L32.6848 17.067L7.25525 16.9367L5.52344 14.0208Z" fill="url(#paint12_linear_65_2038)"/>
<defs>
<linearGradient id="paint0_linear_65_2038" x1="29.7987" y1="26.5388" x2="29.8366" y2="19.156" gradientUnits="userSpaceOnUse">
<stop stop-color="#60E6AF"/>
<stop offset="0.1" stop-color="#5BDEA8"/>
<stop offset="0.2" stop-color="#56D7A1"/>
<stop offset="0.3" stop-color="#50CF9A"/>
<stop offset="0.4" stop-color="#4BC793"/>
<stop offset="0.5" stop-color="#46C08C"/>
<stop offset="0.6" stop-color="#41B884"/>
<stop offset="0.7" stop-color="#3CB07D"/>
<stop offset="0.8" stop-color="#36A876"/>
<stop offset="0.9" stop-color="#31A16F"/>
<stop offset="1" stop-color="#2C9968"/>
</linearGradient>
<linearGradient id="paint1_linear_65_2038" x1="35.6191" y1="26.5681" x2="35.6869" y2="13.3148" gradientUnits="userSpaceOnUse">
<stop stop-color="#60E6AF"/>
<stop offset="0.1" stop-color="#68E7A7"/>
<stop offset="0.2" stop-color="#70E79F"/>
<stop offset="0.3" stop-color="#77E897"/>
<stop offset="0.4" stop-color="#7FE88F"/>
<stop offset="0.5" stop-color="#87E988"/>
<stop offset="0.6" stop-color="#8FEA80"/>
<stop offset="0.7" stop-color="#97EA78"/>
<stop offset="0.8" stop-color="#9EEB70"/>
<stop offset="0.9" stop-color="#A6EB68"/>
<stop offset="1" stop-color="#AEEC60"/>
</linearGradient>
<linearGradient id="paint2_linear_65_2038" x1="29.2845" y1="0.0274779" x2="29.2448" y2="7.73565" gradientUnits="userSpaceOnUse">
<stop stop-color="#60E6AF"/>
<stop offset="0.1" stop-color="#5BDEA8"/>
<stop offset="0.2" stop-color="#56D7A1"/>
<stop offset="0.3" stop-color="#50CF9A"/>
<stop offset="0.4" stop-color="#4BC793"/>
<stop offset="0.5" stop-color="#46C08C"/>
<stop offset="0.6" stop-color="#41B884"/>
<stop offset="0.7" stop-color="#3CB07D"/>
<stop offset="0.8" stop-color="#36A876"/>
<stop offset="0.9" stop-color="#31A16F"/>
<stop offset="1" stop-color="#2C9968"/>
</linearGradient>
<linearGradient id="paint3_linear_65_2038" x1="35.5646" y1="17.8008" x2="35.6559" y2="0.0595135" gradientUnits="userSpaceOnUse">
<stop stop-color="#60E6AF"/>
<stop offset="0.1" stop-color="#68E7A7"/>
<stop offset="0.2" stop-color="#70E79F"/>
<stop offset="0.3" stop-color="#77E897"/>
<stop offset="0.4" stop-color="#7FE88F"/>
<stop offset="0.5" stop-color="#87E988"/>
<stop offset="0.6" stop-color="#8FEA80"/>
<stop offset="0.7" stop-color="#97EA78"/>
<stop offset="0.8" stop-color="#9EEB70"/>
<stop offset="0.9" stop-color="#A6EB68"/>
<stop offset="1" stop-color="#AEEC60"/>
</linearGradient>
<linearGradient id="paint4_linear_65_2038" x1="9.99059" y1="0.0451434" x2="9.95267" y2="7.42796" gradientUnits="userSpaceOnUse">
<stop stop-color="#60E6AF"/>
<stop offset="0.1" stop-color="#5BDEA8"/>
<stop offset="0.2" stop-color="#56D7A1"/>
<stop offset="0.3" stop-color="#50CF9A"/>
<stop offset="0.4" stop-color="#4BC793"/>
<stop offset="0.5" stop-color="#46C08C"/>
<stop offset="0.6" stop-color="#41B884"/>
<stop offset="0.7" stop-color="#3CB07D"/>
<stop offset="0.8" stop-color="#36A876"/>
<stop offset="0.9" stop-color="#31A16F"/>
<stop offset="1" stop-color="#2C9968"/>
</linearGradient>
<linearGradient id="paint5_linear_65_2038" x1="4.10156" y1="13.2698" x2="4.16945" y2="0.0149581" gradientUnits="userSpaceOnUse">
<stop stop-color="#60E6AF"/>
<stop offset="0.1" stop-color="#68E7A7"/>
<stop offset="0.2" stop-color="#70E79F"/>
<stop offset="0.3" stop-color="#77E897"/>
<stop offset="0.4" stop-color="#7FE88F"/>
<stop offset="0.5" stop-color="#87E988"/>
<stop offset="0.6" stop-color="#8FEA80"/>
<stop offset="0.7" stop-color="#97EA78"/>
<stop offset="0.8" stop-color="#9EEB70"/>
<stop offset="0.9" stop-color="#A6EB68"/>
<stop offset="1" stop-color="#AEEC60"/>
</linearGradient>
<linearGradient id="paint6_linear_65_2038" x1="10.5035" y1="26.5566" x2="10.5431" y2="18.8485" gradientUnits="userSpaceOnUse">
<stop stop-color="#60E6AF"/>
<stop offset="0.1" stop-color="#5BDEA8"/>
<stop offset="0.2" stop-color="#56D7A1"/>
<stop offset="0.3" stop-color="#50CF9A"/>
<stop offset="0.4" stop-color="#4BC793"/>
<stop offset="0.5" stop-color="#46C08C"/>
<stop offset="0.6" stop-color="#41B884"/>
<stop offset="0.7" stop-color="#3CB07D"/>
<stop offset="0.8" stop-color="#36A876"/>
<stop offset="0.9" stop-color="#31A16F"/>
<stop offset="1" stop-color="#2C9968"/>
</linearGradient>
<linearGradient id="paint7_linear_65_2038" x1="4.13421" y1="26.5237" x2="4.22548" y2="8.78423" gradientUnits="userSpaceOnUse">
<stop stop-color="#60E6AF"/>
<stop offset="0.1" stop-color="#68E7A7"/>
<stop offset="0.2" stop-color="#70E79F"/>
<stop offset="0.3" stop-color="#77E897"/>
<stop offset="0.4" stop-color="#7FE88F"/>
<stop offset="0.5" stop-color="#87E988"/>
<stop offset="0.6" stop-color="#8FEA80"/>
<stop offset="0.7" stop-color="#97EA78"/>
<stop offset="0.8" stop-color="#9EEB70"/>
<stop offset="0.9" stop-color="#A6EB68"/>
<stop offset="1" stop-color="#AEEC60"/>
</linearGradient>
<linearGradient id="paint8_linear_65_2038" x1="13.8652" y1="26.5736" x2="13.9145" y2="16.9709" gradientUnits="userSpaceOnUse">
<stop stop-color="#60E6AF"/>
<stop offset="0.1" stop-color="#5BDEA8"/>
<stop offset="0.2" stop-color="#56D7A1"/>
<stop offset="0.3" stop-color="#50CF9A"/>
<stop offset="0.4" stop-color="#4BC793"/>
<stop offset="0.5" stop-color="#46C08C"/>
<stop offset="0.6" stop-color="#41B884"/>
<stop offset="0.7" stop-color="#3CB07D"/>
<stop offset="0.8" stop-color="#36A876"/>
<stop offset="0.9" stop-color="#31A16F"/>
<stop offset="1" stop-color="#2C9968"/>
</linearGradient>
<linearGradient id="paint9_linear_65_2038" x1="19.9912" y1="14.095" x2="20.0009" y2="12.1999" gradientUnits="userSpaceOnUse">
<stop stop-color="#60E6AF"/>
<stop offset="0.1" stop-color="#5BDEA8"/>
<stop offset="0.2" stop-color="#56D7A1"/>
<stop offset="0.3" stop-color="#50CF9A"/>
<stop offset="0.4" stop-color="#4BC793"/>
<stop offset="0.5" stop-color="#46C08C"/>
<stop offset="0.6" stop-color="#41B884"/>
<stop offset="0.7" stop-color="#3CB07D"/>
<stop offset="0.8" stop-color="#36A876"/>
<stop offset="0.9" stop-color="#31A16F"/>
<stop offset="1" stop-color="#2C9968"/>
</linearGradient>
<linearGradient id="paint10_linear_65_2038" x1="25.9756" y1="9.32345" x2="26.0235" y2="0.0103443" gradientUnits="userSpaceOnUse">
<stop stop-color="#60E6AF"/>
<stop offset="0.1" stop-color="#5BDEA8"/>
<stop offset="0.2" stop-color="#56D7A1"/>
<stop offset="0.3" stop-color="#50CF9A"/>
<stop offset="0.4" stop-color="#4BC793"/>
<stop offset="0.5" stop-color="#46C08C"/>
<stop offset="0.6" stop-color="#41B884"/>
<stop offset="0.7" stop-color="#3CB07D"/>
<stop offset="0.8" stop-color="#36A876"/>
<stop offset="0.9" stop-color="#31A16F"/>
<stop offset="1" stop-color="#2C9968"/>
</linearGradient>
<linearGradient id="paint11_linear_65_2038" x1="34.0981" y1="10.8185" x2="5.70467" y2="10.6738" gradientUnits="userSpaceOnUse">
<stop stop-color="#60E6AF"/>
<stop offset="0.1" stop-color="#68E7A7"/>
<stop offset="0.2" stop-color="#70E79F"/>
<stop offset="0.3" stop-color="#77E897"/>
<stop offset="0.4" stop-color="#7FE88F"/>
<stop offset="0.5" stop-color="#87E988"/>
<stop offset="0.6" stop-color="#8FEA80"/>
<stop offset="0.7" stop-color="#97EA78"/>
<stop offset="0.8" stop-color="#9EEB70"/>
<stop offset="0.9" stop-color="#A6EB68"/>
<stop offset="1" stop-color="#AEEC60"/>
</linearGradient>
<linearGradient id="paint12_linear_65_2038" x1="34.2378" y1="15.6216" x2="5.51603" y2="15.4752" gradientUnits="userSpaceOnUse">
<stop stop-color="#60E6AF"/>
<stop offset="0.1" stop-color="#68E7A7"/>
<stop offset="0.2" stop-color="#70E79F"/>
<stop offset="0.3" stop-color="#77E897"/>
<stop offset="0.4" stop-color="#7FE88F"/>
<stop offset="0.5" stop-color="#87E988"/>
<stop offset="0.6" stop-color="#8FEA80"/>
<stop offset="0.7" stop-color="#97EA78"/>
<stop offset="0.8" stop-color="#9EEB70"/>
<stop offset="0.9" stop-color="#A6EB68"/>
<stop offset="1" stop-color="#AEEC60"/>
</linearGradient>
</defs>
</svg>
