<svg width="191" height="30" viewBox="0 0 191 30" fill="none" xmlns="http://www.w3.org/2000/svg">
<g clip-path="url(#clip0_65_2037)">
<path d="M45.6816 13.915V11.3942H48.2068V10.2982C48.2068 9.02684 48.5768 8.04775 49.3169 7.36092C50.0571 6.6741 51.1237 6.33069 52.5169 6.33069C52.8217 6.33069 53.1337 6.34896 53.453 6.3855C53.7722 6.42203 54.048 6.46952 54.2802 6.52797V9.04876C54.0044 8.9903 53.7614 8.94646 53.5509 8.91723C53.3405 8.88801 53.1192 8.8734 52.887 8.8734C52.321 8.8734 51.8965 8.99761 51.6135 9.24604C51.3305 9.49446 51.189 9.8671 51.189 10.364V11.3942H54.2802V13.915H51.189V22.8144H48.2068V13.915H45.6816ZM57.3278 10.0351C56.8634 10.0351 56.4643 9.8671 56.1305 9.531C55.7967 9.19489 55.6298 8.79302 55.6298 8.3254C55.6298 7.85777 55.7967 7.45591 56.1305 7.11981C56.4643 6.7837 56.8634 6.61565 57.3278 6.61565C57.7922 6.61565 58.1913 6.7837 58.525 7.11981C58.8588 7.45591 59.0257 7.85777 59.0257 8.3254C59.0257 8.79302 58.8588 9.19489 58.525 9.531C58.1913 9.8671 57.7922 10.0351 57.3278 10.0351ZM55.8475 11.3942H58.8298V22.8144H55.8475V11.3942ZM64.1413 22.8144H61.159V11.3942H64.1413V12.2929C64.5767 11.9276 65.0592 11.6499 65.5889 11.4599C66.1186 11.27 66.6955 11.175 67.3195 11.175C68.6257 11.175 69.6996 11.5988 70.5413 12.4463C71.383 13.2939 71.8039 14.3826 71.8039 15.7124V22.8144H68.8216V16.1508C68.8216 15.4347 68.6075 14.8575 68.1794 14.4191C67.7513 13.9807 67.1817 13.7615 66.4706 13.7615C65.9771 13.7615 65.5309 13.8602 65.1318 14.0574C64.7327 14.2547 64.4026 14.536 64.1413 14.9014V22.8144ZM77.6596 23.0117C76.4406 23.0117 75.4465 22.6866 74.6773 22.0363C73.9082 21.386 73.5236 20.5421 73.5236 19.5045C73.5236 18.4232 73.9372 17.5756 74.7644 16.9618C75.5916 16.3481 76.7308 16.0412 78.182 16.0412C78.6464 16.0412 79.1108 16.0777 79.5752 16.1508C80.0396 16.2239 80.4968 16.3335 80.9467 16.4796V15.6686C80.9467 15.011 80.7435 14.5141 80.3371 14.178C79.9308 13.8419 79.3358 13.6739 78.5521 13.6739C78.0732 13.6739 77.5544 13.7506 76.9957 13.904C76.4369 14.0574 75.802 14.2949 75.0909 14.6164L74.0025 12.4025C74.8877 11.9933 75.7476 11.6864 76.5821 11.4819C77.4165 11.2773 78.2401 11.175 79.0528 11.175C80.5766 11.175 81.763 11.544 82.6119 12.2819C83.4609 13.0199 83.8854 14.0611 83.8854 15.4055V22.8144H80.9467V22.0253C80.4678 22.3614 79.9634 22.6099 79.4337 22.7706C78.904 22.9313 78.3127 23.0117 77.6596 23.0117ZM76.3753 19.4388C76.3753 19.8772 76.5639 20.2242 76.9412 20.48C77.3186 20.7357 77.8192 20.8636 78.4433 20.8636C78.9367 20.8636 79.3902 20.8015 79.8038 20.6773C80.2174 20.553 80.5984 20.374 80.9467 20.1402V18.4305C80.5839 18.2843 80.2029 18.1784 79.8038 18.1126C79.4047 18.0469 78.9875 18.014 78.5521 18.014C77.87 18.014 77.3367 18.1419 76.9521 18.3976C76.5675 18.6533 76.3753 19.0004 76.3753 19.4388ZM89.1316 22.8144H86.1493V11.3942H89.1316V12.2929C89.567 11.9276 90.0495 11.6499 90.5792 11.4599C91.1089 11.27 91.6858 11.175 92.3098 11.175C93.616 11.175 94.6899 11.5988 95.5316 12.4463C96.3733 13.2939 96.7942 14.3826 96.7942 15.7124V22.8144H93.8119V16.1508C93.8119 15.4347 93.5978 14.8575 93.1697 14.4191C92.7416 13.9807 92.172 13.7615 91.4609 13.7615C90.9674 13.7615 90.5212 13.8602 90.1221 14.0574C89.723 14.2547 89.3929 14.536 89.1316 14.9014V22.8144ZM104.609 20.4033C105.117 20.4033 105.592 20.301 106.035 20.0964C106.478 19.8918 106.902 19.5703 107.308 19.1319L109.093 20.9951C108.513 21.6381 107.816 22.1386 107.004 22.4966C106.191 22.8546 105.349 23.0336 104.478 23.0336C103.651 23.0336 102.871 22.8802 102.138 22.5733C101.405 22.2664 100.774 21.85 100.244 21.3239C99.7148 20.7978 99.2975 20.1731 98.9928 19.4497C98.688 18.7264 98.5356 17.9482 98.5356 17.1153C98.5356 16.2823 98.688 15.5042 98.9928 14.7808C99.2975 14.0574 99.7148 13.4291 100.244 12.8957C100.774 12.3623 101.405 11.9422 102.138 11.6353C102.871 11.3284 103.651 11.175 104.478 11.175C105.378 11.175 106.242 11.354 107.069 11.712C107.896 12.0701 108.6 12.5705 109.18 13.2135L107.352 15.1644C106.946 14.7114 106.51 14.368 106.046 14.1342C105.581 13.9004 105.081 13.7835 104.544 13.7835C103.688 13.7835 102.966 14.1049 102.378 14.7479C101.79 15.3909 101.496 16.18 101.496 17.1153C101.496 18.0505 101.797 18.8323 102.4 19.4607C103.002 20.0891 103.738 20.4033 104.609 20.4033ZM118.41 19.5922L120.37 21.3897C119.673 21.9596 118.958 22.376 118.225 22.6391C117.492 22.9021 116.676 23.0336 115.776 23.0336C114.92 23.0336 114.118 22.8802 113.371 22.5733C112.624 22.2664 111.978 21.85 111.434 21.3239C110.889 20.7978 110.461 20.1731 110.149 19.4497C109.837 18.7264 109.681 17.9482 109.681 17.1153C109.681 16.2969 109.83 15.5261 110.127 14.8027C110.425 14.0794 110.835 13.451 111.357 12.9176C111.88 12.3842 112.5 11.9641 113.219 11.6572C113.937 11.3503 114.702 11.1969 115.515 11.1969C116.313 11.1969 117.057 11.354 117.746 11.6682C118.436 11.9824 119.031 12.4098 119.531 12.9505C120.032 13.4912 120.424 14.1378 120.707 14.8904C120.99 15.643 121.131 16.4577 121.131 17.3345V18.1236H112.685C112.888 18.8396 113.28 19.4169 113.861 19.8553C114.441 20.2937 115.123 20.5129 115.907 20.5129C116.4 20.5129 116.865 20.4325 117.3 20.2717C117.736 20.111 118.106 19.8845 118.41 19.5922ZM115.45 13.6739C114.768 13.6739 114.18 13.8821 113.687 14.2986C113.193 14.7151 112.852 15.274 112.663 15.9754H118.214C118.026 15.3032 117.681 14.7516 117.18 14.3205C116.68 13.8894 116.103 13.6739 115.45 13.6739Z" fill="white"/>
<path d="M130.731 19.5922L132.691 21.3896C131.994 21.9596 131.279 22.376 130.546 22.6391C129.813 22.9021 128.997 23.0336 128.097 23.0336C127.241 23.0336 126.439 22.8802 125.692 22.5733C124.945 22.2664 124.299 21.85 123.755 21.3239C123.21 20.7978 122.782 20.1731 122.47 19.4497C122.158 18.7264 122.002 17.9482 122.002 17.1153C122.002 16.2969 122.151 15.5261 122.448 14.8027C122.746 14.0794 123.156 13.451 123.678 12.9176C124.201 12.3842 124.821 11.9641 125.54 11.6572C126.258 11.3503 127.023 11.1969 127.836 11.1969C128.634 11.1969 129.378 11.354 130.067 11.6682C130.757 11.9824 131.352 12.4098 131.852 12.9505C132.353 13.4912 132.745 14.1378 133.028 14.8904C133.311 15.643 133.452 16.4577 133.452 17.3345V18.1236H125.006C125.209 18.8396 125.601 19.4169 126.182 19.8553C126.762 20.2937 127.444 20.5129 128.228 20.5129C128.721 20.5129 129.186 20.4325 129.621 20.2717C130.057 20.111 130.427 19.8845 130.731 19.5922ZM127.771 13.6739C127.089 13.6739 126.501 13.8821 126.008 14.2986C125.514 14.715 125.173 15.274 124.984 15.9754H130.535C130.347 15.3032 130.002 14.7516 129.501 14.3205C129.001 13.8894 128.424 13.6739 127.771 13.6739ZM136.544 22.8144H133.213L137.567 17.0057L133.322 11.3942H136.783L139.286 14.7918L141.768 11.3942H145.12L140.941 16.9618L145.382 22.8144H141.899L139.221 19.1757L136.544 22.8144ZM149.496 27.3957H146.514V11.3942H149.452V12.3367C149.902 11.9714 150.403 11.6974 150.954 11.5147C151.506 11.3321 152.079 11.2407 152.674 11.2407C153.472 11.2407 154.223 11.3942 154.927 11.7011C155.631 12.0079 156.244 12.4244 156.767 12.9505C157.289 13.4766 157.699 14.0976 157.996 14.8137C158.294 15.5297 158.443 16.2969 158.443 17.1153C158.443 17.9336 158.29 18.7008 157.986 19.4169C157.681 20.1329 157.267 20.754 156.745 21.28C156.222 21.8061 155.602 22.219 154.884 22.5185C154.165 22.8181 153.4 22.9679 152.587 22.9679C152.036 22.9679 151.495 22.8912 150.965 22.7377C150.436 22.5843 149.946 22.3614 149.496 22.0692V27.3957ZM152.195 13.8054C151.658 13.8054 151.158 13.8967 150.693 14.0794C150.229 14.262 149.83 14.5287 149.496 14.8794V19.373C149.815 19.6945 150.211 19.9502 150.682 20.1402C151.154 20.3302 151.658 20.4252 152.195 20.4252C153.124 20.4252 153.908 20.1073 154.546 19.4717C155.185 18.836 155.504 18.0505 155.504 17.1153C155.504 16.18 155.181 15.3946 154.535 14.7589C153.889 14.1232 153.109 13.8054 152.195 13.8054ZM168.565 19.5922L170.524 21.3896C169.828 21.9596 169.113 22.376 168.38 22.6391C167.647 22.9021 166.831 23.0336 165.931 23.0336C165.075 23.0336 164.273 22.8802 163.526 22.5733C162.778 22.2664 162.132 21.85 161.588 21.3239C161.044 20.7978 160.616 20.1731 160.304 19.4497C159.992 18.7264 159.836 17.9482 159.836 17.1153C159.836 16.2969 159.985 15.5261 160.282 14.8027C160.58 14.0794 160.99 13.451 161.512 12.9176C162.035 12.3842 162.655 11.9641 163.373 11.6572C164.092 11.3503 164.857 11.1969 165.67 11.1969C166.468 11.1969 167.212 11.354 167.901 11.6682C168.59 11.9824 169.186 12.4098 169.686 12.9505C170.187 13.4912 170.579 14.1378 170.862 14.8904C171.145 15.643 171.286 16.4577 171.286 17.3345V18.1236H162.84C163.043 18.8396 163.435 19.4169 164.015 19.8553C164.596 20.2937 165.278 20.5129 166.062 20.5129C166.555 20.5129 167.02 20.4325 167.455 20.2717C167.89 20.111 168.26 19.8845 168.565 19.5922ZM165.605 13.6739C164.923 13.6739 164.335 13.8821 163.841 14.2986C163.348 14.715 163.007 15.274 162.818 15.9754H168.369C168.181 15.3032 167.836 14.7516 167.335 14.3205C166.835 13.8894 166.258 13.6739 165.605 13.6739ZM176.097 22.8144H173.115V11.3942H176.097V12.6436C176.46 12.1468 176.899 11.7705 177.414 11.5147C177.929 11.259 178.499 11.1311 179.123 11.1311C179.413 11.1458 179.656 11.1713 179.852 11.2079C180.048 11.2444 180.219 11.3065 180.364 11.3942V14.0246C180.146 13.9223 179.907 13.8456 179.645 13.7944C179.384 13.7433 179.116 13.7177 178.84 13.7177C178.259 13.7177 177.726 13.8638 177.24 14.1561C176.754 14.4484 176.373 14.8721 176.097 15.4274V22.8144ZM183.694 19.5922V13.915H181.365V11.3942H183.694V8.47883L186.677 7.79932V11.3942H189.898V13.915H186.677V18.9785C186.677 19.5191 186.793 19.8991 187.025 20.1183C187.257 20.3375 187.663 20.4471 188.244 20.4471C188.52 20.4471 188.781 20.4288 189.028 20.3923C189.274 20.3558 189.543 20.2864 189.833 20.1841V22.6391C189.514 22.7414 189.129 22.8254 188.679 22.8912C188.229 22.9569 187.845 22.9898 187.526 22.9898C186.263 22.9898 185.309 22.7012 184.663 22.124C184.017 21.5467 183.694 20.7028 183.694 19.5922Z" fill="#34A573"/>
<path d="M26.9229 28.524L26.96 21.1412L31.555 21.1647L32.6725 28.5532L26.9229 28.524Z" fill="url(#paint0_linear_65_2037)"/>
<path d="M34.7069 15.3099L39.7881 15.3361L39.3264 16.194L37.766 19.0932H37.7645L37.3784 19.8102L32.6728 28.5532L31.555 21.1656L32.6849 19.0671L34.2453 16.1681L34.7069 15.3099Z" fill="url(#paint1_linear_65_2037)"/>
<path d="M25.722 9.71762L25.761 2.00943L32.8067 2.04536L32.7677 9.75385L25.722 9.71762Z" fill="url(#paint2_linear_65_2037)"/>
<path d="M32.807 2.04536L37.7119 11.3835L38.4239 12.738L39.2427 14.2986L39.7881 15.3361L39.3264 16.194L37.7645 19.0932L37.3784 19.8102L36.9506 19.089L35.2188 16.173L34.7069 15.3099L34.0914 14.2721L32.3614 11.3561L31.4135 9.76024L31.4153 9.74715L32.807 2.04536Z" fill="url(#paint3_linear_65_2037)"/>
<path d="M12.8646 2.05997L12.8274 9.4427L8.23244 9.41926L7.11469 2.03043L12.8646 2.05997Z" fill="url(#paint4_linear_65_2037)"/>
<path d="M7.11528 2.03014L8.23304 9.41927L7.2598 11.2273L5.69791 14.1266L5.07932 15.2731V15.2749L-7.62939e-06 15.2487L0.618581 14.1007L1.34571 12.7487L2.17866 11.2012L2.40814 10.775L7.11528 2.03014Z" fill="url(#paint5_linear_65_2037)"/>
<path d="M14.0655 20.8663L14.0265 28.5748L6.98074 28.5386L7.01974 20.8304L14.0655 20.8663Z" fill="url(#paint6_linear_65_2037)"/>
<path d="M2.40814 10.7749L2.66392 11.2039L4.39422 14.1199L5.07932 15.2731V15.2749L5.52346 16.0208L7.25527 18.9368L8.37454 20.8228L8.37121 20.8377L6.98105 28.5383L1.92258 18.9094L1.36416 17.8469L0.391523 15.9943L-7.62939e-06 15.2487L0.618581 14.1007L1.13135 13.1453L2.17715 11.2012H2.17866L2.40814 10.7749Z" fill="url(#paint7_linear_65_2037)"/>
<path d="M12.418 20.8584L13.7544 18.9699L20.7992 19.0062L14.0259 28.5742L6.98105 28.5383L12.418 20.8584Z" fill="url(#paint8_linear_65_2037)"/>
<path d="M15.8046 16.0735L17.1409 14.1853L24.1873 14.2215L22.8497 16.1097L15.8046 16.0735Z" fill="url(#paint9_linear_65_2037)"/>
<path d="M25.7604 2.00913L32.807 2.04535L27.3682 9.72645L26.2378 11.3248L19.1914 11.2885L25.7604 2.00913Z" fill="url(#paint10_linear_65_2037)"/>
<path d="M7.2598 11.2273L32.3614 11.3561L34.0914 14.2721L5.69791 14.1266L7.2598 11.2273Z" fill="url(#paint11_linear_65_2037)"/>
<path d="M5.52346 16.0208L34.2452 16.1682L32.6849 19.0671L7.25527 18.9368L5.52346 16.0208Z" fill="url(#paint12_linear_65_2037)"/>
</g>
<defs>
<linearGradient id="paint0_linear_65_2037" x1="29.7977" y1="28.5389" x2="29.8356" y2="21.156" gradientUnits="userSpaceOnUse">
<stop stop-color="#60E6AF"/>
<stop offset="0.1" stop-color="#5BDEA8"/>
<stop offset="0.2" stop-color="#56D7A1"/>
<stop offset="0.3" stop-color="#50CF9A"/>
<stop offset="0.4" stop-color="#4BC793"/>
<stop offset="0.5" stop-color="#46C08C"/>
<stop offset="0.6" stop-color="#41B884"/>
<stop offset="0.7" stop-color="#3CB07D"/>
<stop offset="0.8" stop-color="#36A876"/>
<stop offset="0.9" stop-color="#31A16F"/>
<stop offset="1" stop-color="#2C9968"/>
</linearGradient>
<linearGradient id="paint1_linear_65_2037" x1="35.6194" y1="28.5682" x2="35.6873" y2="15.3149" gradientUnits="userSpaceOnUse">
<stop stop-color="#60E6AF"/>
<stop offset="0.1" stop-color="#68E7A7"/>
<stop offset="0.2" stop-color="#70E79F"/>
<stop offset="0.3" stop-color="#77E897"/>
<stop offset="0.4" stop-color="#7FE88F"/>
<stop offset="0.5" stop-color="#87E988"/>
<stop offset="0.6" stop-color="#8FEA80"/>
<stop offset="0.7" stop-color="#97EA78"/>
<stop offset="0.8" stop-color="#9EEB70"/>
<stop offset="0.9" stop-color="#A6EB68"/>
<stop offset="1" stop-color="#AEEC60"/>
</linearGradient>
<linearGradient id="paint2_linear_65_2037" x1="29.2838" y1="2.02748" x2="29.2441" y2="9.73565" gradientUnits="userSpaceOnUse">
<stop stop-color="#60E6AF"/>
<stop offset="0.1" stop-color="#5BDEA8"/>
<stop offset="0.2" stop-color="#56D7A1"/>
<stop offset="0.3" stop-color="#50CF9A"/>
<stop offset="0.4" stop-color="#4BC793"/>
<stop offset="0.5" stop-color="#46C08C"/>
<stop offset="0.6" stop-color="#41B884"/>
<stop offset="0.7" stop-color="#3CB07D"/>
<stop offset="0.8" stop-color="#36A876"/>
<stop offset="0.9" stop-color="#31A16F"/>
<stop offset="1" stop-color="#2C9968"/>
</linearGradient>
<linearGradient id="paint3_linear_65_2037" x1="35.5641" y1="19.8008" x2="35.6553" y2="2.05952" gradientUnits="userSpaceOnUse">
<stop stop-color="#60E6AF"/>
<stop offset="0.1" stop-color="#68E7A7"/>
<stop offset="0.2" stop-color="#70E79F"/>
<stop offset="0.3" stop-color="#77E897"/>
<stop offset="0.4" stop-color="#7FE88F"/>
<stop offset="0.5" stop-color="#87E988"/>
<stop offset="0.6" stop-color="#8FEA80"/>
<stop offset="0.7" stop-color="#97EA78"/>
<stop offset="0.8" stop-color="#9EEB70"/>
<stop offset="0.9" stop-color="#A6EB68"/>
<stop offset="1" stop-color="#AEEC60"/>
</linearGradient>
<linearGradient id="paint4_linear_65_2037" x1="9.99004" y1="2.04515" x2="9.95212" y2="9.42796" gradientUnits="userSpaceOnUse">
<stop stop-color="#60E6AF"/>
<stop offset="0.1" stop-color="#5BDEA8"/>
<stop offset="0.2" stop-color="#56D7A1"/>
<stop offset="0.3" stop-color="#50CF9A"/>
<stop offset="0.4" stop-color="#4BC793"/>
<stop offset="0.5" stop-color="#46C08C"/>
<stop offset="0.6" stop-color="#41B884"/>
<stop offset="0.7" stop-color="#3CB07D"/>
<stop offset="0.8" stop-color="#36A876"/>
<stop offset="0.9" stop-color="#31A16F"/>
<stop offset="1" stop-color="#2C9968"/>
</linearGradient>
<linearGradient id="paint5_linear_65_2037" x1="4.10155" y1="15.2698" x2="4.16944" y2="2.01497" gradientUnits="userSpaceOnUse">
<stop stop-color="#60E6AF"/>
<stop offset="0.1" stop-color="#68E7A7"/>
<stop offset="0.2" stop-color="#70E79F"/>
<stop offset="0.3" stop-color="#77E897"/>
<stop offset="0.4" stop-color="#7FE88F"/>
<stop offset="0.5" stop-color="#87E988"/>
<stop offset="0.6" stop-color="#8FEA80"/>
<stop offset="0.7" stop-color="#97EA78"/>
<stop offset="0.8" stop-color="#9EEB70"/>
<stop offset="0.9" stop-color="#A6EB68"/>
<stop offset="1" stop-color="#AEEC60"/>
</linearGradient>
<linearGradient id="paint6_linear_65_2037" x1="10.5037" y1="28.5566" x2="10.5434" y2="20.8485" gradientUnits="userSpaceOnUse">
<stop stop-color="#60E6AF"/>
<stop offset="0.1" stop-color="#5BDEA8"/>
<stop offset="0.2" stop-color="#56D7A1"/>
<stop offset="0.3" stop-color="#50CF9A"/>
<stop offset="0.4" stop-color="#4BC793"/>
<stop offset="0.5" stop-color="#46C08C"/>
<stop offset="0.6" stop-color="#41B884"/>
<stop offset="0.7" stop-color="#3CB07D"/>
<stop offset="0.8" stop-color="#36A876"/>
<stop offset="0.9" stop-color="#31A16F"/>
<stop offset="1" stop-color="#2C9968"/>
</linearGradient>
<linearGradient id="paint7_linear_65_2037" x1="4.1342" y1="28.5237" x2="4.22547" y2="10.7842" gradientUnits="userSpaceOnUse">
<stop stop-color="#60E6AF"/>
<stop offset="0.1" stop-color="#68E7A7"/>
<stop offset="0.2" stop-color="#70E79F"/>
<stop offset="0.3" stop-color="#77E897"/>
<stop offset="0.4" stop-color="#7FE88F"/>
<stop offset="0.5" stop-color="#87E988"/>
<stop offset="0.6" stop-color="#8FEA80"/>
<stop offset="0.7" stop-color="#97EA78"/>
<stop offset="0.8" stop-color="#9EEB70"/>
<stop offset="0.9" stop-color="#A6EB68"/>
<stop offset="1" stop-color="#AEEC60"/>
</linearGradient>
<linearGradient id="paint8_linear_65_2037" x1="13.8658" y1="28.5736" x2="13.9151" y2="18.9709" gradientUnits="userSpaceOnUse">
<stop stop-color="#60E6AF"/>
<stop offset="0.1" stop-color="#5BDEA8"/>
<stop offset="0.2" stop-color="#56D7A1"/>
<stop offset="0.3" stop-color="#50CF9A"/>
<stop offset="0.4" stop-color="#4BC793"/>
<stop offset="0.5" stop-color="#46C08C"/>
<stop offset="0.6" stop-color="#41B884"/>
<stop offset="0.7" stop-color="#3CB07D"/>
<stop offset="0.8" stop-color="#36A876"/>
<stop offset="0.9" stop-color="#31A16F"/>
<stop offset="1" stop-color="#2C9968"/>
</linearGradient>
<linearGradient id="paint9_linear_65_2037" x1="19.9911" y1="16.095" x2="20.0008" y2="14.1999" gradientUnits="userSpaceOnUse">
<stop stop-color="#60E6AF"/>
<stop offset="0.1" stop-color="#5BDEA8"/>
<stop offset="0.2" stop-color="#56D7A1"/>
<stop offset="0.3" stop-color="#50CF9A"/>
<stop offset="0.4" stop-color="#4BC793"/>
<stop offset="0.5" stop-color="#46C08C"/>
<stop offset="0.6" stop-color="#41B884"/>
<stop offset="0.7" stop-color="#3CB07D"/>
<stop offset="0.8" stop-color="#36A876"/>
<stop offset="0.9" stop-color="#31A16F"/>
<stop offset="1" stop-color="#2C9968"/>
</linearGradient>
<linearGradient id="paint10_linear_65_2037" x1="25.9756" y1="11.3235" x2="26.0235" y2="2.01035" gradientUnits="userSpaceOnUse">
<stop stop-color="#60E6AF"/>
<stop offset="0.1" stop-color="#5BDEA8"/>
<stop offset="0.2" stop-color="#56D7A1"/>
<stop offset="0.3" stop-color="#50CF9A"/>
<stop offset="0.4" stop-color="#4BC793"/>
<stop offset="0.5" stop-color="#46C08C"/>
<stop offset="0.6" stop-color="#41B884"/>
<stop offset="0.7" stop-color="#3CB07D"/>
<stop offset="0.8" stop-color="#36A876"/>
<stop offset="0.9" stop-color="#31A16F"/>
<stop offset="1" stop-color="#2C9968"/>
</linearGradient>
<linearGradient id="paint11_linear_65_2037" x1="34.0988" y1="12.8185" x2="5.70531" y2="12.6738" gradientUnits="userSpaceOnUse">
<stop stop-color="#60E6AF"/>
<stop offset="0.1" stop-color="#68E7A7"/>
<stop offset="0.2" stop-color="#70E79F"/>
<stop offset="0.3" stop-color="#77E897"/>
<stop offset="0.4" stop-color="#7FE88F"/>
<stop offset="0.5" stop-color="#87E988"/>
<stop offset="0.6" stop-color="#8FEA80"/>
<stop offset="0.7" stop-color="#97EA78"/>
<stop offset="0.8" stop-color="#9EEB70"/>
<stop offset="0.9" stop-color="#A6EB68"/>
<stop offset="1" stop-color="#AEEC60"/>
</linearGradient>
<linearGradient id="paint12_linear_65_2037" x1="34.2378" y1="17.6216" x2="5.51605" y2="17.4752" gradientUnits="userSpaceOnUse">
<stop stop-color="#60E6AF"/>
<stop offset="0.1" stop-color="#68E7A7"/>
<stop offset="0.2" stop-color="#70E79F"/>
<stop offset="0.3" stop-color="#77E897"/>
<stop offset="0.4" stop-color="#7FE88F"/>
<stop offset="0.5" stop-color="#87E988"/>
<stop offset="0.6" stop-color="#8FEA80"/>
<stop offset="0.7" stop-color="#97EA78"/>
<stop offset="0.8" stop-color="#9EEB70"/>
<stop offset="0.9" stop-color="#A6EB68"/>
<stop offset="1" stop-color="#AEEC60"/>
</linearGradient>
<clipPath id="clip0_65_2037">
<rect width="191" height="29" fill="white" transform="translate(0 0.5)"/>
</clipPath>
</defs>
</svg>
