<svg width="530" height="477" viewBox="0 0 530 477" fill="none" xmlns="http://www.w3.org/2000/svg">
<path d="M90.9106 372.769C186.797 425.071 342.199 425.083 438.085 372.769C533.972 320.456 533.972 235.642 438.085 183.329C342.199 131.015 186.797 131.015 90.9106 183.329C-4.97572 235.642 -4.9647 320.434 90.9106 372.769Z" fill="#F5F5F5"/>
<path d="M142.012 353.783L208.813 392.395C219.68 398.672 237.303 398.672 248.17 392.395L411.905 297.774C422.772 291.497 422.772 281.314 411.905 275.026L345.104 236.414C334.226 230.137 316.602 230.137 305.735 236.414L142.012 331.035C131.134 337.312 131.134 347.495 142.012 353.783Z" fill="#EBEBEB"/>
<path d="M403.896 286.389C403.212 282.76 401.978 276.835 397.691 272.147C393.049 267.189 387.577 263.082 381.522 260.012C375.504 256.945 372.22 248.682 383.616 248.98C394.131 249.289 404.127 261.115 405.306 271.176L403.896 286.389Z" fill="#37474F"/>
<path d="M404.831 276.835C404.689 276.836 404.553 276.782 404.449 276.686C404.344 276.59 404.28 276.458 404.269 276.317C403.002 260.199 385.632 252.598 382.226 252.278C382.144 252.285 382.062 252.274 381.985 252.246C381.907 252.218 381.837 252.173 381.779 252.115C381.721 252.057 381.677 251.986 381.649 251.909C381.621 251.832 381.61 251.749 381.617 251.667C381.625 251.585 381.65 251.506 381.691 251.435C381.733 251.364 381.789 251.302 381.857 251.256C381.924 251.209 382.001 251.177 382.082 251.163C382.163 251.149 382.246 251.153 382.325 251.175C386.095 251.517 404.104 259.162 405.47 276.251C405.476 276.324 405.468 276.399 405.445 276.469C405.422 276.54 405.386 276.605 405.338 276.662C405.289 276.718 405.231 276.764 405.164 276.798C405.098 276.832 405.026 276.852 404.952 276.857L404.831 276.835Z" fill="white"/>
<path d="M413.119 286.389C413.77 283.852 416.36 279.582 419.732 278.391C423.105 277.199 430.478 278.92 433.806 273.592C437.135 268.263 434.181 260.916 434.732 257.904C435.283 254.893 437.399 252.389 441.599 249.498C445.798 246.608 447.815 241.037 445.434 238.378C443.053 235.719 438.766 235.388 433.134 239.272C427.502 243.155 427.315 242.151 422.355 241.699C417.396 241.246 412.976 246.431 412.193 253.646L413.119 286.389Z" fill="#455A64"/>
<path d="M412.745 273.625H412.613C412.541 273.609 412.472 273.58 412.412 273.537C412.352 273.494 412.3 273.44 412.261 273.377C412.222 273.315 412.196 273.245 412.185 273.172C412.173 273.098 412.176 273.024 412.194 272.952C415.798 256.989 433.984 242.228 440.618 239.724C440.765 239.671 440.926 239.679 441.066 239.745C441.207 239.811 441.315 239.931 441.368 240.077C441.421 240.223 441.413 240.384 441.347 240.525C441.281 240.666 441.161 240.774 441.015 240.827C434.546 243.276 416.768 257.662 413.296 273.25C413.257 273.363 413.182 273.461 413.082 273.528C412.983 273.596 412.865 273.63 412.745 273.625Z" fill="white"/>
<path d="M421.247 257.209C421.134 257.209 421.023 257.176 420.929 257.113C420.835 257.05 420.761 256.961 420.718 256.856C418.932 252.444 419.274 246.597 419.285 246.343C419.327 246.224 419.406 246.123 419.511 246.054C419.616 245.985 419.741 245.953 419.866 245.962C419.991 245.97 420.109 246.02 420.204 246.103C420.298 246.186 420.362 246.297 420.387 246.42C420.387 246.42 420.046 252.278 421.743 256.426C421.771 256.495 421.786 256.57 421.785 256.645C421.784 256.72 421.769 256.794 421.739 256.863C421.709 256.932 421.666 256.994 421.612 257.046C421.557 257.098 421.493 257.138 421.423 257.165C421.368 257.191 421.308 257.206 421.247 257.209Z" fill="white"/>
<path d="M429.818 268.307C427.327 268.307 420.935 267.965 415.931 264.678C415.805 264.596 415.717 264.468 415.686 264.321C415.655 264.174 415.684 264.021 415.766 263.895C415.847 263.769 415.976 263.681 416.123 263.65C416.269 263.619 416.422 263.647 416.548 263.729C422.445 267.601 430.711 267.16 430.799 267.149C430.874 267.144 430.948 267.155 431.019 267.179C431.09 267.204 431.155 267.243 431.21 267.293C431.265 267.344 431.31 267.405 431.342 267.473C431.373 267.541 431.391 267.614 431.394 267.689C431.398 267.763 431.388 267.837 431.364 267.907C431.34 267.977 431.302 268.041 431.253 268.097C431.204 268.152 431.144 268.197 431.078 268.229C431.011 268.262 430.939 268.28 430.865 268.285C430.733 268.296 430.358 268.307 429.818 268.307Z" fill="white"/>
<path d="M223.885 390.42C222.606 385.819 218.286 381.848 211.133 377.722C203.98 373.596 191.735 368.279 194.601 361.075C197.466 353.871 209.931 359.674 214.593 363.745C220.699 369.084 225.428 376.983 225.56 382.422L223.885 390.42Z" fill="#37474F"/>
<path d="M225.041 385.654C224.91 385.655 224.782 385.61 224.68 385.528C224.578 385.446 224.507 385.331 224.479 385.202C221.834 372.615 206.933 362.885 199.692 361.197C199.545 361.162 199.417 361.071 199.336 360.943C199.256 360.815 199.229 360.66 199.262 360.513C199.299 360.367 199.39 360.24 199.517 360.16C199.645 360.08 199.798 360.052 199.945 360.082C207.44 361.836 222.848 371.92 225.592 384.97C225.608 385.044 225.61 385.119 225.596 385.193C225.582 385.267 225.554 385.337 225.513 385.4C225.472 385.462 225.419 385.516 225.357 385.558C225.295 385.6 225.225 385.629 225.151 385.643L225.041 385.654Z" fill="white"/>
<path d="M233.109 390.42C233.683 385.412 237.838 382.433 242.896 381.242C247.955 380.05 252.452 379.245 252.816 373.685C253.179 368.125 248.099 363.546 252.176 358.77C256.254 353.993 262.47 348.995 262.041 340.611C261.611 332.227 253.83 331.355 250.799 336.639C247.768 341.924 247.14 345.586 242.874 345.079C238.609 344.571 231.776 347.362 230.916 360.126L233.109 390.42Z" fill="#455A64"/>
<path d="M232.348 380.315H232.271C232.122 380.293 231.989 380.214 231.898 380.094C231.807 379.975 231.767 379.824 231.786 379.675C233.472 367.176 242.223 356.508 248.616 348.72C251.36 345.41 253.73 342.487 254.755 340.368C254.785 340.301 254.829 340.24 254.884 340.189C254.938 340.139 255.002 340.1 255.072 340.074C255.142 340.048 255.216 340.037 255.29 340.04C255.364 340.043 255.437 340.061 255.504 340.093C255.639 340.159 255.743 340.276 255.795 340.418C255.846 340.56 255.841 340.716 255.78 340.854C254.677 343.06 252.286 346.039 249.486 349.448C243.182 357.17 234.552 367.639 232.954 379.83C232.935 379.973 232.861 380.103 232.748 380.194C232.635 380.284 232.492 380.328 232.348 380.315Z" fill="white"/>
<path d="M239.148 362.443C239.032 362.445 238.918 362.409 238.823 362.342C238.728 362.274 238.656 362.178 238.619 362.068C237.612 358.558 237.133 354.918 237.197 351.268C237.203 351.117 237.267 350.973 237.376 350.868C237.485 350.764 237.63 350.705 237.781 350.705C237.856 350.706 237.93 350.723 237.998 350.753C238.067 350.783 238.128 350.827 238.18 350.882C238.231 350.936 238.271 351 238.297 351.07C238.323 351.14 238.335 351.215 238.332 351.29C238.275 354.805 238.731 358.31 239.688 361.693C239.714 361.763 239.725 361.838 239.721 361.912C239.717 361.987 239.698 362.06 239.665 362.127C239.632 362.194 239.586 362.254 239.529 362.302C239.473 362.351 239.407 362.388 239.335 362.41C239.276 362.432 239.212 362.444 239.148 362.443Z" fill="white"/>
<path d="M246.963 373.386C242.801 373.151 238.705 372.235 234.84 370.673C234.77 370.647 234.706 370.608 234.652 370.557C234.598 370.506 234.555 370.445 234.525 370.377C234.495 370.309 234.48 370.235 234.479 370.161C234.478 370.087 234.492 370.013 234.52 369.945C234.546 369.875 234.585 369.811 234.636 369.756C234.686 369.702 234.747 369.658 234.815 369.627C234.883 369.597 234.956 369.58 235.03 369.577C235.104 369.575 235.178 369.587 235.248 369.614C238.989 371.124 242.948 372.025 246.974 372.283C247.049 372.284 247.123 372.301 247.191 372.331C247.26 372.361 247.321 372.405 247.373 372.459C247.424 372.514 247.464 372.578 247.49 372.648C247.516 372.718 247.528 372.793 247.526 372.867C247.517 373.01 247.454 373.143 247.349 373.24C247.244 373.337 247.106 373.389 246.963 373.386Z" fill="white"/>
<path d="M143.407 307.736C143.671 307.625 144.509 289.919 136.882 279.483C129.255 269.047 120.052 267.844 113.99 270.381C107.929 272.919 109.163 279.152 116.625 282.892C124.086 286.631 133.377 293.151 135.592 305.066L143.407 307.736Z" fill="#37474F"/>
<path d="M140.607 302.54C140.473 302.539 140.343 302.492 140.24 302.405C140.138 302.318 140.069 302.198 140.045 302.066C137.191 284.083 126.566 275.269 117.584 273.018C117.511 273.002 117.442 272.97 117.382 272.927C117.321 272.883 117.27 272.828 117.231 272.764C117.192 272.701 117.166 272.63 117.155 272.556C117.144 272.482 117.147 272.407 117.165 272.334C117.18 272.253 117.212 272.176 117.259 272.108C117.306 272.04 117.367 271.983 117.438 271.941C117.51 271.9 117.589 271.874 117.671 271.865C117.753 271.857 117.836 271.866 117.914 271.893C127.25 274.232 138.282 283.333 141.225 301.856C141.237 301.93 141.235 302.006 141.218 302.079C141.201 302.152 141.169 302.221 141.125 302.281C141.081 302.342 141.025 302.393 140.961 302.432C140.896 302.471 140.825 302.496 140.751 302.507L140.607 302.54Z" fill="white"/>
<path d="M142.038 340.611C140.936 335.944 136.186 332.888 130.642 332.359C124.878 331.84 118.177 331.256 116.391 326.401C114.606 321.547 116.391 314.939 115.587 311.707C114.606 307.791 113.107 305.463 105.535 303.08C98.757 300.951 95.0097 294.464 101.843 291.728C108.676 288.992 115.521 290.724 120.172 292.831C124.823 294.938 125.021 297.112 131.568 296.549C138.114 295.986 142.997 300.101 143.405 304.073L142.038 340.611Z" fill="#455A64"/>
<path d="M142.039 324.78C141.922 324.779 141.808 324.743 141.712 324.676C141.615 324.609 141.541 324.515 141.499 324.405C136.121 309.402 114.122 295.822 106.804 294.961C106.656 294.942 106.521 294.865 106.428 294.748C106.335 294.63 106.292 294.481 106.308 294.332C106.325 294.182 106.4 294.044 106.518 293.949C106.635 293.854 106.786 293.809 106.936 293.825C114.453 294.718 137.058 308.641 142.568 324.019C142.595 324.089 142.607 324.164 142.603 324.239C142.6 324.314 142.582 324.387 142.551 324.455C142.519 324.523 142.474 324.584 142.418 324.634C142.362 324.684 142.297 324.723 142.227 324.747L142.039 324.78Z" fill="white"/>
<path d="M136.881 315.767H136.76C136.612 315.733 136.484 315.641 136.404 315.513C136.323 315.385 136.297 315.23 136.33 315.083C138.137 307.261 136.33 302.231 136.33 302.175C136.279 302.029 136.288 301.868 136.355 301.729C136.422 301.589 136.542 301.482 136.688 301.431C136.834 301.38 136.995 301.389 137.134 301.456C137.274 301.523 137.381 301.643 137.432 301.789C137.509 301.999 139.339 307.173 137.432 315.337C137.4 315.459 137.329 315.568 137.229 315.645C137.13 315.723 137.007 315.766 136.881 315.767Z" fill="white"/>
<path d="M140.606 321.537C140.514 321.537 140.423 321.514 140.342 321.47C135.933 319.077 126.345 320.786 126.245 320.798C126.171 320.817 126.093 320.82 126.017 320.808C125.942 320.796 125.869 320.769 125.804 320.728C125.739 320.687 125.683 320.632 125.64 320.569C125.597 320.505 125.567 320.433 125.553 320.358C125.539 320.282 125.54 320.205 125.557 320.129C125.574 320.054 125.606 319.984 125.651 319.921C125.696 319.859 125.754 319.807 125.82 319.768C125.886 319.729 125.96 319.704 126.036 319.695C126.444 319.617 136.11 317.897 140.882 320.478C141.011 320.529 141.117 320.625 141.18 320.749C141.243 320.873 141.26 321.015 141.226 321.15C141.193 321.285 141.111 321.402 140.997 321.482C140.883 321.561 140.744 321.596 140.606 321.581V321.537Z" fill="white"/>
<path d="M239.82 119.366C235.599 115.394 227.961 113.85 218.373 119.73C208.784 125.61 201.201 144.419 198.821 157.724C196.44 171.028 194.941 188.403 199.702 195.773C204.464 203.142 221.745 210.953 221.745 210.953L223.839 203.705L239.82 119.366Z" fill="#34A573"/>
<path opacity="0.4" d="M239.82 119.366C235.599 115.394 227.961 113.85 218.373 119.73C208.784 125.61 201.201 144.419 198.821 157.724C196.44 171.028 194.941 188.403 199.702 195.773C204.464 203.142 221.745 210.953 221.745 210.953L223.839 203.705L239.82 119.366Z" fill="white"/>
<path d="M204.441 193.566C211.925 202.535 223.883 203.749 223.883 203.749L270.008 177.018L251.536 166.35L204.441 193.566Z" fill="#34A573"/>
<path opacity="0.2" d="M204.441 193.566C211.925 202.535 223.883 203.749 223.883 203.749L270.008 177.018L251.536 166.35L204.441 193.566Z" fill="black"/>
<path d="M204.443 193.566C201.412 189.97 200.795 180.714 202.437 166.405C204.222 150.696 210.031 126.393 223.873 118.383C240.108 109.006 256.596 132.306 251.57 166.405L204.443 193.566Z" fill="#34A573"/>
<path d="M312.497 269.599C321.017 279.263 327.255 281.182 329.537 283.245C331.818 285.308 330.914 289.765 325.822 291.188C320.731 292.611 315.01 291.773 311.428 288.695C307.846 285.617 305.19 281.414 301.597 279.229C298.004 277.045 296.219 276.527 295.491 273.713C294.764 270.9 296.704 262.13 296.704 262.13L312.497 269.599Z" fill="#263238"/>
<path d="M307.614 254.242C307.162 258.015 306.611 261.335 309.477 265.627C310.403 267.007 311.411 268.329 312.497 269.587C317.478 275.335 321.523 279.814 322.24 280.619C322.956 281.424 319.308 284.348 314.789 282.825C310.27 281.303 306.027 275.103 302.875 271.429C301.475 269.786 300.109 268.296 299.028 267.149C297.576 265.619 296.733 263.61 296.659 261.501L296.449 255.543L307.614 254.242Z" fill="#FFA8A7"/>
<path d="M286.629 285.407C295.148 295.082 301.375 296.991 303.668 299.054C305.96 301.117 305.045 305.584 299.953 307.008C294.862 308.431 289.141 307.592 285.548 304.503C281.956 301.414 279.321 297.233 275.728 295.049C272.135 292.865 270.339 292.346 269.623 289.533C268.906 286.72 270.835 277.949 270.835 277.949L286.629 285.407Z" fill="#263238"/>
<path d="M281.735 270.062C281.294 273.845 280.732 277.155 283.609 281.446C284.532 282.828 285.54 284.151 286.629 285.407C291.61 291.166 295.644 295.645 296.361 296.439C297.077 297.233 293.44 300.168 288.91 298.645C284.38 297.123 280.148 290.923 277.007 287.26C275.607 285.606 274.241 284.127 273.16 282.98C271.709 281.449 270.867 279.44 270.791 277.332L270.57 271.363L281.735 270.062Z" fill="#FFA8A7"/>
<path d="M247.282 65H253.829C256.386 64.9971 258.919 65.4985 261.282 66.4756C263.645 67.4527 265.793 68.8863 267.602 70.6946C269.412 72.5028 270.848 74.6502 271.828 77.0141C272.808 79.378 273.314 81.912 273.315 84.4714V133.409H227.819V84.4714C227.821 79.3062 229.873 74.3537 233.523 70.7024C237.173 67.0511 242.122 65 247.282 65Z" fill="#263238"/>
<path d="M276.047 121.859C268.432 113.85 264.541 113.033 259.912 113.033L268.729 138.958C268.729 138.958 283.233 148.556 291.72 153.851L297.109 141.959C297.109 141.959 283.663 129.835 276.047 121.859Z" fill="#FFA8A7"/>
<path d="M224.578 180.328C221.746 186.44 218.098 192.938 221.79 199.226C225.482 205.514 255.471 199.226 255.471 199.226V180.328H224.578Z" fill="#263238"/>
<path d="M257.023 113.033C260.33 112.757 264.077 112.856 268.045 119.542C272.012 126.227 274.239 129.978 272.982 139.708C271.726 149.438 267.031 156.94 266.689 160.581C266.347 164.221 267.218 181.718 267.218 181.718C267.218 181.718 261.421 190.003 247.005 190.389C242.755 190.482 238.537 189.628 234.658 187.887C230.779 186.147 227.335 183.565 224.576 180.328L235.598 160.536L232.776 120.314L243.544 113.86L257.023 113.033Z" fill="#34A573"/>
<path d="M257.023 113.033C260.33 112.757 264.077 112.856 268.045 119.542C272.012 126.227 274.239 129.978 272.982 139.708C271.726 149.438 267.031 156.94 266.689 160.581C266.347 164.221 267.218 181.718 267.218 181.718C267.218 181.718 261.421 190.003 247.005 190.389C242.755 190.482 238.537 189.628 234.658 187.887C230.779 186.147 227.335 183.565 224.576 180.328L235.598 160.536L232.776 120.314L243.544 113.86L257.023 113.033Z" fill="#E0E0E0"/>
<path d="M243.556 127.264C242.512 127.264 241.477 127.058 240.513 126.658C239.548 126.257 238.671 125.67 237.933 124.931C237.195 124.191 236.61 123.313 236.211 122.346C235.813 121.38 235.608 120.345 235.61 119.299V96.1321H243.556V127.264Z" fill="#263238"/>
<path d="M265.819 74.2004C268.211 75.6236 271.187 81.6691 270.889 94.3337C270.647 105.079 267.164 107.726 265.378 108.499C263.593 109.271 260.264 108.797 256.98 108.245V114.699C256.98 114.699 261.51 119.961 261.223 122.906C260.937 125.852 254.688 126.569 250.455 123.679C247.71 121.7 245.353 119.231 243.501 116.398V100.809C243.501 100.809 241.297 103.766 237.682 101.361C234.066 98.9561 233.923 93.0099 236.028 90.8807C238.133 88.7516 242.641 89.4135 243.501 92.37C243.501 92.37 248.725 92.5576 255.624 88.7405C258.348 87.2922 260.691 85.2202 262.463 82.6934C264.234 80.1666 265.384 77.2566 265.819 74.2004Z" fill="#FFA8A7"/>
<path d="M258.907 91.6418C258.924 91.9987 258.797 92.3473 258.557 92.611C258.316 92.8748 257.98 93.032 257.624 93.048C257.267 93.0641 256.918 92.9378 256.655 92.6968C256.391 92.4558 256.234 92.12 256.218 91.7631C256.21 91.5864 256.237 91.4099 256.297 91.2435C256.358 91.0772 256.45 90.9244 256.569 90.7938C256.688 90.6633 256.832 90.5575 256.992 90.4825C257.152 90.4075 257.326 90.3648 257.502 90.3568C257.679 90.3489 257.855 90.3758 258.021 90.4361C258.188 90.4963 258.34 90.5887 258.471 90.7081C258.601 90.8274 258.707 90.9713 258.782 91.1315C258.857 91.2917 258.9 91.4651 258.907 91.6418Z" fill="#263238"/>
<path d="M256.472 87.5051L253.673 89.2367C253.445 88.853 253.375 88.3958 253.478 87.9616C253.581 87.5274 253.848 87.1502 254.224 86.9095C254.41 86.7975 254.616 86.7241 254.831 86.6935C255.045 86.6628 255.264 86.6757 255.474 86.7312C255.684 86.7868 255.88 86.8839 256.051 87.0168C256.223 87.1497 256.366 87.3158 256.472 87.5051Z" fill="#263238"/>
<path d="M259.275 100.743L262.405 101.747C262.346 101.955 262.245 102.149 262.11 102.317C261.975 102.486 261.807 102.625 261.618 102.728C261.428 102.831 261.219 102.895 261.004 102.916C260.789 102.936 260.572 102.914 260.366 102.85C259.95 102.704 259.606 102.405 259.403 102.013C259.2 101.622 259.155 101.168 259.275 100.743Z" fill="#F28F8F"/>
<path d="M270.007 87.4937L267.274 85.5966C267.387 85.4114 267.538 85.2516 267.716 85.127C267.894 85.0025 268.096 84.9158 268.308 84.8724C268.521 84.8289 268.741 84.8297 268.953 84.8746C269.166 84.9195 269.367 85.0075 269.544 85.1333C269.907 85.3936 270.157 85.7829 270.244 86.2216C270.33 86.6603 270.245 87.1153 270.007 87.4937Z" fill="#263238"/>
<path d="M269.346 90.66C269.35 90.9263 269.276 91.188 269.132 91.4123C268.988 91.6365 268.782 91.8136 268.539 91.9212C268.295 92.0289 268.025 92.0625 267.763 92.0178C267.501 91.9732 267.257 91.8521 267.063 91.6699C266.869 91.4877 266.733 91.2523 266.671 90.9931C266.61 90.7339 266.626 90.4624 266.718 90.2124C266.81 89.9624 266.973 89.745 267.188 89.5872C267.402 89.4295 267.658 89.3385 267.924 89.3254C268.105 89.3195 268.286 89.3494 268.455 89.4133C268.624 89.4772 268.779 89.5739 268.912 89.6978C269.044 89.8218 269.15 89.9705 269.224 90.1356C269.299 90.3007 269.34 90.4789 269.346 90.66Z" fill="#263238"/>
<path d="M262.979 89.8884L263.199 98.019L267.475 96.6951L262.979 89.8884Z" fill="#F28F8F"/>
<path d="M257.026 108.244C254.304 107.936 248.837 106.281 247.625 104.439C247.859 105.616 248.513 106.667 249.466 107.395C251.251 109.105 257.026 110.34 257.026 110.34V108.244Z" fill="#F28F8F"/>
<path d="M228.49 291.728L140.793 241.047L325.424 134.346L413.121 185.027L228.49 291.728Z" fill="#34A573"/>
<path opacity="0.4" d="M228.49 291.728L140.793 241.047L325.424 134.346L413.121 185.027L228.49 291.728Z" fill="white"/>
<path d="M140.793 241.048V342.409L145.411 345.079V275.721L223.883 321.062V390.42L228.49 393.09V291.729L140.793 241.048Z" fill="#34A573"/>
<path opacity="0.3" d="M140.793 241.048V342.409L145.411 345.079V275.721L223.883 321.062V390.42L228.49 393.09V291.729L140.793 241.048Z" fill="black"/>
<path d="M145.412 345.079L150.03 342.409V278.391L145.412 275.721V345.079Z" fill="#34A573"/>
<path opacity="0.5" d="M145.412 345.079L150.03 342.409V278.391L145.412 275.721V345.079Z" fill="black"/>
<path d="M228.49 393.09L233.108 390.42V321.062L408.503 219.701V289.059L413.121 286.389V185.028L228.49 291.729V393.09Z" fill="#34A573"/>
<path opacity="0.1" d="M228.49 393.09L233.108 390.42V321.062L408.503 219.701V289.059L413.121 286.389V185.028L228.49 291.729V393.09Z" fill="black"/>
<path d="M233.11 315.734V294.398L288.503 262.384V283.72L233.11 315.734Z" fill="#34A573"/>
<path opacity="0.3" d="M233.11 315.734V294.398L288.503 262.384V283.72L233.11 315.734Z" fill="black"/>
<path d="M293.106 281.061V259.714L348.499 227.71V249.046L293.106 281.061Z" fill="#34A573"/>
<path opacity="0.3" d="M293.106 281.061V259.714L348.499 227.71V249.046L293.106 281.061Z" fill="black"/>
<path d="M353.123 246.376V225.041L408.506 193.026V214.373L353.123 246.376Z" fill="#34A573"/>
<path opacity="0.3" d="M353.123 246.376V225.041L408.506 193.026V214.373L353.123 246.376Z" fill="black"/>
<path d="M270.009 273.051V274.761C270.009 275.699 267.805 277.74 265.083 279.306L256.464 284.293C253.742 285.859 251.537 286.378 251.537 285.396V283.697L270.009 273.051Z" fill="#263238"/>
<path d="M330.041 238.378V240.088C330.041 241.026 327.837 243.067 325.114 244.633L316.496 249.62C313.784 251.186 311.58 251.694 311.58 250.723V249.013L330.041 238.378Z" fill="#263238"/>
<path d="M390.043 203.705V205.404C390.043 206.352 387.839 208.382 385.127 209.96L376.498 214.935C373.786 216.513 371.582 217.02 371.582 216.038V214.328L390.043 203.705Z" fill="#263238"/>
<path d="M408.504 289.059L403.897 286.389V222.371L408.504 219.701V289.059Z" fill="#34A573"/>
<path opacity="0.3" d="M408.504 289.059L403.897 286.389V222.371L408.504 219.701V289.059Z" fill="black"/>
<path d="M279.266 191.889V191.503C279.286 191.162 279.385 190.829 279.555 190.532C279.725 190.236 279.962 189.983 280.247 189.793L338.341 156.256C338.647 156.103 338.985 156.023 339.327 156.023C339.669 156.023 340.007 156.103 340.313 156.256L352.194 163.118C352.479 163.307 352.716 163.56 352.886 163.857C353.057 164.154 353.156 164.486 353.175 164.828V165.225C353.153 165.566 353.051 165.897 352.879 166.191C352.707 166.486 352.469 166.737 352.183 166.924L294.156 200.461C293.849 200.615 293.512 200.694 293.169 200.694C292.827 200.694 292.489 200.615 292.183 200.461L280.247 193.566C279.966 193.38 279.732 193.132 279.562 192.842C279.392 192.551 279.291 192.225 279.266 191.889Z" fill="#34A573"/>
<path opacity="0.7" d="M279.266 191.889V191.503C279.286 191.162 279.385 190.829 279.555 190.532C279.725 190.236 279.962 189.983 280.247 189.793L338.341 156.256C338.647 156.103 338.985 156.023 339.327 156.023C339.669 156.023 340.007 156.103 340.313 156.256L352.194 163.118C352.479 163.307 352.716 163.56 352.886 163.857C353.057 164.154 353.156 164.486 353.175 164.828V165.225C353.153 165.566 353.051 165.897 352.879 166.191C352.707 166.486 352.469 166.737 352.183 166.924L294.156 200.461C293.849 200.615 293.512 200.694 293.169 200.694C292.827 200.694 292.489 200.615 292.183 200.461L280.247 193.566C279.966 193.38 279.732 193.132 279.562 192.842C279.392 192.551 279.291 192.225 279.266 191.889Z" fill="white"/>
<path d="M280.244 190.929L292.126 197.802C292.432 197.956 292.769 198.036 293.112 198.036C293.454 198.036 293.792 197.956 294.098 197.802L352.126 164.265C352.232 164.217 352.321 164.139 352.384 164.041C352.446 163.944 352.48 163.83 352.48 163.714C352.48 163.597 352.446 163.484 352.384 163.386C352.321 163.288 352.232 163.21 352.126 163.162L340.245 156.3C339.939 156.147 339.601 156.067 339.259 156.067C338.916 156.067 338.578 156.147 338.272 156.3L280.233 189.837C279.704 190.113 279.704 190.62 280.244 190.929Z" fill="#34A573"/>
<path opacity="0.9" d="M280.244 190.929L292.126 197.802C292.432 197.956 292.769 198.036 293.112 198.036C293.454 198.036 293.792 197.956 294.098 197.802L352.126 164.265C352.232 164.217 352.321 164.139 352.384 164.041C352.446 163.944 352.48 163.83 352.48 163.714C352.48 163.597 352.446 163.484 352.384 163.386C352.321 163.288 352.232 163.21 352.126 163.162L340.245 156.3C339.939 156.147 339.601 156.067 339.259 156.067C338.916 156.067 338.578 156.147 338.272 156.3L280.233 189.837C279.704 190.113 279.704 190.62 280.244 190.929Z" fill="white"/>
<path d="M206.402 223.827L241.351 244.037C241.657 244.191 241.995 244.27 242.337 244.27C242.679 244.27 243.017 244.191 243.323 244.037L269.047 229.166C269.157 229.121 269.251 229.045 269.317 228.947C269.383 228.849 269.418 228.733 269.418 228.615C269.418 228.496 269.383 228.38 269.317 228.282C269.251 228.184 269.157 228.108 269.047 228.063L234.088 207.863C233.785 207.706 233.448 207.624 233.107 207.624C232.765 207.624 232.429 207.706 232.126 207.863L206.402 222.69C205.851 223.01 205.851 223.518 206.402 223.827Z" fill="#34A573"/>
<path opacity="0.8" d="M206.402 223.827L241.351 244.037C241.657 244.191 241.995 244.27 242.337 244.27C242.679 244.27 243.017 244.191 243.323 244.037L269.047 229.166C269.157 229.121 269.251 229.045 269.317 228.947C269.383 228.849 269.418 228.733 269.418 228.615C269.418 228.496 269.383 228.38 269.317 228.282C269.251 228.184 269.157 228.108 269.047 228.063L234.088 207.863C233.785 207.706 233.448 207.624 233.107 207.624C232.765 207.624 232.429 207.706 232.126 207.863L206.402 222.69C205.851 223.01 205.851 223.518 206.402 223.827Z" fill="white"/>
<path d="M232.128 207.831L207.693 221.94L241.353 241.401C241.659 241.554 241.997 241.634 242.339 241.634C242.682 241.634 243.019 241.554 243.326 241.401L267.804 227.28L234.134 207.831C233.825 207.665 233.481 207.579 233.131 207.579C232.781 207.579 232.437 207.665 232.128 207.831Z" fill="#34A573"/>
<path opacity="0.7" d="M232.128 207.831L207.693 221.94L241.353 241.401C241.659 241.554 241.997 241.634 242.339 241.634C242.682 241.634 243.019 241.554 243.326 241.401L267.804 227.28L234.134 207.831C233.825 207.665 233.481 207.579 233.131 207.579C232.781 207.579 232.437 207.665 232.128 207.831Z" fill="white"/>
<path d="M206.403 220.275L241.352 240.474C241.658 240.628 241.996 240.707 242.338 240.707C242.68 240.707 243.018 240.628 243.324 240.474L269.048 225.614C269.154 225.566 269.243 225.488 269.306 225.39C269.369 225.292 269.402 225.179 269.402 225.063C269.402 224.946 269.369 224.833 269.306 224.735C269.243 224.637 269.154 224.559 269.048 224.511L234.088 204.267C233.784 204.116 233.448 204.037 233.108 204.037C232.767 204.037 232.431 204.116 232.127 204.267L206.403 219.138C206.282 219.177 206.176 219.252 206.102 219.354C206.027 219.456 205.986 219.58 205.986 219.707C205.986 219.833 206.027 219.957 206.102 220.059C206.176 220.161 206.282 220.237 206.403 220.275Z" fill="#34A573"/>
<path opacity="0.9" d="M206.403 220.275L241.352 240.474C241.658 240.628 241.996 240.707 242.338 240.707C242.68 240.707 243.018 240.628 243.324 240.474L269.048 225.614C269.154 225.566 269.243 225.488 269.306 225.39C269.369 225.292 269.402 225.179 269.402 225.063C269.402 224.946 269.369 224.833 269.306 224.735C269.243 224.637 269.154 224.559 269.048 224.511L234.088 204.267C233.784 204.116 233.448 204.037 233.108 204.037C232.767 204.037 232.431 204.116 232.127 204.267L206.403 219.138C206.282 219.177 206.176 219.252 206.102 219.354C206.027 219.456 205.986 219.58 205.986 219.707C205.986 219.833 206.027 219.957 206.102 220.059C206.176 220.161 206.282 220.237 206.403 220.275Z" fill="white"/>
<path d="M225.778 199.226C224.62 202.381 226.395 204.929 229.756 204.907C231.523 204.815 233.227 204.227 234.675 203.21C236.124 202.194 237.257 200.79 237.945 199.159C239.113 196.004 237.328 193.456 233.966 193.478C232.2 193.57 230.495 194.158 229.047 195.175C227.599 196.191 226.466 197.595 225.778 199.226Z" fill="#34A573"/>
<path opacity="0.1" d="M225.778 199.226C224.62 202.381 226.395 204.929 229.756 204.907C231.523 204.815 233.227 204.227 234.675 203.21C236.124 202.194 237.257 200.79 237.945 199.159C239.113 196.004 237.328 193.456 233.966 193.478C232.2 193.57 230.495 194.158 229.047 195.175C227.599 196.191 226.466 197.595 225.778 199.226Z" fill="black"/>
<path d="M228.568 214.196C225.934 221.333 229.968 227.103 237.584 227.059C245.199 227.015 253.476 221.146 256.122 214.041C258.767 206.937 254.711 201.145 247.106 201.178C239.501 201.211 231.191 207.047 228.568 214.196Z" fill="#455A64"/>
<path d="M234.737 193.566L230.175 196.754L225.612 199.943C224.102 205.933 223.65 215.288 229.26 223.341L255.513 204.984C249.848 196.876 240.832 194.162 234.737 193.566Z" fill="#455A64"/>
<path d="M237.373 193.997C237.373 193.997 238.189 201.223 232.777 204.499C232.777 204.499 237.869 203.098 239.39 199.513C240.911 195.927 237.373 193.997 237.373 193.997Z" fill="#263238"/>
<path d="M238.044 194.813C236.011 191.985 233.276 189.737 230.108 188.293L226.449 190.897L226.042 191.183L222.371 193.787C222.69 197.243 223.897 200.557 225.876 203.407C226.332 203.987 226.923 204.447 227.597 204.747C228.271 205.047 229.009 205.178 229.745 205.128C231.605 205.026 233.399 204.402 234.921 203.327C236.444 202.252 237.633 200.769 238.352 199.049C238.649 198.366 238.774 197.621 238.717 196.879C238.659 196.136 238.42 195.419 238.022 194.791L238.044 194.813Z" fill="#37474F"/>
<path d="M222.494 191.823C222.273 192.267 222.177 192.763 222.215 193.257C222.253 193.751 222.424 194.226 222.71 194.631C222.996 195.036 223.386 195.356 223.839 195.557C224.292 195.758 224.791 195.832 225.282 195.773C226.512 195.707 227.698 195.296 228.704 194.585C229.71 193.875 230.496 192.894 230.969 191.757C231.189 191.314 231.285 190.819 231.247 190.326C231.21 189.833 231.04 189.359 230.755 188.955C230.471 188.55 230.082 188.23 229.631 188.028C229.18 187.826 228.683 187.75 228.192 187.807C226.963 187.879 225.778 188.294 224.772 189.003C223.765 189.712 222.976 190.689 222.494 191.823Z" fill="#455A64"/>
<path d="M230.009 200.792C229.551 200.131 228.944 199.588 228.238 199.205C227.532 198.821 226.745 198.609 225.942 198.586C225.637 198.559 225.331 198.622 225.06 198.767C224.79 198.912 224.568 199.133 224.421 199.402L213.598 225.559C213.519 225.812 213.499 226.081 213.541 226.343C213.583 226.605 213.686 226.854 213.841 227.07C214.3 227.733 214.908 228.278 215.616 228.661C216.325 229.044 217.114 229.255 217.919 229.276C218.224 229.305 218.531 229.242 218.802 229.097C219.072 228.952 219.294 228.73 219.44 228.46L230.241 202.392C230.343 202.128 230.376 201.842 230.335 201.561C230.294 201.281 230.182 201.016 230.009 200.792Z" fill="#455A64"/>
<path d="M242.894 264.855C242.894 264.484 242.853 264.114 242.773 263.752C241.845 259.52 239.353 255.796 235.796 253.326H221.193C217.633 255.794 215.137 259.518 214.205 263.752C214.128 264.114 214.091 264.484 214.095 264.855C214.091 264.921 214.091 264.987 214.095 265.053C214.227 267.072 215.616 269.069 218.283 270.569C223.915 273.879 233.03 273.879 238.662 270.569C241.329 269.025 242.717 267.028 242.85 265.053C242.868 264.988 242.883 264.922 242.894 264.855Z" fill="#455A64"/>
<path d="M228.49 262.714C233.895 262.714 238.277 260.181 238.277 257.055C238.277 253.93 233.895 251.396 228.49 251.396C223.085 251.396 218.703 253.93 218.703 257.055C218.703 260.181 223.085 262.714 228.49 262.714Z" fill="#37474F"/>
<path d="M226.174 255.709C225.893 255.802 225.648 255.982 225.474 256.222C225.301 256.463 225.207 256.752 225.207 257.049C225.207 257.346 225.301 257.635 225.474 257.875C225.648 258.116 225.893 258.296 226.174 258.389C226.893 258.753 227.688 258.943 228.494 258.943C229.3 258.943 230.095 258.753 230.814 258.389C231.096 258.296 231.34 258.116 231.514 257.875C231.688 257.635 231.781 257.346 231.781 257.049C231.781 256.752 231.688 256.463 231.514 256.222C231.34 255.982 231.096 255.802 230.814 255.709C230.095 255.344 229.3 255.155 228.494 255.155C227.688 255.155 226.893 255.344 226.174 255.709Z" fill="#455A64"/>
<path d="M212.774 230.137C212.492 230.23 212.248 230.41 212.074 230.651C211.9 230.891 211.807 231.18 211.807 231.477C211.807 231.774 211.9 232.063 212.074 232.304C212.248 232.544 212.492 232.724 212.774 232.817C213.493 233.182 214.288 233.371 215.094 233.371C215.9 233.371 216.695 233.182 217.414 232.817C217.695 232.724 217.94 232.544 218.114 232.304C218.287 232.063 218.381 231.774 218.381 231.477C218.381 231.18 218.287 230.891 218.114 230.651C217.94 230.41 217.695 230.23 217.414 230.137C216.695 229.773 215.9 229.583 215.094 229.583C214.288 229.583 213.493 229.773 212.774 230.137Z" fill="#34A573"/>
<path opacity="0.3" d="M212.774 230.137C212.492 230.23 212.248 230.41 212.074 230.651C211.9 230.891 211.807 231.18 211.807 231.477C211.807 231.774 211.9 232.063 212.074 232.304C212.248 232.544 212.492 232.724 212.774 232.817C213.493 233.182 214.288 233.371 215.094 233.371C215.9 233.371 216.695 233.182 217.414 232.817C217.695 232.724 217.94 232.544 218.114 232.304C218.287 232.063 218.381 231.774 218.381 231.477C218.381 231.18 218.287 230.891 218.114 230.651C217.94 230.41 217.695 230.23 217.414 230.137C216.695 229.773 215.9 229.583 215.094 229.583C214.288 229.583 213.493 229.773 212.774 230.137Z" fill="black"/>
<path d="M218.253 230.942L231.644 256.514L225.351 257.596L211.938 231.99L218.253 230.942Z" fill="#455A64"/>
<path d="M213.522 223.496C213.107 223.394 212.672 223.415 212.269 223.556C211.866 223.697 211.512 223.952 211.251 224.29C210.495 225.142 209.951 226.161 209.661 227.263C209.372 228.365 209.347 229.52 209.587 230.634C209.654 231 209.805 231.345 210.029 231.642C210.253 231.939 210.543 232.179 210.877 232.344L215.88 234.219L218.371 225.283L213.522 223.496Z" fill="#37474F"/>
<path d="M216.191 226.143C215.432 226.996 214.885 228.016 214.594 229.12C214.303 230.224 214.276 231.381 214.516 232.498C215.067 234.517 216.72 234.947 218.175 233.458C218.933 232.607 219.481 231.589 219.772 230.487C220.063 229.385 220.09 228.229 219.85 227.114C219.31 225.095 217.657 224.665 216.191 226.143Z" fill="#263238"/>
<path d="M191.027 248.307C195.678 243.563 198.4 231.704 193.87 227.942H170.813C166.283 231.704 169.006 243.552 173.657 248.307L173.778 248.439L173.943 248.594C174.075 248.727 174.215 248.852 174.362 248.969L174.472 249.057L174.825 249.322C175.016 249.462 175.214 249.591 175.42 249.708C177.568 250.796 179.94 251.362 182.347 251.362C184.754 251.362 187.127 250.796 189.274 249.708C189.473 249.598 189.671 249.465 189.88 249.322L190.2 249.068L190.343 248.969L190.74 248.605L190.927 248.417L191.027 248.307Z" fill="#34A573"/>
<path opacity="0.7" d="M191.027 248.307C195.678 243.563 198.4 231.704 193.87 227.942H170.813C166.283 231.704 169.006 243.552 173.657 248.307L173.778 248.439L173.943 248.594C174.075 248.727 174.215 248.852 174.362 248.969L174.472 249.057L174.825 249.322C175.016 249.462 175.214 249.591 175.42 249.708C177.568 250.796 179.94 251.362 182.347 251.362C184.754 251.362 187.127 250.796 189.274 249.708C189.473 249.598 189.671 249.465 189.88 249.322L190.2 249.068L190.343 248.969L190.74 248.605L190.927 248.417L191.027 248.307Z" fill="white"/>
<path d="M182.331 239.724C189.775 239.724 195.81 236.237 195.81 231.935C195.81 227.634 189.775 224.147 182.331 224.147C174.887 224.147 168.852 227.634 168.852 231.935C168.852 236.237 174.887 239.724 182.331 239.724Z" fill="#34A573"/>
<path opacity="0.9" d="M182.331 239.724C189.775 239.724 195.81 236.237 195.81 231.935C195.81 227.634 189.775 224.147 182.331 224.147C174.887 224.147 168.852 227.634 168.852 231.935C168.852 236.237 174.887 239.724 182.331 239.724Z" fill="white"/>
<path d="M176.532 228.581C173.336 230.435 173.336 233.435 176.532 235.289C178.332 236.198 180.319 236.671 182.335 236.671C184.35 236.671 186.338 236.198 188.138 235.289C191.334 233.435 191.334 230.435 188.138 228.581C186.34 227.668 184.351 227.191 182.335 227.191C180.318 227.191 178.33 227.668 176.532 228.581Z" fill="#34A573"/>
<path opacity="0.7" d="M176.532 228.581C173.336 230.435 173.336 233.435 176.532 235.289C178.332 236.198 180.319 236.671 182.335 236.671C184.35 236.671 186.338 236.198 188.138 235.289C191.334 233.435 191.334 230.435 188.138 228.581C186.34 227.668 184.351 227.191 182.335 227.191C180.318 227.191 178.33 227.668 176.532 228.581Z" fill="white"/>
<path d="M188.143 231.759C186.343 230.85 184.355 230.376 182.34 230.376C180.324 230.376 178.337 230.85 176.537 231.759C175.766 232.185 175.108 232.79 174.619 233.524C175.108 234.257 175.766 234.862 176.537 235.289C178.337 236.197 180.324 236.671 182.34 236.671C184.355 236.671 186.343 236.197 188.143 235.289C188.914 234.862 189.571 234.257 190.06 233.524C189.571 232.79 188.914 232.185 188.143 231.759Z" fill="#34A573"/>
<path opacity="0.3" d="M188.143 231.759C186.343 230.85 184.355 230.376 182.34 230.376C180.324 230.376 178.337 230.85 176.537 231.759C175.766 232.185 175.108 232.79 174.619 233.524C175.108 234.257 175.766 234.862 176.537 235.289C178.337 236.197 180.324 236.671 182.34 236.671C184.355 236.671 186.343 236.197 188.143 235.289C188.914 234.862 189.571 234.257 190.06 233.524C189.571 232.79 188.914 232.185 188.143 231.759Z" fill="black"/>
<path d="M184.428 234.252C187.768 232.164 190.29 228.989 191.57 225.261C193.697 219.039 192.44 211.515 190.534 208.404C187.955 204.19 181.716 204.664 183.557 211.714C185.398 218.763 186.544 226.386 183.623 231.483L184.428 234.252Z" fill="#37474F"/>
<path d="M184.646 232.972C184.578 232.972 184.511 232.949 184.458 232.906C184.431 232.879 184.41 232.848 184.395 232.813C184.381 232.777 184.373 232.74 184.373 232.702C184.373 232.664 184.381 232.626 184.395 232.591C184.41 232.556 184.431 232.524 184.458 232.498C186.322 230.436 187.748 228.016 188.65 225.386C189.551 222.756 189.91 219.97 189.705 217.197C189.385 212.089 187.5 208.371 186.784 207.808C186.732 207.753 186.703 207.68 186.703 207.604C186.703 207.528 186.732 207.455 186.784 207.4C186.837 207.349 186.908 207.32 186.982 207.32C187.056 207.32 187.127 207.349 187.181 207.4C188.129 208.217 189.98 212.188 190.289 217.174C190.502 220.025 190.134 222.89 189.207 225.594C188.281 228.298 186.815 230.786 184.899 232.906C184.866 232.938 184.826 232.961 184.781 232.973C184.737 232.984 184.69 232.984 184.646 232.972Z" fill="white"/>
<path d="M179.05 234.252C178.872 233.637 178.481 233.105 177.948 232.752C177.289 232.384 176.595 232.085 175.876 231.858C174.63 231.406 173.043 230.755 172.878 229.254C172.839 228.717 172.906 228.177 173.076 227.666C173.383 226.973 173.457 226.198 173.286 225.459C173.01 224.797 172.305 224.444 171.699 224.047C171.03 223.652 170.461 223.108 170.034 222.459C169.675 221.882 169.502 221.207 169.539 220.528C169.66 219.138 170.993 218.222 171.037 216.843C171.093 214.825 166.375 212.089 168.888 210.224C172.107 207.786 177.143 210.61 178.587 212.684C180.031 214.758 180.031 215.685 182.665 217.439C184.869 218.895 187.426 219.193 187.426 222.062C187.426 224.93 183.756 225.062 186.644 228.317C188.385 230.269 185.542 231.957 184.439 234.274C182.643 234.252 180.824 234.164 179.05 234.252Z" fill="#455A64"/>
<path d="M181.957 234.506C181.919 234.504 181.882 234.495 181.848 234.48C181.814 234.464 181.783 234.442 181.757 234.414C181.732 234.386 181.712 234.354 181.699 234.319C181.686 234.283 181.68 234.246 181.681 234.208C182.32 217.539 173.845 211.692 172.148 211.228C172.078 211.205 172.021 211.155 171.986 211.091C171.952 211.026 171.944 210.95 171.964 210.879C171.984 210.809 172.03 210.748 172.093 210.711C172.155 210.673 172.23 210.661 172.302 210.677C175.168 211.46 182.849 218.498 182.221 234.23C182.219 234.3 182.19 234.368 182.142 234.418C182.093 234.469 182.027 234.5 181.957 234.506Z" fill="white"/>
<path d="M180.613 222.657C180.544 222.657 180.478 222.633 180.425 222.591C177.967 220.385 173.162 220.473 173.107 220.473C173.033 220.473 172.962 220.444 172.908 220.393C172.855 220.341 172.823 220.271 172.82 220.197C172.82 220.122 172.849 220.049 172.9 219.994C172.951 219.939 173.021 219.905 173.096 219.899C173.305 219.899 178.177 219.844 180.811 222.105C180.853 222.144 180.882 222.194 180.895 222.25C180.907 222.305 180.904 222.363 180.884 222.416C180.863 222.469 180.828 222.515 180.782 222.548C180.735 222.581 180.68 222.6 180.624 222.602L180.613 222.657Z" fill="white"/>
<path d="M376.43 176.864L380.574 126.514C380.617 125.699 380.449 124.887 380.086 124.156C379.723 123.425 379.177 122.801 378.502 122.344C377.755 121.982 376.934 121.802 376.105 121.817C375.276 121.833 374.462 122.043 373.73 122.432L318.623 154.27C317.894 154.742 317.276 155.366 316.81 156.099C316.344 156.832 316.041 157.657 315.922 158.518L311.778 208.867C311.735 209.682 311.903 210.494 312.266 211.225C312.629 211.956 313.175 212.58 313.85 213.037C314.597 213.399 315.418 213.579 316.247 213.564C317.076 213.549 317.89 213.338 318.623 212.949L373.73 181.111C374.457 180.638 375.075 180.014 375.541 179.281C376.006 178.548 376.31 177.724 376.43 176.864Z" fill="#34A573"/>
<path opacity="0.8" d="M376.43 176.864L380.574 126.514C380.617 125.699 380.449 124.887 380.086 124.156C379.723 123.425 379.177 122.801 378.502 122.344C377.755 121.982 376.934 121.802 376.105 121.817C375.276 121.833 374.462 122.043 373.73 122.432L318.623 154.27C317.894 154.742 317.276 155.366 316.81 156.099C316.344 156.832 316.041 157.657 315.922 158.518L311.778 208.867C311.735 209.682 311.903 210.494 312.266 211.225C312.629 211.956 313.175 212.58 313.85 213.037C314.597 213.399 315.418 213.579 316.247 213.564C317.076 213.549 317.89 213.338 318.623 212.949L373.73 181.111C374.457 180.638 375.075 180.014 375.541 179.281C376.006 178.548 376.31 177.724 376.43 176.864Z" fill="white"/>
<path d="M376.428 176.864L380.572 126.514C380.615 125.699 380.447 124.887 380.084 124.156C379.721 123.425 379.175 122.801 378.5 122.344C377.754 121.982 376.933 121.802 376.104 121.817C375.274 121.833 374.461 122.043 373.728 122.432L318.621 154.27C317.889 154.725 317.274 155.344 316.824 156.08L325.388 161.022V209.011L373.695 181.089C374.427 180.623 375.05 180.004 375.522 179.275C375.993 178.545 376.303 177.723 376.428 176.864Z" fill="#34A573"/>
<path opacity="0.9" d="M376.428 176.864L380.572 126.514C380.615 125.699 380.447 124.887 380.084 124.156C379.721 123.425 379.175 122.801 378.5 122.344C377.754 121.982 376.933 121.802 376.104 121.817C375.274 121.833 374.461 122.043 373.728 122.432L318.621 154.27C317.889 154.725 317.274 155.344 316.824 156.08L325.388 161.022V209.011L373.695 181.089C374.427 180.623 375.05 180.004 375.522 179.275C375.993 178.545 376.303 177.723 376.428 176.864Z" fill="white"/>
<path d="M316.43 211.537L320.574 161.188C320.694 160.327 320.996 159.502 321.46 158.768C321.924 158.034 322.538 157.407 323.263 156.929L378.37 125.102C379.737 124.319 380.729 124.948 380.575 126.514L376.431 176.864C376.312 177.723 376.01 178.547 375.546 179.28C375.082 180.012 374.467 180.637 373.741 181.111L318.634 212.949C317.29 213.733 316.298 213.104 316.43 211.537Z" fill="#34A573"/>
<path opacity="0.7" d="M316.43 211.537L320.574 161.188C320.694 160.327 320.996 159.502 321.46 158.768C321.924 158.034 322.538 157.407 323.263 156.929L378.37 125.102C379.737 124.319 380.729 124.948 380.575 126.514L376.431 176.864C376.312 177.723 376.01 178.547 375.546 179.28C375.082 180.012 374.467 180.637 373.741 181.111L318.634 212.949C317.29 213.733 316.298 213.104 316.43 211.537Z" fill="white"/>
<path d="M344.853 171.138C345.003 169.785 345.44 168.479 346.136 167.309C346.832 166.139 347.769 165.131 348.887 164.354C350.903 163.184 352.358 164.354 352.193 166.913C352.042 168.266 351.604 169.572 350.908 170.742C350.212 171.912 349.275 172.919 348.159 173.698C346.054 174.812 344.643 173.709 344.853 171.138Z" fill="#34A573"/>
<path opacity="0.4" d="M344.853 171.138C345.003 169.785 345.44 168.479 346.136 167.309C346.832 166.139 347.769 165.131 348.887 164.354C350.903 163.184 352.358 164.354 352.193 166.913C352.042 168.266 351.604 169.572 350.908 170.742C350.212 171.912 349.275 172.919 348.159 173.698C346.054 174.812 344.643 173.709 344.853 171.138Z" fill="white"/>
<path d="M343.884 187.697L362.345 177.029L360.041 175.694L341.58 186.362L343.884 187.697Z" fill="#34A573"/>
<path opacity="0.9" d="M343.884 187.697L362.345 177.029L360.041 175.694L341.58 186.362L343.884 187.697Z" fill="white"/>
<path d="M365.972 201.597L349.44 211.129C349.103 211.311 348.721 211.395 348.338 211.372C348.028 211.358 347.723 211.279 347.445 211.14L340.182 206.948C339.906 206.757 339.678 206.506 339.513 206.214C339.349 205.921 339.254 205.595 339.234 205.26V204.874C339.234 204.245 339.675 203.98 340.215 204.3L344.624 206.827L345.605 207.4L345.384 206.297L341.571 186.44L343.874 187.774L362.346 177.018L366.755 199.899C366.806 200.227 366.759 200.564 366.62 200.866C366.481 201.169 366.256 201.423 365.972 201.597Z" fill="#34A573"/>
<path opacity="0.7" d="M365.972 201.597L349.44 211.129C349.103 211.311 348.721 211.395 348.338 211.372C348.028 211.358 347.723 211.279 347.445 211.14L340.182 206.948C339.906 206.757 339.678 206.506 339.513 206.214C339.349 205.921 339.254 205.595 339.234 205.26V204.874C339.234 204.245 339.675 203.98 340.215 204.3L344.624 206.827L345.605 207.4L345.384 206.297L341.571 186.44L343.874 187.774L362.346 177.018L366.755 199.899C366.806 200.227 366.759 200.564 366.62 200.866C366.481 201.169 366.256 201.423 365.972 201.597Z" fill="white"/>
<path d="M339.576 204.19L345.197 200.936L346.343 208.515L339.576 204.19Z" fill="#34A573"/>
<path opacity="0.7" d="M339.576 204.19L345.197 200.936L346.343 208.515L339.576 204.19Z" fill="white"/>
<path d="M343.851 187.697L341.547 186.362L345.361 206.22C345.493 206.827 345.14 207.08 344.6 206.76L340.192 204.234C339.652 203.914 339.211 204.234 339.211 204.808V205.194C339.23 205.529 339.326 205.855 339.49 206.147C339.654 206.44 339.883 206.691 340.159 206.882L347.422 211.074C347.7 211.213 348.004 211.292 348.315 211.306L343.851 187.697Z" fill="#34A573"/>
<path opacity="0.8" d="M343.851 187.697L341.547 186.362L345.361 206.22C345.493 206.827 345.14 207.08 344.6 206.76L340.192 204.234C339.652 203.914 339.211 204.234 339.211 204.808V205.194C339.23 205.529 339.326 205.855 339.49 206.147C339.654 206.44 339.883 206.691 340.159 206.882L347.422 211.074C347.7 211.213 348.004 211.292 348.315 211.306L343.851 187.697Z" fill="white"/>
<path d="M284.334 214.373C287.718 214.119 288.809 212.872 289.36 211.372C289.911 209.872 290.11 208.228 288.798 204.753C287.487 201.278 279.981 196.722 272.189 198.387C264.397 200.053 263.317 206.011 263.735 207.61C264.154 209.21 268.838 213.27 274.911 213.965C278.035 214.373 281.187 214.509 284.334 214.373Z" fill="#34A573"/>
<path opacity="0.7" d="M284.334 214.373C287.718 214.119 288.809 212.872 289.36 211.372C289.911 209.872 290.11 208.228 288.798 204.753C287.487 201.278 279.981 196.722 272.189 198.387C264.397 200.053 263.317 206.011 263.735 207.61C264.154 209.21 268.838 213.27 274.911 213.965C278.035 214.373 281.187 214.509 284.334 214.373Z" fill="white"/>
<path d="M280.378 203.495C280.826 203.141 281.379 202.949 281.949 202.949C282.519 202.949 283.072 203.141 283.519 203.495C284.55 204.079 285.374 204.969 285.878 206.043C286.22 206.936 286.054 207.73 285.669 207.73C285.283 207.73 284.996 206.914 283.519 205.679C282.043 204.443 280.048 203.958 280.378 203.495Z" fill="#34A573"/>
<path opacity="0.9" d="M280.378 203.495C280.826 203.141 281.379 202.949 281.949 202.949C282.519 202.949 283.072 203.141 283.519 203.495C284.55 204.079 285.374 204.969 285.878 206.043C286.22 206.936 286.054 207.73 285.669 207.73C285.283 207.73 284.996 206.914 283.519 205.679C282.043 204.443 280.048 203.958 280.378 203.495Z" fill="white"/>
<path d="M232.778 120.336C229.141 122.785 224.831 125.687 225.427 135.24C226.022 144.794 233.142 171.149 233.627 174.36C234.112 177.57 253.465 193.114 257.025 196.181C261.114 199.744 262.657 200.494 264.509 202.535C266.36 204.576 268.102 209.783 270.019 212.045C273.028 215.542 279.509 215.619 282.496 215.211C285.482 214.803 283.598 211.173 282.496 208.592C281.393 206.01 278.44 202.491 279.277 201.884C279.85 201.476 282.969 202.028 285.383 204.091C287.246 205.679 287.466 207.235 288.513 207.963C290.266 209.198 290.85 207.014 289.042 203.55C287.235 200.086 284.479 197.604 281.757 196.743C282.958 196.838 284.16 196.569 285.207 195.971C286.706 195.044 287.235 192.948 285.383 193.5C284.281 193.82 283.179 193.5 280.975 193.5C274.053 193.5 271.97 196.015 263.958 188.271C255.945 180.526 245.221 169.991 245.221 169.991C245.221 169.991 241.617 148.037 239.997 138.318C238.619 129.945 238.046 124.462 232.778 120.336Z" fill="#FFA8A7"/>
<path d="M297.108 141.926L310.786 112.934L318.501 116.122C318.501 116.122 307.16 150.476 305.529 154.204C304.57 156.411 301.495 159.091 297.042 156.918C296.072 156.444 294.144 155.308 291.752 153.818" fill="#FFA8A7"/>
<path d="M315.604 124.76C316.551 121.925 319.56 118.902 320.012 117.699C320.414 116.75 320.547 115.708 320.398 114.688L316.882 115.041L315.604 124.76Z" fill="#FFA8A7"/>
<path d="M308.353 117.997C308.926 116.685 309.025 112.084 308.353 109.437C307.681 106.789 309.301 103.479 308.893 101.615C308.485 99.7506 309.676 99.188 310.756 99.861C311.417 100.281 311.965 100.859 312.349 101.542C312.734 102.225 312.944 102.993 312.96 103.777C313.015 105.708 313.136 110.617 312.354 113.011C311.571 115.405 308.353 117.997 308.353 117.997Z" fill="#FFA8A7"/>
<path d="M310.171 113.485C310.38 114.081 311.174 114.908 313.742 114.467L318.47 116.121L320.399 116.011C319.368 116.741 318.106 117.07 316.85 116.936C315.594 116.802 314.431 116.214 313.576 115.283C313.576 115.283 310.105 115.713 310.171 113.485Z" fill="#F28F8F"/>
<path d="M323.397 111.544C320.432 113.861 320.851 116.872 324.345 118.284C326.282 118.95 328.348 119.15 330.376 118.866C332.404 118.582 334.337 117.824 336.017 116.652C338.981 114.335 338.552 111.312 335.069 109.9C333.131 109.238 331.065 109.042 329.037 109.328C327.009 109.613 325.077 110.373 323.397 111.544Z" fill="#34A573"/>
<path opacity="0.7" d="M323.397 111.544C320.432 113.861 320.851 116.872 324.345 118.284C326.282 118.95 328.348 119.15 330.376 118.866C332.404 118.582 334.337 117.824 336.017 116.652C338.981 114.335 338.552 111.312 335.069 109.9C333.131 109.238 331.065 109.042 329.037 109.328C327.009 109.613 325.077 110.373 323.397 111.544Z" fill="white"/>
<path d="M338.077 94.6318L327.199 96.1542L316.299 97.6767C316.541 104.737 318.933 112.647 322.052 116.674L337.747 114.467C339.653 109.724 339.775 101.483 338.077 94.6318Z" fill="#34A573"/>
<path opacity="0.7" d="M338.077 94.6318L327.199 96.1542L316.299 97.6767C316.541 104.737 318.933 112.647 322.052 116.674L337.747 114.467C339.653 109.724 339.775 101.483 338.077 94.6318Z" fill="white"/>
<path d="M319.1 94.3783C315.11 96.8163 315.529 99.817 320.037 101.064C325.278 102.212 330.757 101.429 335.467 98.8572C339.456 96.4082 339.038 93.4185 334.53 92.1609C329.288 91.0166 323.809 91.804 319.1 94.3783Z" fill="#34A573"/>
<path opacity="0.9" d="M319.1 94.3783C315.11 96.8163 315.529 99.817 320.037 101.064C325.278 102.212 330.757 101.429 335.467 98.8572C339.456 96.4082 339.038 93.4185 334.53 92.1609C329.288 91.0166 323.809 91.804 319.1 94.3783Z" fill="white"/>
<path d="M320.706 95.3821C317.4 97.07 317.719 99.0226 321.312 99.7949C325.534 100.435 329.85 99.8288 333.733 98.0518C336.985 96.3639 336.72 94.4113 333.116 93.639C328.898 93.0002 324.586 93.6059 320.706 95.3821Z" fill="#34A573"/>
<path opacity="0.4" d="M320.706 95.3821C317.4 97.07 317.719 99.0226 321.312 99.7949C325.534 100.435 329.85 99.8288 333.733 98.0518C336.985 96.3639 336.72 94.4113 333.116 93.639C328.898 93.0002 324.586 93.6059 320.706 95.3821Z" fill="white"/>
<path d="M321.114 97.963C320.53 98.2499 319.991 98.6216 319.516 99.0659C320.095 99.3628 320.715 99.571 321.356 99.6836C325.578 100.323 329.894 99.7176 333.777 97.9409C334.364 97.6585 334.903 97.2864 335.376 96.838C334.796 96.5411 334.176 96.3329 333.535 96.2203C329.313 95.5807 324.997 96.1863 321.114 97.963Z" fill="#34A573"/>
<path opacity="0.3" d="M321.114 97.963C320.53 98.2499 319.991 98.6216 319.516 99.0659C320.095 99.3628 320.715 99.571 321.356 99.6836C325.578 100.323 329.894 99.7176 333.777 97.9409C334.364 97.6585 334.903 97.2864 335.376 96.838C334.796 96.5411 334.176 96.3329 333.535 96.2203C329.313 95.5807 324.997 96.1863 321.114 97.963Z" fill="black"/>
<path d="M318.799 116.343C317.884 116.479 316.952 116.434 316.055 116.21C314.82 115.879 313.652 114.688 312.495 112.559C311.525 110.772 309.861 106.8 310.566 104.605C311.47 101.814 314.699 101.417 316.848 101.152L317.587 101.052L318.061 104.439L317.267 104.539C316.055 104.682 314.038 104.936 313.806 105.642C313.498 107.01 315.812 112.338 316.992 112.923C318.055 113.071 319.138 112.894 320.1 112.415L321.643 115.46C320.747 115.902 319.787 116.199 318.799 116.343Z" fill="#34A573"/>
<path opacity="0.7" d="M318.799 116.343C317.884 116.479 316.952 116.434 316.055 116.21C314.82 115.879 313.652 114.688 312.495 112.559C311.525 110.772 309.861 106.8 310.566 104.605C311.47 101.814 314.699 101.417 316.848 101.152L317.587 101.052L318.061 104.439L317.267 104.539C316.055 104.682 314.038 104.936 313.806 105.642C313.498 107.01 315.812 112.338 316.992 112.923C318.055 113.071 319.138 112.894 320.1 112.415L321.643 115.46C320.747 115.902 319.787 116.199 318.799 116.343Z" fill="white"/>
<path d="M314.754 105.653C312.649 105.653 306.466 108.113 306.333 110.341C306.201 112.57 310.4 112.404 310.4 112.404C310.202 112.735 310.126 113.126 310.187 113.507C310.247 113.888 310.44 114.236 310.731 114.489C311.778 115.394 319.713 112.636 319.713 112.636C319.436 111.726 319.016 110.866 318.468 110.088C318.072 109.585 317.494 109.259 316.859 109.183C316.859 109.183 317.884 105.653 314.754 105.653Z" fill="#FFA8A7"/>
<path d="M157.271 214.295L148.035 208.967L157.271 206.297V214.295Z" fill="#E0E0E0"/>
<g style="mix-blend-mode:multiply" opacity="0.5">
<path d="M157.269 206.297V214.295L148.033 208.967" fill="#E0E0E0"/>
</g>
<path d="M101.878 238.312V246.806L51.1133 217.472V208.967L101.878 238.312Z" fill="#E0E0E0"/>
<g style="mix-blend-mode:multiply" opacity="0.5">
<path d="M101.876 238.312V246.806L51.1116 217.472V208.967L101.876 238.312Z" fill="#E0E0E0"/>
</g>
<path d="M46.4941 142.279L97.2698 171.624V240.971L46.4941 211.637V142.279Z" fill="#E0E0E0"/>
<path d="M97.2695 171.623L166.495 131.611V200.957L97.2695 240.97V171.623Z" fill="#EBEBEB"/>
<path d="M166.495 131.611L115.731 102.266L46.4941 142.279L97.2698 171.624L166.495 131.611Z" fill="#F5F5F5"/>
<path d="M101.875 174.293L161.887 139.609V155.616L101.875 190.29V174.293Z" fill="#E0E0E0"/>
<g style="mix-blend-mode:multiply" opacity="0.5">
<path d="M124.956 162.28C124.956 163.019 127.161 162.346 129.883 160.779L138.502 155.793C141.224 154.226 143.417 152.351 143.417 151.612V150.277L124.945 160.956L124.956 162.28Z" fill="#E0E0E0"/>
</g>
<path d="M101.875 195.629L161.887 160.956V176.952L101.875 211.636V195.629Z" fill="#E0E0E0"/>
<g style="mix-blend-mode:multiply" opacity="0.5">
<path d="M124.956 183.638C124.956 184.377 127.161 183.638 129.883 182.126L138.502 177.14C141.224 175.573 143.417 173.698 143.417 172.97V171.635L124.945 182.303L124.956 183.638Z" fill="#E0E0E0"/>
</g>
<path d="M101.875 216.965L161.887 182.291V198.299L101.875 232.972V216.965Z" fill="#E0E0E0"/>
<g style="mix-blend-mode:multiply" opacity="0.5">
<path d="M124.956 204.962C124.956 205.702 127.161 205.029 129.883 203.451L138.502 198.476C141.224 196.898 143.417 195.034 143.417 194.295V192.96L124.945 203.628L124.956 204.962Z" fill="#E0E0E0"/>
</g>
<path d="M101.875 246.807L106.493 244.148V235.642L101.875 238.312V246.807Z" fill="#E0E0E0"/>
<path d="M157.272 214.295L161.89 211.637V203.627L157.272 206.297V214.295Z" fill="#E0E0E0"/>
<path d="M76.1722 145.169C80.8232 140.414 83.5565 128.621 79.0157 124.793H55.9479C51.4181 128.566 54.1404 140.414 58.7914 145.158L58.9127 145.291L59.078 145.445C59.2098 145.578 59.3497 145.704 59.4968 145.82L59.607 145.908L59.9597 146.173C60.1504 146.313 60.3491 146.442 60.5548 146.559C62.7022 147.647 65.0751 148.214 67.4818 148.214C69.8885 148.214 72.2614 147.647 74.4088 146.559C74.6181 146.442 74.8206 146.313 75.0149 146.173L75.3346 145.93L75.4778 145.82L75.8856 145.456L76.062 145.28L76.1722 145.169Z" fill="#EBEBEB"/>
<path d="M57.957 123.282C52.6888 126.326 52.6888 131.258 57.957 134.314C63.2253 137.369 71.7559 137.358 77.0131 134.314C82.2703 131.269 82.2813 126.349 77.0131 123.282C71.7448 120.215 63.2143 120.237 57.957 123.282Z" fill="#F5F5F5"/>
<path d="M61.7018 125.433C58.5056 127.286 58.5056 130.287 61.7018 132.14C63.4999 133.054 65.4881 133.53 67.5046 133.53C69.5212 133.53 71.5093 133.054 73.3074 132.14C76.5036 130.287 76.5036 127.286 73.3074 125.433C71.5078 124.524 69.5203 124.051 67.5046 124.051C65.489 124.051 63.5015 124.524 61.7018 125.433Z" fill="#E0E0E0"/>
<path d="M73.2849 128.621C71.4869 127.707 69.4987 127.231 67.4822 127.231C65.4656 127.231 63.4775 127.707 61.6794 128.621C60.9058 129.039 60.2471 129.642 59.7617 130.375C60.2464 131.112 60.905 131.719 61.6794 132.14C63.4775 133.054 65.4656 133.53 67.4822 133.53C69.4987 133.53 71.4869 133.054 73.2849 132.14C74.0593 131.719 74.7179 131.112 75.2027 130.375C74.7173 129.642 74.0586 129.039 73.2849 128.621Z" fill="#E0E0E0"/>
<g style="mix-blend-mode:multiply" opacity="0.5">
<path d="M73.287 128.621C71.4889 127.708 69.5007 127.231 67.4842 127.231C65.4676 127.231 63.4795 127.708 61.6814 128.621C60.9078 129.039 60.2491 129.642 59.7637 130.376C60.2484 131.113 60.907 131.719 61.6814 132.141C63.4795 133.054 65.4676 133.531 67.4842 133.531C69.5007 133.531 71.4889 133.054 73.287 132.141C74.0613 131.719 74.72 131.113 75.2047 130.376C74.7193 129.642 74.0606 129.039 73.287 128.621Z" fill="#E0E0E0"/>
</g>
<path d="M62.3973 130.375C60.7557 128.71 59.3435 126.833 58.1981 124.793C56.2583 121.373 55.9057 116.773 56.9086 116.21C57.9116 115.648 61.9785 120.226 61.9785 120.226C61.6078 118.297 61.4636 116.331 61.5486 114.368C61.725 111.312 62.4634 108.543 63.3451 107.981C64.2268 107.418 66.1666 111.29 67.0042 114.07C67.8418 116.85 68.3158 119.156 68.3158 119.156C68.6532 116.977 69.1543 114.827 69.8147 112.724C70.8287 109.834 71.7544 109.172 72.4708 109.415C73.1872 109.657 73.6612 111.058 73.8706 114.931C73.9436 116.771 73.8847 118.615 73.6942 120.447C73.6942 120.447 75.138 118.858 76.7251 117.325C78.4775 115.637 79.227 115.405 79.734 115.725C80.2409 116.045 80.3732 118.671 77.6619 123.58C76.3103 126.08 74.5817 128.358 72.537 130.331C72.537 130.331 68.8117 132.802 62.3973 130.375Z" fill="#EBEBEB"/>
<path d="M122.696 150.883L150.249 134.887C150.789 134.578 150.789 134.071 150.249 133.784L112.402 112.205C112.096 112.052 111.758 111.972 111.415 111.972C111.073 111.972 110.735 112.052 110.429 112.205L83.1179 128.014C82.5779 128.334 82.5779 128.842 83.1179 129.117L120.723 150.85C121.027 151.009 121.363 151.094 121.706 151.1C122.048 151.106 122.387 151.032 122.696 150.883Z" fill="#E0E0E0"/>
<g style="mix-blend-mode:multiply" opacity="0.5">
<path d="M122.696 150.884L150.249 134.887C150.789 134.578 150.789 134.071 150.249 133.784L112.402 112.206C112.096 112.052 111.758 111.972 111.415 111.972C111.073 111.972 110.735 112.052 110.429 112.206L83.1179 128.014C82.5779 128.334 82.5779 128.842 83.1179 129.118L120.723 150.851C121.027 151.009 121.363 151.095 121.706 151.1C122.048 151.106 122.387 151.032 122.696 150.884Z" fill="#E0E0E0"/>
</g>
<path d="M83.0941 127.981L114.152 108.212C114.453 108.055 114.788 107.972 115.128 107.972C115.468 107.972 115.802 108.055 116.103 108.212L127.29 114.677C127.552 114.836 127.744 115.087 127.83 115.381C127.916 115.675 127.888 115.991 127.753 116.266L127.301 117.148C127.166 117.423 127.138 117.738 127.224 118.033C127.309 118.327 127.502 118.578 127.764 118.737L150.303 131.788C150.422 131.834 150.525 131.916 150.597 132.023C150.67 132.129 150.709 132.255 150.709 132.383C150.709 132.512 150.67 132.638 150.597 132.744C150.525 132.85 150.422 132.932 150.303 132.979L122.639 150.807C122.342 150.97 122.008 151.055 121.669 151.055C121.33 151.055 120.996 150.97 120.699 150.807L83.0941 129.074C82.9979 129.019 82.9179 128.939 82.8623 128.843C82.8066 128.747 82.7773 128.638 82.7773 128.528C82.7773 128.417 82.8066 128.308 82.8623 128.212C82.9179 128.116 82.9979 128.036 83.0941 127.981Z" fill="#EBEBEB"/>
<path d="M473.53 174.9C481.531 166.726 486.237 133.453 478.423 126.967H438.746C430.932 133.442 435.638 166.682 443.639 174.889L443.849 175.11L444.124 175.386C444.356 175.606 444.598 175.816 444.852 176.026L445.039 176.18C445.238 176.334 445.436 176.489 445.645 176.632C445.976 176.875 446.322 177.096 446.681 177.294C453.294 181.1 463.941 181.1 470.532 177.294C470.891 177.096 471.237 176.875 471.568 176.632L472.13 176.202L472.372 176.015C472.615 175.816 472.846 175.606 473.067 175.397L473.386 175.088L473.53 174.9Z" fill="#37474F"/>
<path d="M442.151 124.352C433.08 129.592 433.08 138.087 442.151 143.327C451.221 148.567 465.913 148.556 474.972 143.327C484.032 138.098 484.032 129.592 474.972 124.352C465.913 119.112 451.21 119.112 442.151 124.352Z" fill="#455A64"/>
<path d="M446.505 126.867C439.892 130.717 439.892 136.95 446.505 140.8C453.117 144.651 463.962 144.651 470.608 140.8C477.254 136.95 477.221 130.717 470.608 126.867C463.996 123.017 453.161 123.028 446.505 126.867Z" fill="#37474F"/>
<path d="M470.598 133.486C463.985 129.636 453.151 129.636 446.494 133.486C444.885 134.358 443.515 135.612 442.504 137.138C443.515 138.667 444.885 139.925 446.494 140.8C453.107 144.651 463.941 144.651 470.598 140.8C472.211 139.931 473.582 138.672 474.587 137.138C473.581 135.608 472.21 134.353 470.598 133.486Z" fill="#E0E0E0"/>
<g style="mix-blend-mode:multiply">
<path d="M470.597 133.486C463.985 129.636 453.15 129.636 446.494 133.486C444.885 134.358 443.515 135.612 442.504 137.138C443.514 138.667 444.884 139.925 446.494 140.8C453.106 144.651 463.94 144.651 470.597 140.8C472.211 139.931 473.582 138.672 474.587 137.138C473.581 135.608 472.21 134.353 470.597 133.486Z" fill="#263238"/>
</g>
<path d="M465.992 137.16C467.92 131.313 470.61 120.612 480.606 112.592C490.856 104.34 500.963 97.8091 497.48 92.3924C494.306 87.4722 484.761 86.744 473.85 95.1724C463.258 103.336 458.475 122.068 459.412 134.49L465.992 137.16Z" fill="#34A573"/>
<g opacity="0.1">
<path d="M465.988 137.16C467.917 131.313 470.606 120.612 480.602 112.592C490.852 104.34 500.959 97.8093 497.476 92.3926C494.302 87.4724 484.757 86.7443 473.846 95.1727C463.254 103.336 458.471 122.069 459.408 134.491L465.988 137.16Z" fill="black"/>
</g>
<path d="M461.119 135.759H461.042C460.968 135.751 460.897 135.728 460.832 135.692C460.768 135.655 460.711 135.606 460.666 135.548C460.62 135.489 460.587 135.422 460.569 135.35C460.55 135.278 460.546 135.204 460.557 135.13C464.348 105.774 482.6 92.7785 491.516 92.3483C491.59 92.3406 491.666 92.3486 491.737 92.3716C491.808 92.3946 491.874 92.4322 491.93 92.482C491.986 92.5318 492.031 92.5927 492.062 92.6608C492.093 92.729 492.11 92.8029 492.111 92.8778C492.117 93.0293 492.064 93.1773 491.963 93.2905C491.863 93.4037 491.722 93.4733 491.571 93.4846C484.958 93.7935 465.693 104.296 461.681 135.274C461.662 135.409 461.595 135.533 461.491 135.622C461.388 135.712 461.255 135.76 461.119 135.759Z" fill="white"/>
<path d="M451.409 138.528C451.149 136.881 450.5 135.321 449.514 133.977C448.528 132.634 447.236 131.546 445.744 130.805C442.493 129.04 438.536 130.805 434.723 125.477C430.909 120.149 434.249 115.824 433.62 113.243C432.992 110.661 432.331 108.973 427.988 107.12C423.646 105.266 422.478 102.542 423.977 96.4299C425.476 90.3182 425.398 88.4648 421.684 85.7841C417.97 83.1033 417.794 79.7055 421.684 77.466C425.575 75.2265 432.496 75.2596 437.974 80.1247C443.451 84.9898 444.146 87.0858 450.175 87.6705C456.203 88.2552 459.653 88.4979 461.02 92.0833C462.386 95.6687 461.681 98.4487 461.02 101.802C460.709 103.333 460.917 104.924 461.612 106.323C462.307 107.722 463.448 108.849 464.855 109.525C467.489 110.771 471.876 111.731 473.507 116.541C475.138 121.351 471.523 131.158 466.894 137.182C466.839 137.16 465.737 140.679 451.409 138.528Z" fill="#34A573"/>
<path d="M461.494 139.09C461.419 139.09 461.345 139.076 461.277 139.047C461.208 139.018 461.145 138.975 461.093 138.922C461.04 138.868 460.999 138.805 460.972 138.735C460.944 138.666 460.931 138.592 460.932 138.517C460.753 129.105 458.657 119.829 454.771 111.257C448.566 97.853 428.739 82.0222 427.526 81.2941C427.458 81.2722 427.395 81.2362 427.341 81.1885C427.287 81.1408 427.244 81.0824 427.213 81.017C427.183 80.9517 427.167 80.8807 427.166 80.8088C427.165 80.7368 427.179 80.6654 427.207 80.5991C427.266 80.4555 427.377 80.3401 427.519 80.2764C427.66 80.2128 427.821 80.2059 427.967 80.2571C428.65 80.4777 449.271 96.6616 455.796 110.771C459.748 119.505 461.882 128.953 462.067 138.539C462.067 138.613 462.052 138.687 462.023 138.755C461.994 138.824 461.952 138.885 461.898 138.937C461.845 138.988 461.781 139.029 461.712 139.055C461.642 139.081 461.568 139.093 461.494 139.09Z" fill="white"/>
<path d="M448.379 101.063C448.287 101.063 448.196 101.04 448.114 100.996C443.959 98.7133 434.029 100.335 433.93 100.357C433.781 100.376 433.631 100.338 433.51 100.25C433.389 100.161 433.307 100.03 433.28 99.8825C433.267 99.8093 433.269 99.7343 433.285 99.6619C433.302 99.5895 433.333 99.5211 433.376 99.4606C433.419 99.4001 433.473 99.3487 433.536 99.3095C433.599 99.2702 433.669 99.2438 433.743 99.2317C434.161 99.1656 444.169 97.5332 448.655 100.004C448.72 100.039 448.778 100.088 448.825 100.146C448.872 100.205 448.906 100.272 448.927 100.344C448.947 100.415 448.953 100.491 448.944 100.565C448.935 100.639 448.912 100.711 448.875 100.776C448.827 100.865 448.755 100.938 448.667 100.989C448.58 101.039 448.48 101.065 448.379 101.063Z" fill="white"/>
<path d="M460.467 128.478C460.329 128.493 460.19 128.458 460.076 128.379C459.962 128.299 459.881 128.182 459.847 128.047C459.814 127.912 459.83 127.769 459.893 127.646C459.957 127.522 460.063 127.426 460.192 127.374C464.865 124.837 468.436 117.666 468.469 117.6C468.495 117.524 468.538 117.454 468.593 117.395C468.649 117.336 468.716 117.29 468.791 117.259C468.865 117.228 468.946 117.213 469.027 117.216C469.107 117.218 469.187 117.238 469.259 117.273C469.332 117.308 469.397 117.358 469.449 117.42C469.501 117.482 469.539 117.554 469.561 117.632C469.583 117.71 469.589 117.792 469.577 117.872C469.565 117.952 469.537 118.028 469.494 118.097C469.339 118.406 465.713 125.665 460.732 128.378C460.654 128.434 460.562 128.468 460.467 128.478Z" fill="white"/>
</svg>
