<svg width="56" height="56" viewBox="0 0 56 56" fill="none" xmlns="http://www.w3.org/2000/svg">
<path opacity="0.5" d="M9.33398 24.5V6.41663H46.6673V24.5C46.6673 31.6496 46.6673 35.2244 44.3242 37.4455C41.981 39.6666 38.2098 39.6666 30.6673 39.6666H29.7507H26.2507H25.334C17.7915 39.6666 14.0203 39.6666 11.6771 37.4455C9.33398 35.2244 9.33398 31.6496 9.33398 24.5Z" fill="#5E6DE2"/>
<path d="M36.2374 21.0708C36.9209 20.3874 36.9209 19.2794 36.2374 18.5959C35.554 17.9125 34.446 17.9125 33.7626 18.5959L30.7458 21.6127C30.5823 21.7762 30.4498 21.9086 30.3333 22.0214C30.2169 21.9086 30.0843 21.7762 29.9209 21.6127L28.4971 20.1889C28.1588 19.8504 27.7931 19.4843 27.4427 19.217C27.0322 18.9038 26.4448 18.5666 25.6667 18.5666C24.8886 18.5666 24.3012 18.9038 23.8906 19.217C23.5402 19.4844 23.1744 19.8504 22.8361 20.189L19.7626 23.2626C19.0791 23.946 19.0791 25.0541 19.7626 25.7375C20.446 26.4209 21.554 26.4209 22.2374 25.7375L25.2542 22.7207C25.4177 22.5573 25.5502 22.4248 25.6667 22.3121C25.7831 22.4248 25.9157 22.5573 26.0791 22.7207L27.5028 24.1444C27.8411 24.483 28.2069 24.8491 28.5573 25.1164C28.9678 25.4296 29.5552 25.7668 30.3333 25.7668C31.1114 25.7668 31.6988 25.4296 32.1094 25.1164C32.4598 24.8491 32.8256 24.483 33.1639 24.1444L36.2374 21.0708Z" fill="#5E6DE2"/>
<path d="M4.66602 2.91663C3.69952 2.91663 2.91602 3.70013 2.91602 4.66663C2.91602 5.63312 3.69952 6.41663 4.66602 6.41663H9.33268H46.666H51.3327C52.2992 6.41663 53.0827 5.63312 53.0827 4.66663C53.0827 3.70013 52.2992 2.91663 51.3327 2.91663H4.66602Z" fill="#5E6DE2"/>
<path d="M26.251 39.6666V47.9184L22.5517 49.768C21.6873 50.2003 21.3369 51.2515 21.7691 52.1159C22.2014 52.9804 23.2525 53.3308 24.117 52.8985L28.001 50.9565L31.8851 52.8985C32.7495 53.3308 33.8007 52.9804 34.2329 52.1159C34.6652 51.2515 34.3148 50.2003 33.4503 49.768L29.751 47.9184V39.6666H26.251Z" fill="#5E6DE2"/>
</svg>
