<svg width="56" height="56" viewBox="0 0 56 56" fill="none" xmlns="http://www.w3.org/2000/svg">
<g opacity="0.5">
<path fill-rule="evenodd" clip-rule="evenodd" d="M32.6666 51.3334H23.3333C14.5337 51.3334 10.134 51.3334 7.4003 48.5997C4.66663 45.8661 4.66663 41.4663 4.66663 32.6667V23.3334C4.66663 14.5339 4.66663 10.1341 7.4003 7.40042C10.134 4.66675 14.5569 4.66675 23.4028 4.66675C24.8168 4.66675 25.9499 4.66675 26.9033 4.70562C26.8719 4.89213 26.8555 5.08238 26.8548 5.27473L26.8333 11.8883C26.8331 14.4483 26.8329 16.7106 27.0781 18.5341C27.3438 20.5107 27.954 22.487 29.567 24.1C31.1799 25.713 33.1562 26.3231 35.1328 26.5889C36.9564 26.8341 39.2187 26.8339 41.7786 26.8337L42 26.8337H51.2339C51.3333 28.0803 51.3333 29.6103 51.3333 31.6468V32.6667C51.3333 41.4663 51.3333 45.8661 48.5996 48.5997C45.866 51.3334 41.4662 51.3334 32.6666 51.3334Z" fill="#5E6DE2"/>
</g>
<path d="M14 32.0833C13.0335 32.0833 12.25 32.8668 12.25 33.8333C12.25 34.7998 13.0335 35.5833 14 35.5833H32.6667C33.6332 35.5833 34.4167 34.7998 34.4167 33.8333C34.4167 32.8668 33.6332 32.0833 32.6667 32.0833H14Z" fill="#5E6DE2"/>
<path d="M14 40.2499C13.0335 40.2499 12.25 41.0334 12.25 41.9999C12.25 42.9664 13.0335 43.7499 14 43.7499H26.8333C27.7998 43.7499 28.5833 42.9664 28.5833 41.9999C28.5833 41.0334 27.7998 40.2499 26.8333 40.2499H14Z" fill="#5E6DE2"/>
<path d="M26.8549 5.27364L26.8334 11.8872C26.8332 14.4471 26.833 16.7095 27.0782 18.533C27.3439 20.5096 27.9541 22.4859 29.5671 24.0989C31.18 25.7119 33.1563 26.322 35.1329 26.5878C36.9565 26.833 39.2188 26.8328 41.7787 26.8326L51.234 26.8326C51.263 27.1955 51.2835 27.5825 51.298 27.999H51.3334C51.3334 27.3748 51.3334 27.0628 51.3102 26.6953C51.1783 24.608 50.3107 22.2163 49.0735 20.53C48.8557 20.2331 48.7069 20.0549 48.4091 19.6985C46.5598 17.4851 44.1258 14.7279 42.0001 12.8323C40.1081 11.1451 37.5169 9.29926 35.257 7.78991C33.3155 6.49315 32.3447 5.84478 31.0136 5.36288C30.6607 5.23511 30.1953 5.094 29.8308 5.00429C28.9348 4.78373 28.0626 4.70701 26.8334 4.68042L26.8549 5.27364Z" fill="#5E6DE2"/>
</svg>
