<svg width="50" height="50" viewBox="0 0 50 50" fill="none" xmlns="http://www.w3.org/2000/svg">
<path d="M50 10.4167C50 13.8685 47.2018 16.6667 43.75 16.6667C40.2982 16.6667 37.5 13.8685 37.5 10.4167C37.5 6.96497 40.2982 4.16675 43.75 4.16675C47.2018 4.16675 50 6.96497 50 10.4167Z" fill="#34A573"/>
<path d="M35.9035 15.5499L32.7023 18.2176C30.5642 19.9993 29.0798 21.2323 27.8266 22.0383C26.6135 22.8185 25.7908 23.0804 25 23.0804C24.2093 23.0804 23.3866 22.8185 22.1735 22.0383C20.9203 21.2323 19.4359 19.9993 17.2978 18.2176L12.3504 14.0947C11.6211 13.487 10.5374 13.5855 9.92966 14.3148C9.32197 15.044 9.4205 16.1278 10.1497 16.7355L15.1834 20.9302C17.2146 22.6229 18.8609 23.9949 20.314 24.9294C21.8276 25.903 23.3017 26.5179 25 26.5179C26.6983 26.5179 28.1725 25.903 29.6861 24.9294C31.1392 23.9949 32.7855 22.6229 34.8168 20.9301L38.288 18.0374C37.3484 17.3628 36.5387 16.5187 35.9035 15.5499Z" fill="#34A573"/>
<path d="M38.445 13.7233C39.0334 13.6178 39.6603 13.8227 40.0704 14.3148C40.4091 14.7211 40.5284 15.2376 40.4415 15.7204C39.6337 15.2155 38.9496 14.5312 38.445 13.7233Z" fill="#34A573"/>
<path opacity="0.5" d="M35.329 6.29372C33.659 6.25 31.7583 6.25 29.584 6.25H20.4173C11.7749 6.25 7.45369 6.25 4.76884 8.99587C2.08398 11.7417 2.08398 16.1612 2.08398 25C2.08398 33.8388 2.08398 38.2583 4.76884 41.0041C7.45369 43.75 11.7749 43.75 20.4173 43.75H29.584C38.2264 43.75 42.5476 43.75 45.2325 41.0041C47.9173 38.2583 47.9173 33.8388 47.9173 25C47.9173 22.7763 47.9173 20.8324 47.8746 19.1244C46.6301 19.7488 45.2304 20.0994 43.7507 20.0994C38.573 20.0994 34.3757 15.8067 34.3757 10.5114C34.3757 8.99799 34.7185 7.56651 35.329 6.29372Z" fill="#34A573"/>
</svg>
