<svg width="50" height="50" viewBox="0 0 50 50" fill="none" xmlns="http://www.w3.org/2000/svg">
<path opacity="0.5" fill-rule="evenodd" clip-rule="evenodd" d="M4.16602 25C4.16602 13.494 13.4934 4.16663 24.9994 4.16663C36.5053 4.16663 45.8327 13.494 45.8327 25C45.8327 36.5059 36.5053 45.8333 24.9994 45.8333C13.4934 45.8333 4.16602 36.5059 4.16602 25ZM23.4368 10.4166C23.4368 9.55368 24.1364 8.85413 24.9994 8.85413C33.9164 8.85413 41.1452 16.0829 41.1452 25C41.1452 33.9171 33.9164 41.1458 24.9994 41.1458C16.0823 41.1458 8.85352 33.9171 8.85352 25C8.85352 24.137 9.55307 23.4375 10.416 23.4375C11.279 23.4375 11.9785 24.137 11.9785 25C11.9785 32.1912 17.8081 38.0208 24.9994 38.0208C32.1906 38.0208 38.0202 32.1912 38.0202 25C38.0202 17.8088 32.1906 11.9791 24.9994 11.9791C24.1364 11.9791 23.4368 11.2796 23.4368 10.4166ZM24.9994 15.1041C24.1364 15.1041 23.4368 15.8037 23.4368 16.6666C23.4368 17.5296 24.1364 18.2291 24.9994 18.2291C28.7388 18.2291 31.7702 21.2605 31.7702 25C31.7702 28.7394 28.7388 31.7708 24.9994 31.7708C24.1364 31.7708 23.4368 32.4704 23.4368 33.3333C23.4368 34.1962 24.1364 34.8958 24.9994 34.8958C30.4647 34.8958 34.8952 30.4653 34.8952 25C34.8952 19.5346 30.4647 15.1041 24.9994 15.1041Z" fill="#34A573"/>
<path d="M23.4368 10.4166C23.4368 9.55368 24.1364 8.85413 24.9993 8.85413C33.9164 8.85413 41.1452 16.0829 41.1452 25C41.1452 33.9171 33.9164 41.1458 24.9993 41.1458C16.0823 41.1458 8.85352 33.9171 8.85352 25C8.85352 24.137 9.55307 23.4375 10.416 23.4375C11.279 23.4375 11.9785 24.137 11.9785 25C11.9785 32.1912 17.8081 38.0208 24.9993 38.0208C32.1906 38.0208 38.0202 32.1912 38.0202 25C38.0202 17.8088 32.1906 11.9791 24.9993 11.9791C24.1364 11.9791 23.4368 11.2796 23.4368 10.4166Z" fill="#34A573"/>
<path d="M24.9993 15.1041C24.1364 15.1041 23.4368 15.8037 23.4368 16.6666C23.4368 17.5296 24.1364 18.2291 24.9993 18.2291C28.7388 18.2291 31.7702 21.2605 31.7702 25C31.7702 28.7394 28.7388 31.7708 24.9993 31.7708C24.1364 31.7708 23.4368 32.4704 23.4368 33.3333C23.4368 34.1962 24.1364 34.8958 24.9993 34.8958C30.4647 34.8958 34.8952 30.4653 34.8952 25C34.8952 19.5346 30.4647 15.1041 24.9993 15.1041Z" fill="#34A573"/>
</svg>
