<svg width="50" height="50" viewBox="0 0 50 50" fill="none" xmlns="http://www.w3.org/2000/svg">
<path d="M6.86019 19.3602C6.25 19.9704 6.25 20.9525 6.25 22.9167V35.4167C6.25 37.3809 6.25 38.3629 6.86019 38.9731C7.47039 39.5833 8.45248 39.5833 10.4167 39.5833C12.3809 39.5833 13.3629 39.5833 13.9731 38.9731C14.5833 38.3629 14.5833 37.3809 14.5833 35.4167V22.9167C14.5833 20.9525 14.5833 19.9704 13.9731 19.3602C13.3629 18.75 12.3809 18.75 10.4167 18.75C8.45248 18.75 7.47039 18.75 6.86019 19.3602Z" fill="#34A573"/>
<path opacity="0.4" d="M36.0262 4.77694C35.416 5.38714 35.416 6.36923 35.416 8.33341V35.4167C35.416 37.3809 35.416 38.363 36.0262 38.9732C36.6364 39.5834 37.6185 39.5834 39.5827 39.5834C41.5469 39.5834 42.529 39.5834 43.1392 38.9732C43.7493 38.363 43.7493 37.3809 43.7493 35.4167V8.33342C43.7493 6.36923 43.7493 5.38714 43.1392 4.77694C42.529 4.16675 41.5469 4.16675 39.5827 4.16675C37.6185 4.16675 36.6364 4.16675 36.0262 4.77694Z" fill="#34A573"/>
<path opacity="0.7" d="M20.834 14.5834C20.834 12.6192 20.834 11.6371 21.4442 11.0269C22.0544 10.4167 23.0365 10.4167 25.0007 10.4167C26.9648 10.4167 27.9469 10.4167 28.5571 11.0269C29.1673 11.6371 29.1673 12.6192 29.1673 14.5834V35.4167C29.1673 37.3809 29.1673 38.363 28.5571 38.9732C27.9469 39.5834 26.9648 39.5834 25.0007 39.5834C23.0365 39.5834 22.0544 39.5834 21.4442 38.9732C20.834 38.363 20.834 37.3809 20.834 35.4167V14.5834Z" fill="#34A573"/>
<path d="M6.25 44.2708C5.38706 44.2708 4.6875 44.9703 4.6875 45.8333C4.6875 46.6962 5.38706 47.3958 6.25 47.3958H43.75C44.6129 47.3958 45.3125 46.6962 45.3125 45.8333C45.3125 44.9703 44.6129 44.2708 43.75 44.2708H6.25Z" fill="#34A573"/>
</svg>
