<svg width="50" height="50" viewBox="0 0 50 50" fill="none" xmlns="http://www.w3.org/2000/svg">
<path opacity="0.5" d="M7.03649 10.5883C6.25 11.7089 6.25 15.0397 6.25 21.7013V24.982C6.25 36.7279 15.0812 42.4281 20.622 44.8484C22.125 45.505 22.8765 45.8333 25 45.8333C27.1235 45.8333 27.875 45.505 29.378 44.8485C34.9188 42.4281 43.75 36.728 43.75 24.982V21.7013C43.75 15.0397 43.75 11.7089 42.9635 10.5883C42.177 9.46775 39.0452 8.39571 32.7815 6.25162L32.7814 6.25161L31.5881 5.84312C28.323 4.72546 26.6904 4.16663 25 4.16663C23.3096 4.16663 21.677 4.72546 18.4119 5.84312L17.2186 6.25161C10.9548 8.3957 7.82298 9.46775 7.03649 10.5883Z" fill="#34A573"/>
<path d="M22.627 17.4237L22.3539 17.9136C22.054 18.4517 21.904 18.7207 21.6701 18.8982C21.4363 19.0757 21.1451 19.1416 20.5626 19.2734L20.5626 19.2734L20.0323 19.3934C17.9826 19.8572 16.9577 20.0891 16.7139 20.8731C16.47 21.6572 17.1687 22.4743 18.5661 24.1083L18.9276 24.5311L18.9276 24.5311C19.3247 24.9954 19.5232 25.2276 19.6126 25.5148C19.7019 25.802 19.6719 26.1118 19.6118 26.7313L19.5572 27.2954C19.3459 29.4755 19.2403 30.5656 19.8786 31.0502C20.517 31.5348 21.4766 31.093 23.3957 30.2093L23.8923 29.9807L23.8923 29.9807C24.4376 29.7296 24.7103 29.6041 24.9993 29.6041C25.2884 29.6041 25.5611 29.7296 26.1064 29.9807L26.603 30.2094C28.5221 31.093 29.4817 31.5348 30.1201 31.0502C30.7584 30.5656 30.6528 29.4755 30.4415 27.2954L30.3869 26.7313L30.3869 26.7312C30.3268 26.1118 30.2968 25.802 30.3861 25.5148C30.4754 25.2276 30.674 24.9954 31.0711 24.5311L31.4326 24.1083L31.4326 24.1083C32.83 22.4743 33.5287 21.6572 33.2848 20.8731C33.041 20.0891 32.0161 19.8572 29.9664 19.3934L29.4361 19.2734C28.8536 19.1416 28.5624 19.0757 28.3286 18.8982C28.0947 18.7207 27.9448 18.4517 27.6448 17.9136L27.6448 17.9136L27.3717 17.4237L27.3717 17.4237C26.3162 15.5301 25.7884 14.5834 24.9993 14.5834C24.2103 14.5834 23.6825 15.5301 22.627 17.4237L22.627 17.4237Z" fill="#34A573"/>
</svg>
