<svg width="50" height="50" viewBox="0 0 50 50" fill="none" xmlns="http://www.w3.org/2000/svg">
<path opacity="0.5" d="M4.16602 25.0001C4.16602 15.1792 4.16602 10.2687 7.21699 7.21772C10.268 4.16675 15.1784 4.16675 24.9994 4.16675C34.8203 4.16675 39.7307 4.16675 42.7817 7.21772C45.8327 10.2687 45.8327 15.1792 45.8327 25.0001C45.8327 34.821 45.8327 39.7315 42.7817 42.7824C39.7307 45.8334 34.8203 45.8334 24.9994 45.8334C15.1784 45.8334 10.268 45.8334 7.21699 42.7824C4.16602 39.7315 4.16602 34.821 4.16602 25.0001Z" fill="#34A573"/>
<path d="M7.21707 42.7823C10.2681 45.8333 15.1787 45.8333 25 45.8333C34.8212 45.8333 39.7318 45.8333 42.7828 42.7823C45.6101 39.9551 45.8175 35.5313 45.8327 27.0833H39.2498C37.364 27.0833 36.4211 27.0833 35.5922 27.4644C34.7634 27.8456 34.1498 28.5615 32.9225 29.9933L32.9225 29.9933L31.6612 31.4648L31.6611 31.4649C30.4339 32.8966 29.8202 33.6125 28.9914 33.9937C28.1626 34.3749 27.2197 34.3749 25.3338 34.3749H24.6661C22.7802 34.3749 21.8373 34.3749 21.0085 33.9937C20.1797 33.6125 19.566 32.8966 18.3387 31.4648L17.0774 29.9933C15.8501 28.5615 15.2365 27.8456 14.4077 27.4644C13.5788 27.0833 12.6359 27.0833 10.7501 27.0833H4.16602C4.18123 35.5313 4.38984 39.9551 7.21707 42.7823Z" fill="#34A573"/>
<path d="M16.666 13.0208C15.8031 13.0208 15.1035 13.7203 15.1035 14.5833C15.1035 15.4462 15.8031 16.1458 16.666 16.1458H33.3327C34.1956 16.1458 34.8952 15.4462 34.8952 14.5833C34.8952 13.7203 34.1956 13.0208 33.3327 13.0208H16.666Z" fill="#34A573"/>
<path d="M20.8327 20.3124C19.9697 20.3124 19.2702 21.012 19.2702 21.8749C19.2702 22.7379 19.9697 23.4374 20.8327 23.4374H29.166C30.029 23.4374 30.7285 22.7379 30.7285 21.8749C30.7285 21.012 30.029 20.3124 29.166 20.3124H20.8327Z" fill="#34A573"/>
</svg>
