<svg width="50" height="50" viewBox="0 0 50 50" fill="none" xmlns="http://www.w3.org/2000/svg">
<path opacity="0.5" d="M20.9123 11.0753L22.2644 13.498C23.4846 15.6845 22.9948 18.5527 21.073 20.4745C21.073 20.4745 21.073 20.4745 21.073 20.4745C21.0728 20.4746 18.742 22.8057 22.9684 27.0322C27.1941 31.2579 29.5253 28.9284 29.5261 28.9276C29.5261 28.9276 29.5261 28.9276 29.5261 28.9276C31.4479 27.0058 34.3161 26.516 36.5025 27.7362L38.9253 29.0883C42.2268 30.9308 42.6167 35.5608 39.7148 38.4628C37.971 40.2066 35.8348 41.5634 33.4734 41.6529C29.4981 41.8036 22.7471 40.7976 15.975 34.0255C9.203 27.2535 8.19693 20.5025 8.34763 16.5272C8.43716 14.1658 9.79399 12.0296 11.5377 10.2858C14.4397 7.38384 19.0698 7.77375 20.9123 11.0753Z" fill="#34A573"/>
<path d="M27.6233 3.91688C27.7612 3.06503 28.5665 2.48717 29.4183 2.62508C29.4711 2.63517 29.6407 2.66688 29.7296 2.68668C29.9074 2.72627 30.1554 2.78722 30.4645 2.87728C31.0828 3.05737 31.9466 3.35404 32.9833 3.82933C35.0589 4.7809 37.821 6.44549 40.6872 9.31174C43.5535 12.178 45.2181 14.9401 46.1696 17.0157C46.6449 18.0524 46.9416 18.9161 47.1217 19.5344C47.2117 19.8436 47.2727 20.0916 47.3123 20.2694C47.3321 20.3582 47.3465 20.4296 47.3566 20.4823L47.3686 20.5473C47.5065 21.3992 46.9339 22.2378 46.0821 22.3757C45.2327 22.5132 44.4324 21.9381 44.2911 21.0903C44.2868 21.0675 44.2749 21.0063 44.262 20.9487C44.2363 20.8333 44.1918 20.6503 44.1214 20.4083C43.9804 19.9243 43.7355 19.2049 43.3289 18.318C42.5168 16.5466 41.0564 14.1003 38.4775 11.5215C35.8986 8.94257 33.4524 7.48217 31.6809 6.67002C30.7941 6.26344 30.0747 6.01858 29.5906 5.8776C29.3486 5.80711 29.0445 5.7373 28.9291 5.7116C28.0812 5.57031 27.4858 4.76631 27.6233 3.91688Z" fill="#34A573"/>
<path fill-rule="evenodd" clip-rule="evenodd" d="M28.0946 11.1033C28.3317 10.2735 29.1965 9.79307 30.0263 10.0301L29.597 11.5325C30.0263 10.0301 30.0263 10.0301 30.0263 10.0301L30.0293 10.031L30.0325 10.0319L30.0394 10.034L30.0556 10.0388L30.0968 10.0516C30.1282 10.0617 30.1674 10.0747 30.2142 10.0913C30.3078 10.1245 30.4314 10.1718 30.5831 10.2368C30.8866 10.3668 31.3013 10.5677 31.8107 10.8692C32.8304 11.4727 34.2225 12.4752 35.8579 14.1105C37.4932 15.7459 38.4957 17.1379 39.0992 18.1576C39.4007 18.667 39.6015 19.0818 39.7316 19.3853C39.7966 19.537 39.8438 19.6606 39.877 19.7542C39.8936 19.801 39.9067 19.8402 39.9168 19.8716L39.9296 19.9128L39.9344 19.929L39.9364 19.9359L39.9374 19.9391C39.9374 19.9391 39.9382 19.9421 38.4358 20.3714L39.9382 19.9421C40.1753 20.7718 39.6948 21.6367 38.8651 21.8737C38.0424 22.1088 37.1852 21.6385 36.9396 20.8217L36.9319 20.7992C36.9208 20.7679 36.8978 20.7063 36.8593 20.6163C36.7822 20.4364 36.6424 20.1422 36.4099 19.7493C35.9454 18.9644 35.1064 17.7785 33.6481 16.3202C32.1899 14.862 31.004 14.023 30.2191 13.5585C29.8262 13.326 29.532 13.1862 29.3521 13.1091C29.2621 13.0705 29.2005 13.0475 29.1692 13.0364L29.1467 13.0287C28.3299 12.7831 27.8596 11.926 28.0946 11.1033Z" fill="#34A573"/>
</svg>
