<svg width="50" height="50" viewBox="0 0 50 50" fill="none" xmlns="http://www.w3.org/2000/svg">
<path d="M13.425 7.6777C14.5226 6.94431 15.682 6.32046 16.8864 5.81125C19.8091 4.57555 21.2705 3.95769 23.1349 5.19366C24.9994 6.42963 24.9994 8.45308 24.9994 12.5V16.6666C24.9994 20.595 24.9994 22.5592 26.2197 23.7796C27.4401 25 29.4043 25 33.3327 25H37.4994C41.5463 25 43.5697 25 44.8057 26.8644C46.0416 28.7289 45.4238 30.1902 44.1881 33.113C43.6789 34.3174 43.055 35.4768 42.3216 36.5744C40.0324 40.0004 36.7787 42.6706 32.9719 44.2475C29.1651 45.8243 24.9762 46.2369 20.935 45.433C16.8937 44.6291 13.1816 42.645 10.268 39.7314C7.35437 36.8178 5.37019 33.1056 4.56633 29.0644C3.76247 25.0231 4.17504 20.8342 5.75187 17.0274C7.32869 13.2206 9.99895 9.9669 13.425 7.6777Z" fill="#34A573"/>
<path opacity="0.5" fill-rule="evenodd" clip-rule="evenodd" d="M28.6942 4.43354C28.9093 3.59784 29.7612 3.09473 30.5969 3.30983C38.4691 5.33599 44.6631 11.53 46.6893 19.4022C46.9043 20.2379 46.4012 21.0898 45.5655 21.3049C44.7298 21.5199 43.878 21.0168 43.6629 20.1811C41.9205 13.4116 36.5875 8.07856 29.8179 6.33619C28.9822 6.1211 28.4791 5.26925 28.6942 4.43354Z" fill="#34A573"/>
</svg>
