<svg width="50" height="50" viewBox="0 0 50 50" fill="none" xmlns="http://www.w3.org/2000/svg">
<path fill-rule="evenodd" clip-rule="evenodd" d="M37.4993 29.1667C37.4993 38.3714 30.0374 45.8333 20.8327 45.8333C18.2587 45.8333 15.821 45.2498 13.6447 44.2079C12.8967 43.8498 12.0492 43.7241 11.2481 43.9384L8.69382 44.6219C6.68063 45.1605 4.83884 43.3187 5.3775 41.3055L6.06092 38.7513C6.27528 37.9501 6.14954 37.1027 5.79143 36.3547C4.74951 34.1783 4.16602 31.7406 4.16602 29.1667C4.16602 19.9619 11.6279 12.5 20.8327 12.5C30.0374 12.5 37.4993 19.9619 37.4993 29.1667ZM13.541 31.25C14.6916 31.25 15.6243 30.3173 15.6243 29.1667C15.6243 28.0161 14.6916 27.0833 13.541 27.0833C12.3904 27.0833 11.4577 28.0161 11.4577 29.1667C11.4577 30.3173 12.3904 31.25 13.541 31.25ZM20.8327 31.25C21.9833 31.25 22.916 30.3173 22.916 29.1667C22.916 28.0161 21.9833 27.0833 20.8327 27.0833C19.6821 27.0833 18.7493 28.0161 18.7493 29.1667C18.7493 30.3173 19.6821 31.25 20.8327 31.25ZM28.1243 31.25C29.2749 31.25 30.2077 30.3173 30.2077 29.1667C30.2077 28.0161 29.2749 27.0833 28.1243 27.0833C26.9738 27.0833 26.041 28.0161 26.041 29.1667C26.041 30.3173 26.9738 31.25 28.1243 31.25Z" fill="#34A573"/>
<path opacity="0.6" d="M37.4662 30.2259C37.691 30.1328 37.9128 30.0339 38.1313 29.9293C38.739 29.6383 39.4276 29.5362 40.0785 29.7104L42.1538 30.2656C43.7896 30.7033 45.286 29.2068 44.8484 27.5711L44.2931 25.4958C44.1189 24.8449 44.2211 24.1563 44.512 23.5485C45.3586 21.7803 45.8327 19.7996 45.8327 17.7083C45.8327 10.2294 39.7699 4.16663 32.291 4.16663C26.6451 4.16663 21.8062 7.62184 19.7734 12.5331C20.1237 12.5111 20.4769 12.5 20.8327 12.5C30.0374 12.5 37.4994 19.9619 37.4994 29.1666C37.4994 29.5224 37.4882 29.8756 37.4662 30.2259Z" fill="#34A573"/>
</svg>
