<svg width="30" height="30" viewBox="0 0 30 30" fill="none" xmlns="http://www.w3.org/2000/svg">
<circle cx="15" cy="15" r="14.5" stroke="white"/>
<path d="M12.476 18.789L12.469 20H6.239V9.948H12.469V11.159H7.737V14.344H11.545V15.513H7.737V18.789H12.476ZM22.5511 9.948V20H21.7951C21.6784 20 21.5804 19.979 21.5011 19.937C21.4264 19.895 21.3494 19.8273 21.2701 19.734L15.5931 12.391C15.6024 12.517 15.6094 12.6407 15.6141 12.762C15.6234 12.8833 15.6281 12.9977 15.6281 13.105V20H14.3191V9.948H15.0891C15.2197 9.948 15.3177 9.96433 15.3831 9.997C15.4484 10.025 15.5207 10.0927 15.6001 10.2L21.2911 17.55C21.2771 17.4147 21.2654 17.284 21.2561 17.158C21.2514 17.0273 21.2491 16.906 21.2491 16.794V9.948H22.5511Z" fill="white"/>
</svg>
