<svg width="30" height="30" viewBox="0 0 30 30" fill="none" xmlns="http://www.w3.org/2000/svg">
<circle cx="15" cy="15" r="14.5" stroke="white"/>
<path d="M11.284 15.121C11.662 15.121 11.9933 15.072 12.278 14.974C12.5673 14.876 12.8077 14.7383 12.999 14.561C13.195 14.379 13.342 14.1643 13.44 13.917C13.538 13.665 13.587 13.3873 13.587 13.084C13.587 12.4727 13.3957 11.992 13.013 11.642C12.635 11.292 12.0587 11.117 11.284 11.117H9.73V15.121H11.284ZM11.284 9.948C11.928 9.948 12.488 10.0227 12.964 10.172C13.44 10.3213 13.8343 10.5337 14.147 10.809C14.4597 11.0797 14.6907 11.4087 14.84 11.796C14.994 12.1833 15.071 12.6127 15.071 13.084C15.071 13.5553 14.9893 13.9893 14.826 14.386C14.6627 14.778 14.4223 15.1163 14.105 15.401C13.7877 15.6857 13.391 15.9073 12.915 16.066C12.4437 16.22 11.9 16.297 11.284 16.297H9.73V20H8.239V9.948H11.284ZM22.4696 18.747V20H16.7156V9.948H18.2066V18.747H22.4696Z" fill="white"/>
</svg>
