<svg width="30" height="30" viewBox="0 0 30 30" fill="none" xmlns="http://www.w3.org/2000/svg">
<circle cx="15" cy="15" r="14.5" stroke="white"/>
<path d="M10.159 18.803C10.5603 18.803 10.9197 18.7353 11.237 18.6C11.5543 18.4647 11.8227 18.2757 12.042 18.033C12.2613 17.7857 12.4293 17.494 12.546 17.158C12.6627 16.8173 12.721 16.4417 12.721 16.031V9.948H14.205V16.031C14.205 16.619 14.1117 17.1627 13.925 17.662C13.7383 18.1613 13.47 18.593 13.12 18.957C12.77 19.321 12.3453 19.6057 11.846 19.811C11.3467 20.0163 10.7843 20.119 10.159 20.119C9.53367 20.119 8.97133 20.0163 8.472 19.811C7.97267 19.6057 7.548 19.321 7.198 18.957C6.848 18.593 6.57967 18.1613 6.393 17.662C6.20633 17.1627 6.113 16.619 6.113 16.031V9.948H7.604V16.024C7.604 16.4347 7.66 16.8103 7.772 17.151C7.88867 17.4917 8.05667 17.7857 8.276 18.033C8.49533 18.2757 8.76367 18.4647 9.081 18.6C9.39833 18.7353 9.75767 18.803 10.159 18.803ZM21.6698 16.255L20.1788 12.356C20.0715 12.09 19.9642 11.754 19.8568 11.348C19.8055 11.5487 19.7518 11.7353 19.6958 11.908C19.6445 12.0807 19.5932 12.2347 19.5418 12.37L18.0578 16.255H21.6698ZM24.6168 20H23.4688C23.3382 20 23.2308 19.9673 23.1468 19.902C23.0628 19.8367 23.0022 19.7527 22.9648 19.65L22.0758 17.319H17.6448L16.7558 19.65C16.7232 19.7387 16.6625 19.8203 16.5738 19.895C16.4852 19.965 16.3778 20 16.2518 20H15.1038L19.1078 9.948H20.6128L24.6168 20Z" fill="white"/>
</svg>
