<svg width="56" height="56" viewBox="0 0 56 56" fill="none" xmlns="http://www.w3.org/2000/svg">
<path d="M7.68342 21.6834C7 22.3668 7 23.4668 7 25.6667V39.6667C7 41.8666 7 42.9665 7.68342 43.6499C8.36683 44.3333 9.46678 44.3333 11.6667 44.3333C13.8666 44.3333 14.9665 44.3333 15.6499 43.6499C16.3333 42.9665 16.3333 41.8666 16.3333 39.6667V25.6667C16.3333 23.4668 16.3333 22.3668 15.6499 21.6834C14.9665 21 13.8666 21 11.6667 21C9.46678 21 8.36683 21 7.68342 21.6834Z" fill="#5E6DE2"/>
<path opacity="0.4" d="M40.3502 5.35004C39.6667 6.03346 39.6667 7.1334 39.6667 9.33329V39.6666C39.6667 41.8665 39.6667 42.9665 40.3502 43.6499C41.0336 44.3333 42.1335 44.3333 44.3334 44.3333C46.5333 44.3333 47.6332 44.3333 48.3167 43.6499C49.0001 42.9665 49.0001 41.8665 49.0001 39.6666V9.33329C49.0001 7.1334 49.0001 6.03346 48.3167 5.35004C47.6332 4.66663 46.5333 4.66663 44.3334 4.66663C42.1335 4.66663 41.0336 4.66663 40.3502 5.35004Z" fill="#5E6DE2"/>
<path opacity="0.7" d="M23.3333 16.3333C23.3333 14.1334 23.3333 13.0335 24.0167 12.35C24.7001 11.6666 25.8 11.6666 27.9999 11.6666C30.1998 11.6666 31.2997 11.6666 31.9832 12.35C32.6666 13.0335 32.6666 14.1334 32.6666 16.3333V39.6666C32.6666 41.8665 32.6666 42.9665 31.9832 43.6499C31.2997 44.3333 30.1998 44.3333 27.9999 44.3333C25.8 44.3333 24.7001 44.3333 24.0167 43.6499C23.3333 42.9665 23.3333 41.8665 23.3333 39.6666V16.3333Z" fill="#5E6DE2"/>
<path d="M7 49.5834C6.0335 49.5834 5.25 50.3669 5.25 51.3334C5.25 52.2999 6.0335 53.0834 7 53.0834H49C49.9665 53.0834 50.75 52.2999 50.75 51.3334C50.75 50.3669 49.9665 49.5834 49 49.5834H7Z" fill="#5E6DE2"/>
</svg>
