<svg width="56" height="56" viewBox="0 0 56 56" fill="none" xmlns="http://www.w3.org/2000/svg">
<path opacity="0.5" fill-rule="evenodd" clip-rule="evenodd" d="M51.3334 19.3514C51.3334 27.4616 44.7319 34.0361 36.5885 34.0361C35.1026 34.0361 31.7192 33.6946 30.0733 32.3286L28.0158 34.3777C26.8061 35.5824 27.1328 35.9371 27.6709 36.5214C27.8954 36.7652 28.1568 37.049 28.3587 37.4512C28.3587 37.4512 30.0732 39.8417 28.3587 42.2322C27.33 43.5982 24.4496 45.5107 21.1577 42.2322L20.4719 42.9152C20.4719 42.9152 22.5293 45.3058 20.8148 47.6963C19.7861 49.0623 17.0428 50.4283 14.6425 48.0378L12.2421 50.4283C10.5962 52.0675 8.58454 51.1113 7.78446 50.4283L5.72703 48.3793C3.80676 46.4669 4.92692 44.3951 5.72703 43.5982L23.5581 25.84C23.5581 25.84 21.8436 23.108 21.8436 19.3514C21.8436 11.2413 28.4451 4.66675 36.5885 4.66675C44.7319 4.66675 51.3334 11.2413 51.3334 19.3514Z" fill="#5E6DE2"/>
<path d="M41.7325 19.3516C41.7325 22.1807 39.4296 24.4741 36.5889 24.4741C33.7482 24.4741 31.4453 22.1807 31.4453 19.3516C31.4453 16.5225 33.7482 14.229 36.5889 14.229C39.4296 14.229 41.7325 16.5225 41.7325 19.3516Z" fill="#5E6DE2"/>
</svg>
