<svg width="22" height="23" viewBox="0 0 22 23" fill="none" xmlns="http://www.w3.org/2000/svg">
<path d="M1 11.5C1 17.023 5.477 21.5 11 21.5C16.523 21.5 21 17.023 21 11.5C21 5.977 16.523 1.5 11 1.5C5.477 1.5 1 5.977 1 11.5Z" stroke="white" stroke-width="1.25" stroke-linecap="round" stroke-linejoin="round"/>
<path d="M11.9999 1.55005C11.9999 1.55005 14.9999 5.50005 14.9999 11.5C14.9999 17.5 11.9999 21.4501 11.9999 21.4501M9.99988 21.4501C9.99988 21.4501 6.99988 17.5 6.99988 11.5C6.99988 5.50005 9.99988 1.55005 9.99988 1.55005M1.62988 15H20.3699M1.62988 8.00005H20.3699" stroke="white" stroke-width="1.25" stroke-linecap="round" stroke-linejoin="round"/>
</svg>
