<svg width="530" height="530" viewBox="0 0 530 530" fill="none" xmlns="http://www.w3.org/2000/svg">
<g clip-path="url(#clip0_68_2563)">
<path d="M81.6204 442.6C184.197 496.199 350.495 496.199 453.072 442.6C555.649 389.001 555.637 302.094 453.072 248.495C350.507 194.896 184.197 194.896 81.6204 248.495C-20.9567 302.094 -20.9445 389.037 81.6204 442.6Z" fill="#F5F5F5"/>
<path d="M477.322 349.594C461.91 356.942 436.923 356.942 421.486 349.594C406.049 342.247 406.061 330.32 421.486 322.972C436.911 315.625 461.885 315.625 477.322 322.972C492.76 330.32 492.748 342.235 477.322 349.594Z" fill="#E0E0E0"/>
<path d="M149 213.166C129.474 224.444 113.657 251.862 113.657 274.394C113.657 296.926 129.474 306.074 149 294.808C168.527 283.542 184.344 256.112 184.344 233.58C184.344 211.048 168.514 201.888 149 213.166ZM146.013 277.296C143.605 278.816 140.85 279.696 138.007 279.856C131.151 279.856 130.405 271.761 130.405 268.284C130.405 254.691 140.345 237.486 152.11 230.69C154.512 229.167 157.264 228.286 160.104 228.13C166.972 228.13 167.706 236.225 167.706 239.702C167.645 253.283 157.717 270.5 146.013 277.296Z" fill="#455A64"/>
<path d="M161.019 228.204C160.694 228.16 160.367 228.135 160.039 228.13C158.32 228.189 156.626 228.567 155.044 229.245C155.201 230.344 155.278 231.453 155.277 232.563C155.277 246.144 145.336 263.361 133.572 270.145C132.611 270.703 131.608 271.186 130.572 271.59C130.797 273.636 131.52 275.595 132.678 277.296C133.279 278.121 134.074 278.785 134.992 279.231C135.909 279.678 136.922 279.892 137.942 279.856C140.786 279.702 143.543 278.821 145.948 277.296C157.713 270.5 167.642 253.283 167.642 239.702C167.642 236.396 166.968 228.939 161.019 228.204Z" fill="#263238"/>
<path d="M173.937 210.668L156.406 200.541C149.979 196.782 141.115 197.296 131.322 202.905C111.734 214.183 95.9785 241.601 95.9785 264.133C95.9785 275.276 99.847 283.126 106.115 286.873L106.286 286.995H106.384L123.67 296.975H123.756C120.748 295.101 118.336 292.408 116.802 289.212C115.458 286.461 114.561 283.514 114.146 280.481C113.827 278.422 113.663 276.343 113.656 274.26C113.656 251.716 129.473 224.298 148.999 213.032C150.806 211.996 152.688 211.099 154.631 210.35C157.465 209.195 160.465 208.496 163.519 208.28C167.141 207.995 170.767 208.779 173.949 210.534L173.937 210.668Z" fill="#37474F"/>
<path d="M145.524 125.378L129.033 115.851L104.194 130.19L46.5456 334.973L63.0481 344.501L87.5446 330.345L145.524 125.378Z" fill="#37474F"/>
<path d="M87.5431 330.345L63.0466 344.501L120.781 139.669L145.522 125.378L87.5431 330.345Z" fill="#455A64"/>
<path d="M63.0481 344.5L120.782 139.668L104.194 130.19L46.5456 334.973L63.0481 344.5Z" fill="#263238"/>
<path d="M52.9716 180.164C33.4575 191.443 17.6284 218.861 17.6284 241.393C17.6284 263.924 33.482 273.084 52.9716 261.818C72.4611 250.552 88.3147 223.122 88.3147 200.59C88.3147 178.058 72.559 168.899 52.9716 180.164ZM49.96 244.295C47.5525 245.816 44.7967 246.697 41.9536 246.854C35.0857 246.854 34.3512 238.76 34.3512 235.282C34.3512 221.702 44.2796 204.484 56.0443 197.688C58.4501 196.163 61.2069 195.282 64.0507 195.129C70.9063 195.129 71.6531 203.223 71.6531 206.701C71.6531 220.281 61.7125 237.498 49.96 244.295Z" fill="#455A64"/>
<path d="M65.0323 195.202C64.7076 195.159 64.3806 195.134 64.053 195.129C62.3281 195.187 60.6296 195.569 59.0459 196.256C59.2019 197.351 59.2797 198.456 59.2785 199.562C59.2785 213.142 49.3501 230.36 37.5854 237.144C36.6308 237.698 35.6365 238.181 34.6106 238.589C34.8338 240.64 35.5614 242.605 36.7285 244.307C37.3314 245.129 38.1264 245.791 39.044 246.235C39.9616 246.679 40.9739 246.892 41.9926 246.854C44.8357 246.697 47.5915 245.816 49.999 244.295C61.7514 237.499 71.6921 220.281 71.6921 206.701C71.6554 203.395 70.9698 195.937 65.0323 195.202Z" fill="#263238"/>
<path d="M77.9459 177.666L60.4151 167.539C54.0124 163.804 45.1491 164.318 35.3554 169.988C15.7679 181.254 0 208.672 0 231.216C0 242.359 3.88076 250.209 10.1365 253.956L10.3079 254.079H10.4058L27.6673 264.132H27.7652C24.754 262.263 22.3377 259.574 20.7994 256.381C19.4569 253.625 18.5602 250.674 18.1429 247.637C17.8232 245.579 17.6595 243.5 17.6532 241.417C17.6532 218.872 33.4823 191.455 52.9963 180.189C54.8051 179.158 56.6874 178.261 58.6277 177.507C61.4666 176.351 64.4705 175.653 67.5278 175.437C71.146 175.153 74.7681 175.937 77.9459 177.69V177.666Z" fill="#37474F"/>
<path d="M328.973 408.189L340.542 430.048C349.752 428.588 358.63 425.508 366.765 420.949L338.791 414.667C335.939 416.296 332.56 407.565 328.973 408.189Z" fill="#34A573"/>
<path opacity="0.2" d="M328.973 408.189L340.542 430.048C349.752 428.588 358.63 425.508 366.765 420.949L338.791 414.667C335.939 416.296 332.56 407.565 328.973 408.189Z" fill="black"/>
<path d="M305.263 395.27C310.857 392.038 318.521 390.776 325.768 391.438L331.951 355.925L325.768 344.904L293.865 349.092L259.587 399.299L260.652 400.83L298.431 403.573C299.044 400.536 301.247 397.609 305.263 395.27Z" fill="#34A573"/>
<path opacity="0.7" d="M305.263 395.27C310.857 392.038 318.521 390.776 325.768 391.438L331.951 355.925L325.768 344.904L293.865 349.092L259.587 399.299L260.652 400.83L298.431 403.573C299.044 400.536 301.247 397.609 305.263 395.27Z" fill="black"/>
<path d="M331.952 331.789V325.52L325.77 348.027L325.782 354.297L331.952 331.789Z" fill="#34A573"/>
<path opacity="0.7" d="M331.952 331.789V325.52L325.77 348.027L325.782 354.297L331.952 331.789Z" fill="black"/>
<path d="M305.265 351.86C310.859 348.639 318.523 347.366 325.77 348.027L331.953 325.52C297.454 322.372 265.061 335.953 259.601 355.876C259.442 356.44 259.271 357.211 259.173 357.774L298.446 360.162C299.046 357.125 301.249 354.187 305.265 351.86Z" fill="#34A573"/>
<path opacity="0.6" d="M305.265 351.86C310.859 348.639 318.523 347.366 325.77 348.027L331.953 325.52C297.454 322.372 265.061 335.953 259.601 355.876C259.442 356.44 259.271 357.211 259.173 357.774L298.446 360.162C299.046 357.125 301.249 354.187 305.265 351.86Z" fill="black"/>
<path d="M298.446 385.768V360.162L259.173 357.774V383.38L298.446 385.768Z" fill="#34A573"/>
<path opacity="0.8" d="M298.446 385.768V360.162L259.173 357.774V383.38L298.446 385.768Z" fill="black"/>
<path d="M338.832 358.129C343.582 360.885 345.884 364.497 345.749 368.097L385.279 368.501C385.842 350.072 363.476 334.679 331.952 331.765L325.77 354.272C330.348 354.621 334.799 355.935 338.832 358.129Z" fill="#34A573"/>
<path opacity="0.8" d="M338.832 358.129C343.582 360.885 345.884 364.497 345.749 368.097L385.279 368.501C385.842 350.072 363.476 334.679 331.952 331.765L325.77 354.272C330.348 354.621 334.799 355.935 338.832 358.129Z" fill="white"/>
<path d="M345.746 368.098V395.369L385.276 395.773V368.502L345.746 368.098Z" fill="#34A573"/>
<path opacity="0.6" d="M345.746 368.098V395.369L385.276 395.773V368.502L345.746 368.098Z" fill="white"/>
<path d="M345.758 368.097V395.16C345.758 391.658 343.456 388.143 338.828 385.461C335.156 383.331 330.553 391.939 325.778 391.499V354.296C336.576 355.215 345.953 360.664 345.758 368.097Z" fill="#34A573"/>
<path opacity="0.6" d="M345.758 368.097V395.16C345.758 391.658 343.456 388.143 338.828 385.461C335.156 383.331 330.553 391.939 325.778 391.499V354.296C336.576 355.215 345.953 360.664 345.758 368.097Z" fill="white"/>
<path d="M345.769 380.245H298.319V412.157H345.769V380.245Z" fill="#E0E0E0"/>
<path d="M305.264 390.103C295.996 384.752 295.996 376.069 305.264 370.718C314.531 365.367 329.564 365.367 338.832 370.718C348.099 376.069 348.087 384.752 338.832 390.103C329.577 395.454 314.531 395.454 305.264 390.103Z" fill="#FAFAFA"/>
<path d="M345.746 395.369C345.624 398.785 343.298 412.047 338.83 414.643L366.803 420.925C379.045 413.872 385.019 405.728 385.313 395.748L345.746 395.369Z" fill="#37474F"/>
<path d="M385.278 374.478V395.773L366.768 420.95V399.667L385.278 374.478Z" fill="#37474F"/>
<path d="M345.746 374.073C345.624 377.489 343.298 380.881 338.83 383.49L366.803 399.642C379.045 392.588 385.019 384.445 385.313 374.465L345.746 374.073Z" fill="#455A64"/>
<path d="M366.769 399.667V420.95L338.796 404.798L338.833 383.49L366.769 399.667Z" fill="#263238"/>
<path d="M366.767 406.389L340.545 415.488V430.048L366.767 420.949V406.389Z" fill="#34A573"/>
<path opacity="0.2" d="M366.767 406.389L340.545 415.488V430.048L366.767 420.949V406.389Z" fill="black"/>
<path d="M328.973 393.629L340.542 415.488C349.752 414.028 358.63 410.948 366.765 406.389L338.791 390.262C335.735 391.938 332.415 393.077 328.973 393.629Z" fill="#34A573"/>
<path d="M328.962 393.629V400.266L340.543 430.047V415.487L328.962 393.629Z" fill="#34A573"/>
<path opacity="0.4" d="M328.962 393.629V400.266L340.543 430.047V415.487L328.962 393.629Z" fill="black"/>
<path d="M310.856 412.304C305.617 409.267 297.745 407.565 298.443 403.61L258.815 384.592C258.815 384.592 258.815 394.021 258.815 395.332C258.901 413.7 283.018 429.534 315.447 431.493C323.838 432.071 332.268 431.602 340.544 430.097V419.431C332.427 420.803 317.271 415.978 310.856 412.304Z" fill="#34A573"/>
<path opacity="0.5" d="M310.856 412.304C305.617 409.267 297.745 407.565 298.443 403.61L258.815 384.592C258.815 384.592 258.815 394.021 258.815 395.332C258.901 413.7 283.018 429.534 315.447 431.493C323.838 432.071 332.268 431.602 340.544 430.097V419.431C332.427 420.803 317.271 415.978 310.856 412.304Z" fill="black"/>
<path d="M305.262 394.106C300.022 391.082 297.745 386.979 298.443 383.024L259.17 380.636C255.498 400.695 280.716 418.671 315.484 420.777C323.875 421.349 332.305 420.88 340.581 419.381L329.012 397.523C320.858 398.943 311.677 397.817 305.262 394.106Z" fill="#34A573"/>
<path opacity="0.3" d="M305.262 394.106C300.022 391.082 297.745 386.979 298.443 383.024L259.17 380.636C255.498 400.695 280.716 418.671 315.484 420.777C323.875 421.349 332.305 420.88 340.581 419.381L329.012 397.523C320.858 398.943 311.677 397.817 305.262 394.106Z" fill="black"/>
<path d="M161.927 338.83C162.949 331.24 162.5 323.523 160.605 316.103C158.573 308.008 154.484 302.375 149.648 299.412C144.812 296.448 136.01 299.559 143.037 309.025C150.064 318.491 157.201 330.54 157.96 339.639L161.927 338.83Z" fill="#37474F"/>
<path d="M160.568 339.712C160.488 339.711 160.409 339.693 160.335 339.661C160.261 339.629 160.195 339.582 160.139 339.524C160.083 339.466 160.04 339.398 160.01 339.323C159.981 339.248 159.967 339.168 159.968 339.088C160.311 322.348 152.464 305.51 145.278 301.641C145.133 301.564 145.025 301.434 144.977 301.278C144.929 301.121 144.944 300.953 145.021 300.808C145.097 300.663 145.228 300.555 145.384 300.507C145.54 300.459 145.709 300.474 145.853 300.551C153.407 304.592 161.597 321.944 161.242 339.112C161.242 339.198 161.225 339.282 161.19 339.36C161.155 339.438 161.105 339.508 161.041 339.565C160.977 339.622 160.902 339.664 160.82 339.69C160.739 339.715 160.653 339.723 160.568 339.712Z" fill="white"/>
<path d="M162.527 368.441C154.814 372.922 146.049 368.808 144.531 360.199C144.004 357.199 143.478 354.076 140.699 352.374C138.373 350.929 135.239 350.746 133.243 348.811C130.403 346.043 132.019 342.48 133.807 339.676C135.471 337.129 136.818 334.153 135.251 331.238C134.29 329.709 133.529 328.063 132.986 326.34C132.722 325.48 132.686 324.567 132.882 323.689C133.077 322.811 133.497 321.999 134.1 321.332C135.569 319.936 137.883 319.997 139.854 320.475C143.05 321.329 145.991 322.947 148.424 325.189C150.15 326.671 151.129 328.177 153.614 328.63C155.451 328.961 157.36 328.63 159.172 329.059C160.314 329.368 161.377 329.918 162.289 330.672C163.201 331.426 163.942 332.367 164.461 333.43C166.261 336.945 165.685 341.035 165.404 344.819C165.122 348.603 164.767 352.019 164.326 355.607C163.959 358.644 163.543 361.73 163.102 364.706C163.029 365.171 162.943 368.22 162.527 368.441Z" fill="#455A64"/>
<path d="M163.26 364.203C163.114 364.202 162.973 364.148 162.863 364.051C162.753 363.954 162.681 363.822 162.66 363.677C159.979 344.451 143.795 326.56 137.772 323.486C137.701 323.449 137.637 323.399 137.585 323.337C137.533 323.276 137.494 323.204 137.469 323.128C137.445 323.051 137.436 322.97 137.443 322.89C137.449 322.81 137.472 322.731 137.509 322.66C137.546 322.588 137.597 322.525 137.658 322.473C137.72 322.421 137.791 322.382 137.868 322.357C137.944 322.333 138.025 322.324 138.105 322.33C138.186 322.337 138.264 322.36 138.335 322.397C144.713 325.654 161.093 343.569 163.872 363.517C163.893 363.678 163.85 363.841 163.751 363.969C163.652 364.098 163.507 364.182 163.346 364.203H163.26Z" fill="white"/>
<path d="M139.34 343.385C139.177 343.417 139.009 343.384 138.871 343.292C138.733 343.2 138.638 343.057 138.605 342.895C138.573 342.733 138.606 342.564 138.698 342.426C138.79 342.289 138.933 342.193 139.095 342.161C143.95 340.279 149.178 339.558 154.361 340.055C154.441 340.061 154.519 340.083 154.59 340.12C154.661 340.157 154.725 340.207 154.776 340.269C154.827 340.331 154.866 340.402 154.889 340.479C154.913 340.556 154.92 340.636 154.912 340.716C154.904 340.797 154.881 340.875 154.843 340.946C154.804 341.017 154.753 341.081 154.69 341.132C154.627 341.183 154.555 341.221 154.478 341.245C154.4 341.268 154.319 341.275 154.238 341.267C149.245 340.836 144.219 341.557 139.548 343.373C139.479 343.385 139.409 343.389 139.34 343.385Z" fill="white"/>
<path d="M164.242 372.971C163.154 372.238 162.254 371.258 161.616 370.111C160.977 368.964 160.619 367.683 160.569 366.371V181.315C160.639 179.963 161.028 178.647 161.705 177.474C162.382 176.301 163.327 175.305 164.462 174.568L383.095 48.3158C384.253 47.7029 385.537 47.3694 386.847 47.3417C388.156 47.3141 389.454 47.5931 390.636 48.1566C391.725 48.8807 392.626 49.8536 393.265 50.9949C393.903 52.1362 394.261 53.4132 394.309 54.7203V239.837C394.239 241.189 393.85 242.506 393.173 243.679C392.496 244.851 391.551 245.847 390.416 246.584L171.783 372.837C170.624 373.448 169.338 373.779 168.028 373.803C166.719 373.826 165.421 373.541 164.242 372.971Z" fill="#34A573"/>
<path d="M182.505 189.434L161.694 177.433C160.99 178.596 160.598 179.92 160.555 181.278V366.371C160.518 367.695 160.839 369.004 161.485 370.16C162.131 371.317 163.077 372.277 164.223 372.939C165.37 373.602 166.674 373.942 167.998 373.924C169.322 373.906 170.617 373.53 171.745 372.836L182.469 366.64L182.505 189.434Z" fill="#34A573"/>
<path opacity="0.2" d="M182.505 189.434L161.694 177.433C160.99 178.596 160.598 179.92 160.555 181.278V366.371C160.518 367.695 160.839 369.004 161.485 370.16C162.131 371.317 163.077 372.277 164.223 372.939C165.37 373.602 166.674 373.942 167.998 373.924C169.322 373.906 170.617 373.53 171.745 372.836L182.469 366.64L182.505 189.434Z" fill="black"/>
<path d="M171.783 178.793L390.391 52.4792C392.546 51.2546 394.284 52.2465 394.284 54.7201V239.837C394.214 241.189 393.825 242.506 393.148 243.678C392.471 244.851 391.527 245.847 390.391 246.584L171.783 372.836C169.64 374.061 167.902 373.069 167.902 370.583V185.54C167.971 184.189 168.358 182.873 169.032 181.7C169.707 180.527 170.649 179.531 171.783 178.793Z" fill="#34A573"/>
<g opacity="0.5">
<path d="M171.786 178.793L390.395 52.4792C392.549 51.2546 394.288 52.2465 394.288 54.7201V239.837C394.218 241.189 393.828 242.506 393.152 243.678C392.475 244.851 391.53 245.847 390.395 246.584L171.786 372.836C169.644 374.061 167.905 373.069 167.905 370.583V185.54C167.974 184.189 168.361 182.873 169.036 181.7C169.71 180.527 170.653 179.531 171.786 178.793Z" fill="white"/>
</g>
<path opacity="0.4" d="M189.802 328.679C190.025 315.331 190.961 302.005 192.606 288.758C194.308 274.369 197.797 250.086 211.679 242.078C225.562 234.069 230.765 248.543 232.76 255.683C235.368 264.928 248.932 259.075 250.83 243.817C252.727 228.559 253.939 180.005 270.197 170.612C286.454 161.22 291.718 183.825 293.567 190.132C297.24 202.524 307.89 199.108 311.379 190.891C314.868 182.674 324.356 180.678 327.943 192.226C331.53 203.773 333.758 217.035 345.388 210.227C355.586 204.251 350.897 193.365 360.85 188.185C363.751 186.691 369.53 187.524 370.827 196.046C372.013 205.058 372.533 214.144 372.382 223.232L189.802 328.679Z" fill="white"/>
<path d="M189.804 329.585C189.566 329.582 189.338 329.485 189.171 329.315C189.004 329.146 188.91 328.917 188.91 328.679C189.134 315.287 190.07 301.916 191.714 288.624C193.085 277.027 196.304 249.879 211.228 241.258C215.647 238.711 219.638 238.135 223.102 239.543C227.718 241.417 231.158 246.609 233.631 255.462C234.365 258.059 236.079 259.406 238.442 259.222C243.192 258.855 248.786 252.964 249.937 243.731C250.243 241.282 250.537 237.927 250.868 234.045C252.679 213.068 255.765 177.96 269.757 169.853C274.054 167.404 277.996 166.841 281.498 168.262C289.198 171.384 292.515 183.079 294.095 188.699C294.217 189.153 294.327 189.557 294.437 189.924C295.796 194.565 298.306 197.271 301.501 197.406C305.015 197.639 308.785 194.749 310.548 190.585C312.507 185.969 316.326 183.115 320.146 183.311C323.966 183.507 327.149 186.667 328.801 192.018C329.193 193.243 329.572 194.553 329.94 195.826C331.984 202.77 333.894 209.297 337.836 210.889C339.734 211.635 342.06 211.182 344.936 209.505C349.735 206.688 351.057 202.806 352.355 198.692C353.653 194.577 355.134 190.206 360.435 187.45C361.407 186.973 362.477 186.731 363.559 186.744C364.642 186.757 365.706 187.024 366.666 187.524C368.527 188.467 370.914 190.708 371.71 195.973C372.902 205.037 373.426 214.177 373.277 223.318C373.279 223.437 373.256 223.555 373.21 223.664C373.164 223.774 373.096 223.873 373.009 223.955C372.923 224.037 372.821 224.099 372.709 224.139C372.597 224.179 372.478 224.196 372.359 224.187C372.121 224.181 371.895 224.081 371.73 223.909C371.565 223.737 371.474 223.507 371.477 223.269C371.634 214.234 371.118 205.201 369.935 196.243C369.249 191.724 367.34 189.875 365.858 189.128C365.152 188.758 364.369 188.559 363.572 188.546C362.774 188.533 361.985 188.707 361.267 189.055C356.615 191.504 355.379 195.251 354.069 199.255C352.673 203.504 351.229 207.901 345.842 211.06C342.451 213.031 339.623 213.509 337.175 212.554C332.425 210.668 330.38 203.7 328.214 196.328C327.846 195.104 327.479 193.794 327.087 192.545C325.667 187.965 323.096 185.258 320.06 185.099C317.024 184.94 313.841 187.438 312.201 191.296C310.12 196.194 305.688 199.451 301.391 199.206C299.065 199.071 294.854 197.749 292.711 190.438C292.601 190.083 292.491 189.667 292.356 189.214C290.851 183.875 287.704 172.743 280.812 169.951C277.862 168.727 274.446 169.253 270.651 171.433C257.429 179.074 254.332 214.954 252.667 234.229C252.324 238.123 252.031 241.49 251.725 244.025C250.5 254.177 244.049 260.667 238.577 261.083C235.357 261.328 232.859 259.43 231.905 256.014C229.591 247.797 226.493 242.996 222.417 241.319C219.503 240.094 216.039 240.67 212.121 242.923C197.981 251.091 194.835 277.615 193.501 288.942C191.866 302.153 190.934 315.442 190.71 328.752C190.691 328.98 190.588 329.192 190.42 329.346C190.252 329.501 190.032 329.586 189.804 329.585Z" fill="#F5F5F5"/>
<path d="M215.684 241.906C215.531 241.906 215.385 241.845 215.277 241.737C215.169 241.629 215.108 241.483 215.108 241.331V240.204C215.096 240.122 215.102 240.039 215.125 239.96C215.148 239.88 215.188 239.807 215.242 239.744C215.296 239.682 215.363 239.632 215.438 239.597C215.513 239.563 215.595 239.545 215.678 239.545C215.76 239.545 215.842 239.563 215.917 239.597C215.992 239.632 216.059 239.682 216.113 239.744C216.167 239.807 216.207 239.88 216.23 239.96C216.253 240.039 216.259 240.122 216.247 240.204V241.331C216.247 241.481 216.188 241.626 216.083 241.733C215.977 241.841 215.834 241.903 215.684 241.906Z" fill="#F5F5F5"/>
<path d="M215.684 309.858C215.608 309.858 215.533 309.843 215.464 309.814C215.394 309.785 215.33 309.743 215.277 309.689C215.223 309.636 215.181 309.572 215.152 309.502C215.123 309.433 215.108 309.358 215.108 309.282V306.992C215.128 306.856 215.197 306.731 215.302 306.64C215.406 306.55 215.54 306.5 215.678 306.5C215.816 306.5 215.949 306.55 216.054 306.64C216.158 306.731 216.227 306.856 216.247 306.992V309.258C216.25 309.334 216.238 309.411 216.211 309.483C216.185 309.555 216.144 309.62 216.092 309.676C216.039 309.732 215.976 309.777 215.906 309.808C215.836 309.839 215.76 309.856 215.684 309.858ZM215.684 305.327C215.531 305.327 215.385 305.266 215.277 305.158C215.169 305.05 215.108 304.904 215.108 304.751V302.486C215.128 302.349 215.197 302.224 215.302 302.134C215.406 302.044 215.54 301.994 215.678 301.994C215.816 301.994 215.949 302.044 216.054 302.134C216.158 302.224 216.227 302.349 216.247 302.486V304.751C216.247 304.902 216.188 305.046 216.083 305.154C215.977 305.262 215.834 305.324 215.684 305.327ZM215.684 300.796C215.608 300.796 215.533 300.781 215.464 300.752C215.394 300.723 215.33 300.681 215.277 300.627C215.223 300.574 215.181 300.511 215.152 300.441C215.123 300.371 215.108 300.296 215.108 300.22V297.967C215.096 297.886 215.102 297.802 215.125 297.723C215.148 297.643 215.188 297.57 215.242 297.507C215.296 297.445 215.363 297.395 215.438 297.36C215.513 297.326 215.595 297.308 215.678 297.308C215.76 297.308 215.842 297.326 215.917 297.36C215.992 297.395 216.059 297.445 216.113 297.507C216.167 297.57 216.207 297.643 216.23 297.723C216.253 297.802 216.259 297.886 216.247 297.967V300.22C216.247 300.371 216.188 300.516 216.083 300.623C215.977 300.731 215.834 300.793 215.684 300.796ZM215.684 296.265C215.533 296.265 215.389 296.206 215.281 296.101C215.174 295.996 215.112 295.852 215.108 295.702V293.436C215.096 293.355 215.102 293.271 215.125 293.192C215.148 293.112 215.188 293.039 215.242 292.976C215.296 292.914 215.363 292.864 215.438 292.829C215.513 292.795 215.595 292.777 215.678 292.777C215.76 292.777 215.842 292.795 215.917 292.829C215.992 292.864 216.059 292.914 216.113 292.976C216.167 293.039 216.207 293.112 216.23 293.192C216.253 293.271 216.259 293.355 216.247 293.436V295.702C216.244 295.85 216.183 295.992 216.078 296.097C215.974 296.202 215.832 296.262 215.684 296.265ZM215.684 291.734C215.533 291.734 215.389 291.675 215.281 291.57C215.174 291.465 215.112 291.321 215.108 291.171V288.906C215.096 288.824 215.102 288.74 215.125 288.661C215.148 288.582 215.188 288.508 215.242 288.446C215.296 288.383 215.363 288.333 215.438 288.298C215.513 288.264 215.595 288.246 215.678 288.246C215.76 288.246 215.842 288.264 215.917 288.298C215.992 288.333 216.059 288.383 216.113 288.446C216.167 288.508 216.207 288.582 216.23 288.661C216.253 288.74 216.259 288.824 216.247 288.906V291.171C216.244 291.319 216.183 291.461 216.078 291.566C215.974 291.671 215.832 291.731 215.684 291.734ZM215.684 287.203C215.533 287.203 215.389 287.144 215.281 287.039C215.174 286.934 215.112 286.791 215.108 286.64V284.375C215.096 284.293 215.102 284.209 215.125 284.13C215.148 284.051 215.188 283.977 215.242 283.915C215.296 283.852 215.363 283.802 215.438 283.768C215.513 283.733 215.595 283.715 215.678 283.715C215.76 283.715 215.842 283.733 215.917 283.768C215.992 283.802 216.059 283.852 216.113 283.915C216.167 283.977 216.207 284.051 216.23 284.13C216.253 284.209 216.259 284.293 216.247 284.375V286.64C216.244 286.789 216.183 286.93 216.078 287.035C215.974 287.14 215.832 287.2 215.684 287.203ZM215.684 282.673C215.533 282.673 215.389 282.614 215.281 282.508C215.174 282.403 215.112 282.26 215.108 282.109V279.844C215.096 279.762 215.102 279.679 215.125 279.599C215.148 279.52 215.188 279.446 215.242 279.384C215.296 279.321 215.363 279.271 215.438 279.237C215.513 279.202 215.595 279.185 215.678 279.185C215.76 279.185 215.842 279.202 215.917 279.237C215.992 279.271 216.059 279.321 216.113 279.384C216.167 279.446 216.207 279.52 216.23 279.599C216.253 279.679 216.259 279.762 216.247 279.844V282.109C216.244 282.258 216.183 282.399 216.078 282.504C215.974 282.609 215.832 282.669 215.684 282.673ZM215.684 278.142C215.609 278.143 215.534 278.13 215.464 278.102C215.395 278.075 215.331 278.034 215.278 277.981C215.224 277.929 215.181 277.866 215.152 277.797C215.123 277.728 215.108 277.653 215.108 277.578V275.313C215.096 275.231 215.102 275.148 215.125 275.068C215.148 274.989 215.188 274.916 215.242 274.853C215.296 274.79 215.363 274.74 215.438 274.706C215.513 274.671 215.595 274.654 215.678 274.654C215.76 274.654 215.842 274.671 215.917 274.706C215.992 274.74 216.059 274.79 216.113 274.853C216.167 274.916 216.207 274.989 216.23 275.068C216.253 275.148 216.259 275.231 216.247 275.313V277.603C216.241 277.748 216.178 277.885 216.074 277.985C215.969 278.086 215.829 278.142 215.684 278.142ZM215.684 273.611C215.609 273.612 215.534 273.599 215.464 273.571C215.395 273.544 215.331 273.503 215.278 273.45C215.224 273.398 215.181 273.335 215.152 273.266C215.123 273.197 215.108 273.122 215.108 273.047V270.782C215.096 270.7 215.102 270.617 215.125 270.537C215.148 270.458 215.188 270.385 215.242 270.322C215.296 270.26 215.363 270.209 215.438 270.175C215.513 270.141 215.595 270.123 215.678 270.123C215.76 270.123 215.842 270.141 215.917 270.175C215.992 270.209 216.059 270.26 216.113 270.322C216.167 270.385 216.207 270.458 216.23 270.537C216.253 270.617 216.259 270.7 216.247 270.782V273.047C216.247 273.121 216.232 273.195 216.204 273.263C216.176 273.331 216.134 273.393 216.082 273.446C216.03 273.498 215.968 273.54 215.899 273.568C215.831 273.596 215.758 273.611 215.684 273.611ZM215.684 269.08C215.609 269.082 215.534 269.068 215.464 269.041C215.395 269.013 215.331 268.972 215.278 268.919C215.224 268.867 215.181 268.804 215.152 268.735C215.123 268.666 215.108 268.592 215.108 268.517V266.251C215.128 266.114 215.197 265.99 215.302 265.899C215.406 265.809 215.54 265.759 215.678 265.759C215.816 265.759 215.949 265.809 216.054 265.899C216.158 265.99 216.227 266.114 216.247 266.251V268.517C216.235 268.657 216.17 268.788 216.066 268.884C215.961 268.979 215.825 269.031 215.684 269.031V269.08ZM215.684 264.561C215.531 264.561 215.385 264.501 215.277 264.393C215.169 264.285 215.108 264.138 215.108 263.986V261.684C215.128 261.547 215.197 261.422 215.302 261.332C215.406 261.241 215.54 261.192 215.678 261.192C215.816 261.192 215.949 261.241 216.054 261.332C216.158 261.422 216.227 261.547 216.247 261.684V263.949C216.252 264.027 216.241 264.104 216.215 264.178C216.189 264.251 216.149 264.318 216.096 264.376C216.043 264.433 215.98 264.479 215.909 264.511C215.838 264.543 215.761 264.56 215.684 264.561ZM215.684 260.03C215.531 260.03 215.385 259.97 215.277 259.862C215.169 259.754 215.108 259.607 215.108 259.455V257.189C215.128 257.053 215.197 256.928 215.302 256.838C215.406 256.747 215.54 256.698 215.678 256.698C215.816 256.698 215.949 256.747 216.054 256.838C216.158 256.928 216.227 257.053 216.247 257.189V259.455C216.247 259.605 216.188 259.75 216.083 259.858C215.977 259.965 215.834 260.027 215.684 260.03ZM215.684 255.5C215.531 255.5 215.385 255.439 215.277 255.331C215.169 255.223 215.108 255.077 215.108 254.924V252.659C215.128 252.522 215.197 252.397 215.302 252.307C215.406 252.216 215.54 252.167 215.678 252.167C215.816 252.167 215.949 252.216 216.054 252.307C216.158 252.397 216.227 252.522 216.247 252.659V254.924C216.255 255.004 216.247 255.084 216.223 255.16C216.199 255.236 216.159 255.307 216.106 255.367C216.053 255.427 215.988 255.475 215.915 255.508C215.843 255.542 215.764 255.56 215.684 255.561V255.5ZM215.684 250.969C215.531 250.969 215.385 250.908 215.277 250.8C215.169 250.692 215.108 250.546 215.108 250.393V248.128C215.128 247.991 215.197 247.866 215.302 247.776C215.406 247.686 215.54 247.636 215.678 247.636C215.816 247.636 215.949 247.686 216.054 247.776C216.158 247.866 216.227 247.991 216.247 248.128V250.393C216.247 250.544 216.188 250.688 216.083 250.796C215.977 250.903 215.834 250.965 215.684 250.969ZM215.684 246.438C215.531 246.438 215.385 246.377 215.277 246.269C215.169 246.161 215.108 246.015 215.108 245.862V243.597C215.128 243.46 215.197 243.335 215.302 243.245C215.406 243.155 215.54 243.105 215.678 243.105C215.816 243.105 215.949 243.155 216.054 243.245C216.158 243.335 216.227 243.46 216.247 243.597V245.862C216.247 246.013 216.188 246.157 216.083 246.265C215.977 246.373 215.834 246.435 215.684 246.438Z" fill="#F5F5F5"/>
<path d="M215.68 313.261C215.605 313.261 215.53 313.246 215.46 313.217C215.39 313.188 215.327 313.146 215.274 313.092C215.22 313.039 215.178 312.975 215.149 312.906C215.12 312.836 215.105 312.761 215.105 312.685V311.547C215.125 311.41 215.194 311.285 215.298 311.195C215.403 311.105 215.536 311.055 215.674 311.055C215.812 311.055 215.946 311.105 216.05 311.195C216.155 311.285 216.223 311.41 216.244 311.547V312.685C216.244 312.836 216.185 312.98 216.079 313.088C215.974 313.196 215.831 313.258 215.68 313.261Z" fill="#F5F5F5"/>
<path d="M274.418 170.783C274.27 170.78 274.128 170.72 274.023 170.615C273.918 170.51 273.858 170.369 273.855 170.22V169.082C273.843 169 273.849 168.917 273.872 168.837C273.895 168.758 273.935 168.684 273.989 168.622C274.043 168.559 274.11 168.509 274.185 168.475C274.26 168.44 274.341 168.423 274.424 168.423C274.507 168.423 274.588 168.44 274.664 168.475C274.739 168.509 274.806 168.559 274.86 168.622C274.914 168.684 274.954 168.758 274.977 168.837C275 168.917 275.005 169 274.993 169.082V170.22C274.99 170.371 274.928 170.514 274.821 170.619C274.713 170.724 274.569 170.783 274.418 170.783Z" fill="#F5F5F5"/>
<path d="M274.418 277.002C274.268 276.999 274.124 276.937 274.019 276.829C273.914 276.722 273.855 276.577 273.855 276.427V274.125C273.843 274.043 273.849 273.959 273.872 273.88C273.895 273.801 273.935 273.727 273.989 273.665C274.043 273.602 274.11 273.552 274.185 273.518C274.26 273.483 274.341 273.465 274.424 273.465C274.507 273.465 274.588 273.483 274.664 273.518C274.739 273.552 274.806 273.602 274.86 273.665C274.914 273.727 274.954 273.801 274.977 273.88C275 273.959 275.005 274.043 274.993 274.125V276.378C275 276.457 274.99 276.538 274.965 276.613C274.939 276.689 274.897 276.758 274.843 276.817C274.789 276.876 274.723 276.922 274.65 276.954C274.577 276.986 274.498 277.003 274.418 277.002ZM274.418 272.386C274.268 272.383 274.124 272.32 274.019 272.213C273.914 272.105 273.855 271.961 273.855 271.81V269.496C273.875 269.359 273.944 269.234 274.048 269.144C274.153 269.054 274.286 269.004 274.424 269.004C274.562 269.004 274.696 269.054 274.8 269.144C274.905 269.234 274.973 269.359 274.993 269.496V271.81C274.993 271.886 274.979 271.961 274.95 272.03C274.921 272.1 274.878 272.164 274.825 272.217C274.771 272.271 274.708 272.313 274.638 272.342C274.568 272.371 274.494 272.386 274.418 272.386ZM274.418 267.757C274.269 267.757 274.125 267.698 274.02 267.592C273.914 267.486 273.855 267.343 273.855 267.194V264.879C273.875 264.743 273.944 264.618 274.048 264.527C274.153 264.437 274.286 264.387 274.424 264.387C274.562 264.387 274.696 264.437 274.8 264.527C274.905 264.618 274.973 264.743 274.993 264.879V267.194C275 267.273 274.99 267.352 274.965 267.427C274.939 267.502 274.897 267.571 274.843 267.629C274.788 267.686 274.722 267.732 274.649 267.763C274.576 267.793 274.497 267.808 274.418 267.806V267.757ZM274.418 263.14C274.27 263.137 274.128 263.077 274.023 262.972C273.918 262.867 273.858 262.725 273.855 262.577V260.263C273.875 260.126 273.944 260.001 274.048 259.911C274.153 259.82 274.286 259.771 274.424 259.771C274.562 259.771 274.696 259.82 274.8 259.911C274.905 260.001 274.973 260.126 274.993 260.263V262.577C274.99 262.727 274.928 262.871 274.821 262.976C274.713 263.081 274.569 263.14 274.418 263.14ZM274.418 258.524C274.27 258.521 274.128 258.46 274.023 258.355C273.918 258.25 273.858 258.109 273.855 257.96V255.646C273.875 255.509 273.944 255.384 274.048 255.294C274.153 255.204 274.286 255.154 274.424 255.154C274.562 255.154 274.696 255.204 274.8 255.294C274.905 255.384 274.973 255.509 274.993 255.646V258.009C274.978 258.151 274.911 258.282 274.805 258.377C274.698 258.472 274.561 258.524 274.418 258.524ZM274.418 253.907C274.27 253.904 274.128 253.844 274.023 253.739C273.918 253.634 273.858 253.492 273.855 253.344V251.029C273.875 250.893 273.944 250.768 274.048 250.678C274.153 250.587 274.286 250.538 274.424 250.538C274.562 250.538 274.696 250.587 274.8 250.678C274.905 250.768 274.973 250.893 274.993 251.029V253.344C274.99 253.494 274.928 253.638 274.821 253.743C274.713 253.848 274.569 253.907 274.418 253.907ZM274.418 249.291C274.268 249.287 274.124 249.225 274.019 249.118C273.914 249.01 273.855 248.866 273.855 248.715V246.413C273.843 246.331 273.849 246.248 273.872 246.168C273.895 246.089 273.935 246.015 273.989 245.953C274.043 245.89 274.11 245.84 274.185 245.806C274.26 245.771 274.341 245.754 274.424 245.754C274.507 245.754 274.588 245.771 274.664 245.806C274.739 245.84 274.806 245.89 274.86 245.953C274.914 246.015 274.954 246.089 274.977 246.168C275 246.248 275.005 246.331 274.993 246.413V248.715C274.993 248.791 274.979 248.865 274.95 248.935C274.921 249.005 274.878 249.068 274.825 249.122C274.771 249.175 274.708 249.218 274.638 249.247C274.568 249.276 274.494 249.291 274.418 249.291ZM274.418 244.674C274.268 244.671 274.124 244.609 274.019 244.501C273.914 244.393 273.855 244.249 273.855 244.098V241.796C273.843 241.714 273.849 241.631 273.872 241.552C273.895 241.472 273.935 241.399 273.989 241.336C274.043 241.274 274.11 241.224 274.185 241.189C274.26 241.155 274.341 241.137 274.424 241.137C274.507 241.137 274.588 241.155 274.664 241.189C274.739 241.224 274.806 241.274 274.86 241.336C274.914 241.399 274.954 241.472 274.977 241.552C275 241.631 275.005 241.714 274.993 241.796V244.098C274.993 244.174 274.979 244.249 274.95 244.319C274.921 244.388 274.878 244.452 274.825 244.505C274.771 244.559 274.708 244.601 274.638 244.63C274.568 244.659 274.494 244.674 274.418 244.674ZM274.418 240.057C274.268 240.054 274.124 239.992 274.019 239.884C273.914 239.777 273.855 239.632 273.855 239.482V237.192C273.843 237.11 273.849 237.027 273.872 236.947C273.895 236.868 273.935 236.794 273.989 236.732C274.043 236.669 274.11 236.619 274.185 236.585C274.26 236.55 274.341 236.533 274.424 236.533C274.507 236.533 274.588 236.55 274.664 236.585C274.739 236.619 274.806 236.669 274.86 236.732C274.914 236.794 274.954 236.868 274.977 236.947C275 237.027 275.005 237.11 274.993 237.192V239.494C274.99 239.645 274.928 239.788 274.821 239.893C274.713 239.998 274.569 240.057 274.418 240.057ZM274.418 235.441C274.268 235.438 274.124 235.375 274.019 235.268C273.914 235.16 273.855 235.016 273.855 234.865V232.563C273.843 232.481 273.849 232.398 273.872 232.318C273.895 232.239 273.935 232.166 273.989 232.103C274.043 232.041 274.11 231.99 274.185 231.956C274.26 231.922 274.341 231.904 274.424 231.904C274.507 231.904 274.588 231.922 274.664 231.956C274.739 231.99 274.806 232.041 274.86 232.103C274.914 232.166 274.954 232.239 274.977 232.318C275 232.398 275.005 232.481 274.993 232.563V234.865C274.993 234.941 274.979 235.016 274.95 235.085C274.921 235.155 274.878 235.219 274.825 235.272C274.771 235.326 274.708 235.368 274.638 235.397C274.568 235.426 274.494 235.441 274.418 235.441ZM274.418 230.824C274.268 230.821 274.124 230.759 274.019 230.651C273.914 230.544 273.855 230.399 273.855 230.249V227.946C273.843 227.865 273.849 227.781 273.872 227.702C273.895 227.622 273.935 227.549 273.989 227.486C274.043 227.424 274.11 227.374 274.185 227.339C274.26 227.305 274.341 227.287 274.424 227.287C274.507 227.287 274.588 227.305 274.664 227.339C274.739 227.374 274.806 227.424 274.86 227.486C274.914 227.549 274.954 227.622 274.977 227.702C275 227.781 275.005 227.865 274.993 227.946V230.249C274.993 230.324 274.979 230.399 274.95 230.469C274.921 230.539 274.878 230.602 274.825 230.656C274.771 230.709 274.708 230.751 274.638 230.78C274.568 230.809 274.494 230.824 274.418 230.824ZM274.418 226.195C274.269 226.195 274.125 226.136 274.02 226.03C273.914 225.925 273.855 225.781 273.855 225.632V223.318C273.875 223.181 273.944 223.056 274.048 222.966C274.153 222.875 274.286 222.826 274.424 222.826C274.562 222.826 274.696 222.875 274.8 222.966C274.905 223.056 274.973 223.181 274.993 223.318V225.632C274.987 225.779 274.923 225.918 274.816 226.019C274.708 226.12 274.565 226.174 274.418 226.171V226.195ZM274.418 221.579C274.269 221.579 274.125 221.519 274.02 221.414C273.914 221.308 273.855 221.165 273.855 221.015V218.701C273.875 218.564 273.944 218.439 274.048 218.349C274.153 218.259 274.286 218.209 274.424 218.209C274.562 218.209 274.696 218.259 274.8 218.349C274.905 218.439 274.973 218.564 274.993 218.701V221.015C274.993 221.09 274.978 221.165 274.949 221.234C274.92 221.303 274.878 221.366 274.824 221.418C274.771 221.471 274.707 221.512 274.637 221.539C274.568 221.567 274.493 221.58 274.418 221.579ZM274.418 216.962C274.27 216.959 274.128 216.899 274.023 216.794C273.918 216.689 273.858 216.547 273.855 216.399V214.084C273.875 213.948 273.944 213.823 274.048 213.733C274.153 213.642 274.286 213.593 274.424 213.593C274.562 213.593 274.696 213.642 274.8 213.733C274.905 213.823 274.973 213.948 274.993 214.084V216.374C274.995 216.451 274.981 216.527 274.953 216.598C274.925 216.67 274.883 216.734 274.829 216.789C274.776 216.844 274.712 216.887 274.641 216.917C274.57 216.947 274.495 216.962 274.418 216.962ZM274.418 212.346C274.27 212.342 274.128 212.282 274.023 212.177C273.918 212.072 273.858 211.931 273.855 211.782V209.468C273.875 209.331 273.944 209.206 274.048 209.116C274.153 209.026 274.286 208.976 274.424 208.976C274.562 208.976 274.696 209.026 274.8 209.116C274.905 209.206 274.973 209.331 274.993 209.468V211.782C274.99 211.933 274.928 212.076 274.821 212.181C274.713 212.287 274.569 212.346 274.418 212.346ZM274.418 207.729C274.27 207.726 274.128 207.665 274.023 207.56C273.918 207.456 273.858 207.314 273.855 207.166V204.851C273.875 204.715 273.944 204.59 274.048 204.499C274.153 204.409 274.286 204.359 274.424 204.359C274.562 204.359 274.696 204.409 274.8 204.499C274.905 204.59 274.973 204.715 274.993 204.851V207.166C274.99 207.316 274.928 207.459 274.821 207.565C274.713 207.67 274.569 207.729 274.418 207.729ZM274.418 203.112C274.268 203.109 274.124 203.047 274.019 202.939C273.914 202.832 273.855 202.687 273.855 202.537V200.235C273.843 200.153 273.849 200.069 273.872 199.99C273.895 199.911 273.935 199.837 273.989 199.775C274.043 199.712 274.11 199.662 274.185 199.628C274.26 199.593 274.341 199.575 274.424 199.575C274.507 199.575 274.588 199.593 274.664 199.628C274.739 199.662 274.806 199.712 274.86 199.775C274.914 199.837 274.954 199.911 274.977 199.99C275 200.069 275.005 200.153 274.993 200.235V202.537C274.993 202.612 274.979 202.687 274.95 202.757C274.921 202.827 274.878 202.89 274.825 202.944C274.771 202.997 274.708 203.04 274.638 203.069C274.568 203.097 274.494 203.112 274.418 203.112ZM274.418 198.496C274.268 198.493 274.124 198.43 274.019 198.323C273.914 198.215 273.855 198.071 273.855 197.92V195.618C273.843 195.536 273.849 195.453 273.872 195.373C273.895 195.294 273.935 195.221 273.989 195.158C274.043 195.096 274.11 195.045 274.185 195.011C274.26 194.977 274.341 194.959 274.424 194.959C274.507 194.959 274.588 194.977 274.664 195.011C274.739 195.045 274.806 195.096 274.86 195.158C274.914 195.221 274.954 195.294 274.977 195.373C275 195.453 275.005 195.536 274.993 195.618V197.92C274.993 197.996 274.979 198.071 274.95 198.14C274.921 198.21 274.878 198.274 274.825 198.327C274.771 198.381 274.708 198.423 274.638 198.452C274.568 198.481 274.494 198.496 274.418 198.496ZM274.418 193.879C274.268 193.876 274.124 193.814 274.019 193.706C273.914 193.599 273.855 193.454 273.855 193.304V191.001C273.843 190.92 273.849 190.836 273.872 190.757C273.895 190.678 273.935 190.604 273.989 190.541C274.043 190.479 274.11 190.429 274.185 190.394C274.26 190.36 274.341 190.342 274.424 190.342C274.507 190.342 274.588 190.36 274.664 190.394C274.739 190.429 274.806 190.479 274.86 190.541C274.914 190.604 274.954 190.678 274.977 190.757C275 190.836 275.005 190.92 274.993 191.001V193.304C274.993 193.379 274.979 193.454 274.95 193.524C274.921 193.594 274.878 193.657 274.825 193.711C274.771 193.764 274.708 193.806 274.638 193.835C274.568 193.864 274.494 193.879 274.418 193.879ZM274.418 189.263C274.268 189.259 274.124 189.197 274.019 189.09C273.914 188.982 273.855 188.838 273.855 188.687V186.385C273.843 186.303 273.849 186.22 273.872 186.14C273.895 186.061 273.935 185.987 273.989 185.925C274.043 185.862 274.11 185.812 274.185 185.778C274.26 185.743 274.341 185.726 274.424 185.726C274.507 185.726 274.588 185.743 274.664 185.778C274.739 185.812 274.806 185.862 274.86 185.925C274.914 185.987 274.954 186.061 274.977 186.14C275 186.22 275.005 186.303 274.993 186.385V188.687C274.993 188.763 274.979 188.837 274.95 188.907C274.921 188.977 274.878 189.041 274.825 189.094C274.771 189.147 274.708 189.19 274.638 189.219C274.568 189.248 274.494 189.263 274.418 189.263ZM274.418 184.646C274.268 184.643 274.124 184.581 274.019 184.473C273.914 184.366 273.855 184.221 273.855 184.07V181.756C273.875 181.619 273.944 181.494 274.048 181.404C274.153 181.314 274.286 181.264 274.424 181.264C274.562 181.264 274.696 181.314 274.8 181.404C274.905 181.494 274.973 181.619 274.993 181.756V184.07C274.993 184.146 274.979 184.221 274.95 184.291C274.921 184.361 274.878 184.424 274.825 184.477C274.771 184.531 274.708 184.573 274.638 184.602C274.568 184.631 274.494 184.646 274.418 184.646ZM274.418 180.017C274.269 180.017 274.125 179.958 274.02 179.852C273.914 179.746 273.855 179.603 273.855 179.454V177.188C273.875 177.052 273.944 176.927 274.048 176.837C274.153 176.746 274.286 176.697 274.424 176.697C274.562 176.697 274.696 176.746 274.8 176.837C274.905 176.927 274.973 177.052 274.993 177.188V179.503C274.981 179.646 274.915 179.778 274.808 179.874C274.701 179.97 274.561 180.021 274.418 180.017ZM274.418 175.401C274.269 175.401 274.125 175.341 274.02 175.236C273.914 175.13 273.855 174.987 273.855 174.837V172.523C273.875 172.386 273.944 172.261 274.048 172.171C274.153 172.081 274.286 172.031 274.424 172.031C274.562 172.031 274.696 172.081 274.8 172.171C274.905 172.261 274.973 172.386 274.993 172.523V174.837C274.993 174.912 274.978 174.987 274.949 175.056C274.92 175.125 274.878 175.187 274.824 175.24C274.771 175.292 274.707 175.334 274.637 175.361C274.568 175.389 274.493 175.402 274.418 175.401Z" fill="#F5F5F5"/>
<path d="M274.418 280.443C274.27 280.44 274.128 280.379 274.023 280.274C273.918 280.169 273.858 280.028 273.855 279.88V278.741C273.843 278.659 273.849 278.576 273.872 278.497C273.895 278.417 273.935 278.344 273.989 278.281C274.043 278.219 274.11 278.169 274.185 278.134C274.26 278.1 274.341 278.082 274.424 278.082C274.507 278.082 274.588 278.1 274.664 278.134C274.739 278.169 274.806 278.219 274.86 278.281C274.914 278.344 274.954 278.417 274.977 278.497C275 278.576 275.005 278.659 274.993 278.741V279.88C274.99 280.03 274.928 280.173 274.821 280.279C274.713 280.384 274.569 280.443 274.418 280.443Z" fill="#F5F5F5"/>
<path d="M319.31 186.274C319.159 186.271 319.016 186.209 318.911 186.101C318.805 185.994 318.746 185.849 318.747 185.699V184.536C318.767 184.399 318.835 184.274 318.94 184.184C319.044 184.094 319.178 184.044 319.316 184.044C319.454 184.044 319.587 184.094 319.692 184.184C319.796 184.274 319.865 184.399 319.885 184.536V185.76C319.87 185.902 319.803 186.033 319.696 186.128C319.59 186.223 319.452 186.275 319.31 186.274Z" fill="#F5F5F5"/>
<path d="M319.313 251.25C319.165 251.247 319.023 251.187 318.918 251.082C318.813 250.977 318.753 250.835 318.75 250.687V248.36C318.77 248.223 318.838 248.099 318.943 248.008C319.048 247.918 319.181 247.868 319.319 247.868C319.457 247.868 319.591 247.918 319.695 248.008C319.8 248.099 319.868 248.223 319.888 248.36V250.662C319.89 250.739 319.876 250.815 319.848 250.886C319.82 250.958 319.778 251.022 319.724 251.077C319.671 251.132 319.607 251.175 319.536 251.205C319.465 251.235 319.39 251.25 319.313 251.25ZM319.313 246.609C319.165 246.606 319.023 246.545 318.918 246.44C318.813 246.336 318.753 246.194 318.75 246.046V243.719C318.77 243.582 318.838 243.457 318.943 243.367C319.048 243.277 319.181 243.227 319.319 243.227C319.457 243.227 319.591 243.277 319.695 243.367C319.8 243.457 319.868 243.582 319.888 243.719V246.046C319.885 246.196 319.823 246.339 319.716 246.445C319.608 246.55 319.463 246.609 319.313 246.609ZM319.313 241.968C319.165 241.965 319.023 241.904 318.918 241.799C318.813 241.694 318.753 241.553 318.75 241.405V239.078C318.77 238.941 318.838 238.816 318.943 238.726C319.048 238.636 319.181 238.586 319.319 238.586C319.457 238.586 319.591 238.636 319.695 238.726C319.8 238.816 319.868 238.941 319.888 239.078V241.405C319.885 241.555 319.823 241.698 319.716 241.804C319.608 241.909 319.463 241.968 319.313 241.968ZM319.313 237.327C319.165 237.324 319.023 237.263 318.918 237.158C318.813 237.053 318.753 236.912 318.75 236.763V234.437C318.77 234.3 318.838 234.175 318.943 234.085C319.048 233.995 319.181 233.945 319.319 233.945C319.457 233.945 319.591 233.995 319.695 234.085C319.8 234.175 319.868 234.3 319.888 234.437V236.763C319.885 236.914 319.823 237.057 319.716 237.163C319.608 237.268 319.463 237.327 319.313 237.327ZM319.313 232.686C319.165 232.683 319.023 232.622 318.918 232.517C318.813 232.412 318.753 232.271 318.75 232.122V229.845C318.77 229.708 318.838 229.583 318.943 229.493C319.048 229.403 319.181 229.353 319.319 229.353C319.457 229.353 319.591 229.403 319.695 229.493C319.8 229.583 319.868 229.708 319.888 229.845V232.171C319.873 232.313 319.806 232.444 319.7 232.539C319.593 232.634 319.456 232.687 319.313 232.686ZM319.313 228.045C319.165 228.041 319.023 227.981 318.918 227.876C318.813 227.771 318.753 227.63 318.75 227.481V225.155C318.77 225.018 318.838 224.893 318.943 224.803C319.048 224.713 319.181 224.663 319.319 224.663C319.457 224.663 319.591 224.713 319.695 224.803C319.8 224.893 319.868 225.018 319.888 225.155V227.481C319.885 227.632 319.823 227.775 319.716 227.88C319.608 227.986 319.463 228.045 319.313 228.045ZM319.313 223.404C319.165 223.4 319.023 223.34 318.918 223.235C318.813 223.13 318.753 222.989 318.75 222.84V220.514C318.77 220.377 318.838 220.252 318.943 220.162C319.048 220.071 319.181 220.022 319.319 220.022C319.457 220.022 319.591 220.071 319.695 220.162C319.8 220.252 319.868 220.377 319.888 220.514V222.84C319.885 222.991 319.823 223.134 319.716 223.239C319.608 223.345 319.463 223.404 319.313 223.404ZM319.313 218.762C319.165 218.759 319.023 218.699 318.918 218.594C318.813 218.489 318.753 218.348 318.75 218.199V215.872C318.77 215.736 318.838 215.611 318.943 215.521C319.048 215.43 319.181 215.381 319.319 215.381C319.457 215.381 319.591 215.43 319.695 215.521C319.8 215.611 319.868 215.736 319.888 215.872V218.199C319.895 218.279 319.885 218.359 319.859 218.434C319.834 218.51 319.792 218.579 319.738 218.638C319.684 218.697 319.618 218.744 319.545 218.776C319.472 218.808 319.393 218.824 319.313 218.824V218.762ZM319.313 214.121C319.165 214.118 319.023 214.058 318.918 213.953C318.813 213.848 318.753 213.706 318.75 213.558V211.231C318.77 211.095 318.838 210.97 318.943 210.88C319.048 210.789 319.181 210.74 319.319 210.74C319.457 210.74 319.591 210.789 319.695 210.88C319.8 210.97 319.868 211.095 319.888 211.231V213.558C319.885 213.709 319.823 213.852 319.716 213.957C319.608 214.062 319.463 214.121 319.313 214.121ZM319.313 209.48C319.165 209.477 319.023 209.417 318.918 209.312C318.813 209.207 318.753 209.065 318.75 208.917V206.578C318.77 206.441 318.838 206.317 318.943 206.226C319.048 206.136 319.181 206.086 319.319 206.086C319.457 206.086 319.591 206.136 319.695 206.226C319.8 206.317 319.868 206.441 319.888 206.578V208.905C319.888 208.98 319.873 209.055 319.845 209.125C319.816 209.195 319.773 209.258 319.72 209.312C319.666 209.365 319.603 209.408 319.533 209.436C319.463 209.465 319.389 209.48 319.313 209.48ZM319.313 204.839C319.165 204.836 319.023 204.776 318.918 204.671C318.813 204.566 318.753 204.424 318.75 204.276V201.949C318.77 201.813 318.838 201.688 318.943 201.597C319.048 201.507 319.181 201.457 319.319 201.457C319.457 201.457 319.591 201.507 319.695 201.597C319.8 201.688 319.868 201.813 319.888 201.949V204.276C319.885 204.426 319.823 204.57 319.716 204.675C319.608 204.78 319.463 204.839 319.313 204.839ZM319.313 200.198C319.163 200.195 319.019 200.133 318.914 200.025C318.809 199.918 318.75 199.773 318.75 199.623V197.308C318.738 197.226 318.744 197.143 318.767 197.064C318.79 196.984 318.83 196.911 318.884 196.848C318.938 196.786 319.005 196.735 319.08 196.701C319.155 196.667 319.236 196.649 319.319 196.649C319.402 196.649 319.483 196.667 319.559 196.701C319.634 196.735 319.701 196.786 319.755 196.848C319.809 196.911 319.848 196.984 319.872 197.064C319.895 197.143 319.9 197.226 319.888 197.308V199.623C319.888 199.775 319.828 199.922 319.72 200.03C319.612 200.137 319.466 200.198 319.313 200.198ZM319.313 195.557C319.163 195.554 319.019 195.492 318.914 195.384C318.809 195.277 318.75 195.132 318.75 194.981V192.667C318.738 192.585 318.744 192.502 318.767 192.422C318.79 192.343 318.83 192.27 318.884 192.207C318.938 192.145 319.005 192.094 319.08 192.06C319.155 192.026 319.236 192.008 319.319 192.008C319.402 192.008 319.483 192.026 319.559 192.06C319.634 192.094 319.701 192.145 319.755 192.207C319.809 192.27 319.848 192.343 319.872 192.422C319.895 192.502 319.9 192.585 319.888 192.667V194.981C319.888 195.134 319.828 195.28 319.72 195.388C319.612 195.496 319.466 195.557 319.313 195.557ZM319.313 190.916C319.163 190.913 319.019 190.851 318.914 190.743C318.809 190.635 318.75 190.491 318.75 190.34V188.026C318.738 187.944 318.744 187.861 318.767 187.781C318.79 187.702 318.83 187.629 318.884 187.566C318.938 187.503 319.005 187.453 319.08 187.419C319.155 187.384 319.236 187.367 319.319 187.367C319.402 187.367 319.483 187.384 319.559 187.419C319.634 187.453 319.701 187.503 319.755 187.566C319.809 187.629 319.848 187.702 319.872 187.781C319.895 187.861 319.9 187.944 319.888 188.026V190.34C319.888 190.493 319.828 190.639 319.72 190.747C319.612 190.855 319.466 190.916 319.313 190.916Z" fill="#F5F5F5"/>
<path d="M319.31 254.715C319.159 254.712 319.016 254.65 318.911 254.542C318.805 254.435 318.746 254.29 318.747 254.14V253.001C318.767 252.865 318.835 252.74 318.94 252.649C319.044 252.559 319.178 252.51 319.316 252.51C319.454 252.51 319.587 252.559 319.692 252.649C319.796 252.74 319.865 252.865 319.885 253.001V254.14C319.885 254.215 319.87 254.29 319.841 254.36C319.812 254.43 319.77 254.493 319.717 254.547C319.663 254.6 319.6 254.642 319.53 254.671C319.46 254.7 319.385 254.715 319.31 254.715Z" fill="#F5F5F5"/>
<path d="M363.54 189.311C363.387 189.311 363.241 189.251 363.133 189.143C363.025 189.035 362.964 188.889 362.964 188.736V187.597C362.985 187.461 363.053 187.336 363.158 187.246C363.262 187.155 363.396 187.106 363.534 187.106C363.672 187.106 363.805 187.155 363.91 187.246C364.014 187.336 364.083 187.461 364.103 187.597V188.736C364.103 188.886 364.044 189.031 363.939 189.138C363.833 189.246 363.69 189.308 363.54 189.311Z" fill="#F5F5F5"/>
<path d="M363.543 225.669C363.391 225.669 363.244 225.608 363.136 225.501C363.028 225.393 362.968 225.246 362.968 225.094V222.828C362.956 222.746 362.961 222.663 362.985 222.584C363.008 222.504 363.048 222.431 363.102 222.368C363.156 222.306 363.222 222.255 363.298 222.221C363.373 222.187 363.454 222.169 363.537 222.169C363.62 222.169 363.701 222.187 363.776 222.221C363.852 222.255 363.918 222.306 363.972 222.368C364.026 222.431 364.066 222.504 364.089 222.584C364.113 222.663 364.118 222.746 364.106 222.828V225.094C364.106 225.244 364.047 225.389 363.942 225.496C363.837 225.604 363.694 225.666 363.543 225.669ZM363.543 221.126C363.391 221.126 363.244 221.065 363.136 220.957C363.028 220.849 362.968 220.703 362.968 220.55V218.285C362.956 218.203 362.961 218.12 362.985 218.04C363.008 217.961 363.048 217.888 363.102 217.825C363.156 217.763 363.222 217.712 363.298 217.678C363.373 217.644 363.454 217.626 363.537 217.626C363.62 217.626 363.701 217.644 363.776 217.678C363.852 217.712 363.918 217.763 363.972 217.825C364.026 217.888 364.066 217.961 364.089 218.04C364.113 218.12 364.118 218.203 364.106 218.285V220.55C364.106 220.701 364.047 220.846 363.942 220.953C363.837 221.061 363.694 221.123 363.543 221.126ZM363.543 216.583C363.391 216.583 363.244 216.522 363.136 216.414C363.028 216.306 362.968 216.16 362.968 216.007V213.742C362.956 213.66 362.961 213.577 362.985 213.497C363.008 213.418 363.048 213.345 363.102 213.282C363.156 213.219 363.222 213.169 363.298 213.135C363.373 213.1 363.454 213.083 363.537 213.083C363.62 213.083 363.701 213.1 363.776 213.135C363.852 213.169 363.918 213.219 363.972 213.282C364.026 213.345 364.066 213.418 364.089 213.497C364.113 213.577 364.118 213.66 364.106 213.742V216.007C364.106 216.158 364.047 216.302 363.942 216.41C363.837 216.518 363.694 216.58 363.543 216.583ZM363.543 212.04C363.391 212.04 363.244 211.979 363.136 211.871C363.028 211.763 362.968 211.617 362.968 211.464V209.187C362.988 209.05 363.056 208.925 363.161 208.835C363.265 208.744 363.399 208.695 363.537 208.695C363.675 208.695 363.809 208.744 363.913 208.835C364.018 208.925 364.086 209.05 364.106 209.187V211.476C364.103 211.625 364.043 211.766 363.938 211.871C363.833 211.976 363.691 212.037 363.543 212.04ZM363.543 207.484C363.468 207.486 363.394 207.473 363.324 207.445C363.254 207.417 363.191 207.376 363.137 207.324C363.083 207.271 363.041 207.209 363.012 207.14C362.983 207.07 362.968 206.996 362.968 206.921V204.643C362.988 204.507 363.056 204.382 363.161 204.292C363.265 204.201 363.399 204.152 363.537 204.152C363.675 204.152 363.809 204.201 363.913 204.292C364.018 204.382 364.086 204.507 364.106 204.643V206.921C364.106 207.07 364.047 207.214 363.941 207.319C363.836 207.425 363.692 207.484 363.543 207.484ZM363.543 202.941C363.393 202.941 363.248 202.882 363.141 202.777C363.033 202.672 362.971 202.528 362.968 202.378V200.1C362.988 199.964 363.056 199.839 363.161 199.748C363.265 199.658 363.399 199.608 363.537 199.608C363.675 199.608 363.809 199.658 363.913 199.748C364.018 199.839 364.086 199.964 364.106 200.1V202.378C364.094 202.52 364.03 202.652 363.926 202.75C363.822 202.847 363.685 202.902 363.543 202.905V202.941ZM363.543 198.398C363.393 198.398 363.248 198.339 363.141 198.234C363.033 198.129 362.971 197.985 362.968 197.835V195.557C362.988 195.42 363.056 195.296 363.161 195.205C363.265 195.115 363.399 195.065 363.537 195.065C363.675 195.065 363.809 195.115 363.913 195.205C364.018 195.296 364.086 195.42 364.106 195.557V197.835C364.103 197.983 364.043 198.125 363.938 198.23C363.833 198.335 363.691 198.395 363.543 198.398ZM363.543 193.855C363.393 193.855 363.248 193.796 363.141 193.691C363.033 193.585 362.971 193.442 362.968 193.292V191.014C362.988 190.877 363.056 190.753 363.161 190.662C363.265 190.572 363.399 190.522 363.537 190.522C363.675 190.522 363.809 190.572 363.913 190.662C364.018 190.753 364.086 190.877 364.106 191.014V193.292C364.103 193.44 364.043 193.582 363.938 193.687C363.833 193.792 363.691 193.852 363.543 193.855Z" fill="#F5F5F5"/>
<path d="M363.543 229.072C363.468 229.074 363.394 229.061 363.324 229.033C363.254 229.005 363.191 228.964 363.137 228.912C363.083 228.859 363.041 228.797 363.012 228.728C362.983 228.658 362.968 228.584 362.968 228.509V227.395C362.956 227.313 362.961 227.23 362.985 227.151C363.008 227.071 363.048 226.998 363.102 226.935C363.156 226.873 363.222 226.823 363.298 226.788C363.373 226.754 363.454 226.736 363.537 226.736C363.62 226.736 363.701 226.754 363.776 226.788C363.852 226.823 363.918 226.873 363.972 226.935C364.026 226.998 364.066 227.071 364.089 227.151C364.113 227.23 364.118 227.313 364.106 227.395V228.534C364.1 228.679 364.038 228.816 363.933 228.916C363.828 229.017 363.688 229.072 363.543 229.072Z" fill="#F5F5F5"/>
<path d="M328.554 149.33C328.554 148.215 327.77 147.762 326.803 148.326L310.68 157.595C310.17 157.931 309.745 158.381 309.441 158.911C309.137 159.441 308.962 160.035 308.929 160.645V173.698C308.929 174.813 309.713 175.266 310.68 174.703L316.666 171.249L319.176 175.609C319.213 175.671 319.267 175.721 319.332 175.754C319.397 175.786 319.47 175.799 319.542 175.792C319.614 175.784 319.683 175.756 319.739 175.71C319.796 175.665 319.838 175.604 319.862 175.535L322.518 167.87L326.803 165.42C327.314 165.089 327.74 164.641 328.044 164.113C328.349 163.585 328.523 162.992 328.554 162.384V149.33Z" fill="#F5F5F5"/>
<path d="M314.525 163.008C314.364 163.021 314.202 162.997 314.051 162.937C313.9 162.878 313.765 162.785 313.656 162.665C313.421 162.362 313.308 161.982 313.338 161.6C313.339 161.101 313.447 160.608 313.656 160.155C313.871 159.658 314.164 159.199 314.525 158.796C314.873 158.387 315.287 158.039 315.749 157.767C316.118 157.537 316.54 157.407 316.974 157.388C317.136 157.378 317.298 157.405 317.448 157.467C317.599 157.528 317.734 157.622 317.843 157.743C318.082 158.044 318.2 158.424 318.173 158.808C318.165 159.304 318.052 159.792 317.843 160.241C317.621 160.738 317.328 161.199 316.974 161.612C316.623 162.011 316.209 162.35 315.749 162.616C315.383 162.854 314.961 162.989 314.525 163.008ZM314.133 169.609C314.137 169.531 314.158 169.456 314.195 169.388L321.197 155.147L321.381 154.828C321.457 154.748 321.543 154.677 321.638 154.62L323.07 153.8C323.097 153.788 323.126 153.782 323.156 153.782C323.185 153.782 323.214 153.788 323.242 153.8C323.265 153.805 323.286 153.82 323.3 153.84C323.313 153.861 323.319 153.886 323.315 153.91C323.314 153.993 323.288 154.074 323.242 154.142L316.178 168.396C316.178 168.519 316.055 168.605 316.019 168.666C315.953 168.737 315.874 168.795 315.786 168.837L314.342 169.682C314.219 169.841 314.133 169.756 314.133 169.609ZM316.582 160.571C316.801 160.254 316.925 159.88 316.937 159.494C316.958 159.355 316.935 159.213 316.871 159.088C316.808 158.963 316.706 158.861 316.582 158.796C316.433 158.751 316.275 158.743 316.122 158.77C315.969 158.798 315.825 158.861 315.7 158.955C315.341 159.165 315.039 159.459 314.819 159.812C314.598 160.138 314.474 160.52 314.464 160.914C314.445 161.05 314.469 161.188 314.532 161.309C314.596 161.43 314.696 161.527 314.819 161.588C314.967 161.632 315.124 161.642 315.277 161.616C315.429 161.591 315.574 161.531 315.7 161.441C316.078 161.233 316.398 160.934 316.631 160.571H316.582ZM320.475 166.057C320.311 166.07 320.146 166.044 319.993 165.982C319.84 165.921 319.703 165.825 319.593 165.702C319.354 165.406 319.236 165.029 319.263 164.649C319.271 164.158 319.384 163.673 319.593 163.229C319.814 162.728 320.111 162.266 320.475 161.857C320.822 161.451 321.236 161.108 321.699 160.841C322.065 160.603 322.488 160.468 322.923 160.449C323.086 160.44 323.249 160.467 323.401 160.526C323.553 160.585 323.69 160.675 323.805 160.792C324.046 161.092 324.164 161.473 324.135 161.857C324.128 162.353 324.016 162.841 323.805 163.29C323.578 163.787 323.281 164.249 322.923 164.661C322.573 165.064 322.159 165.407 321.699 165.678C321.344 165.898 320.941 166.029 320.524 166.057H320.475ZM322.568 163.608C322.793 163.289 322.917 162.909 322.923 162.518C322.923 162.163 322.813 161.943 322.568 161.845C322.419 161.799 322.262 161.79 322.108 161.818C321.955 161.846 321.811 161.909 321.687 162.004C321.325 162.21 321.022 162.505 320.805 162.861C320.588 163.18 320.465 163.553 320.45 163.939C320.45 164.306 320.573 164.539 320.805 164.625C320.955 164.664 321.111 164.67 321.264 164.642C321.416 164.615 321.56 164.554 321.687 164.465C322.058 164.265 322.377 163.98 322.617 163.633L322.568 163.608Z" fill="#34A573"/>
<path opacity="0.4" d="M314.525 163.008C314.364 163.021 314.202 162.997 314.051 162.937C313.9 162.878 313.765 162.785 313.656 162.665C313.421 162.362 313.308 161.982 313.338 161.6C313.339 161.101 313.447 160.608 313.656 160.155C313.871 159.658 314.164 159.199 314.525 158.796C314.873 158.387 315.287 158.039 315.749 157.767C316.118 157.537 316.54 157.407 316.974 157.388C317.136 157.378 317.298 157.405 317.448 157.467C317.599 157.528 317.734 157.622 317.843 157.743C318.082 158.044 318.2 158.424 318.173 158.808C318.165 159.304 318.052 159.792 317.843 160.241C317.621 160.738 317.328 161.199 316.974 161.612C316.623 162.011 316.209 162.35 315.749 162.616C315.383 162.854 314.961 162.989 314.525 163.008ZM314.133 169.609C314.137 169.531 314.158 169.456 314.195 169.388L321.197 155.147L321.381 154.828C321.457 154.748 321.543 154.677 321.638 154.62L323.07 153.8C323.097 153.788 323.126 153.782 323.156 153.782C323.185 153.782 323.214 153.788 323.242 153.8C323.265 153.805 323.286 153.82 323.3 153.84C323.313 153.861 323.319 153.886 323.315 153.91C323.314 153.993 323.288 154.074 323.242 154.142L316.178 168.396C316.178 168.519 316.055 168.605 316.019 168.666C315.953 168.737 315.874 168.795 315.786 168.837L314.342 169.682C314.219 169.841 314.133 169.756 314.133 169.609ZM316.582 160.571C316.801 160.254 316.925 159.88 316.937 159.494C316.958 159.355 316.935 159.213 316.871 159.088C316.808 158.963 316.706 158.861 316.582 158.796C316.433 158.751 316.275 158.743 316.122 158.77C315.969 158.798 315.825 158.861 315.7 158.955C315.341 159.165 315.039 159.459 314.819 159.812C314.598 160.138 314.474 160.52 314.464 160.914C314.445 161.05 314.469 161.188 314.532 161.309C314.596 161.43 314.696 161.527 314.819 161.588C314.967 161.632 315.124 161.642 315.277 161.616C315.429 161.591 315.574 161.531 315.7 161.441C316.078 161.233 316.398 160.934 316.631 160.571H316.582ZM320.475 166.057C320.311 166.07 320.146 166.044 319.993 165.982C319.84 165.921 319.703 165.825 319.593 165.702C319.354 165.406 319.236 165.029 319.263 164.649C319.271 164.158 319.384 163.673 319.593 163.229C319.814 162.728 320.111 162.266 320.475 161.857C320.822 161.451 321.236 161.108 321.699 160.841C322.065 160.603 322.488 160.468 322.923 160.449C323.086 160.44 323.249 160.467 323.401 160.526C323.553 160.585 323.69 160.675 323.805 160.792C324.046 161.092 324.164 161.473 324.135 161.857C324.128 162.353 324.016 162.841 323.805 163.29C323.578 163.787 323.281 164.249 322.923 164.661C322.573 165.064 322.159 165.407 321.699 165.678C321.344 165.898 320.941 166.029 320.524 166.057H320.475ZM322.568 163.608C322.793 163.289 322.917 162.909 322.923 162.518C322.923 162.163 322.813 161.943 322.568 161.845C322.419 161.799 322.262 161.79 322.108 161.818C321.955 161.846 321.811 161.909 321.687 162.004C321.325 162.21 321.022 162.505 320.805 162.861C320.588 163.18 320.465 163.553 320.45 163.939C320.45 164.306 320.573 164.539 320.805 164.625C320.955 164.664 321.111 164.67 321.264 164.642C321.416 164.615 321.56 164.554 321.687 164.465C322.058 164.265 322.377 163.98 322.617 163.633L322.568 163.608Z" fill="black"/>
<path d="M372.089 151.571C372.089 150.457 371.305 150.003 370.338 150.555L354.215 159.886C353.706 160.22 353.283 160.669 352.979 161.196C352.675 161.723 352.499 162.315 352.465 162.923V175.964C352.465 177.091 353.248 177.544 354.215 176.981L360.251 173.515L362.772 177.874C362.801 177.94 362.848 177.996 362.908 178.035C362.968 178.074 363.038 178.095 363.109 178.095C363.181 178.095 363.251 178.074 363.31 178.035C363.37 177.996 363.417 177.94 363.446 177.874L366.102 170.196L370.399 167.747C370.908 167.413 371.332 166.964 371.636 166.437C371.94 165.91 372.116 165.318 372.15 164.71L372.089 151.571Z" fill="#F5F5F5"/>
<path d="M358.061 165.249C357.896 165.26 357.732 165.233 357.58 165.172C357.427 165.11 357.29 165.015 357.179 164.894C356.947 164.594 356.834 164.219 356.861 163.841C356.868 163.343 356.976 162.851 357.179 162.396C357.398 161.895 357.696 161.432 358.061 161.024C358.411 160.622 358.825 160.279 359.285 160.008C359.652 159.775 360.074 159.644 360.509 159.628C360.673 159.616 360.838 159.642 360.991 159.704C361.144 159.765 361.28 159.861 361.39 159.984C361.633 160.283 361.751 160.665 361.721 161.049C361.713 161.541 361.6 162.025 361.39 162.469C361.17 162.97 360.873 163.433 360.509 163.841C360.162 164.247 359.748 164.591 359.285 164.857C358.919 165.095 358.496 165.23 358.061 165.249ZM357.657 171.85C357.66 171.767 357.685 171.687 357.73 171.617L364.733 157.375C364.78 157.262 364.842 157.155 364.916 157.057C364.984 156.972 365.067 156.902 365.161 156.849L366.606 156.016C366.679 156.016 366.728 155.955 366.777 156.016C366.826 156.077 366.838 156.016 366.838 156.126C366.84 156.208 366.819 156.288 366.777 156.359L359.738 170.674C359.694 170.769 359.641 170.859 359.579 170.943C359.517 171.014 359.442 171.073 359.358 171.115L357.901 171.96C357.803 172.009 357.657 171.984 357.657 171.85ZM360.105 162.812C360.323 162.494 360.446 162.12 360.46 161.735C360.481 161.596 360.458 161.454 360.394 161.329C360.331 161.204 360.23 161.101 360.105 161.037C359.956 160.992 359.798 160.983 359.645 161.011C359.492 161.039 359.348 161.102 359.224 161.196C358.868 161.406 358.57 161.7 358.354 162.053C358.128 162.376 358.004 162.76 357.999 163.155C357.978 163.291 358.001 163.429 358.065 163.551C358.129 163.672 358.231 163.77 358.354 163.829C358.502 163.873 358.657 163.882 358.808 163.854C358.959 163.826 359.102 163.763 359.224 163.669C359.603 163.47 359.924 163.175 360.154 162.812H360.105ZM363.998 168.298C363.834 168.308 363.67 168.281 363.518 168.219C363.365 168.158 363.228 168.064 363.117 167.943C362.889 167.641 362.776 167.268 362.798 166.89C362.807 166.396 362.915 165.909 363.117 165.457C363.343 164.96 363.64 164.498 363.998 164.086C364.349 163.687 364.762 163.348 365.222 163.082C365.59 162.848 366.012 162.713 366.446 162.69C366.61 162.679 366.773 162.704 366.925 162.763C367.078 162.822 367.215 162.914 367.328 163.033C367.568 163.329 367.687 163.705 367.658 164.086C367.653 164.586 367.54 165.078 367.328 165.531C367.104 166.026 366.807 166.484 366.446 166.89C366.098 167.295 365.684 167.638 365.222 167.906C364.868 168.13 364.465 168.265 364.047 168.298H363.998ZM366.104 165.849C366.325 165.523 366.448 165.141 366.459 164.747C366.476 164.612 366.451 164.475 366.388 164.354C366.324 164.234 366.225 164.136 366.104 164.074C365.951 164.034 365.792 164.029 365.638 164.059C365.483 164.089 365.337 164.152 365.21 164.245C364.854 164.449 364.555 164.74 364.341 165.09C364.114 165.409 363.986 165.788 363.974 166.18C363.974 166.547 364.096 166.768 364.341 166.866C364.489 166.904 364.643 166.91 364.793 166.883C364.943 166.855 365.086 166.795 365.21 166.706C365.585 166.507 365.908 166.221 366.153 165.874L366.104 165.849Z" fill="#34A573"/>
<path opacity="0.4" d="M358.061 165.249C357.896 165.26 357.732 165.233 357.58 165.172C357.427 165.11 357.29 165.015 357.179 164.894C356.947 164.594 356.834 164.219 356.861 163.841C356.868 163.343 356.976 162.851 357.179 162.396C357.398 161.895 357.696 161.432 358.061 161.024C358.411 160.622 358.825 160.279 359.285 160.008C359.652 159.775 360.074 159.644 360.509 159.628C360.673 159.616 360.838 159.642 360.991 159.704C361.144 159.765 361.28 159.861 361.39 159.984C361.633 160.283 361.751 160.665 361.721 161.049C361.713 161.541 361.6 162.025 361.39 162.469C361.17 162.97 360.873 163.433 360.509 163.841C360.162 164.247 359.748 164.591 359.285 164.857C358.919 165.095 358.496 165.23 358.061 165.249ZM357.657 171.85C357.66 171.767 357.685 171.687 357.73 171.617L364.733 157.375C364.78 157.262 364.842 157.155 364.916 157.057C364.984 156.972 365.067 156.902 365.161 156.849L366.606 156.016C366.679 156.016 366.728 155.955 366.777 156.016C366.826 156.077 366.838 156.016 366.838 156.126C366.84 156.208 366.819 156.288 366.777 156.359L359.738 170.674C359.694 170.769 359.641 170.859 359.579 170.943C359.517 171.014 359.442 171.073 359.358 171.115L357.901 171.96C357.803 172.009 357.657 171.984 357.657 171.85ZM360.105 162.812C360.323 162.494 360.446 162.12 360.46 161.735C360.481 161.596 360.458 161.454 360.394 161.329C360.331 161.204 360.23 161.101 360.105 161.037C359.956 160.992 359.798 160.983 359.645 161.011C359.492 161.039 359.348 161.102 359.224 161.196C358.868 161.406 358.57 161.7 358.354 162.053C358.128 162.376 358.004 162.76 357.999 163.155C357.978 163.291 358.001 163.429 358.065 163.551C358.129 163.672 358.231 163.77 358.354 163.829C358.502 163.873 358.657 163.882 358.808 163.854C358.959 163.826 359.102 163.763 359.224 163.669C359.603 163.47 359.924 163.175 360.154 162.812H360.105ZM363.998 168.298C363.834 168.308 363.67 168.281 363.518 168.219C363.365 168.158 363.228 168.064 363.117 167.943C362.889 167.641 362.776 167.268 362.798 166.89C362.807 166.396 362.915 165.909 363.117 165.457C363.343 164.96 363.64 164.498 363.998 164.086C364.349 163.687 364.762 163.348 365.222 163.082C365.59 162.848 366.012 162.713 366.446 162.69C366.61 162.679 366.773 162.704 366.925 162.763C367.078 162.822 367.215 162.914 367.328 163.033C367.568 163.329 367.687 163.705 367.658 164.086C367.653 164.586 367.54 165.078 367.328 165.531C367.104 166.026 366.807 166.484 366.446 166.89C366.098 167.295 365.684 167.638 365.222 167.906C364.868 168.13 364.465 168.265 364.047 168.298H363.998ZM366.104 165.849C366.325 165.523 366.448 165.141 366.459 164.747C366.476 164.612 366.451 164.475 366.388 164.354C366.324 164.234 366.225 164.136 366.104 164.074C365.951 164.034 365.792 164.029 365.638 164.059C365.483 164.089 365.337 164.152 365.21 164.245C364.854 164.449 364.555 164.74 364.341 165.09C364.114 165.409 363.986 165.788 363.974 166.18C363.974 166.547 364.096 166.768 364.341 166.866C364.489 166.904 364.643 166.91 364.793 166.883C364.943 166.855 365.086 166.795 365.21 166.706C365.585 166.507 365.908 166.221 366.153 165.874L366.104 165.849Z" fill="black"/>
<path d="M282.783 134.157C282.783 133.043 281.999 132.59 281.032 133.153L264.909 142.472C264.399 142.807 263.974 143.258 263.67 143.788C263.366 144.317 263.191 144.911 263.159 145.521V158.575C263.159 159.689 263.942 160.143 264.909 159.579L270.883 156.126L273.405 160.473C273.434 160.539 273.481 160.594 273.541 160.634C273.601 160.673 273.67 160.694 273.742 160.694C273.813 160.694 273.883 160.673 273.943 160.634C274.003 160.594 274.05 160.539 274.079 160.473L276.735 152.807L281.032 150.358C281.544 150.027 281.969 149.579 282.274 149.051C282.578 148.523 282.753 147.93 282.783 147.321V134.157Z" fill="#F5F5F5"/>
<path d="M268.736 147.799C268.575 147.81 268.413 147.785 268.263 147.726C268.113 147.666 267.977 147.574 267.867 147.456C267.637 147.151 267.524 146.773 267.549 146.391C267.556 145.893 267.664 145.401 267.867 144.946C268.086 144.451 268.379 143.993 268.736 143.587C269.087 143.181 269.5 142.833 269.96 142.558C270.33 142.33 270.751 142.199 271.185 142.178C271.349 142.166 271.514 142.192 271.667 142.254C271.819 142.315 271.956 142.411 272.066 142.534C272.305 142.835 272.423 143.215 272.397 143.599C272.388 144.094 272.276 144.583 272.066 145.032C271.84 145.529 271.543 145.991 271.185 146.403C270.834 146.802 270.42 147.141 269.96 147.407C269.595 147.645 269.172 147.78 268.736 147.799ZM268.344 154.4C268.346 154.32 268.372 154.244 268.418 154.179L275.42 139.925C275.471 139.813 275.532 139.707 275.604 139.607C275.672 139.522 275.755 139.452 275.849 139.399L277.293 138.578C277.32 138.566 277.35 138.56 277.379 138.56C277.409 138.56 277.438 138.566 277.465 138.578C277.465 138.578 277.526 138.578 277.526 138.688C277.529 138.77 277.508 138.851 277.465 138.921L270.426 153.236C270.382 153.331 270.328 153.421 270.266 153.506C270.208 153.58 270.133 153.639 270.046 153.677L268.589 154.522C268.43 154.608 268.344 154.583 268.344 154.436V154.4ZM270.793 145.362C271.012 145.045 271.136 144.671 271.148 144.285C271.169 144.146 271.146 144.004 271.082 143.879C271.019 143.754 270.917 143.652 270.793 143.587C270.644 143.542 270.486 143.533 270.333 143.561C270.18 143.589 270.036 143.652 269.911 143.746C269.556 143.957 269.258 144.251 269.042 144.603C268.816 144.926 268.692 145.31 268.687 145.705C268.687 146.06 268.797 146.281 269.042 146.379C269.189 146.423 269.345 146.432 269.496 146.404C269.647 146.377 269.79 146.313 269.911 146.22C270.306 146.022 270.64 145.722 270.879 145.35L270.793 145.362ZM274.686 150.848C274.522 150.861 274.357 150.835 274.204 150.773C274.051 150.712 273.914 150.616 273.804 150.493C273.575 150.192 273.462 149.818 273.486 149.44C273.496 148.95 273.605 148.467 273.804 148.02C274.025 147.519 274.322 147.057 274.686 146.648C275.033 146.242 275.447 145.898 275.91 145.632C276.276 145.394 276.699 145.259 277.134 145.24C277.297 145.231 277.46 145.257 277.612 145.317C277.764 145.376 277.901 145.466 278.016 145.583C278.253 145.885 278.366 146.266 278.334 146.648C278.332 147.143 278.223 147.632 278.016 148.081C277.789 148.578 277.493 149.04 277.134 149.452C276.783 149.854 276.37 150.197 275.91 150.469C275.559 150.702 275.155 150.845 274.735 150.885L274.686 150.848ZM276.792 148.399C277.011 148.077 277.135 147.699 277.147 147.309C277.166 147.174 277.142 147.036 277.078 146.915C277.014 146.794 276.914 146.696 276.792 146.636C276.641 146.59 276.481 146.581 276.326 146.609C276.17 146.636 276.024 146.7 275.898 146.795C275.54 147.003 275.241 147.298 275.029 147.652C274.802 147.967 274.674 148.342 274.661 148.73C274.661 149.097 274.784 149.33 275.029 149.416C275.176 149.455 275.331 149.46 275.481 149.433C275.631 149.405 275.774 149.345 275.898 149.256C276.269 149.067 276.592 148.795 276.841 148.46L276.792 148.399Z" fill="#34A573"/>
<path opacity="0.4" d="M268.736 147.799C268.575 147.81 268.413 147.785 268.263 147.726C268.113 147.666 267.977 147.574 267.867 147.456C267.637 147.151 267.524 146.773 267.549 146.391C267.556 145.893 267.664 145.401 267.867 144.946C268.086 144.451 268.379 143.993 268.736 143.587C269.087 143.181 269.5 142.833 269.96 142.558C270.33 142.33 270.751 142.199 271.185 142.178C271.349 142.166 271.514 142.192 271.667 142.254C271.819 142.315 271.956 142.411 272.066 142.534C272.305 142.835 272.423 143.215 272.397 143.599C272.388 144.094 272.276 144.583 272.066 145.032C271.84 145.529 271.543 145.991 271.185 146.403C270.834 146.802 270.42 147.141 269.96 147.407C269.595 147.645 269.172 147.78 268.736 147.799ZM268.344 154.4C268.346 154.32 268.372 154.244 268.418 154.179L275.42 139.925C275.471 139.813 275.532 139.707 275.604 139.607C275.672 139.522 275.755 139.452 275.849 139.399L277.293 138.578C277.32 138.566 277.35 138.56 277.379 138.56C277.409 138.56 277.438 138.566 277.465 138.578C277.465 138.578 277.526 138.578 277.526 138.688C277.529 138.77 277.508 138.851 277.465 138.921L270.426 153.236C270.382 153.331 270.328 153.421 270.266 153.506C270.208 153.58 270.133 153.639 270.046 153.677L268.589 154.522C268.43 154.608 268.344 154.583 268.344 154.436V154.4ZM270.793 145.362C271.012 145.045 271.136 144.671 271.148 144.285C271.169 144.146 271.146 144.004 271.082 143.879C271.019 143.754 270.917 143.652 270.793 143.587C270.644 143.542 270.486 143.533 270.333 143.561C270.18 143.589 270.036 143.652 269.911 143.746C269.556 143.957 269.258 144.251 269.042 144.603C268.816 144.926 268.692 145.31 268.687 145.705C268.687 146.06 268.797 146.281 269.042 146.379C269.189 146.423 269.345 146.432 269.496 146.404C269.647 146.377 269.79 146.313 269.911 146.22C270.306 146.022 270.64 145.722 270.879 145.35L270.793 145.362ZM274.686 150.848C274.522 150.861 274.357 150.835 274.204 150.773C274.051 150.712 273.914 150.616 273.804 150.493C273.575 150.192 273.462 149.818 273.486 149.44C273.496 148.95 273.605 148.467 273.804 148.02C274.025 147.519 274.322 147.057 274.686 146.648C275.033 146.242 275.447 145.898 275.91 145.632C276.276 145.394 276.699 145.259 277.134 145.24C277.297 145.231 277.46 145.257 277.612 145.317C277.764 145.376 277.901 145.466 278.016 145.583C278.253 145.885 278.366 146.266 278.334 146.648C278.332 147.143 278.223 147.632 278.016 148.081C277.789 148.578 277.493 149.04 277.134 149.452C276.783 149.854 276.37 150.197 275.91 150.469C275.559 150.702 275.155 150.845 274.735 150.885L274.686 150.848ZM276.792 148.399C277.011 148.077 277.135 147.699 277.147 147.309C277.166 147.174 277.142 147.036 277.078 146.915C277.014 146.794 276.914 146.696 276.792 146.636C276.641 146.59 276.481 146.581 276.326 146.609C276.17 146.636 276.024 146.7 275.898 146.795C275.54 147.003 275.241 147.298 275.029 147.652C274.802 147.967 274.674 148.342 274.661 148.73C274.661 149.097 274.784 149.33 275.029 149.416C275.176 149.455 275.331 149.46 275.481 149.433C275.631 149.405 275.774 149.345 275.898 149.256C276.269 149.067 276.592 148.795 276.841 148.46L276.792 148.399Z" fill="black"/>
<path d="M224.252 203.663C224.252 202.549 223.468 202.096 222.501 202.647L206.378 211.978C205.868 212.313 205.443 212.764 205.139 213.294C204.835 213.823 204.66 214.417 204.628 215.027V228.069C204.628 229.195 205.411 229.648 206.378 229.085L212.365 225.632L214.874 229.979C214.91 230.042 214.964 230.093 215.028 230.126C215.092 230.159 215.165 230.174 215.237 230.167C215.309 230.161 215.377 230.134 215.435 230.09C215.492 230.045 215.535 229.986 215.56 229.918L218.216 222.24L222.501 219.791C223.011 219.458 223.436 219.01 223.74 218.482C224.044 217.954 224.22 217.362 224.252 216.754V203.663Z" fill="#F5F5F5"/>
<path d="M210.224 217.342C210.062 217.355 209.898 217.33 209.747 217.268C209.596 217.206 209.462 217.11 209.355 216.987C209.118 216.69 209.004 216.313 209.037 215.934C209.038 215.435 209.146 214.942 209.355 214.489C209.573 213.989 209.866 213.527 210.224 213.117C210.573 212.713 210.987 212.369 211.448 212.101C211.816 211.868 212.238 211.737 212.673 211.721C212.837 211.709 213.002 211.735 213.155 211.796C213.307 211.858 213.444 211.954 213.554 212.076C213.795 212.377 213.914 212.757 213.885 213.142C213.876 213.633 213.764 214.117 213.554 214.562C213.331 215.065 213.034 215.531 212.673 215.946C212.322 216.345 211.908 216.684 211.448 216.95C211.081 217.184 210.659 217.319 210.224 217.342ZM209.833 223.942C209.837 223.861 209.858 223.782 209.894 223.71L216.896 209.468C216.944 209.355 217.005 209.248 217.08 209.15C217.15 209.068 217.233 208.998 217.325 208.941L218.769 208.109C218.825 208.089 218.885 208.089 218.941 208.109C218.965 208.115 218.985 208.129 218.999 208.15C219.012 208.17 219.018 208.195 219.014 208.219C219.011 208.302 218.985 208.382 218.941 208.452L211.914 222.767C211.852 222.889 211.791 222.975 211.755 223.036C211.685 223.104 211.607 223.162 211.522 223.208L210.065 224.052C209.906 224.101 209.833 224.089 209.833 223.942ZM212.281 214.905C212.495 214.586 212.614 214.212 212.624 213.827C212.624 213.46 212.514 213.227 212.281 213.129C212.132 213.085 211.974 213.076 211.821 213.104C211.668 213.131 211.524 213.195 211.4 213.289C211.038 213.495 210.734 213.79 210.518 214.146C210.297 214.472 210.173 214.854 210.163 215.248C210.144 215.383 210.168 215.521 210.231 215.642C210.295 215.763 210.396 215.861 210.518 215.921C210.667 215.966 210.825 215.975 210.978 215.947C211.131 215.919 211.275 215.856 211.4 215.762C211.776 215.559 212.096 215.264 212.33 214.905H212.281ZM216.174 220.391C216.01 220.401 215.846 220.374 215.693 220.312C215.541 220.251 215.404 220.156 215.293 220.036C215.055 219.738 214.937 219.363 214.962 218.983C214.97 218.491 215.083 218.007 215.293 217.562C215.516 217.06 215.813 216.593 216.174 216.179C216.527 215.782 216.94 215.443 217.398 215.174C217.766 214.941 218.187 214.806 218.622 214.783C218.785 214.772 218.949 214.797 219.101 214.856C219.254 214.915 219.391 215.007 219.504 215.125C219.746 215.425 219.865 215.806 219.834 216.191C219.828 216.686 219.715 217.175 219.504 217.624C219.28 218.118 218.983 218.577 218.622 218.983C218.277 219.391 217.863 219.735 217.398 219.999C217.046 220.228 216.642 220.363 216.223 220.391H216.174ZM218.267 217.942C218.489 217.616 218.612 217.234 218.622 216.84C218.64 216.705 218.615 216.567 218.552 216.447C218.488 216.326 218.389 216.228 218.267 216.166C218.115 216.127 217.956 216.122 217.801 216.152C217.647 216.181 217.501 216.245 217.374 216.338C217.021 216.547 216.723 216.836 216.504 217.183C216.283 217.504 216.159 217.882 216.149 218.273C216.149 218.64 216.26 218.86 216.504 218.958C216.652 218.997 216.807 219.003 216.957 218.976C217.107 218.948 217.249 218.888 217.374 218.799C217.749 218.599 218.072 218.314 218.316 217.966L218.267 217.942Z" fill="#34A573"/>
<path opacity="0.4" d="M210.224 217.342C210.062 217.355 209.898 217.33 209.747 217.268C209.596 217.206 209.462 217.11 209.355 216.987C209.118 216.69 209.004 216.313 209.037 215.934C209.038 215.435 209.146 214.942 209.355 214.489C209.573 213.989 209.866 213.527 210.224 213.117C210.573 212.713 210.987 212.369 211.448 212.101C211.816 211.868 212.238 211.737 212.673 211.721C212.837 211.709 213.002 211.735 213.155 211.796C213.307 211.858 213.444 211.954 213.554 212.076C213.795 212.377 213.914 212.757 213.885 213.142C213.876 213.633 213.764 214.117 213.554 214.562C213.331 215.065 213.034 215.531 212.673 215.946C212.322 216.345 211.908 216.684 211.448 216.95C211.081 217.184 210.659 217.319 210.224 217.342ZM209.833 223.942C209.837 223.861 209.858 223.782 209.894 223.71L216.896 209.468C216.944 209.355 217.005 209.248 217.08 209.15C217.15 209.068 217.233 208.998 217.325 208.941L218.769 208.109C218.825 208.089 218.885 208.089 218.941 208.109C218.965 208.115 218.985 208.129 218.999 208.15C219.012 208.17 219.018 208.195 219.014 208.219C219.011 208.302 218.985 208.382 218.941 208.452L211.914 222.767C211.852 222.889 211.791 222.975 211.755 223.036C211.685 223.104 211.607 223.162 211.522 223.208L210.065 224.052C209.906 224.101 209.833 224.089 209.833 223.942ZM212.281 214.905C212.495 214.586 212.614 214.212 212.624 213.827C212.624 213.46 212.514 213.227 212.281 213.129C212.132 213.085 211.974 213.076 211.821 213.104C211.668 213.131 211.524 213.195 211.4 213.289C211.038 213.495 210.734 213.79 210.518 214.146C210.297 214.472 210.173 214.854 210.163 215.248C210.144 215.383 210.168 215.521 210.231 215.642C210.295 215.763 210.396 215.861 210.518 215.921C210.667 215.966 210.825 215.975 210.978 215.947C211.131 215.919 211.275 215.856 211.4 215.762C211.776 215.559 212.096 215.264 212.33 214.905H212.281ZM216.174 220.391C216.01 220.401 215.846 220.374 215.693 220.312C215.541 220.251 215.404 220.156 215.293 220.036C215.055 219.738 214.937 219.363 214.962 218.983C214.97 218.491 215.083 218.007 215.293 217.562C215.516 217.06 215.813 216.593 216.174 216.179C216.527 215.782 216.94 215.443 217.398 215.174C217.766 214.941 218.187 214.806 218.622 214.783C218.785 214.772 218.949 214.797 219.101 214.856C219.254 214.915 219.391 215.007 219.504 215.125C219.746 215.425 219.865 215.806 219.834 216.191C219.828 216.686 219.715 217.175 219.504 217.624C219.28 218.118 218.983 218.577 218.622 218.983C218.277 219.391 217.863 219.735 217.398 219.999C217.046 220.228 216.642 220.363 216.223 220.391H216.174ZM218.267 217.942C218.489 217.616 218.612 217.234 218.622 216.84C218.64 216.705 218.615 216.567 218.552 216.447C218.488 216.326 218.389 216.228 218.267 216.166C218.115 216.127 217.956 216.122 217.801 216.152C217.647 216.181 217.501 216.245 217.374 216.338C217.021 216.547 216.723 216.836 216.504 217.183C216.283 217.504 216.159 217.882 216.149 218.273C216.149 218.64 216.26 218.86 216.504 218.958C216.652 218.997 216.807 219.003 216.957 218.976C217.107 218.948 217.249 218.888 217.374 218.799C217.749 218.599 218.072 218.314 218.316 217.966L218.267 217.942Z" fill="black"/>
<path d="M209.771 325.58L221.585 318.76C223.311 317.768 224.694 318.197 224.694 319.715C224.567 320.663 224.219 321.567 223.679 322.356C223.139 323.145 222.422 323.796 221.585 324.258L209.783 331.078C208.057 332.07 206.662 331.641 206.662 330.123C206.795 329.177 207.145 328.275 207.684 327.487C208.224 326.699 208.938 326.046 209.771 325.58Z" fill="#F5F5F5"/>
<path d="M268.52 291.647L280.334 284.827C282.048 283.836 283.444 284.264 283.444 285.782C283.31 286.728 282.96 287.63 282.421 288.418C281.882 289.206 281.167 289.859 280.334 290.325L268.52 297.194C266.806 298.186 265.411 297.757 265.411 296.239C265.539 295.285 265.886 294.374 266.426 293.578C266.965 292.781 267.682 292.12 268.52 291.647Z" fill="#F5F5F5"/>
<path d="M313.412 265.76L325.226 258.94C326.94 257.948 328.336 258.377 328.336 259.895C328.202 260.841 327.852 261.743 327.313 262.531C326.774 263.319 326.059 263.971 325.226 264.438L313.412 271.258C311.699 272.25 310.303 271.833 310.303 270.315C310.435 269.367 310.785 268.463 311.324 267.673C311.864 266.883 312.578 266.228 313.412 265.76Z" fill="#F5F5F5"/>
<path d="M357.628 240.192L369.441 233.372C371.167 232.38 372.563 232.796 372.551 234.314C372.425 235.264 372.078 236.171 371.538 236.962C370.998 237.753 370.28 238.406 369.441 238.869L357.64 245.689C355.914 246.681 354.518 246.253 354.518 244.734C354.651 243.789 355.001 242.887 355.541 242.099C356.08 241.311 356.794 240.658 357.628 240.192Z" fill="#F5F5F5"/>
<path d="M439.829 173.111C436.805 172.89 432.606 172.878 428.456 179.662C424.306 186.446 413.031 205.109 413.031 205.109L420.376 210.08L433.23 192.018C433.23 192.018 434.454 177.58 436.829 175.56C439.204 173.539 439.829 173.111 439.829 173.111Z" fill="#F28F8F"/>
<path d="M450.012 309.709L443.117 311.942L446.364 321.972L453.259 319.739L450.012 309.709Z" fill="#FFA8A7"/>
<path d="M444.984 317.609C445.027 318.431 444.818 319.247 444.384 319.948C443.287 321.773 441.994 323.473 440.528 325.017C438.459 327.234 435.362 329.916 433.183 331.789C431.958 332.867 431.897 334.496 433.66 335.059C436.941 335.865 440.407 335.383 443.343 333.712C445.547 332.487 448.681 327.075 450.505 326.242C452.611 325.299 453.798 324.822 454.508 323.793C455.046 323.24 455.381 322.522 455.458 321.755C455.536 320.988 455.352 320.217 454.937 319.568C453.945 317.719 452.488 314.878 451.84 315.196L452.023 315.772C451.546 317.278 447.445 319.029 445.339 318.613L444.984 317.609Z" fill="#263238"/>
<path d="M451.997 315.833C450.05 315.233 449.462 316.262 447.357 315.833L444.982 317.609C445.031 318.432 444.822 319.25 444.382 319.947C443.285 321.773 441.992 323.473 440.526 325.017C439.51 326.095 438.261 327.27 437 328.421C435.984 330.013 439.375 330.479 441.248 329.94C443.303 329.204 445.076 327.842 446.316 326.046C447.675 324.258 451.372 320.107 451.923 318.698C452.32 317.789 452.346 316.761 451.997 315.833Z" fill="#FFA8A7"/>
<path d="M475.157 214.415C474.153 207.068 471.901 198.496 468.938 185.308C467.873 180.544 466.49 176.246 463.087 174.923C463.087 174.923 453.746 178.768 453.746 185.675C453.746 192.581 461.299 196.12 461.299 196.12L465.608 210.987L472.44 219.277C473.428 218.967 474.26 218.291 474.765 217.387C475.271 216.483 475.411 215.42 475.157 214.415Z" fill="#FFA8A7"/>
<path d="M460.567 326.07H453.527V336.319H460.567V326.07Z" fill="#FFA8A7"/>
<path d="M465.866 221.591C468.657 233.542 465.939 249.67 464.984 259.724C464.054 269.52 462.903 280.97 462.903 280.97C462.903 280.97 465.902 291.317 465.756 299.338C465.609 307.812 460.651 328.213 460.651 328.213C459.574 328.907 458.32 329.275 457.039 329.275C455.758 329.275 454.505 328.907 453.428 328.213C453.428 328.213 452.204 311.069 450.979 301.371C449.755 291.207 449.363 283.811 448.323 277.872C447.013 270.524 444.821 239.2 444.821 239.2L441.051 270.255C443.312 273.975 445.074 277.977 446.291 282.157C447.833 288.17 451.187 312.037 451.187 312.037C449.089 313.918 446.39 314.99 443.573 315.061C443.573 315.061 428.49 279.219 426.434 275.643C424.23 271.834 423.9 230.126 427.413 219.68L465.866 221.591Z" fill="#455A64"/>
<path d="M452.974 173.27C452.974 173.27 461.886 174.385 463.086 174.924C453.745 181.499 461.299 196.121 461.299 196.121L456.781 208.574L465.853 221.555C463.245 224.567 446.657 235.025 428.857 223.563C429.217 217.516 429.915 211.494 430.95 205.525C428.379 193.28 428.11 189.373 428.857 186.496C430.95 178.401 435.737 173.234 441.234 172.927L452.974 173.27Z" fill="#34A573"/>
<path opacity="0.7" d="M452.974 173.27C452.974 173.27 461.886 174.385 463.086 174.924C453.745 181.499 461.299 196.121 461.299 196.121L456.781 208.574L465.853 221.555C463.245 224.567 446.657 235.025 428.857 223.563C429.217 217.516 429.915 211.494 430.95 205.525C428.379 193.28 428.11 189.373 428.857 186.496C430.95 178.401 435.737 173.234 441.234 172.927L452.974 173.27Z" fill="white"/>
<path d="M407.827 195.177L438.187 203.186L447.149 240.878L418.282 232.49L407.827 195.177Z" fill="#34A573"/>
<path d="M421.059 220.122C420.777 220.893 419.124 223.023 415.586 222.864L415.146 221.297L421.059 220.122Z" fill="#34A573"/>
<path opacity="0.2" d="M421.059 220.122C420.777 220.893 419.124 223.023 415.586 222.864L415.146 221.297L421.059 220.122Z" fill="black"/>
<path d="M427.856 221.273C427.978 222.277 430.047 224.137 433.536 225.3C437.515 226.635 443.599 225.925 443.599 225.925L443.06 224.052L427.856 221.273Z" fill="#34A573"/>
<path opacity="0.2" d="M427.856 221.273C427.978 222.277 430.047 224.137 433.536 225.3C437.515 226.635 443.599 225.925 443.599 225.925L443.06 224.052L427.856 221.273Z" fill="black"/>
<path d="M416.714 200.638L416.469 199.488C416.322 198.839 418.109 198.814 420.448 199.414L424.916 200.577C427.254 201.189 429.262 202.193 429.397 202.83L429.654 203.993L416.714 200.638Z" fill="#34A573"/>
<path opacity="0.3" d="M416.714 200.638L416.469 199.488C416.322 198.839 418.109 198.814 420.448 199.414L424.916 200.577C427.254 201.189 429.262 202.193 429.397 202.83L429.654 203.993L416.714 200.638Z" fill="black"/>
<path d="M414.61 196.266C414.524 195.875 415.246 195.765 416.226 196.034L418.001 196.524C418.001 196.524 417.462 194.075 421.404 194.895C422.451 195.042 423.443 195.457 424.281 196.101C425.12 196.745 425.778 197.595 426.191 198.568L428.076 199.107C429.129 199.4 430.072 199.964 430.194 200.331L430.414 201.053L414.781 196.94C414.781 196.94 414.695 196.67 414.61 196.266Z" fill="#455A64"/>
<path d="M416.765 197.516C418.198 197.871 418.797 198.055 419.006 199.046C419.214 200.038 419.348 200.993 419.348 200.993L426.277 202.829C426.277 202.829 425.947 201.397 425.837 200.846C425.726 200.295 425.959 199.952 427.061 200.246L427.159 199.805L416.312 197.039L416.765 197.516Z" fill="#455A64"/>
<path d="M416.567 200.749C416.567 200.749 416.456 200.235 416.31 199.525C416.163 198.815 417.95 198.864 420.288 199.525L424.769 200.688C427.107 201.3 429.103 202.304 429.249 202.94L429.494 204.103L416.567 200.749Z" fill="#455A64"/>
<path d="M472.44 219.277L465.609 210.987C465.609 210.987 450.233 217.44 447.809 217.624C445.385 217.807 443.512 215.432 442.581 213.068C441.651 210.705 439.815 210.999 439.815 210.999C439.815 210.999 440.537 213.999 440.757 214.966C440.978 215.934 435.432 216.705 432.188 215.615C428.944 214.526 424.328 216.105 427.217 220.514C430.107 224.922 435.689 225.412 439.582 225.412C441.219 225.4 442.855 225.289 444.479 225.081C445.703 224.922 446.927 224.787 448.262 224.702C456.207 224.089 468.816 220.403 472.44 219.277Z" fill="#FFA8A7"/>
<path d="M410.912 206.198L412.259 211.011C412.528 211.929 416.054 213.619 418.282 214.231C420.51 214.844 422.958 215.566 421.954 218.689C420.975 221.567 417.302 222.228 415.429 222.142C413.556 222.056 411.01 220.281 409.994 217.391C408.77 213.717 409.406 209.799 408.892 207.594C408.378 205.39 409.798 204.925 410.912 206.198Z" fill="#FFA8A7"/>
<path d="M453.526 332.855V331.838C452.656 335.17 450.92 338.212 448.495 340.655C446.267 342.688 443.243 345.027 442.472 347.28C441.7 349.533 446.046 350.562 448.923 350.28C451.707 349.929 454.272 348.586 456.146 346.496C457.97 344.402 457.933 342.97 458.79 341.819C459.647 340.667 461.606 339.369 462.071 338.035C462.209 336.795 462.071 335.541 461.667 334.361C461.337 333.136 460.982 331.753 460.566 331.912V332.683C459.564 333.481 458.32 333.913 457.04 333.908C456.011 333.847 453.514 333.638 453.526 332.855Z" fill="#263238"/>
<path d="M460.565 332.61C460.051 333.173 459.793 331.789 458.202 331.838C457.174 331.838 455.447 332.622 455.447 331.838H453.525C452.655 335.169 450.919 338.211 448.494 340.654C447.955 341.144 447.38 341.646 446.792 342.16C445.568 343.483 445.948 344.609 448.727 344.866C451.505 345.123 453.942 343.434 456.072 340.85C457.85 338.265 459.355 335.504 460.565 332.61Z" fill="#FFA8A7"/>
<path d="M446.879 167.245H445.214C440.96 167.245 436.881 165.555 433.874 162.547C430.866 159.538 429.177 155.458 429.177 151.204V149.575C429.177 145.96 430.612 142.494 433.167 139.938C435.723 137.382 439.188 135.946 442.802 135.946H449.364C452.978 135.946 456.443 137.382 458.999 139.938C461.554 142.494 462.989 145.96 462.989 149.575V151.118C462.989 155.393 461.292 159.493 458.271 162.517C455.25 165.542 451.153 167.242 446.879 167.245Z" fill="#263238"/>
<path d="M434.733 142.791C432.946 143.844 430.742 148.338 430.962 157.755C431.146 165.739 433.729 167.711 435.027 168.286C436.324 168.862 438.834 168.507 441.27 168.102V172.89C441.27 172.89 437.904 176.809 438.124 179.013C438.344 181.217 443.021 181.732 446.13 179.577C448.408 177.813 450.37 175.677 451.933 173.258L451.872 162.237C451.872 162.237 453.304 163.633 455.741 161.502C457.748 159.751 458.422 156.787 456.855 155.208C456.45 154.83 455.962 154.553 455.429 154.401C454.897 154.249 454.336 154.226 453.793 154.334C453.25 154.441 452.741 154.677 452.306 155.02C451.872 155.364 451.526 155.806 451.297 156.31C448.1 156.18 444.986 155.254 442.237 153.616C440.226 152.525 438.5 150.978 437.196 149.097C435.893 147.217 435.049 145.057 434.733 142.791Z" fill="#FFA8A7"/>
<path d="M439.827 155.759C439.817 155.892 439.834 156.026 439.876 156.153C439.918 156.28 439.984 156.398 440.072 156.499C440.16 156.601 440.266 156.683 440.386 156.743C440.506 156.803 440.636 156.839 440.77 156.848C441.044 156.855 441.309 156.753 441.509 156.565C441.708 156.377 441.825 156.118 441.835 155.844C441.846 155.578 441.751 155.318 441.571 155.122C441.482 155.025 441.374 154.946 441.255 154.89C441.135 154.835 441.006 154.803 440.874 154.798C440.608 154.786 440.348 154.881 440.151 155.061C439.955 155.241 439.838 155.492 439.827 155.759Z" fill="#263238"/>
<path d="M439.604 162.494L437.278 163.24C437.369 163.549 437.578 163.81 437.86 163.966C438.142 164.122 438.474 164.16 438.784 164.073C438.944 164.027 439.094 163.949 439.223 163.844C439.352 163.738 439.458 163.608 439.534 163.46C439.611 163.312 439.657 163.15 439.669 162.984C439.681 162.818 439.659 162.651 439.604 162.494Z" fill="#F28F8F"/>
<path d="M431.653 152.697L433.685 151.289C433.505 151.02 433.227 150.834 432.911 150.77C432.594 150.705 432.265 150.769 431.995 150.946C431.854 151.035 431.732 151.152 431.638 151.29C431.543 151.427 431.478 151.583 431.446 151.747C431.413 151.911 431.415 152.08 431.451 152.243C431.486 152.407 431.555 152.561 431.653 152.697Z" fill="#263238"/>
<path d="M432.117 155.024C432.114 155.22 432.17 155.414 432.277 155.579C432.384 155.745 432.537 155.875 432.717 155.954C432.898 156.033 433.097 156.057 433.291 156.024C433.485 155.99 433.665 155.9 433.809 155.765C433.952 155.63 434.053 155.456 434.098 155.264C434.143 155.073 434.13 154.872 434.062 154.687C433.994 154.502 433.873 154.342 433.714 154.225C433.556 154.109 433.366 154.042 433.169 154.032C433.035 154.027 432.901 154.049 432.775 154.096C432.649 154.144 432.534 154.215 432.436 154.308C432.338 154.4 432.259 154.511 432.204 154.634C432.15 154.756 432.12 154.889 432.117 155.024Z" fill="#263238"/>
<path d="M436.855 154.46L436.696 160.496L433.513 159.504L436.855 154.46Z" fill="#F28F8F"/>
<path d="M441.273 168.101C443.844 167.759 449.121 166.241 449.941 164.159C449.613 165.218 448.968 166.149 448.092 166.828C446.513 168.175 441.273 169.693 441.273 169.693V168.101Z" fill="#F28F8F"/>
<path d="M459.455 201.215L452.428 210.741L456.786 208.573L459.455 201.215Z" fill="#34A573"/>
<path opacity="0.3" d="M459.455 201.215L452.428 210.741L456.786 208.573L459.455 201.215Z" fill="white"/>
</g>
<defs>
<clipPath id="clip0_68_2563">
<rect width="530" height="530" fill="white"/>
</clipPath>
</defs>
</svg>
