<svg width="237" height="168" viewBox="0 0 237 168" fill="none" xmlns="http://www.w3.org/2000/svg">
<path d="M33.5243 150.487C78.2261 173.838 150.696 173.838 195.393 150.487C240.089 127.137 240.095 89.2756 195.393 65.9251C150.691 42.5746 78.2208 42.5746 33.5243 65.9251C-11.1721 89.2756 -11.1774 127.137 33.5243 150.487Z" fill="#FAFAFA"/>
<path d="M140.817 118.873C130.301 124.939 130.301 134.781 140.817 140.852C151.332 146.923 168.372 146.923 178.887 140.852C189.402 134.781 189.397 124.939 178.887 118.873C168.377 112.807 151.327 112.802 140.817 118.873Z" fill="#EBEBEB"/>
<path d="M30.105 31.8621L58.2728 23.1023L36.6028 38.1145L30.105 31.8621Z" fill="#34A573"/>
<path d="M58.2731 23.1024L27.9331 28.1065L21.4351 21.8488L58.2731 23.1024Z" fill="#34A573"/>
<path d="M27.9331 28.1064V35.6124L30.1044 31.8621L58.2722 23.1023L27.9331 28.1064Z" fill="#455A64"/>
<path d="M27.9331 35.6124L32.2703 33.948L30.1044 31.8621L27.9331 35.6124Z" fill="#34A573"/>
<path d="M30.105 31.8621L32.2709 33.948L31.5774 34.2094L30.105 31.8621Z" fill="#455A64"/>
<path d="M23.265 34.4816C23.1753 34.4833 23.0877 34.4548 23.0161 34.4007C22.9446 34.3465 22.8933 34.2699 22.8705 34.1832C22.8478 34.0964 22.8548 34.0045 22.8906 33.9222C22.9263 33.8399 22.9887 33.772 23.0676 33.7294C23.5478 33.4627 24.0332 33.1959 24.5134 32.9879C24.561 32.9621 24.6133 32.9463 24.6672 32.9414C24.7211 32.9364 24.7755 32.9425 24.827 32.9591C24.8785 32.9758 24.926 33.0028 24.9668 33.0384C25.0076 33.074 25.0408 33.1175 25.0642 33.1662C25.0877 33.215 25.1011 33.268 25.1034 33.3221C25.1058 33.3762 25.0972 33.4302 25.0782 33.4808C25.0591 33.5315 25.0299 33.5778 24.9924 33.6168C24.955 33.6559 24.9099 33.6869 24.8601 33.7081C24.396 33.9322 23.9212 34.1722 23.4571 34.4336C23.3977 34.4645 23.3319 34.4809 23.265 34.4816Z" fill="#E0E0E0"/>
<path d="M18.3411 77.5657C18.2593 77.5666 18.1793 77.5424 18.1117 77.4964C17.244 76.8847 16.4221 76.2108 15.6523 75.4798C15.6035 75.4481 15.5622 75.4062 15.5313 75.357C15.5004 75.3077 15.4806 75.2523 15.4732 75.1946C15.4659 75.1369 15.4712 75.0783 15.4889 75.0229C15.5065 74.9675 15.536 74.9166 15.5753 74.8737C15.6146 74.8308 15.6628 74.7971 15.7165 74.7747C15.7702 74.7524 15.8282 74.7421 15.8863 74.7444C15.9444 74.7467 16.0013 74.7617 16.053 74.7883C16.1047 74.8149 16.1501 74.8524 16.1858 74.8983C16.9283 75.6031 17.7218 76.2522 18.5598 76.8402C18.6289 76.8896 18.6804 76.9597 18.707 77.0403C18.7336 77.121 18.7338 77.208 18.7077 77.2888C18.6816 77.3696 18.6304 77.4399 18.5616 77.4897C18.4928 77.5395 18.41 77.5661 18.3251 77.5657H18.3411ZM14.1586 73.682C14.0995 73.6826 14.041 73.67 13.9875 73.6451C13.9339 73.6202 13.8867 73.5835 13.8492 73.5379C13.1769 72.7175 12.5654 71.8492 12.0193 70.9399C11.9641 70.8486 11.9475 70.7392 11.973 70.6356C11.9985 70.5321 12.0641 70.4429 12.1554 70.3877C12.2466 70.3325 12.3561 70.3159 12.4596 70.3414C12.5632 70.3669 12.6523 70.4325 12.7075 70.5238C13.2335 71.4006 13.8218 72.2386 14.468 73.0311C14.5346 73.1127 14.5664 73.2173 14.5564 73.3222C14.5464 73.427 14.4955 73.5237 14.4146 73.5913C14.3432 73.6517 14.2521 73.6839 14.1586 73.682ZM11.1551 68.8273C11.0776 68.828 11.0015 68.8062 10.9362 68.7645C10.8708 68.7229 10.819 68.6631 10.787 68.5926C10.351 67.6268 9.97684 66.6343 9.66666 65.6211C9.6439 65.5225 9.65932 65.419 9.70982 65.3313C9.76032 65.2436 9.84216 65.1784 9.93885 65.1486C10.0355 65.1189 10.1399 65.1268 10.231 65.1709C10.322 65.2151 10.393 65.292 10.4295 65.3863C10.7245 66.3663 11.0808 67.3267 11.4965 68.2618C11.5189 68.3097 11.5315 68.3616 11.5337 68.4145C11.5358 68.4674 11.5275 68.5201 11.5091 68.5697C11.4908 68.6193 11.4628 68.6648 11.4267 68.7035C11.3907 68.7422 11.3473 68.7734 11.2991 68.7953C11.2537 68.8154 11.2047 68.8263 11.1551 68.8273ZM9.42126 63.3804C9.32873 63.3796 9.23935 63.3467 9.16834 63.2874C9.09733 63.228 9.04909 63.1459 9.03182 63.055C8.82817 62.0185 8.6839 60.9711 8.5997 59.9181C8.59121 59.812 8.62522 59.7069 8.69425 59.6258C8.76329 59.5448 8.86168 59.4945 8.9678 59.486C9.07392 59.4775 9.17906 59.5115 9.2601 59.5806C9.34114 59.6496 9.39143 59.748 9.39992 59.8541C9.4784 60.8768 9.61734 61.894 9.81604 62.9003C9.82687 62.9519 9.82729 63.005 9.81725 63.0567C9.80722 63.1085 9.78694 63.1576 9.75761 63.2014C9.72828 63.2451 9.69049 63.2826 9.64647 63.3115C9.60244 63.3404 9.55308 63.3602 9.50128 63.3698L9.42126 63.3804ZM8.91445 57.6829C8.8617 57.6829 8.80948 57.6723 8.76087 57.6518C8.71227 57.6313 8.66826 57.6013 8.63146 57.5635C8.59466 57.5257 8.56581 57.4809 8.54661 57.4318C8.52741 57.3826 8.51825 57.3301 8.51968 57.2774C8.53215 56.2215 8.60339 55.1672 8.73307 54.1192C8.73368 54.0629 8.74615 54.0075 8.76965 53.9563C8.79316 53.9052 8.82718 53.8597 8.86949 53.8226C8.9118 53.7855 8.96146 53.7578 9.01522 53.7412C9.06897 53.7246 9.12562 53.7196 9.18146 53.7264C9.23731 53.7332 9.29109 53.7516 9.3393 53.7806C9.38752 53.8096 9.42908 53.8484 9.46127 53.8946C9.49346 53.9407 9.51557 53.9931 9.52614 54.0484C9.53671 54.1036 9.53551 54.1605 9.52262 54.2152C9.39928 55.2351 9.3316 56.2609 9.3199 57.2881C9.3192 57.3406 9.30816 57.3925 9.28741 57.4408C9.26666 57.4891 9.2366 57.5328 9.19895 57.5695C9.1613 57.6061 9.11679 57.635 9.06798 57.6545C9.01917 57.6739 8.967 57.6836 8.91445 57.6829ZM9.5653 52.0013C9.53529 52.0065 9.50462 52.0065 9.47461 52.0013C9.37151 51.9783 9.28169 51.9155 9.22473 51.8265C9.16776 51.7376 9.14828 51.6297 9.17052 51.5265C9.40428 50.4931 9.70364 49.4756 10.0668 48.4803C10.0845 48.4284 10.1126 48.3806 10.1495 48.34C10.1865 48.2994 10.2313 48.2669 10.2814 48.2444C10.3314 48.2218 10.3855 48.2099 10.4404 48.2091C10.4952 48.2084 10.5497 48.219 10.6003 48.2402C10.6517 48.2586 10.699 48.2871 10.7391 48.3242C10.7793 48.3612 10.8116 48.406 10.834 48.4558C10.8564 48.5056 10.8685 48.5595 10.8696 48.6141C10.8707 48.6687 10.8607 48.723 10.8403 48.7737C10.4903 49.7361 10.2016 50.7196 9.97608 51.7185C9.94973 51.8052 9.89475 51.8804 9.82013 51.9317C9.74551 51.9831 9.65567 52.0076 9.5653 52.0013ZM11.4645 46.6131C11.403 46.6155 11.342 46.6008 11.2884 46.5704C11.2407 46.5482 11.1979 46.5166 11.1626 46.4775C11.1272 46.4385 11.1 46.3928 11.0826 46.3431C11.0652 46.2933 11.058 46.2406 11.0612 46.1881C11.0645 46.1355 11.0783 46.0841 11.1017 46.037C11.5674 45.0862 12.0912 44.1651 12.6702 43.2789C12.7285 43.1962 12.8159 43.1387 12.9149 43.1179C13.0138 43.0972 13.117 43.1146 13.2036 43.1668C13.2882 43.2235 13.3476 43.3106 13.3695 43.41C13.3914 43.5094 13.374 43.6134 13.321 43.7003C12.7582 44.5564 12.2504 45.4473 11.8006 46.3677C11.773 46.4359 11.7269 46.4949 11.6675 46.5383C11.6081 46.5817 11.5378 46.6076 11.4645 46.6131ZM14.532 41.8118C14.4428 41.8127 14.356 41.7825 14.2866 41.7264C14.245 41.6937 14.2103 41.653 14.1846 41.6068C14.1588 41.5605 14.1425 41.5096 14.1365 41.457C14.1306 41.4045 14.1351 41.3512 14.1499 41.3004C14.1647 41.2495 14.1894 41.2021 14.2226 41.1609C14.8893 40.3374 15.6017 39.5519 16.3565 38.8083C16.4315 38.7334 16.5332 38.6913 16.6393 38.6913C16.7453 38.6913 16.847 38.7334 16.922 38.8083C16.9969 38.8833 17.039 38.985 17.039 39.091C17.039 39.1971 16.9969 39.2988 16.922 39.3738C16.195 40.0991 15.5076 40.8631 14.8628 41.6624C14.8214 41.7081 14.77 41.7434 14.7126 41.7657C14.6551 41.7879 14.5933 41.7964 14.532 41.7904V41.8118ZM18.5438 37.7146C18.4856 37.7145 18.4282 37.7015 18.3756 37.6766C18.3231 37.6517 18.2767 37.6155 18.2397 37.5706C18.1721 37.4888 18.1393 37.3838 18.1483 37.2781C18.1573 37.1723 18.2073 37.0743 18.2877 37.0051C19.0999 36.3298 19.9456 35.6959 20.8218 35.1059C20.9078 35.0532 21.0105 35.0349 21.1094 35.0546C21.2083 35.0744 21.2961 35.1309 21.3552 35.2126C21.4148 35.3012 21.437 35.4097 21.417 35.5146C21.397 35.6195 21.3365 35.7123 21.2485 35.7728C20.3938 36.3467 19.5693 36.9646 18.7785 37.624C18.7115 37.6777 18.6295 37.7094 18.5438 37.7146Z" fill="#E0E0E0"/>
<path d="M22.0109 79.6514C21.9537 79.6518 21.8971 79.639 21.8456 79.614C21.3494 79.39 20.8586 79.1499 20.3892 78.8938C20.3433 78.8697 20.3026 78.8367 20.2694 78.7968C20.2363 78.7569 20.2113 78.7109 20.1959 78.6614C20.1806 78.6118 20.1751 78.5597 20.1799 78.5081C20.1847 78.4564 20.1996 78.4062 20.2238 78.3604C20.2736 78.2687 20.3572 78.2001 20.4569 78.1692C20.5566 78.1383 20.6643 78.1476 20.7573 78.195C21.2161 78.4404 21.6909 78.6751 22.171 78.8938C22.2533 78.9321 22.3202 78.9973 22.3606 79.0787C22.401 79.16 22.4125 79.2526 22.3933 79.3414C22.374 79.4301 22.3252 79.5097 22.2547 79.567C22.1843 79.6243 22.0964 79.656 22.0056 79.6567L22.0109 79.6514Z" fill="#E0E0E0"/>
<path d="M204.495 60.2914L227.061 45.8447L237 49.0349L204.495 60.2914Z" fill="#34A573"/>
<path d="M204.495 60.2912L223.999 44.0307L219.662 39.0266L204.495 60.2912Z" fill="#34A573"/>
<path d="M223.999 44.031V47.8027L204.495 60.2915L223.999 44.031Z" fill="#455A64"/>
<path d="M228.401 42.457C228.304 42.4573 228.211 42.4211 228.139 42.3556C228.06 42.2849 228.012 42.1862 228.005 42.0805C227.998 41.9748 228.033 41.8706 228.102 41.7901C228.797 41.0152 229.413 40.1735 229.942 39.2774C229.996 39.1855 230.084 39.1186 230.187 39.0916C230.29 39.0646 230.4 39.0796 230.492 39.1334C230.584 39.1872 230.651 39.2752 230.678 39.3783C230.705 39.4813 230.69 39.5909 230.636 39.6829C230.077 40.6222 229.431 41.5065 228.705 42.3236C228.667 42.3663 228.62 42.4003 228.567 42.4233C228.515 42.4463 228.458 42.4578 228.401 42.457ZM231.452 37.4849C231.405 37.4925 231.356 37.4925 231.308 37.4849C231.258 37.4656 231.212 37.4363 231.173 37.3987C231.134 37.3611 231.103 37.316 231.082 37.2661C231.061 37.2162 231.051 37.1626 231.051 37.1086C231.051 37.0545 231.063 37.001 231.084 36.9515C231.461 35.9797 231.743 34.9739 231.927 33.9479C231.946 33.8432 232.006 33.7504 232.094 33.6899C232.181 33.6294 232.289 33.6061 232.394 33.6252C232.499 33.6443 232.591 33.7042 232.652 33.7917C232.712 33.8793 232.736 33.9873 232.717 34.092C232.52 35.167 232.222 36.221 231.826 37.2395C231.796 37.3134 231.744 37.3763 231.677 37.4202C231.61 37.464 231.532 37.4865 231.452 37.4849ZM232.594 31.7607C232.542 31.76 232.49 31.7489 232.442 31.7281C232.394 31.7073 232.351 31.6771 232.314 31.6394C232.278 31.6017 232.25 31.5571 232.231 31.5083C232.212 31.4596 232.203 31.4075 232.205 31.3552C232.205 31.2165 232.205 31.0778 232.205 30.9391C232.202 30.0334 232.131 29.1292 231.991 28.2344C231.976 28.1291 232.002 28.022 232.065 27.9362C232.128 27.8503 232.222 27.7926 232.327 27.7756C232.432 27.7616 232.539 27.7887 232.624 27.8514C232.71 27.914 232.768 28.0073 232.786 28.1117C232.93 29.0473 233.003 29.9925 233.005 30.9391C233.005 31.0832 233.005 31.2272 233.005 31.3712C233.001 31.4769 232.955 31.5767 232.879 31.6495C232.802 31.7223 232.7 31.7621 232.594 31.7607ZM231.788 25.9777C231.703 25.9774 231.619 25.9492 231.551 25.8972C231.482 25.8452 231.433 25.7723 231.41 25.6897C231.104 24.6887 230.72 23.713 230.263 22.7715C230.239 22.7243 230.225 22.673 230.222 22.6204C230.219 22.5678 230.226 22.5151 230.243 22.4654C230.261 22.4157 230.288 22.37 230.323 22.3309C230.359 22.2919 230.402 22.2603 230.449 22.238C230.545 22.1922 230.655 22.1861 230.755 22.2211C230.855 22.2561 230.937 22.3293 230.983 22.4247C231.46 23.4031 231.858 24.4182 232.173 25.4603C232.188 25.5103 232.193 25.563 232.188 25.6152C232.183 25.6674 232.168 25.7181 232.143 25.7643C232.118 25.8105 232.085 25.8512 232.044 25.8842C232.003 25.9172 231.956 25.9417 231.906 25.9564C231.868 25.9712 231.829 25.9784 231.788 25.9777ZM229.313 20.6803C229.246 20.6809 229.179 20.664 229.12 20.6313C229.061 20.5985 229.012 20.5511 228.977 20.4935C228.405 19.6156 227.776 18.7762 227.094 17.9809C227.059 17.941 227.033 17.8947 227.016 17.8446C227 17.7946 226.993 17.7418 226.997 17.6892C227.001 17.6367 227.016 17.5855 227.04 17.5385C227.063 17.4915 227.096 17.4496 227.136 17.4154C227.176 17.3811 227.222 17.355 227.271 17.3385C227.321 17.3221 227.373 17.3157 227.425 17.3197C227.477 17.3236 227.528 17.3379 227.575 17.3617C227.621 17.3854 227.663 17.4182 227.696 17.458C228.405 18.2813 229.057 19.1511 229.649 20.0614C229.698 20.1493 229.714 20.2521 229.692 20.3505C229.67 20.4489 229.613 20.5358 229.532 20.5949C229.468 20.6419 229.392 20.6696 229.313 20.6749V20.6803ZM225.578 16.1937C225.477 16.1934 225.379 16.1531 225.306 16.0817C224.538 15.3627 223.731 14.6859 222.89 14.0544C222.848 14.0229 222.812 13.9834 222.785 13.9382C222.759 13.893 222.741 13.8429 222.734 13.7909C222.726 13.7389 222.729 13.6859 222.742 13.635C222.755 13.5841 222.778 13.5363 222.81 13.4943C222.841 13.4522 222.881 13.4168 222.926 13.3901C222.971 13.3633 223.021 13.3457 223.073 13.3382C223.125 13.3308 223.178 13.3337 223.229 13.3467C223.28 13.3598 223.328 13.3827 223.37 13.4142C224.237 14.0624 225.067 14.7588 225.856 15.5002C225.915 15.5551 225.956 15.6268 225.974 15.7057C225.992 15.7847 225.985 15.8671 225.955 15.9422C225.925 16.0173 225.873 16.0816 225.806 16.1264C225.739 16.1713 225.659 16.1948 225.578 16.1937ZM220.9 12.6407C220.824 12.64 220.75 12.6178 220.686 12.5767C220.324 12.3526 219.945 12.1286 219.561 11.9098C219.027 11.6111 218.494 11.3123 217.928 11.0296C217.876 11.0089 217.83 10.9777 217.791 10.9379C217.752 10.8981 217.722 10.8507 217.702 10.7986C217.683 10.7465 217.674 10.6909 217.678 10.6354C217.681 10.5799 217.695 10.5256 217.721 10.4761C217.746 10.4266 217.781 10.3829 217.825 10.3478C217.868 10.3127 217.918 10.287 217.971 10.2723C218.025 10.2576 218.081 10.2543 218.136 10.2625C218.191 10.2707 218.244 10.2903 218.291 10.3201C218.851 10.6081 219.411 10.9069 219.955 11.2163C220.35 11.435 220.734 11.6644 221.108 11.8992C221.194 11.9542 221.256 12.0401 221.281 12.1394C221.305 12.2386 221.291 12.3435 221.241 12.4326C221.207 12.4935 221.157 12.5446 221.097 12.581C221.038 12.6174 220.97 12.638 220.9 12.6407ZM173.072 12.3686C173.001 12.3679 172.932 12.3488 172.871 12.3132C172.811 12.2777 172.76 12.2269 172.725 12.1659C172.674 12.0758 172.661 11.9695 172.688 11.8698C172.715 11.77 172.78 11.6848 172.869 11.6324C173.797 11.0989 174.752 10.5655 175.718 10.1173C175.813 10.0711 175.922 10.0642 176.022 10.0982C176.122 10.1322 176.204 10.2042 176.251 10.2987C176.296 10.3945 176.301 10.5037 176.266 10.6034C176.231 10.703 176.159 10.7851 176.065 10.8322C175.115 11.2963 174.176 11.7925 173.264 12.3206C173.204 12.3497 173.138 12.3625 173.072 12.358V12.3686ZM215.698 9.93061C215.643 9.93097 215.588 9.91817 215.538 9.89327C214.578 9.47182 213.585 9.07705 212.593 8.72495C212.493 8.68887 212.411 8.61436 212.365 8.51782C212.32 8.42127 212.314 8.31059 212.35 8.21014C212.386 8.10968 212.461 8.02767 212.558 7.98215C212.654 7.93663 212.765 7.93132 212.865 7.9674C213.874 8.33017 214.882 8.73028 215.863 9.1624C215.949 9.1988 216.019 9.26387 216.062 9.34643C216.105 9.42899 216.118 9.52389 216.098 9.61481C216.078 9.70573 216.028 9.78698 215.955 9.84462C215.882 9.90225 215.791 9.93266 215.698 9.93061ZM178.327 9.76524C178.248 9.76577 178.171 9.74268 178.105 9.69894C178.039 9.6552 177.988 9.59282 177.958 9.51984C177.937 9.47091 177.925 9.41809 177.924 9.36451C177.923 9.31093 177.932 9.25768 177.952 9.20792C177.972 9.15817 178.002 9.11291 178.04 9.07485C178.077 9.03679 178.122 9.0067 178.172 8.98635C179.159 8.57024 180.172 8.18613 181.186 7.83937C181.237 7.81826 181.292 7.80792 181.347 7.80897C181.402 7.81003 181.456 7.82247 181.506 7.84551C181.557 7.86856 181.601 7.9017 181.638 7.94288C181.675 7.98405 181.702 8.03236 181.72 8.08477C181.739 8.1362 181.748 8.191 181.746 8.24592C181.744 8.30085 181.73 8.35478 181.707 8.40453C181.684 8.45428 181.651 8.49883 181.61 8.53554C181.569 8.57225 181.521 8.60037 181.469 8.61825C180.471 8.95968 179.468 9.33845 178.503 9.7439C178.445 9.75983 178.385 9.76346 178.327 9.75456V9.76524ZM210.192 7.91939C210.155 7.92458 210.118 7.92458 210.08 7.91939C209.072 7.62598 208.037 7.38591 207.007 7.13517C206.956 7.12396 206.907 7.10272 206.864 7.07266C206.821 7.0426 206.784 7.00431 206.755 6.95997C206.727 6.91563 206.707 6.86612 206.698 6.81426C206.688 6.7624 206.689 6.7092 206.701 6.65771C206.712 6.60622 206.733 6.55744 206.763 6.51415C206.793 6.47087 206.832 6.43393 206.876 6.40545C206.92 6.37696 206.97 6.35749 207.022 6.34814C207.073 6.33879 207.127 6.33975 207.178 6.35096C208.245 6.58035 209.28 6.85243 210.304 7.15118C210.397 7.17815 210.477 7.23756 210.529 7.31851C210.581 7.39947 210.602 7.49652 210.588 7.59187C210.575 7.68721 210.527 7.77445 210.455 7.83755C210.382 7.90065 210.289 7.9354 210.192 7.9354V7.91939ZM183.864 7.83937C183.777 7.83904 183.692 7.81019 183.623 7.75722C183.554 7.70425 183.503 7.63005 183.48 7.54595C183.466 7.49586 183.461 7.44337 183.467 7.3915C183.472 7.33964 183.489 7.28944 183.514 7.24379C183.539 7.19815 183.573 7.15798 183.614 7.1256C183.655 7.09322 183.702 7.06927 183.752 7.05515C184.782 6.76707 185.838 6.52167 186.889 6.28694C186.942 6.26994 186.999 6.26429 187.054 6.27035C187.11 6.27642 187.164 6.29406 187.212 6.32215C187.26 6.35023 187.302 6.38813 187.335 6.4334C187.368 6.47868 187.391 6.53032 187.402 6.585C187.414 6.63969 187.414 6.6962 187.402 6.75089C187.391 6.80558 187.368 6.85724 187.335 6.90254C187.302 6.94785 187.26 6.98578 187.212 7.0139C187.164 7.04203 187.11 7.05971 187.055 7.06582C186.02 7.28455 184.985 7.54062 183.971 7.82337L183.864 7.83937ZM204.473 6.6337H204.393C203.353 6.46832 202.291 6.33495 201.246 6.23892C201.191 6.23832 201.136 6.22634 201.086 6.20374C201.036 6.18113 200.991 6.14839 200.954 6.10757C200.917 6.06674 200.888 6.01871 200.871 5.96648C200.853 5.91426 200.847 5.85896 200.851 5.80406C200.856 5.74916 200.872 5.69585 200.899 5.64745C200.925 5.59906 200.961 5.55663 201.005 5.52283C201.048 5.48903 201.098 5.46459 201.152 5.45103C201.205 5.43747 201.261 5.43509 201.315 5.44404C202.382 5.54007 203.449 5.67344 204.516 5.84415C204.62 5.86247 204.713 5.92066 204.775 6.00635C204.836 6.09204 204.862 6.19845 204.847 6.30294C204.828 6.38928 204.781 6.46697 204.714 6.52391C204.646 6.58085 204.562 6.61382 204.473 6.6177V6.6337ZM189.594 6.59636C189.499 6.59631 189.407 6.56248 189.335 6.5009C189.263 6.43933 189.214 6.35403 189.199 6.26026C189.184 6.15499 189.211 6.04788 189.273 5.96205C189.336 5.87623 189.43 5.81855 189.535 5.80147C190.602 5.64143 191.669 5.50805 192.736 5.41736C192.789 5.41281 192.842 5.41865 192.892 5.43455C192.942 5.45045 192.989 5.4761 193.029 5.51003C193.07 5.54397 193.103 5.58552 193.127 5.63232C193.152 5.67912 193.167 5.73025 193.171 5.7828C193.176 5.83534 193.17 5.88827 193.154 5.93855C193.138 5.98884 193.112 6.0355 193.078 6.07588C193.045 6.11625 193.003 6.14955 192.956 6.17386C192.909 6.19817 192.858 6.21303 192.806 6.21759C191.739 6.30828 190.698 6.43098 189.658 6.59636H189.594ZM198.637 6.06288C197.57 6.02553 196.503 6.0202 195.463 6.06288C195.41 6.06576 195.358 6.058 195.308 6.04005C195.259 6.02211 195.214 5.99437 195.175 5.95848C195.137 5.92259 195.106 5.87931 195.085 5.83124C195.064 5.78317 195.052 5.73131 195.052 5.67877C195.05 5.62604 195.058 5.57342 195.077 5.52401C195.095 5.47461 195.123 5.42942 195.16 5.39112C195.196 5.35283 195.24 5.3222 195.288 5.30105C195.336 5.2799 195.388 5.26866 195.441 5.26799C196.508 5.23065 197.575 5.23598 198.642 5.26799C198.695 5.26937 198.746 5.2811 198.794 5.30249C198.843 5.32389 198.886 5.35453 198.922 5.39268C198.958 5.43083 198.986 5.47573 199.005 5.52482C199.024 5.57391 199.033 5.62622 199.032 5.67877C199.024 5.77884 198.979 5.87243 198.906 5.94141C198.833 6.0104 198.737 6.04988 198.637 6.05221V6.06288Z" fill="#E0E0E0"/>
<path d="M196.625 68.0909V67.2374H196.417C196.1 66.6592 195.619 66.1877 195.035 65.8823C193.843 65.2773 192.525 64.962 191.189 64.962C189.852 64.962 188.534 65.2773 187.342 65.8823C186.758 66.1877 186.277 66.6592 185.961 67.2374H185.752V68.0643C185.752 68.8805 186.286 69.702 187.353 70.3262C188.546 70.9283 189.863 71.242 191.199 71.242C192.535 71.242 193.853 70.9283 195.046 70.3262C196.102 69.7234 196.63 68.9018 196.625 68.0909Z" fill="#37474F"/>
<path d="M191.189 70.3794C194.191 70.3794 196.625 68.9726 196.625 67.2372C196.625 65.5018 194.191 64.095 191.189 64.095C188.186 64.095 185.752 65.5018 185.752 67.2372C185.752 68.9726 188.186 70.3794 191.189 70.3794Z" fill="#455A64"/>
<path d="M189.792 41.0754V66.8693C189.803 66.9917 189.847 67.1089 189.918 67.2091C189.989 67.3093 190.086 67.389 190.197 67.4401C190.504 67.5953 190.843 67.6761 191.187 67.6761C191.531 67.6761 191.87 67.5953 192.177 67.4401C192.29 67.3902 192.388 67.311 192.46 67.2106C192.532 67.1102 192.576 66.9924 192.587 66.8693V41.0754H189.792Z" fill="#37474F"/>
<path d="M197.457 21.7688C196.097 20.9846 194.859 20.9206 193.931 21.438L176.651 31.4248L185.32 48.811L202.659 38.7815V31.1741C202.659 27.6371 200.327 23.4279 197.457 21.7688Z" fill="#455A64"/>
<path d="M185.321 41.198V48.8108L174.923 42.8038V35.1963C174.923 31.6594 177.249 30.1389 180.119 31.7981C181.96 32.865 183.576 34.9669 184.499 37.2716C185.016 38.5177 185.294 39.8494 185.321 41.198Z" fill="#37474F"/>
<path d="M185.321 41.1983V48.8111L174.923 42.8041L184.499 37.2719C185.016 38.518 185.294 39.8497 185.321 41.1983Z" fill="#263238"/>
<path d="M183.587 43.8069C182.632 41.0434 179.528 37.4585 176.652 35.8047C173.777 34.1509 172.23 35.0418 173.184 37.8052L174.918 42.8093L185.321 48.8163C185.321 48.8163 184.548 46.5703 183.587 43.8069Z" fill="#455A64"/>
<path d="M190.742 41.4863L190.16 41.1502C190.036 41.0929 189.898 41.0695 189.761 41.0827C189.624 41.0958 189.493 41.1449 189.382 41.2249C189.06 41.4352 188.793 41.7181 188.601 42.0508C188.409 42.3835 188.298 42.7566 188.277 43.1401C188.263 43.2775 188.285 43.4162 188.342 43.5419C188.4 43.6676 188.49 43.7757 188.603 43.855L189.136 44.1644L189.237 43.999C189.348 43.9751 189.455 43.9337 189.552 43.8763C189.873 43.6672 190.141 43.3853 190.333 43.0534C190.525 42.7216 190.636 42.3492 190.657 41.9664C190.656 41.871 190.643 41.776 190.619 41.6837L190.742 41.4863Z" fill="#263238"/>
<path d="M189.936 41.5503C189.615 41.7594 189.348 42.0413 189.156 42.3732C188.964 42.705 188.853 43.0774 188.832 43.4602C188.832 44.1643 189.328 44.4471 189.936 44.095C190.258 43.8862 190.526 43.6043 190.717 43.2724C190.909 42.9405 191.02 42.568 191.041 42.1851C191.057 41.4809 190.523 41.1982 189.936 41.5503Z" fill="#37474F"/>
<path d="M189.936 43.1239C189.894 43.1239 189.853 43.1156 189.814 43.0996C189.775 43.0835 189.74 43.0599 189.71 43.0302C189.68 43.0005 189.657 42.9652 189.641 42.9263C189.624 42.8875 189.616 42.8459 189.616 42.8038V31.7981C189.616 31.7132 189.65 31.6318 189.71 31.5718C189.77 31.5118 189.851 31.478 189.936 31.478C190.021 31.478 190.103 31.5118 190.163 31.5718C190.223 31.6318 190.256 31.7132 190.256 31.7981V42.8038C190.256 42.8887 190.223 42.9701 190.163 43.0302C190.103 43.0902 190.021 43.1239 189.936 43.1239Z" fill="#263238"/>
<path d="M190.224 32.0862V34.9563L193.302 31.7981L190.224 32.0862Z" fill="#37474F"/>
<path d="M28.3806 127.291C28.1138 127.435 23.2165 128.822 21.4026 126.427C19.5888 124.032 22.603 120.297 20.9012 118.921C19.1994 117.544 14.43 118.921 13.2831 116.029C12.1361 113.138 15.5344 111.889 13.6245 108.971C12.4188 107.131 9.04722 106.117 9.20193 104.405C9.42599 101.903 14.0353 101.204 18.0577 103.909C22.0802 106.613 23.958 104.394 25.233 104.213C26.5081 104.031 29.2608 104.431 29.1755 108.913C29.0901 113.394 28.3806 127.291 28.3806 127.291Z" fill="#34A573"/>
<path d="M28.7058 120.937C28.6422 120.937 28.5806 120.914 28.5319 120.874C28.4832 120.833 28.4503 120.776 28.4391 120.713C27.036 112.177 17.1506 105.28 12.0079 103.796C11.9738 103.787 11.942 103.771 11.9143 103.75C11.8866 103.728 11.8636 103.701 11.8467 103.67C11.8297 103.639 11.8192 103.605 11.8157 103.57C11.8123 103.535 11.8159 103.499 11.8265 103.466C11.8463 103.398 11.8923 103.341 11.9543 103.307C12.0163 103.273 12.0893 103.265 12.1572 103.284C17.412 104.805 27.5268 111.895 28.9672 120.628C28.978 120.697 28.9612 120.768 28.9202 120.825C28.8793 120.882 28.8176 120.92 28.7485 120.932L28.7058 120.937Z" fill="white"/>
<path d="M17.0447 113.794C16.9861 113.795 16.9289 113.776 16.8819 113.741C16.835 113.706 16.801 113.656 16.7852 113.599C16.7694 113.543 16.7727 113.483 16.7946 113.428C16.8164 113.374 16.8556 113.328 16.906 113.298C17.0661 113.202 20.8751 110.977 24.6202 112.018C24.6909 112.036 24.7515 112.082 24.7885 112.145C24.8255 112.208 24.836 112.283 24.8176 112.354C24.7992 112.425 24.7534 112.485 24.6904 112.522C24.6274 112.559 24.5522 112.57 24.4815 112.551C20.9498 111.57 17.2155 113.752 17.1781 113.773C17.1366 113.793 17.0903 113.8 17.0447 113.794Z" fill="white"/>
<path d="M167.849 82.2174C169.951 82.5055 173.53 81.2892 173.786 77.7895C174.043 74.2899 175.488 73.3403 178.14 72.7695C180.791 72.1987 181.57 71.2757 181.874 69.6113C182.178 67.9468 180.162 65.9569 180.727 63.4496C181.293 60.9422 183.181 60.9475 185.038 58.1148C186.227 56.2903 183.789 53.5055 179.729 54.7005C175.67 55.8955 175.995 58.5149 171.935 58.851C167.876 59.187 165.331 61.6517 165.251 64.7193C165.171 67.7868 167.849 82.2174 167.849 82.2174Z" fill="#34A573"/>
<path opacity="0.2" d="M167.849 82.2174C169.951 82.5055 173.53 81.2892 173.786 77.7895C174.043 74.2899 175.488 73.3403 178.14 72.7695C180.791 72.1987 181.57 71.2757 181.874 69.6113C182.178 67.9468 180.162 65.9569 180.727 63.4496C181.293 60.9422 183.181 60.9475 185.038 58.1148C186.227 56.2903 183.789 53.5055 179.729 54.7005C175.67 55.8955 175.995 58.5149 171.935 58.851C167.876 59.187 165.331 61.6517 165.251 64.7193C165.171 67.7868 167.849 82.2174 167.849 82.2174Z" fill="black"/>
<path d="M167.08 75.5063H167.048C167.014 75.4993 166.981 75.4856 166.952 75.466C166.923 75.4464 166.899 75.4212 166.879 75.392C166.86 75.3628 166.846 75.33 166.84 75.2956C166.833 75.2612 166.833 75.2258 166.84 75.1915C168.804 65.4875 179.511 56.605 182.119 55.6981C182.19 55.6748 182.267 55.6805 182.334 55.714C182.4 55.7475 182.451 55.8061 182.474 55.8768C182.497 55.9476 182.492 56.0247 182.458 56.0912C182.425 56.1578 182.366 56.2082 182.295 56.2316C179.745 57.1172 169.284 65.8343 167.358 75.3249C167.338 75.3815 167.3 75.4299 167.25 75.4627C167.2 75.4955 167.14 75.5108 167.08 75.5063Z" fill="white"/>
<path d="M26.1406 72.0655C26.1667 71.5844 26.3059 71.1163 26.5469 70.6992C26.7879 70.282 27.124 69.9276 27.5277 69.6648L98.4349 28.7254C98.8645 28.5096 99.3386 28.3972 99.8193 28.3972C100.3 28.3972 100.774 28.5096 101.204 28.7254L102.767 29.6324C103.172 29.8943 103.508 30.2484 103.749 30.6657C103.991 31.0831 104.129 31.5517 104.154 32.033V86.3841C104.127 86.8649 103.987 87.3325 103.746 87.7495C103.505 88.1664 103.17 88.521 102.767 88.7848L31.8597 129.719C31.4299 129.937 30.9547 130.051 30.4726 130.051C29.9906 130.051 29.5153 129.937 29.0855 129.719L27.5277 128.817C27.1246 128.554 26.789 128.199 26.548 127.782C26.3071 127.365 26.1675 126.897 26.1406 126.417V72.0655Z" fill="#34A573"/>
<path opacity="0.3" d="M26.1406 72.0655C26.1667 71.5844 26.3059 71.1163 26.5469 70.6992C26.7879 70.282 27.124 69.9276 27.5277 69.6648L98.4349 28.7254C98.8645 28.5096 99.3386 28.3972 99.8193 28.3972C100.3 28.3972 100.774 28.5096 101.204 28.7254L102.767 29.6324C103.172 29.8943 103.508 30.2484 103.749 30.6657C103.991 31.0831 104.129 31.5517 104.154 32.033V86.3841C104.127 86.8649 103.987 87.3325 103.746 87.7495C103.505 88.1664 103.17 88.521 102.767 88.7848L31.8597 129.719C31.4299 129.937 30.9547 130.051 30.4726 130.051C29.9906 130.051 29.5153 129.937 29.0855 129.719L27.5277 128.817C27.1246 128.554 26.789 128.199 26.548 127.782C26.3071 127.365 26.1675 126.897 26.1406 126.417V72.0655Z" fill="black"/>
<path d="M32.6384 74.2207L26.5461 70.6997C26.297 71.1131 26.1575 71.5831 26.1406 72.0654V126.416C26.1675 126.897 26.3071 127.365 26.548 127.782C26.7889 128.199 27.1245 128.554 27.5277 128.817L29.0854 129.719C29.5152 129.937 29.9904 130.051 30.4725 130.051C30.9545 130.051 31.4298 129.937 31.8595 129.719L32.6384 129.271V74.2207Z" fill="#34A573"/>
<path opacity="0.5" d="M32.6384 74.2207L26.5461 70.6997C26.297 71.1131 26.1575 71.5831 26.1406 72.0654V126.416C26.1675 126.897 26.3071 127.365 26.548 127.782C26.7889 128.199 27.1245 128.554 27.5277 128.817L29.0854 129.719C29.5152 129.937 29.9904 130.051 30.4725 130.051C30.9545 130.051 31.4298 129.937 31.8595 129.719L32.6384 129.271V74.2207Z" fill="black"/>
<path d="M104.154 32.0328V86.3839C104.136 86.8815 103.987 87.3655 103.722 87.7869C103.517 88.1419 103.241 88.4507 102.911 88.6939L102.857 88.7259L102.767 88.7846L31.8595 129.719C31.7238 129.814 31.5661 129.874 31.401 129.893C31.236 129.912 31.0689 129.888 30.9152 129.825C30.7675 129.732 30.6481 129.6 30.5701 129.444C30.492 129.288 30.4582 129.114 30.4724 128.94V74.5673C30.4603 74.3727 30.4956 74.1781 30.5753 74.0001C30.6549 73.8222 30.7766 73.6662 30.9297 73.5455C31.0829 73.4249 31.263 73.3432 31.4547 73.3074C31.6464 73.2717 31.8439 73.283 32.0302 73.3403L61.8474 80.4302L65.7526 81.3585C66.2135 81.4448 66.6893 81.4035 67.1284 81.2389C67.5676 81.0744 67.9534 80.7929 68.244 80.4249L72.7681 74.1245L103.22 31.7287C103.732 31.0138 104.154 31.1472 104.154 32.0328Z" fill="#34A573"/>
<path opacity="0.2" d="M104.154 32.0328V86.3839C104.136 86.8815 103.987 87.3655 103.722 87.7869C103.517 88.1419 103.241 88.4507 102.911 88.6939L102.857 88.7259L102.767 88.7846L31.8595 129.719C31.7238 129.814 31.5661 129.874 31.401 129.893C31.236 129.912 31.0689 129.888 30.9152 129.825C30.7675 129.732 30.6481 129.6 30.5701 129.444C30.492 129.288 30.4582 129.114 30.4724 128.94V74.5673C30.4603 74.3727 30.4956 74.1781 30.5753 74.0001C30.6549 73.8222 30.7766 73.6662 30.9297 73.5455C31.0829 73.4249 31.263 73.3432 31.4547 73.3074C31.6464 73.2717 31.8439 73.283 32.0302 73.3403L61.8474 80.4302L65.7526 81.3585C66.2135 81.4448 66.6893 81.4035 67.1284 81.2389C67.5676 81.0744 67.9534 80.7929 68.244 80.4249L72.7681 74.1245L103.22 31.7287C103.732 31.0138 104.154 31.1472 104.154 32.0328Z" fill="black"/>
<path d="M102.767 88.7847L102.857 88.726L102.911 88.694C103.241 88.4508 103.517 88.142 103.722 87.787C103.984 87.3721 104.133 86.8957 104.154 86.4053L72.769 74.1353L93.7882 93.9808L102.767 88.7847Z" fill="#34A573"/>
<path opacity="0.6" d="M102.767 88.7847L102.857 88.726L102.911 88.694C103.241 88.4508 103.517 88.142 103.722 87.787C103.984 87.3721 104.133 86.8957 104.154 86.4053L72.769 74.1353L93.7882 93.9808L102.767 88.7847Z" fill="black"/>
<path d="M30.4726 128.94C30.4522 129.117 30.4819 129.297 30.5582 129.458C30.6346 129.619 30.7546 129.756 30.9047 129.852C31.0583 129.915 31.2254 129.939 31.3905 129.92C31.5556 129.901 31.7132 129.841 31.8489 129.745L56.2717 115.603L61.8466 80.3931L30.4726 128.017V128.94Z" fill="#34A573"/>
<path opacity="0.6" d="M30.4726 128.94C30.4522 129.117 30.4819 129.297 30.5582 129.458C30.6346 129.619 30.7546 129.756 30.9047 129.852C31.0583 129.915 31.2254 129.939 31.3905 129.92C31.5556 129.901 31.7132 129.841 31.8489 129.745L56.2717 115.603L61.8466 80.3931L30.4726 128.017V128.94Z" fill="black"/>
<path d="M103.722 87.7871C103.518 88.1421 103.241 88.4509 102.912 88.694L102.858 88.726L31.8603 129.719C31.7246 129.815 31.5669 129.875 31.4018 129.893C31.2368 129.912 31.0697 129.889 30.916 129.825L64.8731 75.6184C65.5556 74.5326 66.6064 73.729 67.8331 73.3548C69.0597 72.9805 70.3801 73.0607 71.5525 73.5805L103.722 87.7871Z" fill="#34A573"/>
<path opacity="0.2" d="M103.722 87.7871C103.518 88.1421 103.241 88.4509 102.912 88.694L102.858 88.726L31.8603 129.719C31.7246 129.815 31.5669 129.875 31.4018 129.893C31.2368 129.912 31.0697 129.889 30.916 129.825L64.8731 75.6184C65.5556 74.5326 66.6064 73.729 67.8331 73.3548C69.0597 72.9805 70.3801 73.0607 71.5525 73.5805L103.722 87.7871Z" fill="black"/>
<path d="M30.4727 72.9671L63.0854 87.3711C64.2596 87.8895 65.5813 87.9672 66.8082 87.59C68.035 87.2127 69.0847 86.4058 69.7648 85.3172L104.01 30.5127L30.4727 72.9671Z" fill="#34A573"/>
<path opacity="0.6" d="M30.4727 72.9671L63.0854 87.3711C64.2596 87.8895 65.5813 87.9672 66.8082 87.59C68.035 87.2127 69.0847 86.4058 69.7648 85.3172L104.01 30.5127L30.4727 72.9671Z" fill="black"/>
<path d="M30.4727 72.9671L63.3148 85.2372C64.4497 85.6609 65.6951 85.6858 66.846 85.3076C67.997 84.9295 68.9849 84.1709 69.6474 83.1566L104.01 30.5127L30.4727 72.9671Z" fill="#34A573"/>
<path opacity="0.2" d="M30.4727 72.9671L63.3148 85.2372C64.4497 85.6609 65.6951 85.6858 66.846 85.3076C67.997 84.9295 68.9849 84.1709 69.6474 83.1566L104.01 30.5127L30.4727 72.9671Z" fill="black"/>
<path d="M38.2505 78.7606C38.2753 78.2792 38.4139 77.8106 38.6551 77.3933C38.8962 76.9759 39.2329 76.6218 39.6376 76.3599L110.545 35.4205C110.975 35.2022 111.45 35.0884 111.932 35.0884C112.414 35.0884 112.889 35.2022 113.319 35.4205L114.882 36.3221C115.285 36.5855 115.62 36.9402 115.86 37.3573C116.1 37.7744 116.238 38.2422 116.264 38.7228V93.0739C116.238 93.5542 116.099 94.0217 115.859 94.4387C115.619 94.8557 115.284 95.2105 114.882 95.4745L43.9696 136.409C43.54 136.624 43.0659 136.737 42.5852 136.737C42.1044 136.737 41.6303 136.624 41.2007 136.409L39.6376 135.507C39.2347 135.243 38.8993 134.889 38.6584 134.472C38.4175 134.055 38.2778 133.587 38.2505 133.106V78.7606Z" fill="#455A64"/>
<path d="M38.2505 78.7606C38.2753 78.2792 38.4139 77.8106 38.6551 77.3933C38.8962 76.9759 39.2329 76.6218 39.6376 76.3599L110.545 35.4205C110.975 35.2022 111.45 35.0884 111.932 35.0884C112.414 35.0884 112.889 35.2022 113.319 35.4205L114.882 36.3221C115.285 36.5855 115.62 36.9402 115.86 37.3573C116.1 37.7744 116.238 38.2422 116.264 38.7228V93.0739C116.238 93.5542 116.099 94.0217 115.859 94.4387C115.619 94.8557 115.284 95.2105 114.882 95.4745L43.9696 136.409C43.54 136.624 43.0659 136.737 42.5852 136.737C42.1044 136.737 41.6303 136.624 41.2007 136.409L39.6376 135.507C39.2347 135.243 38.8993 134.889 38.6584 134.472C38.4175 134.055 38.2778 133.587 38.2505 133.106V78.7606Z" fill="#455A64"/>
<path d="M44.7536 80.9265L38.6559 77.4109C38.4062 77.824 38.2666 78.2942 38.2505 78.7766V133.112C38.2778 133.592 38.4175 134.06 38.6584 134.477C38.8993 134.894 39.2347 135.249 39.6375 135.512L41.2006 136.414C41.6302 136.63 42.1043 136.742 42.585 136.742C43.0658 136.742 43.5398 136.63 43.9694 136.414L44.7536 135.96V80.9265Z" fill="#263238"/>
<path d="M116.27 38.7228V93.0739C116.252 93.5714 116.103 94.0554 115.838 94.4769C115.633 94.8319 115.357 95.1407 115.027 95.3839L114.973 95.4159L114.883 95.4745L43.9754 136.409C43.8397 136.504 43.6821 136.564 43.517 136.583C43.3519 136.602 43.1848 136.578 43.0312 136.515C42.8811 136.419 42.7611 136.282 42.6847 136.121C42.6083 135.96 42.5786 135.78 42.599 135.603V81.2573C42.587 81.0627 42.6223 80.868 42.7019 80.6901C42.7816 80.5121 42.9032 80.3562 43.0564 80.2355C43.2095 80.1149 43.3897 80.0332 43.5813 79.9974C43.773 79.9617 43.9705 79.9729 44.1568 80.0303L73.974 87.1202L77.8792 88.0485C78.3402 88.1348 78.8159 88.0935 79.2551 87.9289C79.6942 87.7644 80.08 87.4829 80.3707 87.1149L84.8894 80.8145L115.341 38.4187C115.832 37.7145 116.27 37.8372 116.27 38.7228Z" fill="#37474F"/>
<path d="M114.881 95.4744L114.972 95.4157L115.025 95.3837C115.355 95.1405 115.632 94.8318 115.836 94.4768C116.095 94.0626 116.242 93.5884 116.263 93.1004L84.8838 80.8303L105.898 100.665L114.881 95.4744Z" fill="#263238"/>
<path d="M42.5888 135.608C42.5684 135.786 42.5981 135.965 42.6745 136.126C42.7508 136.288 42.8709 136.424 43.0209 136.521C43.1746 136.584 43.3417 136.607 43.5067 136.588C43.6718 136.57 43.8295 136.51 43.9652 136.414L68.3773 122.319L73.9522 87.1096L42.5781 134.696L42.5888 135.608Z" fill="#263238"/>
<path d="M115.832 94.4769C115.627 94.8319 115.351 95.1407 115.021 95.3838L114.968 95.4158L43.9755 136.409C43.8398 136.504 43.6821 136.564 43.5171 136.583C43.352 136.602 43.1849 136.578 43.0312 136.515L76.983 82.3135C77.6639 81.2259 78.714 80.4201 79.9407 80.0438C81.1675 79.6676 82.4888 79.7461 83.6624 80.265L115.832 94.4769Z" fill="#37474F"/>
<path d="M42.5889 79.6623L75.2016 94.0663C76.3752 94.5832 77.6957 94.6601 78.9213 94.2829C80.147 93.9057 81.1958 93.0997 81.8756 92.0124L116.121 37.1812L42.5889 79.6623Z" fill="#263238"/>
<path d="M42.5889 79.6623L75.4256 91.9323C76.5613 92.3574 77.8078 92.383 78.9599 92.0048C80.112 91.6266 81.1009 90.8672 81.7636 89.8518L116.121 37.1812L42.5889 79.6623Z" fill="#37474F"/>
<path d="M90.2622 121.903V67.552C90.3117 66.5208 90.6339 65.5212 91.1958 64.6552L125.014 17.5648C125.631 16.7044 126.491 16.0472 127.482 15.6767C128.474 15.3062 129.554 15.2392 130.584 15.4842L162.386 23.0436C163.411 23.3164 164.399 23.7104 165.331 24.2173L166.894 25.1189C167.296 25.3832 167.63 25.7381 167.87 26.155C168.11 26.5719 168.249 27.0392 168.276 27.5195V81.8706C168.248 82.3507 168.109 82.8177 167.869 83.2345C167.629 83.6513 167.295 84.0063 166.894 84.2713L95.9813 125.205C95.5521 125.422 95.0779 125.535 94.5969 125.535C94.1159 125.535 93.6417 125.422 93.2124 125.205L91.6493 124.304C91.2461 124.04 90.9105 123.686 90.6696 123.269C90.4287 122.852 90.2891 122.384 90.2622 121.903Z" fill="#34A573"/>
<path opacity="0.3" d="M90.2622 121.903V67.552C90.3117 66.5208 90.6339 65.5212 91.1958 64.6552L125.014 17.5648C125.631 16.7044 126.491 16.0472 127.482 15.6767C128.474 15.3062 129.554 15.2392 130.584 15.4842L162.386 23.0436C163.411 23.3164 164.399 23.7104 165.331 24.2173L166.894 25.1189C167.296 25.3832 167.63 25.7381 167.87 26.155C168.11 26.5719 168.249 27.0392 168.276 27.5195V81.8706C168.248 82.3507 168.109 82.8177 167.869 83.2345C167.629 83.6513 167.295 84.0063 166.894 84.2713L95.9813 125.205C95.5521 125.422 95.0779 125.535 94.5969 125.535C94.1159 125.535 93.6417 125.422 93.2124 125.205L91.6493 124.304C91.2461 124.04 90.9105 123.686 90.6696 123.269C90.4287 122.852 90.2891 122.384 90.2622 121.903Z" fill="white"/>
<path d="M96.7603 41.2835V110.636C96.7603 111.516 97.3844 111.879 98.1474 111.436L164.723 73.0257C165.127 72.7632 165.463 72.4088 165.704 71.9916C165.945 71.5744 166.084 71.1062 166.11 70.625V1.27242C166.11 0.386839 165.491 0.029406 164.723 0.472196L98.1474 38.8829C97.7436 39.1457 97.4076 39.5001 97.1665 39.9172C96.9255 40.3344 96.7863 40.8025 96.7603 41.2835Z" fill="#FAFAFA"/>
<path d="M97.5286 111.9C97.3566 111.902 97.1873 111.858 97.0378 111.772C96.8552 111.651 96.7092 111.482 96.6152 111.283C96.5213 111.085 96.4829 110.865 96.5043 110.647V41.2942C96.5296 40.7656 96.6808 40.2506 96.9453 39.7923C97.2097 39.3339 97.5798 38.9453 98.0248 38.6588L164.6 0.248092C164.774 0.106547 164.986 0.0212302 165.21 0.00347247C165.433 -0.0142852 165.657 0.0363572 165.851 0.148675C166.045 0.260992 166.2 0.429666 166.296 0.632285C166.392 0.834904 166.423 1.06188 166.387 1.28305V70.6356C166.362 71.1636 166.211 71.6779 165.947 72.1355C165.682 72.5931 165.312 72.9807 164.867 73.2657L98.2915 111.676C98.0616 111.817 97.7983 111.895 97.5286 111.9ZM165.341 0.520169C165.169 0.530024 165.002 0.583241 164.856 0.674879L98.2809 39.1122C97.9184 39.3527 97.6166 39.674 97.3991 40.0507C97.1816 40.4274 97.0543 40.8493 97.0271 41.2835V110.636C96.9951 110.761 97.0049 110.893 97.055 111.012C97.105 111.131 97.1926 111.231 97.3044 111.295C97.4161 111.36 97.546 111.386 97.6741 111.37C97.8022 111.354 97.9216 111.297 98.0141 111.207L164.589 72.7962C164.952 72.556 165.254 72.2348 165.472 71.8581C165.689 71.4813 165.816 71.0592 165.843 70.625V1.27238C165.858 1.14727 165.841 1.02038 165.793 0.903702C165.746 0.787024 165.669 0.684405 165.571 0.605528C165.504 0.556827 165.424 0.527323 165.341 0.520169Z" fill="#E0E0E0"/>
<path d="M95.3255 68.8749L90.5241 66.1008C90.3687 66.5695 90.2824 67.0583 90.2681 67.5519V121.903C90.295 122.384 90.4345 122.852 90.6754 123.269C90.9164 123.686 91.252 124.04 91.6551 124.304L93.2129 125.205C93.6417 125.424 94.1161 125.537 94.5973 125.537C95.0785 125.537 95.5528 125.424 95.9816 125.205L96.6485 124.826L95.3255 68.8749Z" fill="#34A573"/>
<g opacity="0.1">
<path d="M95.3255 68.8749L90.5241 66.1008C90.3687 66.5695 90.2824 67.0583 90.2681 67.5519V121.903C90.295 122.384 90.4345 122.852 90.6754 123.269C90.9164 123.686 91.252 124.04 91.6551 124.304L93.2129 125.205C93.6417 125.424 94.1161 125.537 94.5973 125.537C95.0785 125.537 95.5528 125.424 95.9816 125.205L96.6485 124.826L95.3255 68.8749Z" fill="black"/>
</g>
<path d="M168.281 27.5197V81.8708C168.263 82.3683 168.114 82.8523 167.849 83.2738C167.644 83.6288 167.368 83.9376 167.038 84.1807L166.985 84.2127L166.894 84.2714L95.9867 125.205C95.851 125.301 95.6933 125.361 95.5282 125.38C95.3632 125.399 95.196 125.375 95.0424 125.312C94.8923 125.216 94.7723 125.079 94.6959 124.918C94.6196 124.757 94.5899 124.577 94.6103 124.4V70.0541C94.5982 69.8595 94.6335 69.6649 94.7132 69.487C94.7928 69.309 94.9144 69.153 95.0676 69.0324C95.2208 68.9118 95.4009 68.8301 95.5926 68.7943C95.7842 68.7586 95.9817 68.7698 96.1681 68.8271L125.969 75.9171L129.874 76.8454C130.336 76.9327 130.813 76.8919 131.253 76.7273C131.693 76.5627 132.08 76.2807 132.371 75.9118L136.895 69.6113L167.347 27.2156C167.859 26.5114 168.281 26.6341 168.281 27.5197Z" fill="#34A573"/>
<path opacity="0.3" d="M168.281 27.5197V81.8708C168.263 82.3683 168.114 82.8523 167.849 83.2738C167.644 83.6288 167.368 83.9376 167.038 84.1807L166.985 84.2127L166.894 84.2714L95.9867 125.205C95.851 125.301 95.6933 125.361 95.5282 125.38C95.3632 125.399 95.196 125.375 95.0424 125.312C94.8923 125.216 94.7723 125.079 94.6959 124.918C94.6196 124.757 94.5899 124.577 94.6103 124.4V70.0541C94.5982 69.8595 94.6335 69.6649 94.7132 69.487C94.7928 69.309 94.9144 69.153 95.0676 69.0324C95.2208 68.9118 95.4009 68.8301 95.5926 68.7943C95.7842 68.7586 95.9817 68.7698 96.1681 68.8271L125.969 75.9171L129.874 76.8454C130.336 76.9327 130.813 76.8919 131.253 76.7273C131.693 76.5627 132.08 76.2807 132.371 75.9118L136.895 69.6113L167.347 27.2156C167.859 26.5114 168.281 26.6341 168.281 27.5197Z" fill="white"/>
<path d="M166.893 84.2715L166.984 84.2128L167.037 84.1808C167.367 83.9376 167.643 83.6289 167.848 83.2739C168.107 82.8579 168.254 82.3818 168.275 81.8921L136.896 69.6221L157.909 89.4622L166.893 84.2715Z" fill="#34A573"/>
<path d="M94.6 124.405C94.5796 124.583 94.6093 124.762 94.6857 124.923C94.7621 125.084 94.8821 125.221 95.0321 125.318C95.1858 125.381 95.3529 125.404 95.518 125.385C95.683 125.367 95.8407 125.307 95.9764 125.211L120.389 111.116L125.963 75.9065L94.5894 123.493L94.6 124.405Z" fill="#34A573"/>
<path d="M167.849 83.2736C167.644 83.6286 167.368 83.9374 167.038 84.1806L166.985 84.2126L95.9868 125.205C95.8511 125.301 95.6934 125.361 95.5283 125.38C95.3632 125.398 95.1961 125.375 95.0425 125.312L128.994 71.1103C129.675 70.0239 130.724 69.219 131.95 68.8428C133.175 68.4666 134.495 68.5443 135.668 69.0617L167.849 83.2736Z" fill="#34A573"/>
<path opacity="0.3" d="M167.849 83.2736C167.644 83.6286 167.368 83.9374 167.038 84.1806L166.985 84.2126L95.9868 125.205C95.8511 125.301 95.6934 125.361 95.5283 125.38C95.3632 125.398 95.1961 125.375 95.0425 125.312L128.994 71.1103C129.675 70.0239 130.724 69.219 131.95 68.8428C133.175 68.4666 134.495 68.5443 135.668 69.0617L167.849 83.2736Z" fill="white"/>
<path d="M126.076 57.2559C125.454 57.3523 124.817 57.2958 124.222 57.0913C123.626 56.8868 123.089 56.5405 122.657 56.0823C121.846 55.1807 121.44 53.7883 121.44 51.9158C121.442 49.803 121.895 47.7149 122.769 45.7914C123.666 43.8121 124.905 42.0063 126.428 40.4566C128.067 38.7579 129.934 37.2962 131.977 36.1141C133.979 34.9618 135.688 34.3234 137.103 34.1989C138.528 34.0708 139.6 34.4389 140.336 35.2925C141.073 36.1461 141.435 37.4531 141.435 39.2029C141.466 40.9383 141.055 42.6531 140.24 44.1856C139.522 45.5736 138.428 46.731 137.082 47.5252C136.618 47.8553 136.048 48.0034 135.482 47.9414C135.28 47.9015 135.094 47.8042 134.947 47.6613C134.799 47.5184 134.696 47.3359 134.649 47.1358C134.205 47.976 133.641 48.747 132.974 49.4244C132.3 50.1203 131.531 50.7182 130.691 51.2009C129.24 52.0225 128.082 52.2679 127.229 51.9851C126.375 51.7024 125.97 50.8382 125.97 49.3978C125.982 47.5876 126.54 45.8232 127.57 44.335C128.692 42.6851 130.182 41.3189 131.923 40.3446C132.65 39.9116 133.441 39.5948 134.265 39.4057C134.878 39.2395 135.525 39.2395 136.138 39.4057V45.0232C136.138 45.4767 136.218 45.7541 136.373 45.8608C136.527 45.9675 136.783 45.9141 137.146 45.7061C137.822 45.2665 138.322 44.6039 138.56 43.8335C138.921 42.793 139.092 41.6963 139.067 40.5953C139.067 39.194 138.761 38.1751 138.149 37.5385C137.822 37.2189 137.423 36.9823 136.986 36.8487C136.549 36.715 136.086 36.6881 135.636 36.7703C134.334 36.9692 133.086 37.4341 131.971 38.136C129.613 39.4443 127.579 41.2679 126.023 43.4708C124.585 45.5381 123.821 47.9996 123.836 50.5181C123.836 52.0509 124.151 53.1695 124.78 53.8737C125.106 54.2261 125.515 54.4924 125.969 54.6488C126.423 54.8052 126.909 54.8468 127.383 54.7699C128.711 54.5818 129.984 54.1146 131.118 53.3989C131.9 52.9462 132.641 52.4249 133.332 51.8411C133.974 51.3104 134.559 50.7131 135.076 50.0593C135.13 49.9904 135.193 49.9294 135.263 49.8779C135.311 49.8512 135.359 49.8779 135.402 49.9419L135.988 51.0089C136.01 51.0512 136.026 51.096 136.036 51.1422C136.018 51.2611 135.96 51.3701 135.871 51.4517C135.226 52.2267 134.512 52.941 133.737 53.5856C132.921 54.2702 132.048 54.8841 131.128 55.4208C129.596 56.3886 127.873 57.0145 126.076 57.2559ZM133.012 47.2265C133.519 46.6271 133.816 45.8772 133.855 45.0926V41.8383C133.093 41.9026 132.36 42.1556 131.721 42.5745C130.703 43.147 129.836 43.9534 129.192 44.9272C128.588 45.8205 128.263 46.8735 128.258 47.952C128.258 48.8536 128.482 49.3924 128.936 49.5525C129.389 49.7125 130.088 49.5525 131.043 48.9816C131.816 48.5344 132.493 47.9377 133.033 47.2265H133.012Z" fill="#E0E0E0"/>
<path d="M58.1285 62.6014L52.927 59.5872H52.8897C51.1132 58.5843 48.6645 58.7337 45.9544 60.2968C40.5076 63.439 36.0957 71.0838 36.0957 77.3682C36.0957 80.5104 37.1947 82.703 38.9712 83.77L43.8098 86.5387L44.6848 85.0823C45.677 84.8599 46.6302 84.4894 47.5122 83.9833C52.9537 80.8358 57.3709 73.191 57.3709 66.9119C57.368 66.0633 57.2641 65.218 57.0615 64.3939L58.1285 62.6014Z" fill="#F28F8F"/>
<path d="M58.1285 62.6014L52.927 59.5872H52.8897C51.1132 58.5843 48.6645 58.7337 45.9544 60.2968C40.5076 63.439 36.0957 71.0838 36.0957 77.3682C36.0957 80.5104 37.1947 82.703 38.9712 83.77L43.8098 86.5387L44.6848 85.0823C45.677 84.8599 46.6302 84.4894 47.5122 83.9833C52.9537 80.8358 57.3709 73.191 57.3709 66.9119C57.368 66.0633 57.2641 65.218 57.0615 64.3939L58.1285 62.6014Z" fill="#34A573"/>
<path opacity="0.4" d="M58.1285 62.6014L52.927 59.5872H52.8897C51.1132 58.5843 48.6645 58.7337 45.9544 60.2968C40.5076 63.439 36.0957 71.0838 36.0957 77.3682C36.0957 80.5104 37.1947 82.703 38.9712 83.77L43.8098 86.5387L44.6848 85.0823C45.677 84.8599 46.6302 84.4894 47.5122 83.9833C52.9537 80.8358 57.3709 73.191 57.3709 66.9119C57.368 66.0633 57.2641 65.218 57.0615 64.3939L58.1285 62.6014Z" fill="black"/>
<path d="M50.9539 63.1615C45.5071 66.309 41.0952 73.9538 41.0952 80.2329C41.0952 86.512 45.5071 89.0673 50.9539 85.9251C56.4008 82.7829 60.8127 75.1381 60.8127 68.8537C60.8127 62.5693 56.4008 60.0193 50.9539 63.1615Z" fill="#34A573"/>
<path d="M47.102 81.7373C47.0006 81.7373 46.9473 81.6787 46.9473 81.588C46.9578 81.4875 46.9867 81.3898 47.0326 81.2999L47.5288 80.1849C47.5616 80.0757 47.6267 79.979 47.7155 79.9075C47.7893 79.8741 47.8692 79.856 47.9502 79.8541C48.3941 79.8277 48.8322 79.7397 49.2519 79.5927C49.81 79.4047 50.3465 79.1579 50.8523 78.8565C51.6395 78.4301 52.3297 77.8452 52.8796 77.1387C53.292 76.6043 53.522 75.9517 53.5358 75.2769C53.5358 74.0979 52.8156 73.9272 51.3752 74.7434L49.9721 75.5916C49.7427 75.7197 49.5827 75.7677 49.4866 75.725C49.3906 75.6823 49.3426 75.5543 49.3426 75.3409V74.8981C49.335 74.7097 49.3853 74.5236 49.4866 74.3646C49.6151 74.1912 49.7811 74.0489 49.9721 73.9485L51.3645 73.1429C51.9224 72.8393 52.3956 72.401 52.7409 71.8679C53.0302 71.4206 53.1891 70.9015 53.1997 70.3688C53.1997 69.2272 52.3959 69.1205 50.7883 70.0488C49.7997 70.6121 48.9096 71.3329 48.1529 72.1827C48.0818 72.2629 48.0032 72.3362 47.9182 72.4014C47.8868 72.4163 47.8513 72.4202 47.8174 72.4124C47.7836 72.4047 47.7533 72.3858 47.7315 72.3587L47.2567 71.8252C47.2302 71.8007 47.209 71.771 47.1943 71.738C47.1796 71.705 47.1718 71.6693 47.1713 71.6332C47.1821 71.5108 47.2349 71.3958 47.3207 71.3078C47.7933 70.7167 48.3301 70.1799 48.9211 69.7073C49.6094 69.1465 50.3428 68.6433 51.1138 68.2029C51.8098 67.7697 52.5776 67.4644 53.3811 67.3013C53.6339 67.2397 53.8971 67.234 54.1524 67.2847C54.4076 67.3354 54.6487 67.4412 54.8588 67.5947C55.0482 67.7774 55.1945 68.0001 55.2868 68.2466C55.3791 68.493 55.4151 68.757 55.3923 69.0191C55.3802 69.6065 55.2496 70.1854 55.0082 70.7209C54.7503 71.3391 54.3896 71.9091 53.9412 72.4067C54.1715 72.3296 54.4175 72.3121 54.6564 72.3559C54.8953 72.3998 55.1191 72.5035 55.3069 72.6575C55.4713 72.8488 55.596 73.0709 55.6739 73.3108C55.7517 73.5508 55.7811 73.8038 55.7604 74.0552C55.7196 75.2379 55.305 76.3772 54.576 77.3094C53.6813 78.5096 52.5386 79.503 51.2258 80.2222C49.3479 81.3212 47.9733 81.8262 47.102 81.7373Z" fill="white"/>
<path d="M158.977 139.657L159.078 139.567C159.153 139.503 159.233 139.439 159.302 139.369L159.542 139.135L159.782 138.905C159.923 138.773 160.056 138.635 160.182 138.489L162.082 139.908L163.346 140.852C162.886 141.351 162.511 141.923 162.236 142.543C162.236 142.543 161.857 143.157 160.572 142.848C158.982 142.479 158.731 140.143 158.977 139.657Z" fill="#FFA8A7"/>
<path d="M140.374 139.006C138.923 137.321 140.214 134.52 141.622 130.887C143.17 126.891 145.56 120.1 145.56 120.1L162.53 116.595C162.53 116.595 180.61 116.248 182.27 119.705C183.614 122.474 171.706 126.64 169.999 126.79L159.548 127.339L158.449 127.873L151.108 137.161L140.374 139.006Z" fill="#34A573"/>
<path d="M171.642 122.538C170.324 123.878 169.096 125.304 167.966 126.806C164.909 131.074 160.071 138.825 160.071 138.825C160.071 138.825 160.823 141.279 163.133 141.172C163.133 141.172 179.031 126.326 180.332 124.955C182.301 122.874 183.88 119.444 180.476 119.161C177.073 118.878 172.965 121.108 171.642 122.538Z" fill="#34A573"/>
<path d="M167.881 126.891C167.881 126.891 170.719 122.741 173.659 121.023C173.659 121.023 170.735 121.599 166.307 126.987L167.881 126.891Z" fill="#34A573"/>
<path opacity="0.1" d="M167.881 126.891C167.881 126.891 170.719 122.741 173.659 121.023C173.659 121.023 170.735 121.599 166.307 126.987L167.881 126.891Z" fill="black"/>
<path d="M169.813 132.14L168.698 132.354L169.733 136.179C169.733 136.179 170.736 136.083 171.082 136.104C171.588 135.984 172.074 135.796 172.528 135.544L172.261 133.207L171.034 131.927L169.813 132.14Z" fill="#FFA8A7"/>
<path d="M178.615 133.042C179.147 133.257 179.629 133.579 180.031 133.988C180.433 134.398 180.747 134.886 180.952 135.422C181.189 135.982 181.384 136.56 181.533 137.15C181.709 137.769 181.624 138.82 180.84 138.991C180.585 139.021 180.327 138.974 180.098 138.857C178.524 138.249 176.988 137.545 175.377 137.033C173.996 136.521 172.55 136.207 171.082 136.099C171.416 135.586 171.583 134.981 171.56 134.369C171.537 133.757 171.325 133.167 170.954 132.68C170.638 132.387 170.239 132.201 169.812 132.146C170.218 131.965 170.597 131.73 170.986 131.511C171.711 131.004 172.6 130.785 173.478 130.898C174.15 131.042 174.662 131.575 175.233 131.965C176.321 132.674 177.372 132.626 178.615 133.042Z" fill="#263238"/>
<path d="M142.663 135.341C144.066 134.909 146.306 134.525 152.953 134.184C159.601 133.842 168.696 132.349 168.696 132.349C170.244 133.837 169.731 136.174 169.731 136.174C169.731 136.174 157.925 139.908 154.079 140.404C147.955 141.194 145.842 141.135 143.079 140.543C139.974 139.876 138.016 136.766 142.663 135.341Z" fill="#34A573"/>
<path d="M166.957 103.679L171.95 115.613L168.376 117.811L161.505 106.176L166.957 103.679Z" fill="#F28F8F"/>
<path d="M156.628 92.4337C159.36 92.4657 162.363 93.458 163.398 95.5973L167.666 104.4C167.666 104.4 165.255 107.931 161.424 107.681L156.628 92.4337Z" fill="#E0E0E0"/>
<path d="M138.469 110.983C138.501 110.519 139.168 108.251 139.883 105.808L145.068 107.6L143.676 111.991L139.307 116.136C138.361 114.595 138.06 112.744 138.469 110.983Z" fill="#FFA8A7"/>
<path d="M151.044 92.599C147.789 93.3832 143.356 94.4021 142.071 97.9338C140.785 101.465 138.944 107.702 138.944 107.702C139.659 108.94 143.58 109.964 144.941 109.249L145.581 107.115V120.089C148.126 122.858 160.678 122.149 162.551 116.584V98.91C162.551 96.0826 160.982 92.6843 156.645 92.4336L151.044 92.599Z" fill="#FAFAFA"/>
<path d="M145.565 107.126L147.197 101.988L145.565 109.425V107.126Z" fill="#E0E0E0"/>
<path d="M149.806 78.1363C149.516 78.0988 149.221 78.1272 148.944 78.2196C148.667 78.312 148.414 78.4659 148.205 78.6698C147.517 79.374 147.672 80.6757 148.205 83.6632L150.339 83.9032L149.806 78.1363Z" fill="#263238"/>
<path d="M162.189 77.272C162.645 77.274 163.098 77.1814 163.517 76.9999C164.168 76.6265 164.338 77.368 163.981 78.0082C163.745 78.4698 163.394 78.8631 162.963 79.1508C162.531 79.4384 162.033 79.6107 161.516 79.6513C161.516 79.5606 160.908 77.9922 160.908 77.9922L162.189 77.272Z" fill="#263238"/>
<path d="M150.803 83.9351C150.488 84.1218 150.035 83.519 149.645 83.1082C149.493 82.9335 149.298 82.8006 149.079 82.7221C148.861 82.6436 148.626 82.622 148.397 82.6593C148.168 82.6967 147.953 82.7918 147.77 82.9357C147.588 83.0796 147.446 83.2675 147.357 83.4817C146.711 84.842 148.178 86.6505 149.037 87.248C149.278 87.4559 149.579 87.5822 149.896 87.6091C150.213 87.6359 150.53 87.5618 150.803 87.3974L151.027 92.5989C151.408 93.4324 151.989 94.1587 152.719 94.7126C153.449 95.2666 154.304 95.6309 155.21 95.7731C158.261 96.1838 157.632 93.6658 156.629 92.4335V90.5289C157.393 90.692 158.178 90.7316 158.955 90.6463C159.349 90.5396 160.299 89.3926 160.912 88.1069C161.601 86.6665 162.748 84.1058 161.729 79.7686C160.63 75.1167 155.631 74.9673 152.66 76.8505C149.688 78.7337 150.803 83.9351 150.803 83.9351Z" fill="#FFA8A7"/>
<path d="M150.803 84.4635C150.643 84.4635 150.04 83.4659 149.646 83.1084C149.112 82.6123 149.806 78.1364 149.806 78.1364C149.806 78.1364 149.272 76.4346 150.339 75.3089C151.406 74.1833 153.497 74.37 155.023 74.3167C156.892 74.3269 158.744 73.9547 160.465 73.223C162.63 72.2841 162.791 72.1561 163.057 73.1217C163.324 74.0873 163.431 76.2479 162.14 77.7043L161.435 78.8513C161.435 78.8513 160.779 79.3847 158.768 79.6515C156.757 79.9182 153.311 78.8139 152.9 78.7552C152.313 78.6752 152.19 79.2407 151.875 80.7878C151.577 82.1482 151.337 84.4528 150.803 84.4635Z" fill="#263238"/>
<path d="M149.811 78.4832L147.901 77.4589C147.964 77.332 148.052 77.2188 148.159 77.126C148.266 77.0332 148.39 76.9627 148.525 76.9185C148.659 76.8743 148.801 76.8573 148.943 76.8686C149.084 76.8799 149.221 76.9192 149.347 76.9841C149.601 77.1273 149.791 77.3625 149.878 77.6413C149.964 77.9201 149.94 78.2214 149.811 78.4832Z" fill="#263238"/>
<path d="M156.624 90.5289C156.624 90.5289 153.796 89.9581 152.81 89.462C152.229 89.1575 151.753 88.6853 151.444 88.1069C151.594 88.6871 151.859 89.2313 152.223 89.7074C152.943 90.6303 156.624 91.3078 156.624 91.3078V90.5289Z" fill="#F28F8F"/>
<path d="M156.715 83.8285C156.71 83.9394 156.674 84.0465 156.609 84.1367C156.544 84.2268 156.455 84.296 156.351 84.3355C156.247 84.3751 156.135 84.3833 156.026 84.3591C155.918 84.3349 155.819 84.2795 155.742 84.1996C155.665 84.1197 155.614 84.019 155.593 83.9099C155.573 83.8008 155.586 83.6882 155.629 83.5861C155.672 83.4841 155.745 83.397 155.837 83.3357C155.93 83.2745 156.038 83.2418 156.149 83.2417C156.225 83.2431 156.299 83.2594 156.369 83.2896C156.438 83.3199 156.501 83.3635 156.553 83.418C156.606 83.4725 156.647 83.5368 156.675 83.6072C156.702 83.6777 156.716 83.7529 156.715 83.8285Z" fill="#263238"/>
<path d="M156.117 81.6945L154.9 82.3613C154.816 82.1945 154.798 82.002 154.851 81.8227C154.903 81.6434 155.022 81.4908 155.183 81.3957C155.263 81.3519 155.352 81.3248 155.443 81.3161C155.534 81.3075 155.626 81.3174 155.714 81.3453C155.801 81.3733 155.882 81.4186 155.951 81.4786C156.02 81.5386 156.077 81.6121 156.117 81.6945Z" fill="#263238"/>
<path d="M156.378 87.6162L157.675 88.107C157.646 88.1935 157.6 88.2734 157.54 88.342C157.48 88.4105 157.407 88.4663 157.325 88.5061C157.243 88.5459 157.153 88.5688 157.062 88.5736C156.971 88.5783 156.88 88.5648 156.794 88.5338C156.62 88.4645 156.479 88.3302 156.401 88.159C156.324 87.9879 156.315 87.7933 156.378 87.6162Z" fill="#F28F8F"/>
<path d="M161.767 82.1639L160.663 81.3103C160.715 81.2362 160.782 81.1735 160.859 81.1259C160.936 81.0783 161.022 81.0468 161.112 81.0333C161.202 81.0199 161.293 81.0247 161.381 81.0476C161.469 81.0704 161.551 81.1108 161.623 81.1663C161.77 81.2823 161.868 81.4506 161.894 81.6363C161.921 81.822 161.876 82.0109 161.767 82.1639Z" fill="#263238"/>
<path d="M161.425 83.6686C161.421 83.7795 161.385 83.8866 161.32 83.9768C161.255 84.0669 161.166 84.1361 161.062 84.1756C160.958 84.2152 160.845 84.2233 160.737 84.1992C160.629 84.175 160.53 84.1195 160.453 84.0397C160.376 83.9598 160.324 83.8591 160.304 83.75C160.284 83.6409 160.297 83.5283 160.34 83.4262C160.383 83.3241 160.456 83.2371 160.548 83.1758C160.641 83.1146 160.749 83.0819 160.86 83.0818C160.936 83.0832 161.01 83.0995 161.08 83.1297C161.149 83.16 161.212 83.2036 161.264 83.2581C161.317 83.3126 161.358 83.3769 161.386 83.4473C161.413 83.5178 161.427 83.593 161.425 83.6686Z" fill="#263238"/>
<path d="M158.758 83.5991L158.225 86.9707L160.092 86.752L158.758 83.5991Z" fill="#F28F8F"/>
<path d="M178.219 121.887L166.723 115.251C166.622 115.193 166.508 115.163 166.392 115.163C166.276 115.163 166.162 115.193 166.061 115.251L145.901 126.891L157.723 133.741L178.219 121.887Z" fill="#37474F"/>
<path d="M157.616 132.744L151.417 129.169L169.544 118.702L175.775 122.261L157.616 132.744Z" fill="#263238"/>
<path d="M154.571 122.799L154.688 122.863L157.724 124.619L163.128 121.498L163.24 121.434L160.087 119.615L154.571 122.799Z" fill="#263238"/>
<path d="M154.688 122.864L157.723 124.619L163.128 121.498L160.087 119.743L154.688 122.864Z" fill="#263238"/>
<path d="M145.9 126.891V127.163C145.899 127.356 145.947 127.545 146.041 127.714C146.134 127.882 146.27 128.023 146.434 128.124L157.146 134.307C157.315 134.405 157.506 134.456 157.701 134.456C157.896 134.456 158.087 134.405 158.256 134.307L177.643 123.104C177.806 123.003 177.942 122.861 178.035 122.693C178.129 122.525 178.177 122.336 178.176 122.143V121.871L157.722 133.741L145.9 126.891Z" fill="#263238"/>
<path d="M157.723 133.741V134.477C157.911 134.475 158.095 134.424 158.257 134.328L177.643 123.125C177.807 123.024 177.942 122.883 178.036 122.714C178.129 122.546 178.178 122.357 178.177 122.164V121.892L157.723 133.741Z" fill="#263238"/>
<path d="M158.038 133.885C158.221 133.955 158.418 133.983 158.613 133.968C158.809 133.952 158.999 133.893 159.169 133.794L178.47 122.65C178.637 122.554 178.781 122.422 178.891 122.263C179.001 122.104 179.074 121.923 179.105 121.732L181.239 109.137C181.244 109.064 181.244 108.991 181.239 108.918C181.238 108.567 181.098 108.232 180.849 107.984L160.79 119.566C160.667 119.638 160.561 119.735 160.48 119.852C160.399 119.97 160.344 120.103 160.321 120.244L158.038 133.885Z" fill="#263238"/>
<path d="M157.723 133.741L157.857 133.816C157.915 133.849 157.976 133.879 158.038 133.906L160.321 120.265C160.345 120.125 160.399 119.991 160.48 119.874C160.561 119.757 160.667 119.659 160.791 119.588L180.85 108.006C180.768 107.93 180.678 107.862 180.583 107.803L160.487 119.385C160.363 119.456 160.256 119.554 160.174 119.671C160.092 119.788 160.036 119.922 160.012 120.063L157.723 133.741Z" fill="#455A64"/>
<path d="M168.906 122.25C169.209 121.197 169.907 120.301 170.853 119.748C171.786 119.215 172.427 119.455 172.288 120.281C171.984 121.335 171.287 122.23 170.341 122.783C169.407 123.344 168.767 123.072 168.906 122.25Z" fill="#37474F"/>
<path d="M143.676 111.981C143.676 111.981 147.139 125.318 148.6 126.272C150.062 127.227 152.783 127.926 154.085 128.406C155.386 128.887 155.978 129.543 155.754 129.724C155.53 129.905 153.652 130.103 153.002 130.332C152.351 130.562 153.194 131.613 154.634 132.728C156.074 133.843 157.301 133.741 157.141 134.483C156.981 135.224 153.77 135.966 151.06 134.376C148.35 132.786 147.528 130.642 145.912 128.823C144.295 127.003 140.603 119.444 139.307 116.136C139.307 116.136 139.43 109.991 141.441 110.38C143.452 110.77 143.676 111.981 143.676 111.981Z" fill="#FFA8A7"/>
<path d="M160.15 139.007C160.395 139.599 161.244 141.231 163.132 141.141L167.773 136.798L160.15 139.007Z" fill="#34A573"/>
<path opacity="0.1" d="M160.15 139.007C160.395 139.599 161.244 141.231 163.132 141.141L167.773 136.798L160.15 139.007Z" fill="black"/>
<path d="M161.553 146.646C161.509 145.249 161.739 143.857 162.231 142.549C162.008 142.705 161.75 142.805 161.48 142.84C161.209 142.875 160.935 142.845 160.679 142.752C159.126 142.288 158.737 140.122 158.982 139.652C158.758 139.849 158.523 140.036 158.294 140.228C157.558 140.722 157.035 141.474 156.827 142.336C156.72 143.013 157.035 143.68 157.19 144.352C157.488 145.632 157.19 146.966 157.142 148.279C157.152 148.851 157.281 149.416 157.518 149.937C157.756 150.458 158.098 150.925 158.523 151.309C158.961 151.735 159.432 152.126 159.932 152.477C160.114 152.682 160.355 152.825 160.621 152.887C160.888 152.948 161.167 152.926 161.421 152.822C161.674 152.719 161.889 152.539 162.036 152.308C162.183 152.077 162.255 151.806 162.242 151.533C162.039 149.868 161.649 148.38 161.553 146.646Z" fill="#263238"/>
<path d="M163.314 140.863C163.17 141.135 163.042 141.397 162.93 141.658C163.063 141.402 163.191 141.135 163.314 140.863Z" fill="#37474F"/>
</svg>
