<svg width="530" height="483" viewBox="0 0 530 483" fill="none" xmlns="http://www.w3.org/2000/svg">
<path d="M77.6165 441.955C181.099 496.015 348.901 496.015 452.384 441.955C555.866 387.895 555.878 300.252 452.384 246.192C348.889 192.131 181.099 192.131 77.6165 246.192C-25.866 300.252 -25.8783 387.895 77.6165 441.955Z" fill="#F5F5F5"/>
<path d="M345.873 428.283C377.08 428.283 402.378 416.228 402.378 401.358C402.378 386.487 377.08 374.432 345.873 374.432C314.667 374.432 289.369 386.487 289.369 401.358C289.369 416.228 314.667 428.283 345.873 428.283Z" fill="#EBEBEB"/>
<path d="M445.971 366.876C470.047 366.876 489.565 357.576 489.565 346.104C489.565 334.631 470.047 325.331 445.971 325.331C421.895 325.331 402.378 334.631 402.378 346.104C402.378 357.576 421.895 366.876 445.971 366.876Z" fill="#EBEBEB"/>
<path d="M135.265 340.283C132.804 327.288 123.795 308.767 112.804 298.443C102.232 288.524 86.5394 285.066 80.2871 289.644C74.0349 294.222 78.1333 304.116 90.2686 316.176C103.967 329.774 130.268 367.504 135.265 388.879V340.283Z" fill="#34A573"/>
<g opacity="0.2">
<path d="M135.265 340.283C132.804 327.288 123.795 308.767 112.804 298.443C102.232 288.524 86.5394 285.066 80.2871 289.644C74.0349 294.222 78.1333 304.116 90.2686 316.176C103.967 329.774 130.268 367.504 135.265 388.879V340.283Z" fill="black"/>
</g>
<path d="M135.265 371.552C135.111 371.55 134.963 371.491 134.85 371.387C134.736 371.282 134.665 371.14 134.65 370.986C131.548 338.252 108.656 301.457 86.6503 293.791C86.4967 293.735 86.3708 293.622 86.2996 293.475C86.2283 293.327 86.2173 293.158 86.2688 293.003C86.3245 292.85 86.438 292.724 86.5851 292.653C86.7322 292.581 86.9013 292.57 87.0564 292.622C109.875 300.559 132.705 337.132 135.905 370.875C135.919 371.038 135.869 371.2 135.766 371.326C135.662 371.453 135.514 371.534 135.352 371.552H135.265Z" fill="white"/>
<path d="M135.265 404.594C135.265 404.594 131.007 407.991 116.804 406.662C102.601 405.333 95.278 395.18 95.278 390.824C95.278 386.467 108.336 385.717 111.167 374.912C108.288 377.998 104.457 380.03 100.287 380.684C92.9027 382.074 86.9704 379.711 85.2842 366.261C88.9239 366.793 92.6369 366.486 96.1396 365.363C101.986 363.48 103.376 360.268 101.85 359.579C100.324 358.89 92.1765 359.579 86.9581 357.598C81.7396 355.616 85.7273 328.445 89.1488 326.513C92.5704 324.581 108.755 329.134 111.906 331.571C114.712 333.736 118.65 337.49 116.829 345.427C118.986 343.41 120.668 340.939 121.752 338.191C123.278 334.499 124.386 335.361 126.675 336.776C128.049 337.551 129.243 338.61 130.174 339.884C131.106 341.157 131.755 342.615 132.078 344.16C132.632 347.605 131.733 359.493 126.884 363.357C126.884 363.357 131.536 363.948 135.339 356.096C135.339 356.096 142.724 359.074 144.398 363.898C146.072 368.722 147.893 392.337 135.265 404.594Z" fill="#34A573"/>
<path d="M136.521 407.277C136.37 407.275 136.225 407.22 136.112 407.12C135.999 407.021 135.926 406.884 135.905 406.735C132.656 380.142 112.435 345.205 92.607 332.087C92.4699 331.996 92.3747 331.854 92.3424 331.692C92.3101 331.531 92.3433 331.363 92.4347 331.226C92.5261 331.089 92.6682 330.994 92.8297 330.961C92.9913 330.929 93.1591 330.962 93.2962 331.054C113.37 344.406 133.911 379.699 137.124 406.588C137.145 406.749 137.101 406.912 137.001 407.042C136.902 407.171 136.756 407.255 136.594 407.277H136.521Z" fill="white"/>
<path d="M137.764 410.993C137.029 410.485 136.424 409.811 135.997 409.027C135.569 408.243 135.331 407.369 135.302 406.477V112.475C135.352 111.55 135.62 110.649 136.085 109.848C136.549 109.046 137.196 108.365 137.973 107.86L322.587 1.26574C323.359 0.781807 324.248 0.51735 325.158 0.500825C326.069 0.4843 326.967 0.71633 327.755 1.17195C328.544 1.62758 329.193 2.28955 329.634 3.08667C330.074 3.88378 330.289 4.78587 330.255 5.69589L142.933 410.895C142.14 411.316 141.258 411.545 140.36 411.562C139.462 411.579 138.572 411.384 137.764 410.993Z" fill="#E0E0E0"/>
<path d="M140.262 118.062L215.252 68.9979L210.256 66.106L137.936 107.86C137.159 108.365 136.512 109.046 136.048 109.848C135.584 110.649 135.315 111.55 135.265 112.475V115.17L140.262 118.062Z" fill="#37474F"/>
<path opacity="0.2" d="M140.262 118.062L215.252 68.9979L210.256 66.106L137.936 107.86C137.159 108.365 136.512 109.046 136.048 109.848C135.584 110.649 135.315 111.55 135.265 112.475V115.17L140.262 118.062Z" fill="#37474F"/>
<path d="M165.308 126.712L136.041 109.878C135.564 110.672 135.297 111.574 135.265 112.499V406.452C135.234 407.361 135.45 408.261 135.891 409.057C136.333 409.852 136.982 410.512 137.771 410.966C138.559 411.42 139.456 411.651 140.365 411.634C141.275 411.617 142.162 411.353 142.933 410.87L165.308 398.01V126.712Z" fill="#263238"/>
<path opacity="0.4" d="M165.308 126.712L136.041 109.878C135.564 110.672 135.297 111.574 135.265 112.499V406.452C135.234 407.361 135.45 408.261 135.891 409.057C136.333 409.852 136.982 410.512 137.771 410.966C138.559 411.42 139.456 411.651 140.365 411.634C141.275 411.617 142.162 411.353 142.933 410.87L165.308 398.01V126.712Z" fill="#263238"/>
<path d="M142.933 410.895L327.547 304.301C328.324 303.796 328.971 303.115 329.436 302.313C329.9 301.511 330.168 300.611 330.218 299.686V5.69621C330.218 3.99799 328.987 3.30886 327.547 4.15797L142.933 110.752C142.156 111.257 141.509 111.938 141.045 112.74C140.58 113.542 140.312 114.442 140.262 115.367V409.357C140.262 411.055 141.456 411.744 142.933 410.895Z" fill="#455A64"/>
<path opacity="0.1" d="M142.933 410.895L327.547 304.301C328.324 303.796 328.971 303.115 329.436 302.313C329.9 301.511 330.168 300.611 330.218 299.686V5.69621C330.218 3.99799 328.987 3.30886 327.547 4.15797L142.933 110.752C142.156 111.257 141.509 111.938 141.045 112.74C140.58 113.542 140.312 114.442 140.262 115.367V409.357C140.262 411.055 141.456 411.744 142.933 410.895Z" fill="#455A64"/>
<path d="M155.597 183.271L199.905 157.675C202.846 155.977 205.234 157.183 205.234 160.37C205.103 162.159 204.552 163.893 203.626 165.43C202.7 166.967 201.425 168.265 199.905 169.218L155.597 194.814C152.644 196.513 150.268 195.307 150.268 192.119C150.397 190.329 150.947 188.595 151.873 187.057C152.799 185.519 154.075 184.222 155.597 183.271Z" fill="#34A573"/>
<path d="M155.597 201.435L184.926 184.502C187.868 182.803 190.256 184.009 190.256 187.197C190.124 188.986 189.573 190.719 188.647 192.257C187.722 193.794 186.447 195.091 184.926 196.045L155.597 212.978C152.644 214.676 150.268 213.47 150.268 210.283C150.397 208.492 150.947 206.758 151.873 205.22C152.799 203.683 154.075 202.386 155.597 201.435Z" fill="#34A573"/>
<path d="M152.397 232.52L158.133 229.209C159.364 228.532 160.262 229.086 160.262 230.44V237.06C160.222 237.8 160.008 238.519 159.639 239.161C159.269 239.802 158.753 240.347 158.133 240.752L152.397 244.013C151.167 244.702 150.268 244.149 150.268 242.783V236.162C150.317 235.432 150.534 234.722 150.904 234.09C151.273 233.458 151.785 232.92 152.397 232.52Z" fill="#34A573"/>
<path opacity="0.2" d="M152.397 232.52L158.133 229.209C159.364 228.532 160.262 229.086 160.262 230.44V237.06C160.222 237.8 160.008 238.519 159.639 239.161C159.269 239.802 158.753 240.347 158.133 240.752L152.397 244.013C151.167 244.702 150.268 244.149 150.268 242.783V236.162C150.317 235.432 150.534 234.722 150.904 234.09C151.273 233.458 151.785 232.92 152.397 232.52Z" fill="black"/>
<path d="M152.397 255.618L158.133 252.307C159.364 251.618 160.262 252.172 160.262 253.538V260.158C160.219 260.897 160.004 261.616 159.635 262.256C159.265 262.897 158.751 263.443 158.133 263.85L152.397 267.161C151.167 267.837 150.268 267.284 150.268 265.93V259.309C150.306 258.57 150.519 257.849 150.889 257.208C151.259 256.566 151.776 256.021 152.397 255.618Z" fill="#34A573"/>
<g opacity="0.2">
<path d="M152.397 255.618L158.133 252.307C159.364 251.618 160.262 252.172 160.262 253.538V260.158C160.219 260.897 160.004 261.616 159.635 262.256C159.265 262.897 158.751 263.443 158.133 263.85L152.397 267.161C151.167 267.837 150.268 267.284 150.268 265.93V259.309C150.306 258.57 150.519 257.849 150.889 257.208C151.259 256.566 151.776 256.021 152.397 255.618Z" fill="black"/>
</g>
<path d="M167.93 249.539L202.588 229.517C204.065 228.668 205.259 229.271 205.259 230.871C205.192 231.765 204.915 232.631 204.451 233.399C203.987 234.166 203.349 234.814 202.588 235.288L167.93 255.31C166.453 256.159 165.259 255.556 165.259 253.957C165.326 253.062 165.602 252.196 166.066 251.429C166.53 250.661 167.169 250.014 167.93 249.539Z" fill="#34A573"/>
<path opacity="0.2" d="M167.93 249.539L202.588 229.517C204.065 228.668 205.259 229.271 205.259 230.871C205.192 231.765 204.915 232.631 204.451 233.399C203.987 234.166 203.349 234.814 202.588 235.288L167.93 255.31C166.453 256.159 165.259 255.556 165.259 253.957C165.326 253.062 165.602 252.196 166.066 251.429C166.53 250.661 167.169 250.014 167.93 249.539Z" fill="black"/>
<path d="M152.397 278.704L158.133 275.394C159.364 274.705 160.262 275.258 160.262 276.624V283.245C160.22 283.984 160.006 284.703 159.636 285.344C159.266 285.985 158.751 286.53 158.133 286.937L152.397 290.247C151.167 290.924 150.268 290.37 150.268 289.016V282.396C150.306 281.656 150.519 280.936 150.889 280.294C151.259 279.652 151.776 279.107 152.397 278.704Z" fill="#E0E0E0"/>
<path d="M167.93 272.625L202.588 252.627C204.065 251.778 205.259 252.381 205.259 253.981C205.194 254.876 204.918 255.743 204.454 256.51C203.989 257.278 203.35 257.925 202.588 258.399L167.93 278.421C166.453 279.27 165.259 278.667 165.259 277.067C165.322 276.168 165.597 275.297 166.061 274.525C166.525 273.753 167.166 273.102 167.93 272.625Z" fill="#F0F0F0"/>
<path d="M152.397 301.851L158.133 298.541C159.364 297.852 160.262 298.406 160.262 299.772V306.392C160.22 307.131 160.006 307.85 159.636 308.491C159.266 309.132 158.751 309.678 158.133 310.084L152.397 313.394C151.167 314.071 150.268 313.517 150.268 312.164V305.543C150.306 304.803 150.519 304.083 150.889 303.441C151.259 302.8 151.776 302.255 152.397 301.851Z" fill="#E0E0E0"/>
<path d="M167.93 295.773L202.588 275.763C204.065 274.902 205.259 275.517 205.259 277.104C205.194 278.001 204.918 278.869 204.454 279.639C203.99 280.409 203.35 281.058 202.588 281.534L167.93 301.544C166.453 302.393 165.259 301.79 165.259 300.19C165.326 299.296 165.602 298.43 166.066 297.662C166.53 296.895 167.169 296.247 167.93 295.773Z" fill="#F0F0F0"/>
<path d="M152.397 324.937L158.133 321.627C159.364 320.938 160.262 321.492 160.262 322.858V329.478C160.22 330.217 160.006 330.936 159.636 331.577C159.266 332.218 158.751 332.764 158.133 333.17L152.397 336.48C151.167 337.157 150.268 336.603 150.268 335.25V328.629C150.306 327.889 150.519 327.169 150.889 326.527C151.259 325.886 151.776 325.341 152.397 324.937Z" fill="#E0E0E0"/>
<path d="M167.93 318.858L202.588 298.849C204.065 297.988 205.259 298.603 205.259 300.19C205.194 301.087 204.918 301.955 204.454 302.725C203.99 303.495 203.35 304.144 202.588 304.62L167.93 324.63C166.453 325.479 165.259 324.876 165.259 323.276C165.326 322.382 165.602 321.516 166.066 320.748C166.53 319.981 167.169 319.333 167.93 318.858Z" fill="#F0F0F0"/>
<path d="M152.927 347.654L177.542 333.416C179.019 332.567 180.213 333.17 180.213 334.77C180.146 335.664 179.869 336.53 179.405 337.298C178.941 338.065 178.303 338.713 177.542 339.188L152.927 353.426C151.462 354.275 150.268 353.672 150.268 352.085C150.333 351.189 150.607 350.322 151.069 349.552C151.531 348.783 152.167 348.133 152.927 347.654Z" fill="#34A573"/>
<path d="M152.927 359.197L202.588 330.536C204.065 329.687 205.259 330.29 205.259 331.878C205.194 332.774 204.918 333.643 204.454 334.413C203.99 335.182 203.35 335.832 202.588 336.308L152.927 364.968C151.462 365.818 150.268 365.215 150.268 363.627C150.333 362.732 150.607 361.865 151.069 361.095C151.531 360.325 152.167 359.675 152.927 359.197Z" fill="#34A573"/>
<path opacity="0.8" d="M152.927 359.197L202.588 330.536C204.065 329.687 205.259 330.29 205.259 331.878C205.194 332.774 204.918 333.643 204.454 334.413C203.99 335.182 203.35 335.832 202.588 336.308L152.927 364.968C151.462 365.818 150.268 365.215 150.268 363.627C150.333 362.732 150.607 361.865 151.069 361.095C151.531 360.325 152.167 359.675 152.927 359.197Z" fill="white"/>
<path d="M152.927 359.197L187.597 339.188C189.062 338.339 190.256 338.942 190.256 340.542C190.189 341.435 189.914 342.299 189.452 343.067C188.991 343.834 188.355 344.482 187.597 344.959L152.927 364.969C151.462 365.818 150.268 365.215 150.268 363.628C150.333 362.732 150.607 361.865 151.069 361.095C151.531 360.326 152.167 359.676 152.927 359.197Z" fill="#34A573"/>
<path d="M152.927 370.765L177.542 356.527C179.019 355.678 180.213 356.281 180.213 357.88C180.146 358.775 179.869 359.641 179.405 360.408C178.941 361.176 178.303 361.823 177.542 362.298L152.927 376.536C151.462 377.385 150.268 376.782 150.268 375.195C150.333 374.3 150.607 373.432 151.069 372.663C151.531 371.893 152.167 371.243 152.927 370.765Z" fill="#34A573"/>
<path d="M167.93 226.441L202.588 206.431C204.065 205.582 205.259 206.185 205.259 207.785C205.192 208.679 204.915 209.545 204.451 210.313C203.987 211.08 203.349 211.728 202.588 212.203L167.93 232.212C166.453 233.061 165.259 232.458 165.259 230.871C165.324 229.974 165.6 229.106 166.064 228.336C166.528 227.566 167.167 226.917 167.93 226.441Z" fill="#34A573"/>
<path opacity="0.2" d="M167.93 226.441L202.588 206.431C204.065 205.582 205.259 206.185 205.259 207.785C205.192 208.679 204.915 209.545 204.451 210.313C203.987 211.08 203.349 211.728 202.588 212.203L167.93 232.212C166.453 233.061 165.259 232.458 165.259 230.871C165.324 229.974 165.6 229.106 166.064 228.336C166.528 227.566 167.167 226.917 167.93 226.441Z" fill="black"/>
<path d="M152.927 370.765L177.542 356.527C179.019 355.678 180.213 356.281 180.213 357.88C180.146 358.775 179.869 359.641 179.405 360.408C178.941 361.176 178.303 361.823 177.542 362.298L152.927 376.536C151.462 377.385 150.268 376.782 150.268 375.195C150.333 374.3 150.607 373.432 151.069 372.663C151.531 371.893 152.167 371.243 152.927 370.765Z" fill="#34A573"/>
<path d="M152.927 382.271L202.588 353.611C204.065 352.761 205.259 353.364 205.259 354.952C205.194 355.848 204.918 356.717 204.454 357.487C203.99 358.257 203.35 358.906 202.588 359.382L152.927 387.993C151.462 388.855 150.268 388.24 150.268 386.652C150.34 385.766 150.618 384.908 151.08 384.147C151.541 383.387 152.173 382.745 152.927 382.271Z" fill="#34A573"/>
<path opacity="0.8" d="M152.927 382.271L202.588 353.611C204.065 352.761 205.259 353.364 205.259 354.952C205.194 355.848 204.918 356.717 204.454 357.487C203.99 358.257 203.35 358.906 202.588 359.382L152.927 387.993C151.462 388.855 150.268 388.24 150.268 386.652C150.34 385.766 150.618 384.908 151.08 384.147C151.541 383.387 152.173 382.745 152.927 382.271Z" fill="white"/>
<path d="M152.927 382.271L197.591 356.429C199.068 355.579 200.262 356.182 200.262 357.782C200.195 358.677 199.918 359.543 199.454 360.31C198.99 361.078 198.352 361.725 197.591 362.2L152.927 388.043C151.462 388.904 150.268 388.289 150.268 386.701C150.333 385.806 150.607 384.939 151.069 384.169C151.531 383.4 152.167 382.749 152.927 382.271Z" fill="#34A573"/>
<path d="M327.572 4.15757L215.253 68.9977V369.14L327.572 304.312C328.349 303.808 328.996 303.127 329.46 302.325C329.924 301.523 330.192 300.623 330.243 299.698V5.69581C330.23 4.04681 329 3.30845 327.572 4.15757Z" fill="#EBEBEB"/>
<path opacity="0.6" d="M327.572 4.15757L215.253 68.9977V369.14L327.572 304.312C328.349 303.808 328.996 303.127 329.46 302.325C329.924 301.523 330.192 300.623 330.243 299.698V5.69581C330.23 4.04681 329 3.30845 327.572 4.15757Z" fill="#FAFAFA"/>
<path d="M215.252 80.541V103.627L205.259 115.17H215.252V138.256L320.236 77.6491V19.9341L215.252 80.541Z" fill="#34A573"/>
<g opacity="0.6">
<path d="M228.988 81.3405L271.523 56.7285C273.578 55.4979 275.215 56.507 275.215 58.8821C275.147 60.1725 274.778 61.4291 274.137 62.5511C273.496 63.673 272.6 64.6291 271.523 65.3427L228.988 89.8931C226.92 91.1237 225.296 90.1146 225.296 87.7396C225.37 86.4591 225.742 85.2137 226.383 84.1027C227.025 82.9917 227.916 82.0458 228.988 81.3405Z" fill="white"/>
</g>
<path d="M226.588 100.034L308.914 52.508C309.652 52.0895 310.243 52.3849 310.243 53.1848C310.211 53.6325 310.074 54.0664 309.843 54.4512C309.612 54.8361 309.294 55.1611 308.914 55.3999L226.588 102.864C225.849 103.282 225.259 102.987 225.259 102.187C225.3 101.75 225.441 101.329 225.672 100.955C225.902 100.582 226.216 100.266 226.588 100.034Z" fill="#34A573"/>
<path d="M226.588 100.034L308.914 52.508C309.652 52.0895 310.243 52.3849 310.243 53.1848C310.211 53.6325 310.074 54.0664 309.843 54.4512C309.612 54.8361 309.294 55.1611 308.914 55.3999L226.588 102.864C225.849 103.282 225.259 102.987 225.259 102.187C225.3 101.75 225.441 101.329 225.672 100.955C225.902 100.582 226.216 100.266 226.588 100.034Z" fill="#34A573"/>
<path opacity="0.6" d="M226.588 100.034L308.914 52.508C309.652 52.0895 310.243 52.3849 310.243 53.1848C310.211 53.6325 310.074 54.0664 309.843 54.4512C309.612 54.8361 309.294 55.1611 308.914 55.3999L226.588 102.864C225.849 103.282 225.259 102.987 225.259 102.187C225.3 101.75 225.441 101.329 225.672 100.955C225.902 100.582 226.216 100.266 226.588 100.034Z" fill="white"/>
<path d="M226.588 108.647L308.914 61.1218C309.652 60.6911 310.243 60.9987 310.243 61.7986C310.211 62.2447 310.074 62.6768 309.843 63.0597C309.612 63.4426 309.293 63.7653 308.914 64.0014L226.588 111.527C225.849 111.958 225.259 111.65 225.259 110.85C225.29 110.404 225.427 109.972 225.658 109.589C225.89 109.206 226.208 108.884 226.588 108.647Z" fill="#34A573"/>
<path opacity="0.6" d="M226.588 108.647L308.914 61.1218C309.652 60.6911 310.243 60.9987 310.243 61.7986C310.211 62.2447 310.074 62.6768 309.843 63.0597C309.612 63.4426 309.293 63.7653 308.914 64.0014L226.588 111.527C225.849 111.958 225.259 111.65 225.259 110.85C225.29 110.404 225.427 109.972 225.658 109.589C225.89 109.206 226.208 108.884 226.588 108.647Z" fill="white"/>
<path opacity="0.6" d="M226.588 117.262L308.914 69.736C309.652 69.3176 310.243 69.6129 310.243 70.4128C310.211 70.8605 310.074 71.2944 309.843 71.6793C309.612 72.0641 309.294 72.3891 308.914 72.6279L226.588 120.154C225.849 120.572 225.259 120.277 225.259 119.477C225.29 119.029 225.427 118.595 225.658 118.21C225.889 117.825 226.208 117.5 226.588 117.262Z" fill="white"/>
<path d="M229.689 141.504L235.462 138.182C236.692 137.493 237.591 138.046 237.591 139.412V146.033C237.55 146.772 237.336 147.491 236.966 148.132C236.596 148.774 236.081 149.319 235.462 149.725L229.726 153.035C228.495 153.712 227.597 153.158 227.597 151.804V145.196C227.631 144.46 227.838 143.741 228.202 143.1C228.565 142.459 229.075 141.912 229.689 141.504Z" fill="#34A573"/>
<path opacity="0.2" d="M229.689 141.504L235.462 138.182C236.692 137.493 237.591 138.046 237.591 139.412V146.033C237.55 146.772 237.336 147.491 236.966 148.132C236.596 148.774 236.081 149.319 235.462 149.725L229.726 153.035C228.495 153.712 227.597 153.158 227.597 151.804V145.196C227.631 144.46 227.838 143.741 228.202 143.1C228.565 142.459 229.075 141.912 229.689 141.504Z" fill="white"/>
<path d="M245.222 135.425L279.88 115.404C281.357 114.555 282.551 115.158 282.551 116.757C282.484 117.652 282.207 118.518 281.743 119.285C281.279 120.053 280.641 120.7 279.88 121.175L245.222 141.197C243.745 142.046 242.551 141.443 242.551 139.843C242.618 138.949 242.894 138.083 243.358 137.315C243.822 136.548 244.461 135.9 245.222 135.425Z" fill="#34A573"/>
<path opacity="0.8" d="M245.222 135.425L279.88 115.404C281.357 114.555 282.551 115.158 282.551 116.757C282.484 117.652 282.207 118.518 281.743 119.285C281.279 120.053 280.641 120.7 279.88 121.175L245.222 141.197C243.745 142.046 242.551 141.443 242.551 139.843C242.618 138.949 242.894 138.083 243.358 137.315C243.822 136.548 244.461 135.9 245.222 135.425Z" fill="white"/>
<path d="M228.889 162.179L316.274 111.724C317.012 111.293 317.603 111.601 317.603 112.389C317.572 112.837 317.435 113.271 317.204 113.656C316.973 114.041 316.654 114.366 316.274 114.604L228.889 165.058C228.151 165.489 227.56 165.181 227.56 164.381C227.592 163.935 227.729 163.503 227.96 163.12C228.191 162.737 228.51 162.415 228.889 162.179Z" fill="#34A573"/>
<path d="M228.889 170.83L316.274 120.375C317.012 119.957 317.603 120.252 317.603 121.052C317.571 121.5 317.434 121.934 317.203 122.318C316.972 122.703 316.654 123.028 316.274 123.267L228.889 173.722C228.151 174.14 227.56 173.845 227.56 173.045C227.592 172.597 227.729 172.163 227.96 171.778C228.191 171.393 228.509 171.068 228.889 170.83Z" fill="#34A573"/>
<path d="M228.889 179.493L316.274 129.039C317.012 128.608 317.603 128.916 317.603 129.703C317.572 130.151 317.435 130.585 317.204 130.97C316.973 131.355 316.654 131.68 316.274 131.918L228.889 182.373C228.151 182.803 227.56 182.496 227.56 181.708C227.591 181.26 227.728 180.826 227.959 180.441C228.19 180.056 228.509 179.731 228.889 179.493Z" fill="#34A573"/>
<path d="M228.889 188.169L316.274 137.714C317.012 137.296 317.603 137.591 317.603 138.391C317.571 138.839 317.434 139.273 317.203 139.658C316.972 140.043 316.654 140.368 316.274 140.606L228.889 191.061C228.151 191.479 227.56 191.184 227.56 190.384C227.592 189.936 227.729 189.502 227.96 189.118C228.191 188.733 228.509 188.408 228.889 188.169Z" fill="#34A573"/>
<path d="M228.889 162.179L316.274 111.724C317.012 111.293 317.603 111.601 317.603 112.389C317.572 112.837 317.435 113.271 317.204 113.656C316.973 114.041 316.654 114.366 316.274 114.604L228.889 165.058C228.151 165.489 227.56 165.181 227.56 164.381C227.592 163.935 227.729 163.503 227.96 163.12C228.191 162.737 228.51 162.415 228.889 162.179Z" fill="#E0E0E0"/>
<path d="M228.889 170.83L316.274 120.375C317.012 119.957 317.603 120.252 317.603 121.052C317.571 121.5 317.434 121.934 317.203 122.318C316.972 122.703 316.654 123.028 316.274 123.267L228.889 173.722C228.151 174.14 227.56 173.845 227.56 173.045C227.592 172.597 227.729 172.163 227.96 171.778C228.191 171.393 228.509 171.068 228.889 170.83Z" fill="#E0E0E0"/>
<path d="M228.889 179.493L316.274 129.039C317.012 128.608 317.603 128.916 317.603 129.703C317.572 130.151 317.435 130.585 317.204 130.97C316.973 131.355 316.654 131.68 316.274 131.918L228.889 182.373C228.151 182.803 227.56 182.496 227.56 181.708C227.591 181.26 227.728 180.826 227.959 180.441C228.19 180.056 228.509 179.731 228.889 179.493Z" fill="#E0E0E0"/>
<path d="M228.889 188.169L316.274 137.714C317.012 137.296 317.603 137.591 317.603 138.391C317.571 138.839 317.434 139.273 317.203 139.658C316.972 140.043 316.654 140.368 316.274 140.606L228.889 191.061C228.151 191.479 227.56 191.184 227.56 190.384C227.592 189.936 227.729 189.502 227.96 189.118C228.191 188.733 228.509 188.408 228.889 188.169Z" fill="#E0E0E0"/>
<path opacity="0.8" d="M228.889 162.179L316.274 111.724C317.012 111.293 317.603 111.601 317.603 112.389C317.572 112.837 317.435 113.271 317.204 113.656C316.973 114.041 316.654 114.366 316.274 114.604L228.889 165.058C228.151 165.489 227.56 165.181 227.56 164.381C227.592 163.935 227.729 163.503 227.96 163.12C228.191 162.737 228.51 162.415 228.889 162.179Z" fill="#E0E0E0"/>
<path opacity="0.8" d="M228.889 170.83L316.274 120.375C317.012 119.957 317.603 120.252 317.603 121.052C317.571 121.5 317.434 121.934 317.203 122.318C316.972 122.703 316.654 123.028 316.274 123.267L228.889 173.722C228.151 174.14 227.56 173.845 227.56 173.045C227.592 172.597 227.729 172.163 227.96 171.778C228.191 171.393 228.509 171.068 228.889 170.83Z" fill="#E0E0E0"/>
<path opacity="0.8" d="M228.889 179.493L316.274 129.039C317.012 128.608 317.603 128.916 317.603 129.703C317.572 130.151 317.435 130.585 317.204 130.97C316.973 131.355 316.654 131.68 316.274 131.918L228.889 182.373C228.151 182.803 227.56 182.496 227.56 181.708C227.591 181.26 227.728 180.826 227.959 180.441C228.19 180.056 228.509 179.731 228.889 179.493Z" fill="#E0E0E0"/>
<path opacity="0.8" d="M228.889 188.169L316.274 137.714C317.012 137.296 317.603 137.591 317.603 138.391C317.571 138.839 317.434 139.273 317.203 139.658C316.972 140.043 316.654 140.368 316.274 140.606L228.889 191.061C228.151 191.479 227.56 191.184 227.56 190.384C227.592 189.936 227.729 189.502 227.96 189.118C228.191 188.733 228.509 188.408 228.889 188.169Z" fill="#E0E0E0"/>
<path d="M228.889 224.939L316.274 174.484C317.012 174.054 317.603 174.361 317.603 175.149C317.572 175.597 317.435 176.031 317.204 176.416C316.973 176.801 316.654 177.126 316.274 177.364L228.889 227.819C228.151 228.249 227.56 227.942 227.56 227.142C227.592 226.696 227.729 226.263 227.96 225.881C228.191 225.498 228.51 225.175 228.889 224.939Z" fill="#E0E0E0"/>
<path d="M228.889 233.59L316.274 183.135C317.012 182.717 317.603 183.012 317.603 183.812C317.571 184.26 317.434 184.694 317.203 185.079C316.972 185.464 316.654 185.789 316.274 186.027L228.889 236.482C228.151 236.9 227.56 236.605 227.56 235.805C227.592 235.357 227.729 234.923 227.96 234.539C228.191 234.154 228.509 233.829 228.889 233.59Z" fill="#E0E0E0"/>
<path d="M228.889 242.254L316.274 191.799C317.012 191.369 317.603 191.676 317.603 192.464C317.572 192.912 317.435 193.346 317.204 193.731C316.973 194.116 316.654 194.441 316.274 194.679L228.889 245.133C228.151 245.564 227.56 245.257 227.56 244.469C227.591 244.021 227.728 243.587 227.959 243.202C228.19 242.817 228.509 242.492 228.889 242.254Z" fill="#E0E0E0"/>
<path d="M228.889 250.929L316.274 200.475C317.012 200.056 317.603 200.352 317.603 201.152C317.571 201.599 317.434 202.033 317.203 202.418C316.972 202.803 316.654 203.128 316.274 203.367L228.889 253.821C228.151 254.24 227.56 253.944 227.56 253.144C227.592 252.697 227.729 252.263 227.96 251.878C228.191 251.493 228.509 251.168 228.889 250.929Z" fill="#E0E0E0"/>
<path opacity="0.8" d="M228.889 224.939L316.274 174.484C317.012 174.054 317.603 174.361 317.603 175.149C317.572 175.597 317.435 176.031 317.204 176.416C316.973 176.801 316.654 177.126 316.274 177.364L228.889 227.819C228.151 228.249 227.56 227.942 227.56 227.142C227.592 226.696 227.729 226.263 227.96 225.881C228.191 225.498 228.51 225.175 228.889 224.939Z" fill="#E0E0E0"/>
<path opacity="0.8" d="M228.889 233.59L316.274 183.135C317.012 182.717 317.603 183.012 317.603 183.812C317.571 184.26 317.434 184.694 317.203 185.079C316.972 185.464 316.654 185.789 316.274 186.027L228.889 236.482C228.151 236.9 227.56 236.605 227.56 235.805C227.592 235.357 227.729 234.923 227.96 234.539C228.191 234.154 228.509 233.829 228.889 233.59Z" fill="#E0E0E0"/>
<path opacity="0.8" d="M228.889 242.254L316.274 191.799C317.012 191.369 317.603 191.676 317.603 192.464C317.572 192.912 317.435 193.346 317.204 193.731C316.973 194.116 316.654 194.441 316.274 194.679L228.889 245.133C228.151 245.564 227.56 245.257 227.56 244.469C227.591 244.021 227.728 243.587 227.959 243.202C228.19 242.817 228.509 242.492 228.889 242.254Z" fill="#E0E0E0"/>
<path opacity="0.8" d="M228.889 250.929L316.274 200.475C317.012 200.056 317.603 200.352 317.603 201.152C317.571 201.599 317.434 202.033 317.203 202.418C316.972 202.803 316.654 203.128 316.274 203.367L228.889 253.821C228.151 254.24 227.56 253.944 227.56 253.144C227.592 252.697 227.729 252.263 227.96 251.878C228.191 251.493 228.509 251.168 228.889 250.929Z" fill="#E0E0E0"/>
<path d="M228.889 288.93L316.274 238.476C317.012 238.045 317.603 238.353 317.603 239.14C317.572 239.588 317.435 240.022 317.204 240.407C316.973 240.792 316.654 241.117 316.274 241.355L228.889 291.81C228.151 292.24 227.56 291.933 227.56 291.133C227.592 290.687 227.729 290.255 227.96 289.872C228.191 289.489 228.51 289.166 228.889 288.93Z" fill="#E0E0E0"/>
<path d="M228.889 297.581L316.274 247.127C317.012 246.708 317.603 247.004 317.603 247.803C317.571 248.251 317.434 248.685 317.203 249.07C316.972 249.455 316.654 249.78 316.274 250.019L228.889 300.473C228.151 300.891 227.56 300.596 227.56 299.796C227.592 299.348 227.729 298.915 227.96 298.53C228.191 298.145 228.509 297.82 228.889 297.581Z" fill="#E0E0E0"/>
<path d="M228.889 306.245L316.274 255.79C317.012 255.359 317.603 255.667 317.603 256.455C317.572 256.903 317.435 257.337 317.204 257.722C316.973 258.107 316.654 258.432 316.274 258.67L228.889 309.124C228.151 309.555 227.56 309.247 227.56 308.46C227.591 308.012 227.728 307.577 227.959 307.192C228.19 306.807 228.509 306.483 228.889 306.245Z" fill="#E0E0E0"/>
<path d="M228.889 314.92L316.274 264.466C317.012 264.048 317.603 264.343 317.603 265.143C317.571 265.591 317.434 266.024 317.203 266.409C316.972 266.794 316.654 267.119 316.274 267.358L228.889 317.812C228.151 318.231 227.56 317.935 227.56 317.136C227.592 316.688 227.729 316.254 227.96 315.869C228.191 315.484 228.509 315.159 228.889 314.92Z" fill="#E0E0E0"/>
<path opacity="0.8" d="M228.889 288.93L316.274 238.476C317.012 238.045 317.603 238.353 317.603 239.14C317.572 239.588 317.435 240.022 317.204 240.407C316.973 240.792 316.654 241.117 316.274 241.355L228.889 291.81C228.151 292.24 227.56 291.933 227.56 291.133C227.592 290.687 227.729 290.255 227.96 289.872C228.191 289.489 228.51 289.166 228.889 288.93Z" fill="#E0E0E0"/>
<path opacity="0.8" d="M228.889 297.581L316.274 247.127C317.012 246.708 317.603 247.004 317.603 247.803C317.571 248.251 317.434 248.685 317.203 249.07C316.972 249.455 316.654 249.78 316.274 250.019L228.889 300.473C228.151 300.891 227.56 300.596 227.56 299.796C227.592 299.348 227.729 298.915 227.96 298.53C228.191 298.145 228.509 297.82 228.889 297.581Z" fill="#E0E0E0"/>
<path opacity="0.8" d="M228.889 306.245L316.274 255.79C317.012 255.359 317.603 255.667 317.603 256.455C317.572 256.903 317.435 257.337 317.204 257.722C316.973 258.107 316.654 258.432 316.274 258.67L228.889 309.124C228.151 309.555 227.56 309.247 227.56 308.46C227.591 308.012 227.728 307.577 227.959 307.192C228.19 306.807 228.509 306.483 228.889 306.245Z" fill="#E0E0E0"/>
<path opacity="0.8" d="M228.889 314.92L316.274 264.466C317.012 264.048 317.603 264.343 317.603 265.143C317.571 265.591 317.434 266.024 317.203 266.409C316.972 266.794 316.654 267.119 316.274 267.358L228.889 317.812C228.151 318.231 227.56 317.935 227.56 317.136C227.592 316.688 227.729 316.254 227.96 315.869C228.191 315.484 228.509 315.159 228.889 314.92Z" fill="#E0E0E0"/>
<path d="M229.689 204.991L235.462 201.681C236.692 201.004 237.591 201.558 237.591 202.912V209.557C237.553 210.297 237.34 211.017 236.97 211.659C236.6 212.3 236.083 212.845 235.462 213.249L229.726 216.559C228.495 217.236 227.597 216.694 227.597 215.328V208.708C227.628 207.967 227.834 207.244 228.197 206.599C228.561 205.953 229.072 205.402 229.689 204.991Z" fill="#34A573"/>
<path opacity="0.2" d="M229.689 204.991L235.462 201.681C236.692 201.004 237.591 201.558 237.591 202.912V209.557C237.553 210.297 237.34 211.017 236.97 211.659C236.6 212.3 236.083 212.845 235.462 213.249L229.726 216.559C228.495 217.236 227.597 216.694 227.597 215.328V208.708C227.628 207.967 227.834 207.244 228.197 206.599C228.561 205.953 229.072 205.402 229.689 204.991Z" fill="white"/>
<path d="M245.222 198.912L279.88 178.903C281.357 178.053 282.551 178.656 282.551 180.244C282.486 181.14 282.21 182.009 281.746 182.779C281.282 183.549 280.642 184.198 279.88 184.674L245.222 204.634C243.745 205.483 242.551 204.88 242.551 203.293C242.623 202.405 242.903 201.546 243.366 200.786C243.83 200.025 244.466 199.383 245.222 198.912Z" fill="#34A573"/>
<path opacity="0.8" d="M245.222 198.912L279.88 178.903C281.357 178.053 282.551 178.656 282.551 180.244C282.486 181.14 282.21 182.009 281.746 182.779C281.282 183.549 280.642 184.198 279.88 184.674L245.222 204.634C243.745 205.483 242.551 204.88 242.551 203.293C242.623 202.405 242.903 201.546 243.366 200.786C243.83 200.025 244.466 199.383 245.222 198.912Z" fill="white"/>
<path d="M229.689 268.49L235.462 265.179C236.692 264.49 237.591 265.044 237.591 266.41V273.03C237.552 273.77 237.339 274.49 236.969 275.131C236.599 275.773 236.082 276.318 235.462 276.722L229.726 280.033C228.495 280.709 227.597 280.156 227.597 278.802V272.181C227.631 271.445 227.838 270.727 228.202 270.085C228.565 269.444 229.075 268.897 229.689 268.49Z" fill="#34A573"/>
<path opacity="0.2" d="M229.689 268.49L235.462 265.179C236.692 264.49 237.591 265.044 237.591 266.41V273.03C237.552 273.77 237.339 274.49 236.969 275.131C236.599 275.773 236.082 276.318 235.462 276.722L229.726 280.033C228.495 280.709 227.597 280.156 227.597 278.802V272.181C227.631 271.445 227.838 270.727 228.202 270.085C228.565 269.444 229.075 268.897 229.689 268.49Z" fill="white"/>
<path d="M245.222 262.472L279.88 242.451C281.357 241.601 282.551 242.204 282.551 243.804C282.485 244.7 282.209 245.569 281.745 246.338C281.281 247.108 280.642 247.757 279.88 248.234L245.222 268.244C243.745 269.093 242.551 268.49 242.551 266.89C242.618 265.996 242.894 265.13 243.358 264.362C243.822 263.595 244.461 262.947 245.222 262.472Z" fill="#34A573"/>
<path opacity="0.8" d="M245.222 262.472L279.88 242.451C281.357 241.601 282.551 242.204 282.551 243.804C282.485 244.7 282.209 245.569 281.745 246.338C281.281 247.108 280.642 247.757 279.88 248.234L245.222 268.244C243.745 269.093 242.551 268.49 242.551 266.89C242.618 265.996 242.894 265.13 243.358 264.362C243.822 263.595 244.461 262.947 245.222 262.472Z" fill="white"/>
<path d="M237.849 324.384L243.585 321.074C244.815 320.397 245.726 320.95 245.726 322.304V328.925C245.686 329.665 245.471 330.386 245.099 331.028C244.726 331.669 244.208 332.214 243.585 332.617L237.849 335.927C236.68 336.616 235.72 336.062 235.72 334.696V328.076C235.763 327.337 235.978 326.619 236.347 325.978C236.717 325.337 237.231 324.791 237.849 324.384Z" fill="#34A573"/>
<path d="M228.889 346.879L252.557 333.219C253.295 332.801 253.886 333.096 253.886 333.896C253.854 334.344 253.717 334.778 253.486 335.163C253.256 335.548 252.937 335.873 252.557 336.111L228.889 349.771C228.151 350.189 227.56 349.894 227.56 349.094C227.592 348.646 227.729 348.213 227.96 347.828C228.191 347.443 228.509 347.118 228.889 346.879Z" fill="#E0E0E0"/>
<path d="M269.689 305.999L275.424 302.688C276.594 302.011 277.554 302.565 277.554 303.919V310.539C277.514 311.279 277.3 311.998 276.93 312.64C276.56 313.281 276.044 313.826 275.424 314.231L269.689 317.542C268.458 318.218 267.547 317.677 267.547 316.311V309.69C267.589 308.95 267.804 308.23 268.176 307.588C268.548 306.947 269.067 306.402 269.689 305.999Z" fill="#34A573"/>
<path d="M260.717 328.494L284.385 314.834C285.123 314.403 285.714 314.711 285.714 315.511C285.682 315.957 285.545 316.389 285.314 316.772C285.083 317.155 284.764 317.478 284.385 317.714L260.717 331.386C259.979 331.816 259.388 331.509 259.388 330.721C259.417 330.271 259.552 329.834 259.784 329.447C260.015 329.06 260.335 328.733 260.717 328.494Z" fill="#E0E0E0"/>
<path d="M301.517 287.613L307.252 284.303C308.421 283.614 309.381 284.167 309.381 285.533V292.154C309.339 292.893 309.125 293.612 308.755 294.253C308.385 294.894 307.871 295.44 307.252 295.846L301.517 299.156C300.286 299.833 299.387 299.279 299.387 297.926V291.305C299.425 290.565 299.638 289.845 300.008 289.203C300.378 288.561 300.895 288.017 301.517 287.613Z" fill="#34A573"/>
<path opacity="0.2" d="M237.849 324.384L243.585 321.074C244.815 320.397 245.726 320.95 245.726 322.304V328.925C245.686 329.665 245.471 330.386 245.099 331.028C244.726 331.669 244.208 332.214 243.585 332.617L237.849 335.927C236.68 336.616 235.72 336.062 235.72 334.696V328.076C235.763 327.337 235.978 326.619 236.347 325.978C236.717 325.337 237.231 324.791 237.849 324.384Z" fill="white"/>
<path opacity="0.2" d="M269.689 305.999L275.424 302.688C276.594 302.011 277.554 302.565 277.554 303.919V310.539C277.514 311.279 277.3 311.998 276.93 312.64C276.56 313.281 276.044 313.826 275.424 314.231L269.689 317.542C268.458 318.218 267.547 317.677 267.547 316.311V309.69C267.589 308.95 267.804 308.23 268.176 307.588C268.548 306.947 269.067 306.402 269.689 305.999Z" fill="white"/>
<path opacity="0.2" d="M301.517 287.613L307.252 284.303C308.421 283.614 309.381 284.167 309.381 285.533V292.154C309.339 292.893 309.125 293.612 308.755 294.253C308.385 294.894 307.871 295.44 307.252 295.846L301.517 299.156C300.286 299.833 299.387 299.279 299.387 297.926V291.305C299.425 290.565 299.638 289.845 300.008 289.203C300.378 288.561 300.895 288.017 301.517 287.613Z" fill="white"/>
<path d="M292.544 310.109L316.212 296.449C316.95 296.019 317.541 296.326 317.541 297.114C317.51 297.562 317.374 297.996 317.143 298.381C316.912 298.766 316.593 299.091 316.212 299.329L292.544 312.989C291.818 313.419 291.215 313.112 291.215 312.312C291.25 311.866 291.388 311.435 291.619 311.053C291.85 310.67 292.167 310.347 292.544 310.109Z" fill="#E0E0E0"/>
<mask id="mask0_142_782" style="mask-type:luminance" maskUnits="userSpaceOnUse" x="150" y="101" width="51" height="66">
<path d="M175.265 104.783C161.456 112.561 150.268 131.943 150.268 148.064C150.268 164.184 161.456 170.805 175.265 162.831C189.074 154.856 200.262 135.487 200.262 119.538C200.262 103.59 189.062 96.9938 175.265 104.783Z" fill="white"/>
</mask>
<g mask="url(#mask0_142_782)">
<path d="M175.265 104.783C161.456 112.561 150.268 131.943 150.268 148.064C150.268 164.184 161.456 170.805 175.265 162.831C189.074 154.856 200.262 135.487 200.262 119.538C200.262 103.59 189.062 96.9938 175.265 104.783Z" fill="#FAFAFA"/>
<path d="M187.376 154.463L167.363 159.828C167.019 159.94 166.652 159.965 166.295 159.9C165.939 159.834 165.604 159.681 165.322 159.454C165.039 159.226 164.818 158.932 164.678 158.598C164.538 158.264 164.484 157.9 164.52 157.539V123.476C164.591 120.657 165.533 117.928 167.216 115.665C168.9 113.402 171.243 111.716 173.923 110.838L180.766 109.004C185.973 107.614 190.194 111.01 190.194 116.585V150.66C190.172 151.507 189.889 152.326 189.385 153.006C188.881 153.686 188.179 154.195 187.376 154.463Z" fill="#37474F"/>
<path d="M188.336 163.274L186.231 153.983C186.231 153.983 186.231 141.443 184.446 140.286C182.662 139.129 182.145 138.908 182.145 138.908C184.434 138.12 189.259 137.529 190.76 141.935C192.2 146.094 194.354 156.345 195.376 161.391L188.336 163.274Z" fill="#F28F8F"/>
<path d="M188.163 163.323L181.025 139.018C184.188 137.788 188.25 136.766 190.219 140.027C191.991 142.956 194.822 158.302 195.376 161.39L188.163 163.323Z" fill="#34A573"/>
<g opacity="0.4">
<path d="M188.163 163.323L181.025 139.018C184.188 137.788 188.25 136.766 190.219 140.027C191.991 142.956 194.822 158.302 195.376 161.39L188.163 163.323Z" fill="black"/>
</g>
<path d="M189.123 163.065L182.108 164.947C182.391 162.933 183.055 160.991 184.065 159.225C185.469 157.202 187.489 155.687 189.825 154.906C189.319 157.595 189.084 160.328 189.123 163.065Z" fill="#34A573"/>
<path d="M189.123 163.065L182.108 164.947C182.391 162.933 183.055 160.991 184.065 159.225C185.469 157.202 187.489 155.687 189.825 154.906C189.319 157.595 189.084 160.328 189.123 163.065Z" fill="#34A573"/>
<g opacity="0.7">
<path d="M189.123 163.065L182.108 164.947C182.391 162.933 183.055 160.991 184.065 159.225C185.469 157.202 187.489 155.687 189.825 154.906C189.319 157.595 189.084 160.328 189.123 163.065Z" fill="black"/>
</g>
<path d="M187.622 163.471L167.93 168.725L165.764 162.018C165.764 162.018 171.511 148.568 164.41 145.11C165.308 144.433 172.877 141.48 172.877 141.48L181.013 139.019C182.564 138.6 188.828 141.381 190.416 147.547C190.982 149.725 190.785 151.681 187.597 163.027C187.634 163.175 187.622 163.323 187.622 163.471Z" fill="#34A573"/>
<path d="M185.997 113.188C187.351 113.681 189.025 116.88 188.865 124.596C188.729 131.143 186.76 133.21 185.776 133.998C184.301 134.736 182.674 135.12 181.025 135.118V139.019C181.025 139.019 183.585 141.48 183.425 143.35C183.265 145.221 179.733 146.55 177.345 145.442C175.601 144.459 174.093 143.107 172.926 141.48V132.497C172.747 132.704 172.527 132.873 172.282 132.995C172.036 133.116 171.768 133.188 171.494 133.205C171.221 133.222 170.946 133.185 170.687 133.095C170.428 133.005 170.189 132.864 169.985 132.681C169.601 132.418 169.273 132.081 169.021 131.689C168.77 131.297 168.599 130.858 168.52 130.399C168.441 129.94 168.455 129.47 168.56 129.017C168.666 128.563 168.862 128.135 169.136 127.759C170.366 126.147 172.52 125.913 173.357 127.525C174.399 124.997 176.264 122.894 178.65 121.557C182.539 119.194 184.656 117.089 185.997 113.188Z" fill="#FFA8A7"/>
<path d="M182.096 124.781C182.101 125.014 182.034 125.243 181.904 125.437C181.774 125.631 181.587 125.78 181.37 125.864C181.277 125.896 181.178 125.905 181.081 125.89C180.985 125.875 180.893 125.837 180.814 125.779C180.735 125.721 180.672 125.644 180.629 125.556C180.587 125.468 180.566 125.371 180.57 125.273C180.564 125.04 180.631 124.81 180.761 124.616C180.891 124.423 181.078 124.274 181.296 124.19C181.388 124.158 181.487 124.149 181.584 124.164C181.681 124.178 181.773 124.217 181.851 124.275C181.93 124.333 181.993 124.409 182.036 124.497C182.079 124.586 182.099 124.683 182.096 124.781Z" fill="#37474F"/>
<path d="M182.292 130.244L184.065 130.367C184.013 130.637 183.872 130.882 183.664 131.063C183.457 131.244 183.195 131.35 182.92 131.364C182.428 131.327 182.145 130.798 182.292 130.244Z" fill="#F28F8F"/>
<path d="M188.348 120.597L186.81 119.87C186.901 119.632 187.078 119.437 187.305 119.321C187.532 119.205 187.794 119.177 188.04 119.243C188.151 119.311 188.246 119.4 188.321 119.505C188.396 119.61 188.45 119.729 188.479 119.855C188.507 119.981 188.51 120.112 188.488 120.239C188.466 120.366 188.418 120.488 188.348 120.597Z" fill="#37474F"/>
<path d="M179.88 123.477L181.419 121.913C181.337 121.83 181.239 121.766 181.131 121.723C181.022 121.681 180.906 121.662 180.79 121.668C180.673 121.674 180.56 121.704 180.456 121.757C180.352 121.81 180.261 121.884 180.188 121.975C179.975 122.154 179.828 122.399 179.772 122.672C179.716 122.945 179.754 123.228 179.88 123.477Z" fill="#37474F"/>
<path d="M187.991 122.615C187.998 122.849 187.932 123.079 187.802 123.273C187.672 123.467 187.484 123.616 187.265 123.698C187.171 123.731 187.071 123.739 186.973 123.724C186.876 123.709 186.783 123.67 186.704 123.61C186.625 123.55 186.562 123.472 186.52 123.382C186.478 123.293 186.459 123.194 186.465 123.095C186.461 122.862 186.529 122.633 186.659 122.44C186.788 122.246 186.974 122.097 187.191 122.012C187.285 121.979 187.385 121.97 187.483 121.986C187.58 122.001 187.673 122.04 187.752 122.1C187.831 122.16 187.894 122.238 187.936 122.328C187.978 122.417 187.997 122.516 187.991 122.615Z" fill="#37474F"/>
<path d="M184.397 123.107L184.508 127.993L186.933 126.541L184.397 123.107Z" fill="#F28F8F"/>
<path d="M181.025 135.118C179.08 135.364 175.068 135.204 174.44 133.678C174.668 134.427 175.169 135.064 175.843 135.462C177.074 136.25 181.025 136.422 181.025 136.422V135.118Z" fill="#F28F8F"/>
<path d="M168.041 168.713L167.216 165.784L169.382 168.356L168.041 168.713Z" fill="#34A573"/>
<path d="M166.428 169.143C165.544 164.933 164.347 160.795 162.847 156.764C160.779 151.09 163.093 146.193 164.483 145.11C165.874 144.027 172.951 141.479 172.951 141.479C175.511 148.765 176.213 158.523 176.274 166.51L166.428 169.143Z" fill="#34A573"/>
<path opacity="0.4" d="M166.428 169.143C165.544 164.933 164.347 160.795 162.847 156.764C160.779 151.09 163.093 146.193 164.483 145.11C165.874 144.027 172.951 141.479 172.951 141.479C175.511 148.765 176.213 158.523 176.274 166.51L166.428 169.143Z" fill="black"/>
<path d="M162.933 170.079L155.905 171.961C155.709 171.829 155.524 171.681 155.351 171.518C155.351 171.518 158.674 158.696 159.733 154.438C160.791 150.18 161.604 147.251 164.459 145.11C169.591 148.445 167.216 157.711 167.216 157.711L162.933 170.079Z" fill="#34A573"/>
<path opacity="0.4" d="M162.933 170.079L155.905 171.961C155.709 171.829 155.524 171.681 155.351 171.518C155.351 171.518 158.674 158.696 159.733 154.438C160.791 150.18 161.604 147.251 164.459 145.11C169.591 148.445 167.216 157.711 167.216 157.711L162.933 170.079Z" fill="black"/>
</g>
<path d="M60.6073 88.1331V63.755C60.5334 59.0295 63.6103 54.2917 69.8503 50.6984C82.1579 43.5732 102.17 43.5732 114.502 50.6984C120.742 54.2917 123.819 59.0295 123.745 63.755V88.047C123.745 92.7479 120.718 101.153 114.502 104.734C102.195 111.859 82.1825 111.859 69.8503 104.734C63.6965 101.19 60.6196 92.8463 60.6073 88.1824V88.1331Z" fill="#EBEBEB"/>
<path d="M92.1763 33.5073L144.274 63.5831L92.1763 93.6589L40.0781 63.5831L92.1763 33.5073Z" fill="#F5F5F5"/>
<path d="M66.1089 78.6087L91.7703 63.9646C91.8761 63.904 91.9929 63.8648 92.1139 63.8493C92.2349 63.8338 92.3578 63.8423 92.4755 63.8743C92.5932 63.9063 92.7035 63.9612 92.8 64.0358C92.8965 64.1104 92.9773 64.2033 93.038 64.3091C93.0986 64.415 93.1377 64.5317 93.1532 64.6527C93.1687 64.7737 93.1602 64.8965 93.1282 65.0142C93.0962 65.1319 93.0413 65.2422 92.9667 65.3387C92.8921 65.4352 92.7992 65.516 92.6933 65.5766L67.9427 79.667L66.1089 78.6087Z" fill="#E0E0E0"/>
<path d="M144.274 63.583V65.7366L92.1763 95.8V93.6588L144.274 63.583Z" fill="#E6E6E6"/>
<path d="M40.0781 63.583V65.7366L92.1763 95.8V93.6588L40.0781 63.583Z" fill="#F0F0F0"/>
<path d="M64.8164 80.0119L66.4041 80.9226C66.6441 80.5306 66.9784 80.2048 67.3764 79.9749L67.9302 79.6549L66.121 78.6211C65.5866 78.9801 65.1406 79.4556 64.8164 80.0119Z" fill="#E0E0E0"/>
<path d="M123.807 77.5503L92.1763 99.0242L60.6318 77.5995L92.1763 95.8L123.807 77.5503Z" fill="#E0E0E0"/>
<path d="M62.7859 105.337C63.2273 105.565 63.7168 105.683 64.2136 105.683C64.7103 105.683 65.1998 105.565 65.6413 105.337L67.992 120.51C67.992 123.377 60.5459 123.377 60.5459 120.51L62.7859 105.337Z" fill="#F5F5F5"/>
<path d="M62.6503 114L62.1826 122.319C62.0291 122.273 61.8806 122.211 61.7395 122.135L62.6503 114Z" fill="#EBEBEB"/>
<path d="M66.1702 122.381L65.1855 108.844L66.6501 122.184C66.4942 122.259 66.3339 122.325 66.1702 122.381Z" fill="#EBEBEB"/>
<path d="M64.4965 122.652H64.0288L64.275 111.909L64.4965 122.652Z" fill="#EBEBEB"/>
<path d="M64.2013 106.605C64.7469 106.591 65.2752 106.411 65.7151 106.088C65.9022 105.95 66.0293 105.745 66.0705 105.517C66.1117 105.288 66.0638 105.052 65.9367 104.857C65.8023 104.666 65.5986 104.534 65.3688 104.49C65.1389 104.447 64.9011 104.494 64.7059 104.623C64.5888 104.737 64.4321 104.8 64.269 104.8C64.1059 104.8 63.9492 104.737 63.8321 104.623C63.7363 104.538 63.6239 104.474 63.502 104.434C63.38 104.395 63.2512 104.381 63.1237 104.395C62.9962 104.408 62.8729 104.447 62.7615 104.511C62.6501 104.574 62.5532 104.66 62.4768 104.763C62.4005 104.866 62.3464 104.983 62.318 105.108C62.2897 105.233 62.2877 105.363 62.3121 105.489C62.3366 105.615 62.3869 105.734 62.46 105.839C62.5331 105.944 62.6273 106.033 62.7367 106.1C63.1603 106.417 63.6724 106.594 64.2013 106.605Z" fill="#E0E0E0"/>
<path d="M64.2626 104.242C64.3833 104.243 64.503 104.221 64.6149 104.176C64.7269 104.131 64.8287 104.064 64.9146 103.98C65.0005 103.895 65.0687 103.794 65.1152 103.683C65.1618 103.571 65.1857 103.452 65.1857 103.331V81.8203C65.1869 81.3367 65.3148 80.8618 65.5567 80.443C65.7985 80.0241 66.1459 79.6759 66.5642 79.433L92.6932 64.5428C92.9008 64.424 93.0532 64.2283 93.1177 63.9981C93.1822 63.7678 93.1535 63.5215 93.0378 63.3122C92.9802 63.2082 92.9025 63.1168 92.8092 63.0431C92.7159 62.9694 92.6089 62.9149 92.4944 62.8829C92.38 62.8508 92.2603 62.8418 92.1423 62.8564C92.0243 62.8709 91.9104 62.9087 91.8071 62.9676L65.6165 77.8824C64.9183 78.2855 64.3383 78.8647 63.9344 79.5623C63.5305 80.2598 63.3169 81.0512 63.3149 81.8573V103.368C63.3197 103.488 63.348 103.605 63.3982 103.714C63.4484 103.823 63.5196 103.92 63.6076 104.001C63.6956 104.083 63.7988 104.146 63.9112 104.187C64.0236 104.228 64.143 104.247 64.2626 104.242Z" fill="#FAFAFA"/>
<path d="M66.2812 103.332C66.2837 102.932 66.1674 102.54 65.9471 102.207C65.7268 101.873 65.4124 101.613 65.0438 101.458C64.6752 101.303 64.269 101.262 63.8766 101.338C63.4843 101.415 63.1235 101.606 62.8399 101.888C62.5564 102.169 62.363 102.529 62.2841 102.921C62.2052 103.313 62.2444 103.719 62.3968 104.089C62.5492 104.458 62.8079 104.774 63.1401 104.997C63.4723 105.219 63.8631 105.338 64.2628 105.338C64.5273 105.339 64.7895 105.289 65.0343 105.189C65.2791 105.088 65.5017 104.941 65.6893 104.754C65.8769 104.568 66.0258 104.346 66.1274 104.102C66.229 103.858 66.2813 103.596 66.2812 103.332Z" fill="#F5F5F5"/>
<path d="M62.2686 103.443C62.3527 103.651 62.4807 103.838 62.6438 103.993C62.8069 104.147 63.0014 104.264 63.2139 104.337C63.4265 104.409 63.6522 104.435 63.8756 104.412C64.099 104.39 64.3149 104.319 64.5086 104.206C64.7558 104.057 64.9603 103.846 65.1022 103.595C65.2442 103.344 65.3188 103.06 65.3188 102.772C65.3188 102.483 65.2442 102.2 65.1022 101.948C64.9603 101.697 64.7558 101.487 64.5086 101.338C64.8851 101.39 65.2391 101.548 65.5294 101.793C65.8197 102.038 66.0343 102.361 66.1483 102.724C66.2622 103.086 66.2708 103.474 66.1731 103.841C66.0753 104.208 65.8752 104.54 65.5961 104.798C65.317 105.056 64.9703 105.23 64.5965 105.298C64.2227 105.367 63.837 105.328 63.4845 105.186C63.132 105.044 62.8271 104.805 62.6053 104.496C62.3835 104.187 62.2539 103.822 62.2317 103.443H62.2686Z" fill="#EBEBEB"/>
<path d="M420.827 91.4571L411.313 85.9802L416.544 84.8726L421.75 88.5033L420.827 91.4571Z" fill="#E0E0E0"/>
<path d="M404.175 42.4415C404.175 27.6744 395.128 20.8199 384.015 27.2313L367.596 36.7069C356.519 43.1184 347.449 60.3959 347.449 75.2123C347.449 75.8153 347.449 76.4429 347.449 76.9721C347.449 77.3043 347.449 77.5874 347.449 77.9073C347.449 78.2273 347.51 78.4857 347.535 78.7688C347.56 79.0518 347.609 79.421 347.658 79.7409C347.906 81.4897 348.343 83.2062 348.963 84.8602C349.221 85.4755 349.492 86.0908 349.787 86.6077C349.924 86.8931 350.08 87.1686 350.255 87.4322L350.415 87.6906C350.689 88.1314 351.006 88.5437 351.363 88.9212C351.56 89.1427 351.744 89.3765 351.953 89.5857L352.593 90.201C352.815 90.3733 353.024 90.5825 353.258 90.7548C353.479 90.9328 353.713 91.0933 353.959 91.2347L354.686 91.6531C355.626 92.1607 356.646 92.506 357.701 92.6745C357.782 92.6547 357.866 92.6547 357.947 92.6745C358.23 92.6745 358.489 92.736 358.772 92.736C359.071 92.7606 359.371 92.7606 359.67 92.736C360.461 92.7446 361.251 92.6579 362.021 92.4776C362.482 92.386 362.938 92.271 363.387 92.133C364.825 91.6925 366.205 91.081 367.498 90.3118L383.916 80.8362C385.041 80.1829 386.119 79.4509 387.141 78.6457C387.141 78.4488 387.141 78.2765 387.141 78.0919C387.141 77.9073 387.141 77.5135 387.141 77.292C387.141 76.7998 387.141 76.2953 387.141 75.7907C387.104 63.2017 394.685 48.3484 404.175 42.4415Z" fill="#E0E0E0"/>
<path d="M406.944 31.7966L397.405 26.3081C397.467 26.3081 398.378 32.941 398.378 32.941L405.454 33.7778L406.944 31.7966Z" fill="#E0E0E0"/>
<path d="M362.87 96.2933L354.058 91.2964L359.362 89.0195L362.87 96.2933Z" fill="#E0E0E0"/>
<path d="M367.596 90.4595C367.534 94.1063 366.362 97.6476 364.236 100.612C363.842 101.129 364.446 101.584 364.889 101.35C366.9 100.307 368.683 98.8715 370.132 97.1293C372.915 93.8399 374.862 89.9261 375.805 85.7217L367.596 90.4595Z" fill="#E0E0E0"/>
<path d="M364.335 101.326L373.873 106.814C373.873 106.814 379.227 102.298 379.227 93.1546L368.876 92.4531C368.876 92.4531 368.63 98.4092 364.335 101.326Z" fill="#E0E0E0"/>
<path d="M389.738 74.4249C389.738 74.8844 389.738 75.3274 389.738 75.754C389.738 76.0001 389.738 76.2093 389.738 76.4431C389.738 76.6769 389.738 76.8738 389.812 77.0953C389.885 77.3168 389.812 77.5876 389.898 77.8337C390.04 78.9238 390.296 79.9961 390.661 81.0332C390.714 81.2222 390.779 81.4072 390.858 81.587C390.948 81.8342 391.05 82.0766 391.165 82.3131C391.261 82.5417 391.372 82.7637 391.498 82.9776C391.595 83.192 391.71 83.3978 391.842 83.5929L391.965 83.7898C392.182 84.1288 392.421 84.4535 392.679 84.7619C392.814 84.9413 392.962 85.11 393.122 85.2665L393.59 85.7218C393.75 85.8715 393.918 86.0112 394.095 86.1402C394.263 86.2705 394.44 86.3897 394.624 86.4971C394.809 86.6078 394.981 86.7186 395.178 86.8171L395.744 87.0878L396.335 87.297C396.695 87.406 397.061 87.4964 397.43 87.5677H397.615C397.819 87.5865 398.025 87.5865 398.23 87.5677C398.451 87.5927 398.674 87.5927 398.895 87.5677C399.424 87.5675 399.952 87.5139 400.47 87.4077C400.885 87.3373 401.296 87.2428 401.701 87.1247C402.781 86.7936 403.818 86.3351 404.79 85.7587L417.098 78.6459C418.196 78.0124 419.23 77.2747 420.187 76.4431C420.531 76.1478 420.876 75.8278 421.221 75.5079C421.841 74.93 422.429 74.3178 422.981 73.6743L423.768 72.9605C423.978 72.7144 424.175 72.456 424.384 72.1976C424.435 72.1081 424.497 72.0254 424.568 71.9514C425.388 70.868 426.144 69.7381 426.833 68.5673C427.018 68.2596 427.19 67.9397 427.374 67.6197C427.559 67.2998 427.731 66.9798 427.904 66.6476C428.076 66.3153 428.236 65.983 428.408 65.6631L428.876 64.654C429.036 64.3217 429.184 63.9649 429.331 63.6449C429.59 63.0542 429.824 62.4143 430.033 61.8482C430.033 61.7375 430.119 61.6267 430.156 61.516C430.291 61.1714 430.402 60.8268 430.513 60.4823C430.734 59.8177 430.931 59.1532 431.128 58.4641C431.561 56.8467 431.886 55.2023 432.101 53.5417C432.101 53.2587 432.162 52.9879 432.199 52.7049C432.236 52.4219 432.199 52.225 432.261 51.9788C432.322 51.7327 432.261 51.4866 432.261 51.2405C432.261 50.7811 432.261 50.3257 432.261 49.8745C432.261 38.7991 425.479 33.6183 417.135 38.43L404.827 45.5551C396.519 50.3422 389.738 63.3003 389.738 74.4249Z" fill="#E0E0E0"/>
<path d="M436.704 43.1551L427.239 37.7158L423.67 40.2385L434.71 46.9207L436.704 43.1551Z" fill="#E0E0E0"/>
<path d="M404.212 91.9731L394.698 86.4969L402.156 84.2695L404.212 91.9731Z" fill="#E0E0E0"/>
<path d="M415.313 79.8394C415.313 81.8086 417.775 84.4916 420.593 84.9963C420.974 85.0701 420.876 85.907 420.421 86.227C418.741 87.1394 416.803 87.4601 414.919 87.1378C413.695 87.1013 412.504 86.7401 411.465 86.0913C410.427 85.4425 409.58 84.5294 409.011 83.4455L415.313 79.8394Z" fill="#34A573"/>
<path d="M393.541 32.7073L377.11 42.1952C366.033 48.6066 356.975 65.8842 356.975 80.6883C356.975 81.3036 356.975 81.9189 356.975 82.4604C356.975 82.7926 356.975 83.0757 356.975 83.3956C356.975 83.7156 357.036 83.9617 357.073 84.2447C357.11 84.5278 357.147 84.9215 357.196 85.2292C357.419 86.9714 357.831 88.684 358.427 90.3362C358.686 90.9638 358.956 91.5668 359.252 92.0959C359.388 92.3777 359.544 92.6492 359.719 92.9081C359.771 92.998 359.829 93.0843 359.892 93.1665C360.159 93.6316 360.472 94.0686 360.827 94.471C361.024 94.6925 361.221 94.9386 361.43 95.1355L362.058 95.7508C362.279 95.9231 362.501 96.1323 362.722 96.3046C362.946 96.4798 363.18 96.6402 363.424 96.7845L364.162 97.2029C365.099 97.7086 366.115 98.0538 367.166 98.2243C367.245 98.1971 367.332 98.1971 367.412 98.2243C367.695 98.2243 367.966 98.2243 368.236 98.2243C368.536 98.2425 368.836 98.2425 369.135 98.2243C369.926 98.2277 370.714 98.141 371.486 97.9659C371.946 97.8742 372.402 97.7592 372.852 97.6213C374.286 97.177 375.666 96.5701 376.962 95.8123C376.902 99.4576 375.725 102.997 373.59 105.952C373.196 106.482 373.799 106.937 374.255 106.703C376.269 105.658 378.052 104.219 379.498 102.47C382.274 99.1802 384.22 95.2723 385.172 91.0745L383.941 91.7514L393.332 86.3367C394.24 85.8131 395.116 85.2336 395.953 84.6016C395.881 84.2892 395.827 83.9728 395.793 83.654C395.793 83.4448 395.719 83.1372 395.695 82.8172C395.65 82.5443 395.621 82.269 395.608 81.9927V81.8451C395.596 81.6401 395.596 81.4347 395.608 81.2298C395.608 80.7621 395.608 80.2699 395.608 79.7776C395.608 67.324 402.993 53.2829 412.495 47.7821L413.541 47.1668C413.442 32.9288 404.495 26.382 393.541 32.7073Z" fill="#F0F0F0"/>
<path d="M426.71 43.8814L414.402 50.9942C406.07 55.8182 399.276 68.7764 399.276 79.901C399.276 80.3563 399.276 80.7993 399.276 81.23C399.276 81.6607 399.276 81.6853 399.276 81.9192C399.276 82.153 399.276 82.3499 399.338 82.5714C399.358 82.815 399.39 83.0573 399.436 83.2974C399.571 84.3929 399.827 85.47 400.199 86.5093C400.246 86.6999 400.312 86.8854 400.396 87.063C400.48 87.3069 400.578 87.5453 400.691 87.7768C400.79 88.0083 400.901 88.2342 401.024 88.4536C401.125 88.6683 401.245 88.8742 401.381 89.0689C401.41 89.1388 401.447 89.2049 401.491 89.2658C401.725 89.6104 401.959 89.9303 402.205 90.238C402.348 90.4146 402.5 90.5831 402.661 90.7425L403.128 91.1979C403.288 91.3475 403.456 91.4872 403.633 91.6163C403.795 91.7491 403.968 91.8684 404.15 91.9731C404.335 92.0839 404.507 92.1946 404.704 92.2931L405.27 92.5638L405.861 92.773C406.221 92.882 406.587 92.9724 406.956 93.0438H407.141C407.345 93.0625 407.551 93.0625 407.756 93.0438C407.981 93.0749 408.208 93.0749 408.433 93.0438C408.962 93.0468 409.489 92.9973 410.008 92.8961C410.424 92.8246 410.834 92.7302 411.239 92.613C412.321 92.2867 413.359 91.8279 414.328 91.2471L418.488 88.8597C419.065 89.932 419.916 90.8326 420.953 91.4701C421.991 92.1077 423.179 92.4595 424.396 92.49C426.281 92.8076 428.219 92.4826 429.897 91.567C430.341 91.284 430.451 90.4472 430.057 90.3364C427.239 89.8319 424.79 87.1492 424.79 85.1802L426.661 84.0973C427.757 83.4608 428.791 82.7234 429.75 81.8945C430.094 81.5992 430.439 81.2792 430.771 80.9593C431.396 80.3816 431.987 79.7694 432.544 79.1257C432.765 78.8673 432.987 78.6212 433.208 78.3258C433.43 78.0305 433.614 77.8336 433.824 77.5751L434.008 77.329C434.828 76.2456 435.584 75.1157 436.273 73.9449L436.827 72.9973C437.011 72.6774 437.184 72.3574 437.356 72.0251C437.528 71.6929 437.676 71.3606 437.848 71.0407L438.328 70.0316C438.488 69.687 438.624 69.3425 438.771 69.0225C439.03 68.4318 439.276 67.7919 439.485 67.2258L439.596 66.8936C439.731 66.549 439.854 66.2044 439.953 65.8599C440.187 65.183 440.371 64.5308 440.58 63.8417C441.014 62.2243 441.338 60.5798 441.553 58.9193C441.553 58.6363 441.614 58.3655 441.639 58.0825C441.664 57.7995 441.639 57.5902 441.7 57.3564C441.762 57.1226 441.7 56.8642 441.7 56.6181C441.7 56.1628 441.7 55.6951 441.7 55.2398C441.836 44.2013 435.042 39.0698 426.71 43.8814Z" fill="#F0F0F0"/>
<path d="M327.83 206.665C323.178 205.213 318.403 208.978 315.277 216.583C312.15 224.189 305.591 243.534 304.618 248.69C303.646 253.846 325.652 265.069 325.037 264.774C324.421 264.478 327.83 206.665 327.83 206.665Z" fill="#263238"/>
<path d="M317.603 385.667C316.938 385.913 316.778 387.169 316.68 389.654C316.606 391.537 316.2 394.823 318.403 395.475C320.606 396.127 323.843 395.795 325.258 394.023C327.018 391.808 328.212 389.864 330.723 387.156C332.913 384.818 335.264 382.628 336.15 379.342C336.95 376.364 336.286 375.084 334.255 374.223C331.473 372.992 327.092 376.905 324.913 377.521C323.03 378.05 318.255 385.421 317.603 385.667Z" fill="#263238"/>
<path d="M317.603 383.366V386.419C318.748 387.152 320.072 387.558 321.432 387.595C322.792 387.632 324.136 387.298 325.319 386.628C325.455 386.333 326.119 382.259 326.119 382.259L317.603 383.366Z" fill="#FFA8A7"/>
<path d="M342.329 403.265C342.329 403.265 341.455 405.923 340.987 408.187C340.606 410.033 340.077 413.109 340.717 414.512C341.357 415.915 343.892 416.801 347.793 416.764C350.329 416.764 354.28 418.475 356.975 419.976C359.67 421.477 365.59 422.154 368.532 421.81C372.003 421.404 375.609 419.349 376.175 417.946C376.741 416.543 375.99 415.005 367.793 411.51C367.719 411.51 356.396 407.818 352.421 403.425L342.329 403.265Z" fill="#263238"/>
<path d="M342.329 399.967C342.329 399.967 342.329 402.231 342.329 403.524C342.329 404.816 343.855 406.748 347.818 406.613C350.6 406.514 352.532 405.764 352.421 403.474V400.164L342.329 399.967Z" fill="#FFA8A7"/>
<path d="M315.609 342.843C316.289 337.434 317.497 332.105 319.215 326.931C319.215 326.931 318.132 313.21 317.603 300.203C317.037 286.149 317.603 268.478 317.369 264.983C317.369 264.983 362.723 255.803 363.535 272.046C364.347 288.29 361.738 329.638 361.209 336.776C360.68 343.913 359.436 350.226 357.96 361.794C356.483 373.362 352.421 400.164 352.421 400.164C350.852 400.963 349.111 401.364 347.35 401.329C345.59 401.295 343.865 400.827 342.329 399.967C342.329 399.967 339.141 367.479 339.474 359.247C339.733 353.131 340.784 347.076 342.6 341.231L340.987 316.188C340.224 304.534 339.424 298.96 339.24 293.877L338.267 293.385C338.267 293.385 337.27 313.493 336.741 320.63C336.212 327.768 335.067 334.61 333.049 347.864C331.252 359.357 325.923 383.686 325.923 383.686C320.741 386.492 317.652 383.329 317.652 383.329C317.652 383.329 314.231 352.811 315.609 342.843Z" fill="#455A64"/>
<path d="M339.24 293.914C339.24 293.914 328.237 288.487 322.735 283.602C322.735 283.602 327.843 290.801 334.563 294C334.563 294 336.95 318.969 336.938 318.477L338.317 293.865L339.24 293.914Z" fill="#37474F"/>
<path d="M349.036 201.521L346.353 216.288L333.012 215.316L335.806 198.567L349.036 201.521Z" fill="#FFA8A7"/>
<path d="M318.92 214.233C320.236 210.221 325.332 205.853 330.427 206.849C338.005 208.131 345.474 209.995 352.766 212.424C357.43 214.085 361.676 218.122 362.07 233.48L364.433 279.209L358.784 280.439L356.815 270.077L355.904 280.439C349.996 281.916 339.744 280.698 333.012 279.209C318.981 276.144 317.295 270.324 317.295 270.324C317.295 270.324 317.11 244.592 317.529 233.48C317.923 223.979 318.009 216.94 318.92 214.233Z" fill="#37474F"/>
<path d="M358.907 184.022C358.907 184.022 362.144 188.81 361.725 189.314C360.977 189.819 360.143 190.181 359.264 190.385L358.907 184.022Z" fill="#FFA8A7"/>
<path d="M349.036 168.861C352.15 170.436 357.529 173.34 359.005 184.723C360.532 196.414 358.525 200.18 356.95 201.73C355.879 202.776 350.07 202.838 347.166 201.964C343.473 200.869 335.326 197.755 331.584 191.75C327.178 184.686 326.193 175.223 331.166 171.457C338.144 166.166 346.402 167.532 349.036 168.861Z" fill="#FFA8A7"/>
<path d="M359.658 172.774C358.636 175.58 356.913 182.447 349.75 185.314C349.75 185.314 348.729 180.933 345.049 181.401C341.369 181.868 340.741 186.557 343.006 189.473C345.27 192.39 347.461 191.331 347.461 191.331C347.461 191.331 347.953 197.608 343.769 200.45C343.769 200.45 338.71 203.65 333.356 201.189C330.895 200.081 327.535 194.31 325.541 189.572C321.307 179.555 320.704 171.519 327.092 168.984C327.88 164.431 329.935 162.72 334.058 161.871C342.932 160.037 349.639 165.87 357.098 164.849C360.999 164.308 360.827 169.575 359.658 172.774Z" fill="#37474F"/>
<path d="M326.944 170.511L322.76 167.926C322.922 167.636 323.141 167.382 323.404 167.179C323.667 166.976 323.969 166.828 324.29 166.745C324.612 166.661 324.947 166.644 325.275 166.694C325.604 166.743 325.919 166.859 326.202 167.033C326.484 167.208 326.729 167.438 326.92 167.709C327.111 167.981 327.246 168.288 327.315 168.613C327.385 168.938 327.388 169.274 327.324 169.6C327.26 169.926 327.131 170.236 326.944 170.511Z" fill="#37474F"/>
<path d="M348.052 206.898L349.578 211.316C349.578 211.316 348.458 213.285 343.695 213.384C338.932 213.482 333.849 211.968 332.273 209.938C331.915 209.54 331.649 209.068 331.496 208.555C331.343 208.042 331.306 207.501 331.387 206.972C331.387 206.972 333.283 202.788 335.08 202.973L334.784 204.794C334.784 204.794 335.19 206.283 339.51 207.428C346.23 209.212 348.052 206.898 348.052 206.898Z" fill="#455A64"/>
<path d="M386.329 236.26C388.249 234.058 388.987 229.172 391.547 225.825C394.107 222.478 395.055 220.029 396.064 221.493C397.405 223.425 394.378 227.302 395.055 227.646C395.732 227.991 398.23 233.135 398.489 235.965C398.747 238.796 391.239 245.933 391.239 245.933L386.329 236.26Z" fill="#FFA8A7"/>
<path d="M348.052 206.898C348.361 206.892 348.667 206.97 348.936 207.124C349.204 207.278 349.426 207.502 349.578 207.772C350.331 209.131 351.005 210.533 351.596 211.969L349.578 211.317L348.052 206.898Z" fill="#455A64"/>
<path d="M394.845 227.252C394.845 227.252 403.916 226.465 405.233 227.252C406.55 228.04 406.156 231.966 405.233 234.378C404.31 236.789 399.682 238.352 395.387 241.257C395.387 240.814 394.845 227.252 394.845 227.252Z" fill="#FFA8A7"/>
<path d="M351.596 212.018C355.498 213.384 358.907 214.946 362.55 221.789C367.227 230.575 376.089 244.628 376.089 244.628L386.292 235.633C386.292 235.633 387.83 234.144 390.698 238.882C391.538 240.157 392.07 241.61 392.251 243.127C392.433 244.643 392.259 246.181 391.744 247.619C391.744 247.619 379.965 261.438 377.713 263.543C375.461 265.647 371.732 264.01 369.307 260.7C366.882 257.39 351.559 238.254 351.559 238.254C351.559 238.254 343.239 227.203 351.596 212.018Z" fill="#37474F"/>
<path d="M456.839 189.042H427.78C426.684 189.042 425.632 188.607 424.856 187.831C424.081 187.056 423.645 186.004 423.645 184.908V138.748C423.645 135.115 425.088 131.632 427.657 129.063C430.226 126.494 433.71 125.051 437.343 125.051H447.313C450.939 125.061 454.414 126.509 456.975 129.076C459.536 131.644 460.974 135.122 460.974 138.748V184.908C460.974 186.004 460.538 187.056 459.763 187.831C458.987 188.607 457.936 189.042 456.839 189.042Z" fill="#37474F"/>
<path d="M422.882 173.291C420.064 181.598 415.338 205.496 415.338 205.496C415.338 205.496 405.491 217.531 402.279 220.448C400.519 222.072 396.556 224.989 396.556 224.989L403.756 230.28C410.257 225.281 416.363 219.788 422.021 213.852C423.279 212.513 424.162 210.866 424.581 209.077L429.504 187.96C429.504 187.96 429.504 170.978 432.101 168.75C434.697 166.523 435.448 166.055 435.448 166.055C432.113 165.809 425.098 166.757 422.882 173.291Z" fill="#F28F8F"/>
<path d="M436.987 165.809C432.396 165.28 426.513 165.378 423.645 170.51C420.778 175.642 416.002 202.173 416.002 202.173C416.002 202.173 420.519 205.68 425.393 205.619L436.987 165.809Z" fill="#34A573"/>
<path d="M424.224 190.532C425.05 194.487 425.369 198.531 425.171 202.567C424.814 207.883 421.147 217.162 421.147 217.162C421.147 217.162 424.014 220.312 432.101 219.045C438.685 218.023 436.359 198.125 432.581 194.31C430.377 192.033 427.388 190.682 424.224 190.532Z" fill="#34A573"/>
<path opacity="0.3" d="M424.224 190.532C425.05 194.487 425.369 198.531 425.171 202.567C424.814 207.883 421.147 217.162 421.147 217.162C421.147 217.162 424.014 220.312 432.101 219.045C438.685 218.023 436.359 198.125 432.581 194.31C430.377 192.033 427.388 190.682 424.224 190.532Z" fill="black"/>
<path d="M439.436 331.065C439.488 331.973 439.261 332.875 438.784 333.65C437.566 335.661 436.134 337.534 434.513 339.237C432.236 341.698 428.827 344.59 426.378 346.719C425.024 347.949 424.975 349.697 426.919 350.324C430.544 351.207 434.369 350.674 437.614 348.835C440.076 347.531 443.498 341.452 445.516 340.59C447.842 339.544 449.134 339.027 449.922 337.957C450.518 337.348 450.889 336.556 450.977 335.709C451.064 334.862 450.861 334.01 450.402 333.293C449.307 331.25 447.657 328.112 446.981 328.469L447.19 329.109C446.661 330.77 442.131 332.702 439.805 332.247L439.436 331.065Z" fill="#37474F"/>
<path d="M463.153 261.636C464.199 250.56 467.202 232.741 464.125 219.549L423.264 221.715C422.131 234.723 420.802 275.332 422.23 279.984C423.879 285.472 438.611 323.461 439.46 331.103C439.519 332 439.291 332.892 438.808 333.65C437.592 335.666 436.16 337.544 434.537 339.25C433.43 340.48 432.076 341.711 430.648 342.941C430.529 343.117 430.457 343.32 430.439 343.532C430.439 344.763 433.541 345.144 435.362 344.615C437.634 343.813 439.591 342.309 440.95 340.32C441.996 338.93 444.347 336.259 445.873 334.253C446.382 333.634 446.816 332.957 447.165 332.235C447.573 331.334 447.642 330.316 447.362 329.368L447.264 329.06C446.465 326.569 445.969 323.991 445.787 321.381C445.22 313.001 443.78 293.644 442.451 288.487C441.528 284.73 440.126 281.107 438.279 277.707L442.944 241.417C442.944 241.417 443.436 273.413 444.888 281.571C446.033 288.106 446.476 296.277 447.817 307.488C449.048 318.219 450.476 337.121 450.476 337.121C450.512 337.127 450.55 337.127 450.587 337.121V346.153H458.23V340.911C458.23 338.544 458.427 336.181 458.82 333.847C460.051 326.71 462.611 310.38 463.14 304.854C463.977 296.092 460.814 285.079 460.814 285.079C460.814 285.079 462.131 272.44 463.153 261.636Z" fill="#FFA8A7"/>
<path d="M448.753 166.19C448.753 166.19 459.743 167.421 461.06 168.049C450.746 175.297 459.103 191.43 459.103 191.43L455.153 203.822C459.546 209.446 463.337 212.793 465.688 218.958C468.297 225.85 470.611 236.101 469.996 257.107C460.15 264.49 430.193 263.691 418.525 257.107C418.525 257.107 420.494 238.562 422.821 224.151C424.359 214.639 427.99 204.277 427.374 200.77C422.747 186.544 422.451 183.985 423.288 180.81C425.59 171.876 434.697 165.833 436.937 165.833L448.753 166.19Z" fill="#34A573"/>
<path opacity="0.6" d="M448.753 166.19C448.753 166.19 459.743 167.421 461.06 168.049C450.746 175.297 459.103 191.43 459.103 191.43L455.153 203.822C459.546 209.446 463.337 212.793 465.688 218.958C468.297 225.85 470.611 236.101 469.996 257.107C460.15 264.49 430.193 263.691 418.525 257.107C418.525 257.107 420.494 238.562 422.821 224.151C424.359 214.639 427.99 204.277 427.374 200.77C422.747 186.544 422.451 183.985 423.288 180.81C425.59 171.876 434.697 165.833 436.937 165.833L448.753 166.19Z" fill="white"/>
<path d="M450.513 342.325V341.23C449.553 344.91 447.633 348.269 444.95 350.964C442.488 353.192 439.165 355.776 438.303 358.274C437.442 360.772 442.254 361.892 445.43 361.572C448.507 361.196 451.341 359.713 453.405 357.4C455.423 355.087 455.386 353.512 456.322 352.232C457.257 350.952 459.436 349.549 459.94 348.072C460.098 346.694 459.946 345.299 459.497 343.987C459.14 342.621 458.746 341.107 458.266 341.23V342.079C457.159 342.95 455.786 343.415 454.377 343.396C453.306 343.421 450.5 343.187 450.513 342.325Z" fill="#37474F"/>
<path d="M458.23 342.055C457.122 342.926 455.749 343.391 454.34 343.372C453.208 343.372 450.451 343.187 450.463 342.326V341.23C449.503 344.91 447.584 348.269 444.9 350.964L443.042 352.626C441.737 354.078 442.107 355.345 445.171 355.604C448.236 355.862 450.931 354.016 453.245 351.174C455.218 348.315 456.888 345.259 458.23 342.055Z" fill="#FFA8A7"/>
<path d="M429.774 132.595C427.805 133.764 425.368 138.748 425.602 149.11C425.811 157.921 428.667 160.099 430.107 160.727C431.547 161.354 434.304 160.973 436.987 160.53V165.809C436.987 165.809 433.294 170.128 433.504 172.553C433.713 174.977 438.87 175.543 442.353 173.18C444.867 171.231 447.032 168.867 448.753 166.191L448.691 154.045C448.691 154.045 450.279 155.57 452.962 153.232C455.177 151.3 455.916 148.027 454.193 146.279C453.745 145.859 453.204 145.551 452.613 145.383C452.023 145.214 451.401 145.188 450.799 145.309C450.196 145.429 449.632 145.692 449.152 146.075C448.672 146.458 448.29 146.95 448.039 147.51C448.039 147.51 446.55 143.363 440.359 141.357C434.771 139.499 431.731 137.395 429.774 132.595Z" fill="#FFA8A7"/>
<path d="M435.448 146.907C435.448 147.124 435.512 147.336 435.632 147.517C435.751 147.698 435.922 147.84 436.121 147.925C436.321 148.01 436.541 148.035 436.754 147.996C436.968 147.957 437.165 147.856 437.322 147.706C437.478 147.556 437.588 147.363 437.636 147.152C437.684 146.94 437.669 146.719 437.593 146.516C437.516 146.313 437.382 146.137 437.206 146.01C437.031 145.882 436.822 145.809 436.605 145.8C436.456 145.796 436.308 145.822 436.17 145.876C436.031 145.93 435.904 146.011 435.797 146.114C435.69 146.217 435.603 146.34 435.544 146.476C435.484 146.612 435.451 146.759 435.448 146.907Z" fill="#37474F"/>
<path d="M435.153 154.364L432.581 155.189C432.626 155.361 432.705 155.521 432.814 155.662C432.923 155.802 433.059 155.918 433.215 156.005C433.37 156.091 433.541 156.145 433.717 156.163C433.894 156.182 434.072 156.164 434.242 156.112C434.589 155.994 434.878 155.746 435.047 155.42C435.217 155.095 435.255 154.717 435.153 154.364Z" fill="#F28F8F"/>
<path d="M426.365 143.499L428.605 141.948C428.51 141.796 428.386 141.666 428.239 141.564C428.093 141.462 427.927 141.391 427.752 141.356C427.577 141.32 427.396 141.32 427.221 141.356C427.046 141.393 426.881 141.464 426.734 141.566C426.434 141.778 426.228 142.097 426.159 142.458C426.09 142.818 426.164 143.192 426.365 143.499Z" fill="#37474F"/>
<path d="M438.673 144.335L436.42 142.784C436.515 142.633 436.64 142.503 436.786 142.401C436.932 142.299 437.098 142.227 437.272 142.191C437.447 142.154 437.627 142.153 437.802 142.187C437.977 142.221 438.143 142.291 438.291 142.391C438.589 142.606 438.794 142.927 438.865 143.288C438.936 143.649 438.867 144.023 438.673 144.335Z" fill="#37474F"/>
<path d="M426.882 146.095C426.88 146.312 426.942 146.525 427.06 146.708C427.178 146.89 427.347 147.034 427.547 147.121C427.746 147.208 427.966 147.234 428.181 147.197C428.395 147.159 428.593 147.06 428.751 146.91C428.909 146.761 429.019 146.568 429.069 146.356C429.118 146.144 429.103 145.923 429.027 145.719C428.952 145.515 428.817 145.338 428.641 145.21C428.466 145.082 428.256 145.009 428.039 144.999C427.741 144.993 427.452 145.104 427.235 145.309C427.018 145.514 426.892 145.797 426.882 146.095Z" fill="#37474F"/>
<path d="M432.101 145.467L431.928 152.138L428.421 151.055L432.101 145.467Z" fill="#F28F8F"/>
<path d="M436.987 160.53C439.817 160.149 445.602 158.475 446.562 156.173C446.197 157.339 445.484 158.365 444.519 159.115C442.771 160.604 436.987 162.29 436.987 162.29V160.53Z" fill="#F28F8F"/>
<path d="M457.06 197.066L449.294 207.576L455.153 203.822L457.06 197.066Z" fill="#34A573"/>
<path d="M395.879 224.988C394.218 227.13 393.196 231.289 392.322 232.692C391.448 234.095 390.402 235.313 392.322 235.571C394.242 235.83 397.048 232.077 398.094 229.8C398.624 228.516 399.623 227.482 400.888 226.908C399.99 226.6 400.457 222.995 399.83 222.49C399.83 222.49 396.556 223.832 395.879 224.988Z" fill="#F28F8F"/>
<path d="M395.387 241.232C397.122 239.94 397.184 238.353 397.516 235.83C397.849 233.307 404.802 230.575 405.024 232.458C405.245 234.341 405.873 235.916 403.793 238.205C401.713 240.494 398.562 242.93 395.387 241.232Z" fill="#F28F8F"/>
<path d="M448.753 166.19C448.753 166.19 459.042 167.089 461.06 168.049C463.079 169.009 466.439 174.817 463.436 183.247C460.433 191.676 457.7 201.595 458.008 203.588C458.316 205.582 465.491 215.894 465.491 215.894C463.512 217.355 461.273 218.428 458.894 219.057L455.202 211.033L456.064 219.561C452.355 220.463 448.544 220.877 444.728 220.792C444.728 220.792 441.245 188.034 448.753 166.19Z" fill="#34A573"/>
<path d="M474.107 206.37C474.931 201.521 474.107 199.934 472.408 195.184L463.793 200.758C464.499 202.551 464.915 204.446 465.024 206.37C464.95 207.773 463.042 221.678 461.257 226.527C460.936 227.389 460.304 228.1 459.485 228.52C457.71 229.604 456.102 230.939 454.71 232.483C453.393 233.714 452.334 233.935 452.47 234.353C452.673 234.807 453.037 235.17 453.491 235.372C453.945 235.574 454.458 235.601 454.931 235.449C456.003 235.101 457.032 234.63 457.996 234.046C457.141 235.856 456.003 237.517 454.624 238.968C451.461 242.34 451.177 244.531 457.085 244.986C460.777 245.269 463.867 243.201 467.202 235.264C468.236 232.354 469.086 229.383 469.75 226.367C471.547 219.488 473.294 211.255 474.107 206.37Z" fill="#FFA8A7"/>
<path d="M461.06 168.049C465.208 169.907 466.39 173.574 467.928 178.964C469.467 184.354 474.291 200.524 474.291 200.524C474.291 200.524 470.156 205.447 464.445 204.068L457.06 186.139C457.06 186.139 453.614 174.436 461.06 168.049Z" fill="#34A573"/>
</svg>
