<svg width="530" height="531" viewBox="0 0 530 531" fill="none" xmlns="http://www.w3.org/2000/svg">
<path d="M77.6165 465.955C181.099 520.015 348.901 520.015 452.384 465.955C555.866 411.895 555.878 324.252 452.384 270.192C348.889 216.131 181.099 216.131 77.6165 270.192C-25.866 324.252 -25.8783 411.895 77.6165 465.955Z" fill="#F5F5F5"/>
<path d="M345.873 452.283C377.08 452.283 402.378 440.228 402.378 425.358C402.378 410.487 377.08 398.432 345.873 398.432C314.667 398.432 289.369 410.487 289.369 425.358C289.369 440.228 314.667 452.283 345.873 452.283Z" fill="#EBEBEB"/>
<path d="M445.971 390.876C470.047 390.876 489.565 381.576 489.565 370.104C489.565 358.631 470.047 349.331 445.971 349.331C421.895 349.331 402.378 358.631 402.378 370.104C402.378 381.576 421.895 390.876 445.971 390.876Z" fill="#EBEBEB"/>
<path d="M135.265 364.283C132.804 351.288 123.795 332.767 112.804 322.443C102.232 312.524 86.5394 309.066 80.2871 313.644C74.0349 318.222 78.1333 328.116 90.2686 340.176C103.967 353.774 130.268 391.504 135.265 412.879V364.283Z" fill="#34A573"/>
<g opacity="0.2">
<path d="M135.265 364.283C132.804 351.288 123.795 332.767 112.804 322.443C102.232 312.524 86.5394 309.066 80.2871 313.644C74.0349 318.222 78.1333 328.116 90.2686 340.176C103.967 353.774 130.268 391.504 135.265 412.879V364.283Z" fill="black"/>
</g>
<path d="M135.265 395.552C135.111 395.55 134.963 395.491 134.85 395.387C134.736 395.282 134.665 395.14 134.65 394.986C131.548 362.252 108.656 325.457 86.6503 317.791C86.4967 317.735 86.3708 317.622 86.2996 317.475C86.2283 317.327 86.2173 317.158 86.2688 317.003C86.3245 316.85 86.438 316.724 86.5851 316.653C86.7322 316.581 86.9013 316.57 87.0564 316.622C109.875 324.559 132.705 361.132 135.905 394.875C135.919 395.038 135.869 395.2 135.766 395.326C135.662 395.453 135.514 395.534 135.352 395.552H135.265Z" fill="white"/>
<path d="M135.265 428.594C135.265 428.594 131.007 431.991 116.804 430.662C102.601 429.333 95.278 419.18 95.278 414.824C95.278 410.467 108.336 409.717 111.167 398.912C108.288 401.998 104.457 404.03 100.287 404.684C92.9027 406.074 86.9704 403.711 85.2842 390.261C88.9239 390.793 92.6369 390.486 96.1396 389.363C101.986 387.48 103.376 384.268 101.85 383.579C100.324 382.89 92.1765 383.579 86.9581 381.598C81.7396 379.616 85.7273 352.445 89.1488 350.513C92.5704 348.581 108.755 353.134 111.906 355.571C114.712 357.736 118.65 361.49 116.829 369.427C118.986 367.41 120.668 364.939 121.752 362.191C123.278 358.499 124.386 359.361 126.675 360.776C128.049 361.551 129.243 362.61 130.174 363.884C131.106 365.157 131.755 366.615 132.078 368.16C132.632 371.605 131.733 383.493 126.884 387.357C126.884 387.357 131.536 387.948 135.339 380.096C135.339 380.096 142.724 383.074 144.398 387.898C146.072 392.722 147.893 416.337 135.265 428.594Z" fill="#34A573"/>
<path d="M136.521 431.277C136.37 431.275 136.225 431.22 136.112 431.12C135.999 431.021 135.926 430.884 135.905 430.735C132.656 404.142 112.435 369.205 92.607 356.087C92.4699 355.996 92.3747 355.854 92.3424 355.692C92.3101 355.531 92.3433 355.363 92.4347 355.226C92.5261 355.089 92.6682 354.994 92.8297 354.961C92.9913 354.929 93.1591 354.962 93.2962 355.054C113.37 368.406 133.911 403.699 137.124 430.588C137.145 430.749 137.101 430.912 137.001 431.042C136.902 431.171 136.756 431.255 136.594 431.277H136.521Z" fill="white"/>
<path d="M137.764 434.993C137.029 434.485 136.424 433.811 135.997 433.027C135.569 432.243 135.331 431.369 135.302 430.477V136.475C135.352 135.55 135.62 134.649 136.085 133.848C136.549 133.046 137.196 132.365 137.973 131.86L322.587 25.2657C323.359 24.7818 324.248 24.5173 325.158 24.5008C326.069 24.4843 326.967 24.7163 327.755 25.172C328.544 25.6276 329.193 26.2896 329.634 27.0867C330.074 27.8838 330.289 28.7859 330.255 29.6959L142.933 434.895C142.14 435.316 141.258 435.545 140.36 435.562C139.462 435.579 138.572 435.384 137.764 434.993Z" fill="#E0E0E0"/>
<path d="M140.262 142.062L215.252 92.9979L210.256 90.106L137.936 131.86C137.159 132.365 136.512 133.046 136.048 133.848C135.584 134.649 135.315 135.55 135.265 136.475V139.17L140.262 142.062Z" fill="#37474F"/>
<path opacity="0.2" d="M140.262 142.062L215.252 92.9979L210.256 90.106L137.936 131.86C137.159 132.365 136.512 133.046 136.048 133.848C135.584 134.649 135.315 135.55 135.265 136.475V139.17L140.262 142.062Z" fill="#37474F"/>
<path d="M165.308 150.712L136.041 133.878C135.564 134.672 135.297 135.574 135.265 136.499V430.452C135.234 431.361 135.45 432.261 135.891 433.057C136.333 433.852 136.982 434.512 137.771 434.966C138.559 435.42 139.456 435.651 140.365 435.634C141.275 435.617 142.162 435.353 142.933 434.87L165.308 422.01V150.712Z" fill="#263238"/>
<path opacity="0.4" d="M165.308 150.712L136.041 133.878C135.564 134.672 135.297 135.574 135.265 136.499V430.452C135.234 431.361 135.45 432.261 135.891 433.057C136.333 433.852 136.982 434.512 137.771 434.966C138.559 435.42 139.456 435.651 140.365 435.634C141.275 435.617 142.162 435.353 142.933 434.87L165.308 422.01V150.712Z" fill="#263238"/>
<path d="M142.933 434.895L327.547 328.301C328.324 327.796 328.971 327.115 329.435 326.313C329.9 325.511 330.168 324.611 330.218 323.686V29.6962C330.218 27.998 328.987 27.3089 327.547 28.158L142.933 134.752C142.156 135.257 141.509 135.938 141.045 136.74C140.58 137.542 140.312 138.442 140.262 139.367V433.357C140.262 435.055 141.456 435.744 142.933 434.895Z" fill="#455A64"/>
<path opacity="0.1" d="M142.933 434.895L327.547 328.301C328.324 327.796 328.971 327.115 329.435 326.313C329.9 325.511 330.168 324.611 330.218 323.686V29.6962C330.218 27.998 328.987 27.3089 327.547 28.158L142.933 134.752C142.156 135.257 141.509 135.938 141.045 136.74C140.58 137.542 140.312 138.442 140.262 139.367V433.357C140.262 435.055 141.456 435.744 142.933 434.895Z" fill="#455A64"/>
<path d="M155.597 207.271L199.905 181.675C202.846 179.977 205.234 181.183 205.234 184.37C205.103 186.159 204.552 187.893 203.626 189.43C202.7 190.967 201.425 192.265 199.905 193.218L155.597 218.814C152.644 220.513 150.268 219.307 150.268 216.119C150.397 214.329 150.947 212.595 151.873 211.057C152.799 209.519 154.075 208.222 155.597 207.271Z" fill="#34A573"/>
<path d="M155.597 225.435L184.926 208.502C187.868 206.803 190.256 208.009 190.256 211.197C190.124 212.986 189.573 214.719 188.647 216.257C187.722 217.794 186.447 219.091 184.926 220.045L155.597 236.978C152.644 238.676 150.268 237.47 150.268 234.283C150.397 232.492 150.947 230.758 151.873 229.22C152.799 227.683 154.075 226.386 155.597 225.435Z" fill="#34A573"/>
<path d="M152.397 256.52L158.133 253.209C159.364 252.532 160.262 253.086 160.262 254.44V261.06C160.222 261.8 160.008 262.519 159.639 263.161C159.269 263.802 158.753 264.347 158.133 264.752L152.397 268.013C151.167 268.702 150.268 268.149 150.268 266.783V260.162C150.317 259.432 150.534 258.722 150.904 258.09C151.273 257.458 151.785 256.92 152.397 256.52Z" fill="#34A573"/>
<path opacity="0.2" d="M152.397 256.52L158.133 253.209C159.364 252.532 160.262 253.086 160.262 254.44V261.06C160.222 261.8 160.008 262.519 159.639 263.161C159.269 263.802 158.753 264.347 158.133 264.752L152.397 268.013C151.167 268.702 150.268 268.149 150.268 266.783V260.162C150.317 259.432 150.534 258.722 150.904 258.09C151.273 257.458 151.785 256.92 152.397 256.52Z" fill="black"/>
<path d="M152.397 279.618L158.133 276.307C159.364 275.618 160.262 276.172 160.262 277.538V284.158C160.219 284.897 160.004 285.616 159.635 286.256C159.265 286.897 158.751 287.443 158.133 287.85L152.397 291.161C151.167 291.837 150.268 291.284 150.268 289.93V283.309C150.306 282.57 150.519 281.849 150.889 281.208C151.259 280.566 151.776 280.021 152.397 279.618Z" fill="#34A573"/>
<g opacity="0.2">
<path d="M152.397 279.618L158.133 276.307C159.364 275.618 160.262 276.172 160.262 277.538V284.158C160.219 284.897 160.004 285.616 159.635 286.256C159.265 286.897 158.751 287.443 158.133 287.85L152.397 291.161C151.167 291.837 150.268 291.284 150.268 289.93V283.309C150.306 282.57 150.519 281.849 150.889 281.208C151.259 280.566 151.776 280.021 152.397 279.618Z" fill="black"/>
</g>
<path d="M167.93 273.539L202.588 253.517C204.065 252.668 205.259 253.271 205.259 254.871C205.192 255.765 204.915 256.631 204.451 257.399C203.987 258.166 203.349 258.814 202.588 259.288L167.93 279.31C166.453 280.159 165.259 279.556 165.259 277.957C165.326 277.062 165.602 276.196 166.066 275.429C166.53 274.661 167.169 274.014 167.93 273.539Z" fill="#34A573"/>
<path opacity="0.2" d="M167.93 273.539L202.588 253.517C204.065 252.668 205.259 253.271 205.259 254.871C205.192 255.765 204.915 256.631 204.451 257.399C203.987 258.166 203.349 258.814 202.588 259.288L167.93 279.31C166.453 280.159 165.259 279.556 165.259 277.957C165.326 277.062 165.602 276.196 166.066 275.429C166.53 274.661 167.169 274.014 167.93 273.539Z" fill="black"/>
<path d="M152.397 302.704L158.133 299.394C159.364 298.705 160.262 299.258 160.262 300.624V307.245C160.22 307.984 160.006 308.703 159.636 309.344C159.266 309.985 158.751 310.53 158.133 310.937L152.397 314.247C151.167 314.924 150.268 314.37 150.268 313.016V306.396C150.306 305.656 150.519 304.936 150.889 304.294C151.259 303.652 151.776 303.107 152.397 302.704Z" fill="#E0E0E0"/>
<path d="M167.93 296.625L202.588 276.627C204.065 275.778 205.259 276.381 205.259 277.981C205.194 278.876 204.918 279.743 204.454 280.51C203.989 281.278 203.35 281.925 202.588 282.399L167.93 302.421C166.453 303.27 165.259 302.667 165.259 301.067C165.322 300.168 165.597 299.297 166.061 298.525C166.525 297.753 167.166 297.102 167.93 296.625Z" fill="#F0F0F0"/>
<path d="M152.397 325.851L158.133 322.541C159.364 321.852 160.262 322.406 160.262 323.772V330.392C160.22 331.131 160.006 331.85 159.636 332.491C159.266 333.132 158.751 333.678 158.133 334.084L152.397 337.394C151.167 338.071 150.268 337.517 150.268 336.164V329.543C150.306 328.803 150.519 328.083 150.889 327.441C151.259 326.8 151.776 326.255 152.397 325.851Z" fill="#E0E0E0"/>
<path d="M167.93 319.773L202.588 299.763C204.065 298.902 205.259 299.517 205.259 301.104C205.194 302.001 204.918 302.869 204.454 303.639C203.99 304.409 203.35 305.058 202.588 305.534L167.93 325.544C166.453 326.393 165.259 325.79 165.259 324.19C165.326 323.296 165.602 322.43 166.066 321.662C166.53 320.895 167.169 320.247 167.93 319.773Z" fill="#F0F0F0"/>
<path d="M152.397 348.937L158.133 345.627C159.364 344.938 160.262 345.492 160.262 346.858V353.478C160.22 354.217 160.006 354.936 159.636 355.577C159.266 356.218 158.751 356.764 158.133 357.17L152.397 360.48C151.167 361.157 150.268 360.603 150.268 359.25V352.629C150.306 351.889 150.519 351.169 150.889 350.527C151.259 349.886 151.776 349.341 152.397 348.937Z" fill="#E0E0E0"/>
<path d="M167.93 342.858L202.588 322.849C204.065 321.988 205.259 322.603 205.259 324.19C205.194 325.087 204.918 325.955 204.454 326.725C203.99 327.495 203.35 328.144 202.588 328.62L167.93 348.63C166.453 349.479 165.259 348.876 165.259 347.276C165.326 346.382 165.602 345.516 166.066 344.748C166.53 343.981 167.169 343.333 167.93 342.858Z" fill="#F0F0F0"/>
<path d="M152.927 371.654L177.542 357.416C179.019 356.567 180.213 357.17 180.213 358.77C180.146 359.664 179.869 360.53 179.405 361.298C178.941 362.065 178.303 362.713 177.542 363.188L152.927 377.426C151.462 378.275 150.268 377.672 150.268 376.085C150.333 375.189 150.607 374.322 151.069 373.552C151.531 372.783 152.167 372.133 152.927 371.654Z" fill="#34A573"/>
<path d="M152.927 383.197L202.588 354.536C204.065 353.687 205.259 354.29 205.259 355.878C205.194 356.774 204.918 357.643 204.454 358.413C203.99 359.182 203.35 359.832 202.588 360.308L152.927 388.968C151.462 389.818 150.268 389.215 150.268 387.627C150.333 386.732 150.607 385.865 151.069 385.095C151.531 384.325 152.167 383.675 152.927 383.197Z" fill="#34A573"/>
<path opacity="0.8" d="M152.927 383.197L202.588 354.536C204.065 353.687 205.259 354.29 205.259 355.878C205.194 356.774 204.918 357.643 204.454 358.413C203.99 359.182 203.35 359.832 202.588 360.308L152.927 388.968C151.462 389.818 150.268 389.215 150.268 387.627C150.333 386.732 150.607 385.865 151.069 385.095C151.531 384.325 152.167 383.675 152.927 383.197Z" fill="white"/>
<path d="M152.927 383.197L187.597 363.188C189.062 362.339 190.256 362.942 190.256 364.542C190.189 365.435 189.914 366.299 189.452 367.067C188.991 367.834 188.355 368.482 187.597 368.959L152.927 388.969C151.462 389.818 150.268 389.215 150.268 387.628C150.333 386.732 150.607 385.865 151.069 385.095C151.531 384.326 152.167 383.676 152.927 383.197Z" fill="#34A573"/>
<path d="M152.927 394.765L177.542 380.527C179.019 379.678 180.213 380.281 180.213 381.88C180.146 382.775 179.869 383.641 179.405 384.408C178.941 385.176 178.303 385.823 177.542 386.298L152.927 400.536C151.462 401.385 150.268 400.782 150.268 399.195C150.333 398.3 150.607 397.432 151.069 396.663C151.531 395.893 152.167 395.243 152.927 394.765Z" fill="#34A573"/>
<path d="M167.93 250.441L202.588 230.431C204.065 229.582 205.259 230.185 205.259 231.785C205.192 232.679 204.915 233.545 204.451 234.313C203.987 235.08 203.349 235.728 202.588 236.203L167.93 256.212C166.453 257.061 165.259 256.458 165.259 254.871C165.324 253.974 165.6 253.106 166.064 252.336C166.528 251.566 167.167 250.917 167.93 250.441Z" fill="#34A573"/>
<path opacity="0.2" d="M167.93 250.441L202.588 230.431C204.065 229.582 205.259 230.185 205.259 231.785C205.192 232.679 204.915 233.545 204.451 234.313C203.987 235.08 203.349 235.728 202.588 236.203L167.93 256.212C166.453 257.061 165.259 256.458 165.259 254.871C165.324 253.974 165.6 253.106 166.064 252.336C166.528 251.566 167.167 250.917 167.93 250.441Z" fill="black"/>
<path d="M152.927 394.765L177.542 380.527C179.019 379.678 180.213 380.281 180.213 381.88C180.146 382.775 179.869 383.641 179.405 384.408C178.941 385.176 178.303 385.823 177.542 386.298L152.927 400.536C151.462 401.385 150.268 400.782 150.268 399.195C150.333 398.3 150.607 397.432 151.069 396.663C151.531 395.893 152.167 395.243 152.927 394.765Z" fill="#34A573"/>
<path d="M152.927 406.271L202.588 377.611C204.065 376.761 205.259 377.364 205.259 378.952C205.194 379.848 204.918 380.717 204.454 381.487C203.99 382.257 203.35 382.906 202.588 383.382L152.927 411.993C151.462 412.855 150.268 412.24 150.268 410.652C150.34 409.766 150.618 408.908 151.08 408.147C151.541 407.387 152.173 406.745 152.927 406.271Z" fill="#34A573"/>
<path opacity="0.8" d="M152.927 406.271L202.588 377.611C204.065 376.761 205.259 377.364 205.259 378.952C205.194 379.848 204.918 380.717 204.454 381.487C203.99 382.257 203.35 382.906 202.588 383.382L152.927 411.993C151.462 412.855 150.268 412.24 150.268 410.652C150.34 409.766 150.618 408.908 151.08 408.147C151.541 407.387 152.173 406.745 152.927 406.271Z" fill="white"/>
<path d="M152.927 406.271L197.591 380.429C199.068 379.579 200.262 380.182 200.262 381.782C200.195 382.677 199.918 383.543 199.454 384.31C198.99 385.078 198.352 385.725 197.591 386.2L152.927 412.043C151.462 412.904 150.268 412.289 150.268 410.701C150.333 409.806 150.607 408.939 151.069 408.169C151.531 407.4 152.167 406.749 152.927 406.271Z" fill="#34A573"/>
<path d="M327.572 28.1576L215.253 92.9977V393.14L327.572 328.312C328.349 327.808 328.996 327.127 329.46 326.325C329.924 325.523 330.192 324.623 330.243 323.698V29.6958C330.23 28.0468 329 27.3085 327.572 28.1576Z" fill="#EBEBEB"/>
<path opacity="0.6" d="M327.572 28.1576L215.253 92.9977V393.14L327.572 328.312C328.349 327.808 328.996 327.127 329.46 326.325C329.924 325.523 330.192 324.623 330.243 323.698V29.6958C330.23 28.0468 329 27.3085 327.572 28.1576Z" fill="#FAFAFA"/>
<path d="M215.252 104.541V127.627L205.259 139.17H215.252V162.256L320.236 101.649V43.9341L215.252 104.541Z" fill="#34A573"/>
<g opacity="0.6">
<path d="M228.988 105.34L271.523 80.7285C273.578 79.4979 275.215 80.507 275.215 82.8821C275.147 84.1725 274.778 85.4291 274.137 86.5511C273.496 87.673 272.6 88.6291 271.523 89.3427L228.988 113.893C226.92 115.124 225.296 114.115 225.296 111.74C225.37 110.459 225.742 109.214 226.383 108.103C227.025 106.992 227.916 106.046 228.988 105.34Z" fill="white"/>
</g>
<path d="M226.588 124.034L308.914 76.508C309.652 76.0895 310.243 76.3849 310.243 77.1848C310.211 77.6325 310.074 78.0664 309.843 78.4512C309.612 78.8361 309.294 79.1611 308.914 79.3999L226.588 126.864C225.849 127.282 225.259 126.987 225.259 126.187C225.3 125.75 225.441 125.329 225.672 124.955C225.902 124.582 226.216 124.266 226.588 124.034Z" fill="#34A573"/>
<path d="M226.588 124.034L308.914 76.508C309.652 76.0895 310.243 76.3849 310.243 77.1848C310.211 77.6325 310.074 78.0664 309.843 78.4512C309.612 78.8361 309.294 79.1611 308.914 79.3999L226.588 126.864C225.849 127.282 225.259 126.987 225.259 126.187C225.3 125.75 225.441 125.329 225.672 124.955C225.902 124.582 226.216 124.266 226.588 124.034Z" fill="#34A573"/>
<path opacity="0.6" d="M226.588 124.034L308.914 76.508C309.652 76.0895 310.243 76.3849 310.243 77.1848C310.211 77.6325 310.074 78.0664 309.843 78.4512C309.612 78.8361 309.294 79.1611 308.914 79.3999L226.588 126.864C225.849 127.282 225.259 126.987 225.259 126.187C225.3 125.75 225.441 125.329 225.672 124.955C225.902 124.582 226.216 124.266 226.588 124.034Z" fill="white"/>
<path d="M226.588 132.647L308.914 85.1218C309.652 84.6911 310.243 84.9987 310.243 85.7986C310.211 86.2447 310.074 86.6768 309.843 87.0597C309.612 87.4426 309.293 87.7653 308.914 88.0014L226.588 135.527C225.849 135.958 225.259 135.65 225.259 134.85C225.29 134.404 225.427 133.972 225.658 133.589C225.89 133.206 226.208 132.884 226.588 132.647Z" fill="#34A573"/>
<path opacity="0.6" d="M226.588 132.647L308.914 85.1218C309.652 84.6911 310.243 84.9987 310.243 85.7986C310.211 86.2447 310.074 86.6768 309.843 87.0597C309.612 87.4426 309.293 87.7653 308.914 88.0014L226.588 135.527C225.849 135.958 225.259 135.65 225.259 134.85C225.29 134.404 225.427 133.972 225.658 133.589C225.89 133.206 226.208 132.884 226.588 132.647Z" fill="white"/>
<path opacity="0.6" d="M226.588 141.262L308.914 93.736C309.652 93.3176 310.243 93.6129 310.243 94.4128C310.211 94.8605 310.074 95.2944 309.843 95.6793C309.612 96.0641 309.294 96.3891 308.914 96.6279L226.588 144.154C225.849 144.572 225.259 144.277 225.259 143.477C225.29 143.029 225.427 142.595 225.658 142.21C225.889 141.825 226.208 141.5 226.588 141.262Z" fill="white"/>
<path d="M229.689 165.504L235.462 162.182C236.692 161.493 237.591 162.046 237.591 163.412V170.033C237.55 170.772 237.336 171.491 236.966 172.132C236.596 172.774 236.081 173.319 235.462 173.725L229.726 177.035C228.495 177.712 227.597 177.158 227.597 175.804V169.196C227.631 168.46 227.838 167.741 228.202 167.1C228.565 166.459 229.075 165.912 229.689 165.504Z" fill="#34A573"/>
<path opacity="0.2" d="M229.689 165.504L235.462 162.182C236.692 161.493 237.591 162.046 237.591 163.412V170.033C237.55 170.772 237.336 171.491 236.966 172.132C236.596 172.774 236.081 173.319 235.462 173.725L229.726 177.035C228.495 177.712 227.597 177.158 227.597 175.804V169.196C227.631 168.46 227.838 167.741 228.202 167.1C228.565 166.459 229.075 165.912 229.689 165.504Z" fill="white"/>
<path d="M245.222 159.425L279.88 139.404C281.357 138.555 282.551 139.158 282.551 140.757C282.484 141.652 282.207 142.518 281.743 143.285C281.279 144.053 280.641 144.7 279.88 145.175L245.222 165.197C243.745 166.046 242.551 165.443 242.551 163.843C242.618 162.949 242.894 162.083 243.358 161.315C243.822 160.548 244.461 159.9 245.222 159.425Z" fill="#34A573"/>
<path opacity="0.8" d="M245.222 159.425L279.88 139.404C281.357 138.555 282.551 139.158 282.551 140.757C282.484 141.652 282.207 142.518 281.743 143.285C281.279 144.053 280.641 144.7 279.88 145.175L245.222 165.197C243.745 166.046 242.551 165.443 242.551 163.843C242.618 162.949 242.894 162.083 243.358 161.315C243.822 160.548 244.461 159.9 245.222 159.425Z" fill="white"/>
<path d="M228.889 186.179L316.274 135.724C317.012 135.293 317.603 135.601 317.603 136.389C317.572 136.837 317.435 137.271 317.204 137.656C316.973 138.041 316.654 138.366 316.274 138.604L228.889 189.058C228.151 189.489 227.56 189.181 227.56 188.381C227.592 187.935 227.729 187.503 227.96 187.12C228.191 186.737 228.51 186.415 228.889 186.179Z" fill="#34A573"/>
<path d="M228.889 194.83L316.274 144.375C317.012 143.957 317.603 144.252 317.603 145.052C317.571 145.5 317.434 145.934 317.203 146.318C316.972 146.703 316.654 147.028 316.274 147.267L228.889 197.722C228.151 198.14 227.56 197.845 227.56 197.045C227.592 196.597 227.729 196.163 227.96 195.778C228.191 195.393 228.509 195.068 228.889 194.83Z" fill="#34A573"/>
<path d="M228.889 203.493L316.274 153.039C317.012 152.608 317.603 152.916 317.603 153.703C317.572 154.151 317.435 154.585 317.204 154.97C316.973 155.355 316.654 155.68 316.274 155.918L228.889 206.373C228.151 206.803 227.56 206.496 227.56 205.708C227.591 205.26 227.728 204.826 227.959 204.441C228.19 204.056 228.509 203.731 228.889 203.493Z" fill="#34A573"/>
<path d="M228.889 212.169L316.274 161.714C317.012 161.296 317.603 161.591 317.603 162.391C317.571 162.839 317.434 163.273 317.203 163.658C316.972 164.043 316.654 164.368 316.274 164.606L228.889 215.061C228.151 215.479 227.56 215.184 227.56 214.384C227.592 213.936 227.729 213.502 227.96 213.118C228.191 212.733 228.509 212.408 228.889 212.169Z" fill="#34A573"/>
<path d="M228.889 186.179L316.274 135.724C317.012 135.293 317.603 135.601 317.603 136.389C317.572 136.837 317.435 137.271 317.204 137.656C316.973 138.041 316.654 138.366 316.274 138.604L228.889 189.058C228.151 189.489 227.56 189.181 227.56 188.381C227.592 187.935 227.729 187.503 227.96 187.12C228.191 186.737 228.51 186.415 228.889 186.179Z" fill="#E0E0E0"/>
<path d="M228.889 194.83L316.274 144.375C317.012 143.957 317.603 144.252 317.603 145.052C317.571 145.5 317.434 145.934 317.203 146.318C316.972 146.703 316.654 147.028 316.274 147.267L228.889 197.722C228.151 198.14 227.56 197.845 227.56 197.045C227.592 196.597 227.729 196.163 227.96 195.778C228.191 195.393 228.509 195.068 228.889 194.83Z" fill="#E0E0E0"/>
<path d="M228.889 203.493L316.274 153.039C317.012 152.608 317.603 152.916 317.603 153.703C317.572 154.151 317.435 154.585 317.204 154.97C316.973 155.355 316.654 155.68 316.274 155.918L228.889 206.373C228.151 206.803 227.56 206.496 227.56 205.708C227.591 205.26 227.728 204.826 227.959 204.441C228.19 204.056 228.509 203.731 228.889 203.493Z" fill="#E0E0E0"/>
<path d="M228.889 212.169L316.274 161.714C317.012 161.296 317.603 161.591 317.603 162.391C317.571 162.839 317.434 163.273 317.203 163.658C316.972 164.043 316.654 164.368 316.274 164.606L228.889 215.061C228.151 215.479 227.56 215.184 227.56 214.384C227.592 213.936 227.729 213.502 227.96 213.118C228.191 212.733 228.509 212.408 228.889 212.169Z" fill="#E0E0E0"/>
<path opacity="0.8" d="M228.889 186.179L316.274 135.724C317.012 135.293 317.603 135.601 317.603 136.389C317.572 136.837 317.435 137.271 317.204 137.656C316.973 138.041 316.654 138.366 316.274 138.604L228.889 189.058C228.151 189.489 227.56 189.181 227.56 188.381C227.592 187.935 227.729 187.503 227.96 187.12C228.191 186.737 228.51 186.415 228.889 186.179Z" fill="#E0E0E0"/>
<path opacity="0.8" d="M228.889 194.83L316.274 144.375C317.012 143.957 317.603 144.252 317.603 145.052C317.571 145.5 317.434 145.934 317.203 146.318C316.972 146.703 316.654 147.028 316.274 147.267L228.889 197.722C228.151 198.14 227.56 197.845 227.56 197.045C227.592 196.597 227.729 196.163 227.96 195.778C228.191 195.393 228.509 195.068 228.889 194.83Z" fill="#E0E0E0"/>
<path opacity="0.8" d="M228.889 203.493L316.274 153.039C317.012 152.608 317.603 152.916 317.603 153.703C317.572 154.151 317.435 154.585 317.204 154.97C316.973 155.355 316.654 155.68 316.274 155.918L228.889 206.373C228.151 206.803 227.56 206.496 227.56 205.708C227.591 205.26 227.728 204.826 227.959 204.441C228.19 204.056 228.509 203.731 228.889 203.493Z" fill="#E0E0E0"/>
<path opacity="0.8" d="M228.889 212.169L316.274 161.714C317.012 161.296 317.603 161.591 317.603 162.391C317.571 162.839 317.434 163.273 317.203 163.658C316.972 164.043 316.654 164.368 316.274 164.606L228.889 215.061C228.151 215.479 227.56 215.184 227.56 214.384C227.592 213.936 227.729 213.502 227.96 213.118C228.191 212.733 228.509 212.408 228.889 212.169Z" fill="#E0E0E0"/>
<path d="M228.889 248.939L316.274 198.484C317.012 198.054 317.603 198.361 317.603 199.149C317.572 199.597 317.435 200.031 317.204 200.416C316.973 200.801 316.654 201.126 316.274 201.364L228.889 251.819C228.151 252.249 227.56 251.942 227.56 251.142C227.592 250.696 227.729 250.263 227.96 249.881C228.191 249.498 228.51 249.175 228.889 248.939Z" fill="#E0E0E0"/>
<path d="M228.889 257.59L316.274 207.135C317.012 206.717 317.603 207.012 317.603 207.812C317.571 208.26 317.434 208.694 317.203 209.079C316.972 209.464 316.654 209.789 316.274 210.027L228.889 260.482C228.151 260.9 227.56 260.605 227.56 259.805C227.592 259.357 227.729 258.923 227.96 258.539C228.191 258.154 228.509 257.829 228.889 257.59Z" fill="#E0E0E0"/>
<path d="M228.889 266.254L316.274 215.799C317.012 215.369 317.603 215.676 317.603 216.464C317.572 216.912 317.435 217.346 317.204 217.731C316.973 218.116 316.654 218.441 316.274 218.679L228.889 269.133C228.151 269.564 227.56 269.257 227.56 268.469C227.591 268.021 227.728 267.587 227.959 267.202C228.19 266.817 228.509 266.492 228.889 266.254Z" fill="#E0E0E0"/>
<path d="M228.889 274.929L316.274 224.475C317.012 224.056 317.603 224.352 317.603 225.152C317.571 225.599 317.434 226.033 317.203 226.418C316.972 226.803 316.654 227.128 316.274 227.367L228.889 277.821C228.151 278.24 227.56 277.944 227.56 277.144C227.592 276.697 227.729 276.263 227.96 275.878C228.191 275.493 228.509 275.168 228.889 274.929Z" fill="#E0E0E0"/>
<path opacity="0.8" d="M228.889 248.939L316.274 198.484C317.012 198.054 317.603 198.361 317.603 199.149C317.572 199.597 317.435 200.031 317.204 200.416C316.973 200.801 316.654 201.126 316.274 201.364L228.889 251.819C228.151 252.249 227.56 251.942 227.56 251.142C227.592 250.696 227.729 250.263 227.96 249.881C228.191 249.498 228.51 249.175 228.889 248.939Z" fill="#E0E0E0"/>
<path opacity="0.8" d="M228.889 257.59L316.274 207.135C317.012 206.717 317.603 207.012 317.603 207.812C317.571 208.26 317.434 208.694 317.203 209.079C316.972 209.464 316.654 209.789 316.274 210.027L228.889 260.482C228.151 260.9 227.56 260.605 227.56 259.805C227.592 259.357 227.729 258.923 227.96 258.539C228.191 258.154 228.509 257.829 228.889 257.59Z" fill="#E0E0E0"/>
<path opacity="0.8" d="M228.889 266.254L316.274 215.799C317.012 215.369 317.603 215.676 317.603 216.464C317.572 216.912 317.435 217.346 317.204 217.731C316.973 218.116 316.654 218.441 316.274 218.679L228.889 269.133C228.151 269.564 227.56 269.257 227.56 268.469C227.591 268.021 227.728 267.587 227.959 267.202C228.19 266.817 228.509 266.492 228.889 266.254Z" fill="#E0E0E0"/>
<path opacity="0.8" d="M228.889 274.929L316.274 224.475C317.012 224.056 317.603 224.352 317.603 225.152C317.571 225.599 317.434 226.033 317.203 226.418C316.972 226.803 316.654 227.128 316.274 227.367L228.889 277.821C228.151 278.24 227.56 277.944 227.56 277.144C227.592 276.697 227.729 276.263 227.96 275.878C228.191 275.493 228.509 275.168 228.889 274.929Z" fill="#E0E0E0"/>
<path d="M228.889 312.93L316.274 262.476C317.012 262.045 317.603 262.353 317.603 263.14C317.572 263.588 317.435 264.022 317.204 264.407C316.973 264.792 316.654 265.117 316.274 265.355L228.889 315.81C228.151 316.24 227.56 315.933 227.56 315.133C227.592 314.687 227.729 314.255 227.96 313.872C228.191 313.489 228.51 313.166 228.889 312.93Z" fill="#E0E0E0"/>
<path d="M228.889 321.581L316.274 271.127C317.012 270.708 317.603 271.004 317.603 271.803C317.571 272.251 317.434 272.685 317.203 273.07C316.972 273.455 316.654 273.78 316.274 274.019L228.889 324.473C228.151 324.891 227.56 324.596 227.56 323.796C227.592 323.348 227.729 322.915 227.96 322.53C228.191 322.145 228.509 321.82 228.889 321.581Z" fill="#E0E0E0"/>
<path d="M228.889 330.245L316.274 279.79C317.012 279.359 317.603 279.667 317.603 280.455C317.572 280.903 317.435 281.337 317.204 281.722C316.973 282.107 316.654 282.432 316.274 282.67L228.889 333.124C228.151 333.555 227.56 333.247 227.56 332.46C227.591 332.012 227.728 331.577 227.959 331.192C228.19 330.807 228.509 330.483 228.889 330.245Z" fill="#E0E0E0"/>
<path d="M228.889 338.92L316.274 288.466C317.012 288.048 317.603 288.343 317.603 289.143C317.571 289.591 317.434 290.024 317.203 290.409C316.972 290.794 316.654 291.119 316.274 291.358L228.889 341.812C228.151 342.231 227.56 341.935 227.56 341.136C227.592 340.688 227.729 340.254 227.96 339.869C228.191 339.484 228.509 339.159 228.889 338.92Z" fill="#E0E0E0"/>
<path opacity="0.8" d="M228.889 312.93L316.274 262.476C317.012 262.045 317.603 262.353 317.603 263.14C317.572 263.588 317.435 264.022 317.204 264.407C316.973 264.792 316.654 265.117 316.274 265.355L228.889 315.81C228.151 316.24 227.56 315.933 227.56 315.133C227.592 314.687 227.729 314.255 227.96 313.872C228.191 313.489 228.51 313.166 228.889 312.93Z" fill="#E0E0E0"/>
<path opacity="0.8" d="M228.889 321.581L316.274 271.127C317.012 270.708 317.603 271.004 317.603 271.803C317.571 272.251 317.434 272.685 317.203 273.07C316.972 273.455 316.654 273.78 316.274 274.019L228.889 324.473C228.151 324.891 227.56 324.596 227.56 323.796C227.592 323.348 227.729 322.915 227.96 322.53C228.191 322.145 228.509 321.82 228.889 321.581Z" fill="#E0E0E0"/>
<path opacity="0.8" d="M228.889 330.245L316.274 279.79C317.012 279.359 317.603 279.667 317.603 280.455C317.572 280.903 317.435 281.337 317.204 281.722C316.973 282.107 316.654 282.432 316.274 282.67L228.889 333.124C228.151 333.555 227.56 333.247 227.56 332.46C227.591 332.012 227.728 331.577 227.959 331.192C228.19 330.807 228.509 330.483 228.889 330.245Z" fill="#E0E0E0"/>
<path opacity="0.8" d="M228.889 338.92L316.274 288.466C317.012 288.048 317.603 288.343 317.603 289.143C317.571 289.591 317.434 290.024 317.203 290.409C316.972 290.794 316.654 291.119 316.274 291.358L228.889 341.812C228.151 342.231 227.56 341.935 227.56 341.136C227.592 340.688 227.729 340.254 227.96 339.869C228.191 339.484 228.509 339.159 228.889 338.92Z" fill="#E0E0E0"/>
<path d="M229.689 228.991L235.462 225.681C236.692 225.004 237.591 225.558 237.591 226.912V233.557C237.553 234.297 237.34 235.017 236.97 235.659C236.6 236.3 236.083 236.845 235.462 237.249L229.726 240.559C228.495 241.236 227.597 240.694 227.597 239.328V232.708C227.628 231.967 227.834 231.244 228.197 230.599C228.561 229.953 229.072 229.402 229.689 228.991Z" fill="#34A573"/>
<path opacity="0.2" d="M229.689 228.991L235.462 225.681C236.692 225.004 237.591 225.558 237.591 226.912V233.557C237.553 234.297 237.34 235.017 236.97 235.659C236.6 236.3 236.083 236.845 235.462 237.249L229.726 240.559C228.495 241.236 227.597 240.694 227.597 239.328V232.708C227.628 231.967 227.834 231.244 228.197 230.599C228.561 229.953 229.072 229.402 229.689 228.991Z" fill="white"/>
<path d="M245.222 222.912L279.88 202.903C281.357 202.053 282.551 202.656 282.551 204.244C282.486 205.14 282.21 206.009 281.746 206.779C281.282 207.549 280.642 208.198 279.88 208.674L245.222 228.634C243.745 229.483 242.551 228.88 242.551 227.293C242.623 226.405 242.903 225.546 243.366 224.786C243.83 224.025 244.466 223.383 245.222 222.912Z" fill="#34A573"/>
<path opacity="0.8" d="M245.222 222.912L279.88 202.903C281.357 202.053 282.551 202.656 282.551 204.244C282.486 205.14 282.21 206.009 281.746 206.779C281.282 207.549 280.642 208.198 279.88 208.674L245.222 228.634C243.745 229.483 242.551 228.88 242.551 227.293C242.623 226.405 242.903 225.546 243.366 224.786C243.83 224.025 244.466 223.383 245.222 222.912Z" fill="white"/>
<path d="M229.689 292.49L235.462 289.179C236.692 288.49 237.591 289.044 237.591 290.41V297.03C237.552 297.77 237.339 298.49 236.969 299.131C236.599 299.773 236.082 300.318 235.462 300.722L229.726 304.033C228.495 304.709 227.597 304.156 227.597 302.802V296.181C227.631 295.445 227.838 294.727 228.202 294.085C228.565 293.444 229.075 292.897 229.689 292.49Z" fill="#34A573"/>
<path opacity="0.2" d="M229.689 292.49L235.462 289.179C236.692 288.49 237.591 289.044 237.591 290.41V297.03C237.552 297.77 237.339 298.49 236.969 299.131C236.599 299.773 236.082 300.318 235.462 300.722L229.726 304.033C228.495 304.709 227.597 304.156 227.597 302.802V296.181C227.631 295.445 227.838 294.727 228.202 294.085C228.565 293.444 229.075 292.897 229.689 292.49Z" fill="white"/>
<path d="M245.222 286.472L279.88 266.451C281.357 265.601 282.551 266.204 282.551 267.804C282.485 268.7 282.209 269.569 281.745 270.338C281.281 271.108 280.642 271.757 279.88 272.234L245.222 292.244C243.745 293.093 242.551 292.49 242.551 290.89C242.618 289.996 242.894 289.13 243.358 288.362C243.822 287.595 244.461 286.947 245.222 286.472Z" fill="#34A573"/>
<path opacity="0.8" d="M245.222 286.472L279.88 266.451C281.357 265.601 282.551 266.204 282.551 267.804C282.485 268.7 282.209 269.569 281.745 270.338C281.281 271.108 280.642 271.757 279.88 272.234L245.222 292.244C243.745 293.093 242.551 292.49 242.551 290.89C242.618 289.996 242.894 289.13 243.358 288.362C243.822 287.595 244.461 286.947 245.222 286.472Z" fill="white"/>
<path d="M237.849 348.384L243.585 345.074C244.815 344.397 245.726 344.95 245.726 346.304V352.925C245.686 353.665 245.471 354.386 245.099 355.028C244.726 355.669 244.208 356.214 243.585 356.617L237.849 359.927C236.68 360.616 235.72 360.062 235.72 358.696V352.076C235.763 351.337 235.978 350.619 236.347 349.978C236.717 349.337 237.231 348.791 237.849 348.384Z" fill="#34A573"/>
<path d="M228.889 370.879L252.557 357.219C253.295 356.801 253.886 357.096 253.886 357.896C253.854 358.344 253.717 358.778 253.486 359.163C253.256 359.548 252.937 359.873 252.557 360.111L228.889 373.771C228.151 374.189 227.56 373.894 227.56 373.094C227.592 372.646 227.729 372.213 227.96 371.828C228.191 371.443 228.509 371.118 228.889 370.879Z" fill="#E0E0E0"/>
<path d="M269.689 329.999L275.424 326.688C276.594 326.011 277.554 326.565 277.554 327.919V334.539C277.514 335.279 277.3 335.998 276.93 336.64C276.56 337.281 276.044 337.826 275.424 338.231L269.689 341.542C268.458 342.218 267.547 341.677 267.547 340.311V333.69C267.589 332.95 267.804 332.23 268.176 331.588C268.548 330.947 269.067 330.402 269.689 329.999Z" fill="#34A573"/>
<path d="M260.717 352.494L284.385 338.834C285.123 338.403 285.714 338.711 285.714 339.511C285.682 339.957 285.545 340.389 285.314 340.772C285.083 341.155 284.764 341.478 284.385 341.714L260.717 355.386C259.979 355.816 259.388 355.509 259.388 354.721C259.417 354.271 259.552 353.834 259.784 353.447C260.015 353.06 260.335 352.733 260.717 352.494Z" fill="#E0E0E0"/>
<path d="M301.517 311.613L307.252 308.303C308.421 307.614 309.381 308.167 309.381 309.533V316.154C309.339 316.893 309.125 317.612 308.755 318.253C308.385 318.894 307.871 319.44 307.252 319.846L301.517 323.156C300.286 323.833 299.387 323.279 299.387 321.926V315.305C299.425 314.565 299.638 313.845 300.008 313.203C300.378 312.561 300.895 312.017 301.517 311.613Z" fill="#34A573"/>
<path opacity="0.2" d="M237.849 348.384L243.585 345.074C244.815 344.397 245.726 344.95 245.726 346.304V352.925C245.686 353.665 245.471 354.386 245.099 355.028C244.726 355.669 244.208 356.214 243.585 356.617L237.849 359.927C236.68 360.616 235.72 360.062 235.72 358.696V352.076C235.763 351.337 235.978 350.619 236.347 349.978C236.717 349.337 237.231 348.791 237.849 348.384Z" fill="white"/>
<path opacity="0.2" d="M269.689 329.999L275.424 326.688C276.594 326.011 277.554 326.565 277.554 327.919V334.539C277.514 335.279 277.3 335.998 276.93 336.64C276.56 337.281 276.044 337.826 275.424 338.231L269.689 341.542C268.458 342.218 267.547 341.677 267.547 340.311V333.69C267.589 332.95 267.804 332.23 268.176 331.588C268.548 330.947 269.067 330.402 269.689 329.999Z" fill="white"/>
<path opacity="0.2" d="M301.517 311.613L307.252 308.303C308.421 307.614 309.381 308.167 309.381 309.533V316.154C309.339 316.893 309.125 317.612 308.755 318.253C308.385 318.894 307.871 319.44 307.252 319.846L301.517 323.156C300.286 323.833 299.387 323.279 299.387 321.926V315.305C299.425 314.565 299.638 313.845 300.008 313.203C300.378 312.561 300.895 312.017 301.517 311.613Z" fill="white"/>
<path d="M292.544 334.109L316.212 320.449C316.95 320.019 317.541 320.326 317.541 321.114C317.51 321.562 317.374 321.996 317.143 322.381C316.912 322.766 316.593 323.091 316.212 323.329L292.544 336.989C291.818 337.419 291.215 337.112 291.215 336.312C291.25 335.866 291.388 335.435 291.619 335.053C291.85 334.67 292.167 334.347 292.544 334.109Z" fill="#E0E0E0"/>
<mask id="mask0_142_783" style="mask-type:luminance" maskUnits="userSpaceOnUse" x="150" y="125" width="51" height="66">
<path d="M175.265 128.783C161.456 136.561 150.268 155.943 150.268 172.064C150.268 188.184 161.456 194.805 175.265 186.831C189.074 178.856 200.262 159.487 200.262 143.538C200.262 127.59 189.062 120.994 175.265 128.783Z" fill="white"/>
</mask>
<g mask="url(#mask0_142_783)">
<path d="M175.265 128.783C161.456 136.561 150.268 155.943 150.268 172.064C150.268 188.184 161.456 194.805 175.265 186.831C189.074 178.856 200.262 159.487 200.262 143.538C200.262 127.59 189.062 120.994 175.265 128.783Z" fill="#FAFAFA"/>
<path d="M187.376 178.463L167.363 183.828C167.019 183.94 166.652 183.965 166.295 183.9C165.939 183.834 165.604 183.681 165.322 183.454C165.039 183.226 164.818 182.932 164.678 182.598C164.538 182.264 164.484 181.9 164.52 181.539V147.476C164.591 144.657 165.533 141.928 167.216 139.665C168.9 137.402 171.243 135.716 173.923 134.838L180.766 133.004C185.973 131.614 190.194 135.01 190.194 140.585V174.66C190.172 175.507 189.889 176.326 189.385 177.006C188.881 177.686 188.179 178.195 187.376 178.463Z" fill="#37474F"/>
<path d="M188.336 187.274L186.231 177.983C186.231 177.983 186.231 165.443 184.446 164.286C182.662 163.129 182.145 162.908 182.145 162.908C184.434 162.12 189.259 161.529 190.76 165.935C192.2 170.094 194.354 180.345 195.376 185.391L188.336 187.274Z" fill="#F28F8F"/>
<path d="M188.163 187.323L181.025 163.018C184.188 161.788 188.25 160.766 190.219 164.027C191.991 166.956 194.822 182.302 195.376 185.39L188.163 187.323Z" fill="#34A573"/>
<g opacity="0.4">
<path d="M188.163 187.323L181.025 163.018C184.188 161.788 188.25 160.766 190.219 164.027C191.991 166.956 194.822 182.302 195.376 185.39L188.163 187.323Z" fill="black"/>
</g>
<path d="M189.123 187.065L182.108 188.947C182.391 186.933 183.055 184.991 184.065 183.225C185.469 181.202 187.489 179.687 189.825 178.906C189.319 181.595 189.084 184.328 189.123 187.065Z" fill="#34A573"/>
<path d="M189.123 187.065L182.108 188.947C182.391 186.933 183.055 184.991 184.065 183.225C185.469 181.202 187.489 179.687 189.825 178.906C189.319 181.595 189.084 184.328 189.123 187.065Z" fill="#34A573"/>
<g opacity="0.7">
<path d="M189.123 187.065L182.108 188.947C182.391 186.933 183.055 184.991 184.065 183.225C185.469 181.202 187.489 179.687 189.825 178.906C189.319 181.595 189.084 184.328 189.123 187.065Z" fill="black"/>
</g>
<path d="M187.622 187.471L167.93 192.725L165.764 186.018C165.764 186.018 171.511 172.568 164.41 169.11C165.308 168.433 172.877 165.48 172.877 165.48L181.013 163.019C182.564 162.6 188.828 165.381 190.416 171.547C190.982 173.725 190.785 175.681 187.597 187.027C187.634 187.175 187.622 187.323 187.622 187.471Z" fill="#34A573"/>
<path d="M185.997 137.188C187.351 137.681 189.025 140.88 188.865 148.596C188.729 155.143 186.76 157.21 185.776 157.998C184.301 158.736 182.674 159.12 181.025 159.118V163.019C181.025 163.019 183.585 165.48 183.425 167.35C183.265 169.221 179.733 170.55 177.345 169.442C175.601 168.459 174.093 167.107 172.926 165.48V156.497C172.747 156.704 172.527 156.873 172.282 156.995C172.036 157.116 171.768 157.188 171.494 157.205C171.221 157.222 170.946 157.185 170.687 157.095C170.428 157.005 170.189 156.864 169.985 156.681C169.601 156.418 169.273 156.081 169.021 155.689C168.77 155.297 168.599 154.858 168.52 154.399C168.441 153.94 168.455 153.47 168.56 153.017C168.666 152.563 168.862 152.135 169.136 151.759C170.366 150.147 172.52 149.913 173.357 151.525C174.399 148.997 176.264 146.894 178.65 145.557C182.539 143.194 184.656 141.089 185.997 137.188Z" fill="#FFA8A7"/>
<path d="M182.096 148.781C182.101 149.014 182.034 149.243 181.904 149.437C181.774 149.631 181.587 149.78 181.37 149.864C181.277 149.896 181.178 149.905 181.081 149.89C180.985 149.875 180.893 149.837 180.814 149.779C180.735 149.721 180.672 149.644 180.629 149.556C180.587 149.468 180.566 149.371 180.57 149.273C180.564 149.04 180.631 148.81 180.761 148.616C180.891 148.423 181.078 148.274 181.296 148.19C181.388 148.158 181.487 148.149 181.584 148.164C181.681 148.178 181.773 148.217 181.851 148.275C181.93 148.333 181.993 148.409 182.036 148.497C182.079 148.586 182.099 148.683 182.096 148.781Z" fill="#37474F"/>
<path d="M182.292 154.244L184.065 154.367C184.013 154.637 183.872 154.882 183.664 155.063C183.457 155.244 183.195 155.35 182.92 155.364C182.428 155.327 182.145 154.798 182.292 154.244Z" fill="#F28F8F"/>
<path d="M188.348 144.597L186.81 143.87C186.901 143.632 187.078 143.437 187.305 143.321C187.532 143.205 187.794 143.177 188.04 143.243C188.151 143.311 188.246 143.4 188.321 143.505C188.396 143.61 188.45 143.729 188.479 143.855C188.507 143.981 188.51 144.112 188.488 144.239C188.466 144.366 188.418 144.488 188.348 144.597Z" fill="#37474F"/>
<path d="M179.88 147.477L181.419 145.913C181.337 145.83 181.239 145.766 181.131 145.723C181.022 145.681 180.906 145.662 180.79 145.668C180.673 145.674 180.56 145.704 180.456 145.757C180.352 145.81 180.261 145.884 180.188 145.975C179.975 146.154 179.828 146.399 179.772 146.672C179.716 146.945 179.754 147.228 179.88 147.477Z" fill="#37474F"/>
<path d="M187.991 146.615C187.998 146.849 187.932 147.079 187.802 147.273C187.672 147.467 187.484 147.616 187.265 147.698C187.171 147.731 187.071 147.739 186.973 147.724C186.876 147.709 186.783 147.67 186.704 147.61C186.625 147.55 186.562 147.472 186.52 147.382C186.478 147.293 186.459 147.194 186.465 147.095C186.461 146.862 186.529 146.633 186.659 146.44C186.788 146.246 186.974 146.097 187.191 146.012C187.285 145.979 187.385 145.97 187.483 145.986C187.58 146.001 187.673 146.04 187.752 146.1C187.831 146.16 187.894 146.238 187.936 146.328C187.978 146.417 187.997 146.516 187.991 146.615Z" fill="#37474F"/>
<path d="M184.397 147.107L184.508 151.993L186.933 150.541L184.397 147.107Z" fill="#F28F8F"/>
<path d="M181.025 159.118C179.08 159.364 175.068 159.204 174.44 157.678C174.668 158.427 175.169 159.064 175.843 159.462C177.074 160.25 181.025 160.422 181.025 160.422V159.118Z" fill="#F28F8F"/>
<path d="M168.041 192.713L167.216 189.784L169.382 192.356L168.041 192.713Z" fill="#34A573"/>
<path d="M166.428 193.143C165.544 188.933 164.347 184.795 162.847 180.764C160.779 175.09 163.093 170.193 164.483 169.11C165.874 168.027 172.951 165.479 172.951 165.479C175.511 172.765 176.213 182.523 176.274 190.51L166.428 193.143Z" fill="#34A573"/>
<path opacity="0.4" d="M166.428 193.143C165.544 188.933 164.347 184.795 162.847 180.764C160.779 175.09 163.093 170.193 164.483 169.11C165.874 168.027 172.951 165.479 172.951 165.479C175.511 172.765 176.213 182.523 176.274 190.51L166.428 193.143Z" fill="black"/>
<path d="M162.933 194.079L155.905 195.961C155.709 195.829 155.524 195.681 155.351 195.518C155.351 195.518 158.674 182.696 159.733 178.438C160.791 174.18 161.604 171.251 164.459 169.11C169.591 172.445 167.216 181.711 167.216 181.711L162.933 194.079Z" fill="#34A573"/>
<path opacity="0.4" d="M162.933 194.079L155.905 195.961C155.709 195.829 155.524 195.681 155.351 195.518C155.351 195.518 158.674 182.696 159.733 178.438C160.791 174.18 161.604 171.251 164.459 169.11C169.591 172.445 167.216 181.711 167.216 181.711L162.933 194.079Z" fill="black"/>
</g>
<path d="M60.6073 112.133V87.755C60.5334 83.0295 63.6103 78.2917 69.8503 74.6984C82.1579 67.5732 102.17 67.5732 114.502 74.6984C120.742 78.2917 123.819 83.0295 123.745 87.755V112.047C123.745 116.748 120.718 125.153 114.502 128.734C102.195 135.859 82.1825 135.859 69.8503 128.734C63.6965 125.19 60.6196 116.846 60.6073 112.182V112.133Z" fill="#EBEBEB"/>
<path d="M92.1763 57.5073L144.274 87.5831L92.1763 117.659L40.0781 87.5831L92.1763 57.5073Z" fill="#F5F5F5"/>
<path d="M66.1089 102.609L91.7703 87.9646C91.8761 87.904 91.9929 87.8648 92.1139 87.8493C92.2349 87.8338 92.3578 87.8423 92.4755 87.8743C92.5932 87.9063 92.7035 87.9612 92.8 88.0358C92.8965 88.1104 92.9773 88.2033 93.038 88.3091C93.0986 88.415 93.1377 88.5317 93.1532 88.6527C93.1687 88.7737 93.1602 88.8965 93.1282 89.0142C93.0962 89.1319 93.0413 89.2422 92.9667 89.3387C92.8921 89.4352 92.7992 89.516 92.6933 89.5766L67.9427 103.667L66.1089 102.609Z" fill="#E0E0E0"/>
<path d="M144.274 87.583V89.7366L92.1763 119.8V117.659L144.274 87.583Z" fill="#E6E6E6"/>
<path d="M40.0781 87.583V89.7366L92.1763 119.8V117.659L40.0781 87.583Z" fill="#F0F0F0"/>
<path d="M64.8164 104.012L66.4041 104.923C66.6441 104.531 66.9784 104.205 67.3764 103.975L67.9302 103.655L66.121 102.621C65.5866 102.98 65.1406 103.456 64.8164 104.012Z" fill="#E0E0E0"/>
<path d="M123.807 101.55L92.1763 123.024L60.6318 101.6L92.1763 119.8L123.807 101.55Z" fill="#E0E0E0"/>
<path d="M62.7859 129.337C63.2273 129.565 63.7168 129.683 64.2136 129.683C64.7103 129.683 65.1998 129.565 65.6413 129.337L67.992 144.51C67.992 147.377 60.5459 147.377 60.5459 144.51L62.7859 129.337Z" fill="#F5F5F5"/>
<path d="M62.6503 138L62.1826 146.319C62.0291 146.273 61.8806 146.211 61.7395 146.135L62.6503 138Z" fill="#EBEBEB"/>
<path d="M66.1702 146.381L65.1855 132.844L66.6501 146.184C66.4942 146.259 66.3339 146.325 66.1702 146.381Z" fill="#EBEBEB"/>
<path d="M64.4965 146.652H64.0288L64.275 135.909L64.4965 146.652Z" fill="#EBEBEB"/>
<path d="M64.2013 130.605C64.7469 130.591 65.2752 130.411 65.7151 130.088C65.9022 129.95 66.0293 129.745 66.0705 129.517C66.1117 129.288 66.0638 129.052 65.9367 128.857C65.8023 128.666 65.5986 128.534 65.3688 128.49C65.1389 128.447 64.9011 128.494 64.7059 128.623C64.5888 128.737 64.4321 128.8 64.269 128.8C64.1059 128.8 63.9492 128.737 63.8321 128.623C63.7363 128.538 63.6239 128.474 63.502 128.434C63.38 128.395 63.2512 128.381 63.1237 128.395C62.9962 128.408 62.8729 128.447 62.7615 128.511C62.6501 128.574 62.5532 128.66 62.4768 128.763C62.4005 128.866 62.3464 128.983 62.318 129.108C62.2897 129.233 62.2877 129.363 62.3121 129.489C62.3366 129.615 62.3869 129.734 62.46 129.839C62.5331 129.944 62.6273 130.033 62.7367 130.1C63.1603 130.417 63.6724 130.594 64.2013 130.605Z" fill="#E0E0E0"/>
<path d="M64.2626 128.242C64.3833 128.243 64.503 128.221 64.6149 128.176C64.7269 128.131 64.8287 128.064 64.9146 127.98C65.0005 127.895 65.0687 127.794 65.1152 127.683C65.1618 127.571 65.1857 127.452 65.1857 127.331V105.82C65.1869 105.337 65.3148 104.862 65.5567 104.443C65.7985 104.024 66.1459 103.676 66.5642 103.433L92.6932 88.5428C92.9008 88.424 93.0532 88.2283 93.1177 87.9981C93.1822 87.7678 93.1535 87.5215 93.0378 87.3122C92.9802 87.2082 92.9025 87.1168 92.8092 87.0431C92.7159 86.9694 92.6089 86.9149 92.4944 86.8829C92.38 86.8508 92.2603 86.8418 92.1423 86.8564C92.0243 86.8709 91.9104 86.9087 91.8071 86.9676L65.6165 101.882C64.9183 102.285 64.3383 102.865 63.9344 103.562C63.5305 104.26 63.3169 105.051 63.3149 105.857V127.368C63.3197 127.488 63.348 127.605 63.3982 127.714C63.4484 127.823 63.5196 127.92 63.6076 128.001C63.6956 128.083 63.7988 128.146 63.9112 128.187C64.0236 128.228 64.143 128.247 64.2626 128.242Z" fill="#FAFAFA"/>
<path d="M66.2812 127.332C66.2837 126.932 66.1674 126.54 65.9471 126.207C65.7268 125.873 65.4124 125.613 65.0438 125.458C64.6752 125.303 64.269 125.262 63.8766 125.338C63.4843 125.415 63.1235 125.606 62.8399 125.888C62.5564 126.169 62.363 126.529 62.2841 126.921C62.2052 127.313 62.2444 127.719 62.3968 128.089C62.5492 128.458 62.8079 128.774 63.1401 128.997C63.4723 129.219 63.8631 129.338 64.2628 129.338C64.5273 129.339 64.7895 129.289 65.0343 129.189C65.2791 129.088 65.5017 128.941 65.6893 128.754C65.8769 128.568 66.0258 128.346 66.1274 128.102C66.229 127.858 66.2813 127.596 66.2812 127.332Z" fill="#F5F5F5"/>
<path d="M62.2686 127.443C62.3527 127.651 62.4807 127.838 62.6438 127.993C62.8069 128.147 63.0014 128.264 63.2139 128.337C63.4265 128.409 63.6522 128.435 63.8756 128.412C64.099 128.39 64.3149 128.319 64.5086 128.206C64.7558 128.057 64.9603 127.846 65.1022 127.595C65.2442 127.344 65.3188 127.06 65.3188 126.772C65.3188 126.483 65.2442 126.2 65.1022 125.948C64.9603 125.697 64.7558 125.487 64.5086 125.338C64.8851 125.39 65.2391 125.548 65.5294 125.793C65.8197 126.038 66.0343 126.361 66.1483 126.724C66.2622 127.086 66.2708 127.474 66.1731 127.841C66.0753 128.208 65.8752 128.54 65.5961 128.798C65.317 129.056 64.9703 129.23 64.5965 129.298C64.2227 129.367 63.837 129.328 63.4845 129.186C63.132 129.044 62.8271 128.805 62.6053 128.496C62.3835 128.187 62.2539 127.822 62.2317 127.443H62.2686Z" fill="#EBEBEB"/>
<path d="M420.827 115.457L411.313 109.98L416.544 108.873L421.75 112.503L420.827 115.457Z" fill="#E0E0E0"/>
<path d="M404.175 66.4415C404.175 51.6744 395.128 44.8199 384.015 51.2313L367.596 60.7069C356.519 67.1184 347.449 84.3959 347.449 99.2123C347.449 99.8153 347.449 100.443 347.449 100.972C347.449 101.304 347.449 101.587 347.449 101.907C347.449 102.227 347.51 102.486 347.535 102.769C347.56 103.052 347.609 103.421 347.658 103.741C347.906 105.49 348.343 107.206 348.963 108.86C349.221 109.476 349.492 110.091 349.787 110.608C349.924 110.893 350.08 111.169 350.255 111.432L350.415 111.691C350.689 112.131 351.006 112.544 351.363 112.921C351.56 113.143 351.744 113.377 351.953 113.586L352.593 114.201C352.815 114.373 353.024 114.582 353.258 114.755C353.479 114.933 353.713 115.093 353.959 115.235L354.686 115.653C355.626 116.161 356.646 116.506 357.701 116.675C357.782 116.655 357.866 116.655 357.947 116.675C358.23 116.675 358.489 116.736 358.772 116.736C359.071 116.761 359.371 116.761 359.67 116.736C360.461 116.745 361.251 116.658 362.021 116.478C362.482 116.386 362.938 116.271 363.387 116.133C364.825 115.693 366.205 115.081 367.498 114.312L383.916 104.836C385.041 104.183 386.119 103.451 387.141 102.646C387.141 102.449 387.141 102.277 387.141 102.092C387.141 101.907 387.141 101.514 387.141 101.292C387.141 100.8 387.141 100.295 387.141 99.7907C387.104 87.2017 394.685 72.3484 404.175 66.4415Z" fill="#E0E0E0"/>
<path d="M406.944 55.7966L397.405 50.3081C397.467 50.3081 398.378 56.941 398.378 56.941L405.454 57.7778L406.944 55.7966Z" fill="#E0E0E0"/>
<path d="M362.87 120.293L354.058 115.296L359.362 113.02L362.87 120.293Z" fill="#E0E0E0"/>
<path d="M367.596 114.459C367.534 118.106 366.362 121.648 364.236 124.612C363.842 125.129 364.446 125.584 364.889 125.35C366.9 124.307 368.683 122.871 370.132 121.129C372.915 117.84 374.862 113.926 375.805 109.722L367.596 114.459Z" fill="#E0E0E0"/>
<path d="M364.335 125.326L373.873 130.814C373.873 130.814 379.227 126.298 379.227 117.155L368.876 116.453C368.876 116.453 368.63 122.409 364.335 125.326Z" fill="#E0E0E0"/>
<path d="M389.738 98.4249C389.738 98.8844 389.738 99.3274 389.738 99.754C389.738 100 389.738 100.209 389.738 100.443C389.738 100.677 389.738 100.874 389.812 101.095C389.885 101.317 389.812 101.588 389.898 101.834C390.04 102.924 390.296 103.996 390.661 105.033C390.714 105.222 390.779 105.407 390.858 105.587C390.948 105.834 391.05 106.077 391.165 106.313C391.261 106.542 391.372 106.764 391.498 106.978C391.595 107.192 391.71 107.398 391.842 107.593L391.965 107.79C392.182 108.129 392.421 108.453 392.679 108.762C392.814 108.941 392.962 109.11 393.122 109.266L393.59 109.722C393.75 109.871 393.918 110.011 394.095 110.14C394.263 110.27 394.44 110.39 394.624 110.497C394.809 110.608 394.981 110.719 395.178 110.817L395.744 111.088L396.335 111.297C396.695 111.406 397.061 111.496 397.43 111.568H397.615C397.819 111.586 398.025 111.586 398.23 111.568C398.451 111.593 398.674 111.593 398.895 111.568C399.424 111.568 399.952 111.514 400.47 111.408C400.885 111.337 401.296 111.243 401.701 111.125C402.781 110.794 403.818 110.335 404.79 109.759L417.098 102.646C418.196 102.012 419.23 101.275 420.187 100.443C420.531 100.148 420.876 99.8278 421.221 99.5079C421.841 98.93 422.429 98.3178 422.981 97.6743L423.768 96.9605C423.978 96.7144 424.175 96.456 424.384 96.1976C424.435 96.1081 424.497 96.0254 424.568 95.9514C425.388 94.868 426.144 93.7381 426.833 92.5673C427.018 92.2596 427.19 91.9397 427.374 91.6197C427.559 91.2998 427.731 90.9798 427.904 90.6476C428.076 90.3153 428.236 89.983 428.408 89.6631L428.876 88.654C429.036 88.3217 429.184 87.9649 429.331 87.6449C429.59 87.0542 429.824 86.4143 430.033 85.8482C430.033 85.7375 430.119 85.6267 430.156 85.516C430.291 85.1714 430.402 84.8268 430.513 84.4823C430.734 83.8177 430.931 83.1532 431.128 82.4641C431.561 80.8467 431.886 79.2023 432.101 77.5417C432.101 77.2587 432.162 76.9879 432.199 76.7049C432.236 76.4219 432.199 76.225 432.261 75.9788C432.322 75.7327 432.261 75.4866 432.261 75.2405C432.261 74.7811 432.261 74.3257 432.261 73.8745C432.261 62.7991 425.479 57.6183 417.135 62.43L404.827 69.5551C396.519 74.3422 389.738 87.3003 389.738 98.4249Z" fill="#E0E0E0"/>
<path d="M436.704 67.1551L427.239 61.7158L423.67 64.2385L434.71 70.9207L436.704 67.1551Z" fill="#E0E0E0"/>
<path d="M404.212 115.973L394.698 110.497L402.156 108.27L404.212 115.973Z" fill="#E0E0E0"/>
<path d="M415.313 103.839C415.313 105.809 417.775 108.492 420.593 108.996C420.974 109.07 420.876 109.907 420.421 110.227C418.741 111.139 416.803 111.46 414.919 111.138C413.695 111.101 412.504 110.74 411.465 110.091C410.427 109.443 409.58 108.529 409.011 107.445L415.313 103.839Z" fill="#34A573"/>
<path d="M393.541 56.7073L377.11 66.1952C366.033 72.6066 356.975 89.8842 356.975 104.688C356.975 105.304 356.975 105.919 356.975 106.46C356.975 106.793 356.975 107.076 356.975 107.396C356.975 107.716 357.036 107.962 357.073 108.245C357.11 108.528 357.147 108.922 357.196 109.229C357.419 110.971 357.831 112.684 358.427 114.336C358.686 114.964 358.956 115.567 359.252 116.096C359.388 116.378 359.544 116.649 359.719 116.908C359.771 116.998 359.829 117.084 359.892 117.167C360.159 117.632 360.472 118.069 360.827 118.471C361.024 118.692 361.221 118.939 361.43 119.136L362.058 119.751C362.279 119.923 362.501 120.132 362.722 120.305C362.946 120.48 363.18 120.64 363.424 120.785L364.162 121.203C365.099 121.709 366.115 122.054 367.166 122.224C367.245 122.197 367.332 122.197 367.412 122.224C367.695 122.224 367.966 122.224 368.236 122.224C368.536 122.243 368.836 122.243 369.135 122.224C369.926 122.228 370.714 122.141 371.486 121.966C371.946 121.874 372.402 121.759 372.852 121.621C374.286 121.177 375.666 120.57 376.962 119.812C376.902 123.458 375.725 126.997 373.59 129.952C373.196 130.482 373.799 130.937 374.255 130.703C376.269 129.658 378.052 128.219 379.498 126.47C382.274 123.18 384.22 119.272 385.172 115.075L383.941 115.751L393.332 110.337C394.24 109.813 395.116 109.234 395.953 108.602C395.881 108.289 395.827 107.973 395.793 107.654C395.793 107.445 395.719 107.137 395.695 106.817C395.65 106.544 395.621 106.269 395.608 105.993V105.845C395.596 105.64 395.596 105.435 395.608 105.23C395.608 104.762 395.608 104.27 395.608 103.778C395.608 91.324 402.993 77.2829 412.495 71.7821L413.541 71.1668C413.442 56.9288 404.495 50.382 393.541 56.7073Z" fill="#F0F0F0"/>
<path d="M426.71 67.8814L414.402 74.9942C406.07 79.8182 399.276 92.7764 399.276 103.901C399.276 104.356 399.276 104.799 399.276 105.23C399.276 105.661 399.276 105.685 399.276 105.919C399.276 106.153 399.276 106.35 399.338 106.571C399.358 106.815 399.39 107.057 399.436 107.297C399.571 108.393 399.827 109.47 400.199 110.509C400.246 110.7 400.312 110.885 400.396 111.063C400.48 111.307 400.578 111.545 400.691 111.777C400.79 112.008 400.901 112.234 401.024 112.454C401.125 112.668 401.245 112.874 401.381 113.069C401.41 113.139 401.447 113.205 401.491 113.266C401.725 113.61 401.959 113.93 402.205 114.238C402.348 114.415 402.5 114.583 402.661 114.743L403.128 115.198C403.288 115.347 403.456 115.487 403.633 115.616C403.795 115.749 403.968 115.868 404.15 115.973C404.335 116.084 404.507 116.195 404.704 116.293L405.27 116.564L405.861 116.773C406.221 116.882 406.587 116.972 406.956 117.044H407.141C407.345 117.063 407.551 117.063 407.756 117.044C407.981 117.075 408.208 117.075 408.433 117.044C408.962 117.047 409.489 116.997 410.008 116.896C410.424 116.825 410.834 116.73 411.239 116.613C412.321 116.287 413.359 115.828 414.328 115.247L418.488 112.86C419.065 113.932 419.916 114.833 420.953 115.47C421.991 116.108 423.179 116.46 424.396 116.49C426.281 116.808 428.219 116.483 429.897 115.567C430.341 115.284 430.451 114.447 430.057 114.336C427.239 113.832 424.79 111.149 424.79 109.18L426.661 108.097C427.757 107.461 428.791 106.723 429.75 105.895C430.094 105.599 430.439 105.279 430.771 104.959C431.396 104.382 431.987 103.769 432.544 103.126C432.765 102.867 432.987 102.621 433.208 102.326C433.43 102.03 433.614 101.834 433.824 101.575L434.008 101.329C434.828 100.246 435.584 99.1157 436.273 97.9449L436.827 96.9973C437.011 96.6774 437.184 96.3574 437.356 96.0251C437.528 95.6929 437.676 95.3606 437.848 95.0407L438.328 94.0316C438.488 93.687 438.624 93.3425 438.771 93.0225C439.03 92.4318 439.276 91.7919 439.485 91.2258L439.596 90.8936C439.731 90.549 439.854 90.2044 439.953 89.8599C440.187 89.183 440.371 88.5308 440.58 87.8417C441.014 86.2243 441.338 84.5798 441.553 82.9193C441.553 82.6363 441.614 82.3655 441.639 82.0825C441.664 81.7995 441.639 81.5902 441.7 81.3564C441.762 81.1226 441.7 80.8642 441.7 80.6181C441.7 80.1628 441.7 79.6951 441.7 79.2398C441.836 68.2013 435.042 63.0698 426.71 67.8814Z" fill="#F0F0F0"/>
<path d="M327.83 230.665C323.178 229.213 318.403 232.978 315.277 240.583C312.15 248.189 305.591 267.534 304.618 272.69C303.646 277.846 325.652 289.069 325.037 288.774C324.421 288.478 327.83 230.665 327.83 230.665Z" fill="#263238"/>
<path d="M317.603 409.667C316.938 409.913 316.778 411.169 316.68 413.654C316.606 415.537 316.2 418.823 318.403 419.475C320.606 420.127 323.843 419.795 325.258 418.023C327.018 415.808 328.212 413.864 330.723 411.156C332.913 408.818 335.264 406.628 336.15 403.342C336.95 400.364 336.286 399.084 334.255 398.223C331.473 396.992 327.092 400.905 324.913 401.521C323.03 402.05 318.255 409.421 317.603 409.667Z" fill="#263238"/>
<path d="M317.603 407.366V410.419C318.748 411.152 320.072 411.558 321.432 411.595C322.792 411.632 324.136 411.298 325.319 410.628C325.455 410.333 326.119 406.259 326.119 406.259L317.603 407.366Z" fill="#FFA8A7"/>
<path d="M342.329 427.265C342.329 427.265 341.455 429.923 340.987 432.187C340.606 434.033 340.077 437.109 340.717 438.512C341.357 439.915 343.892 440.801 347.793 440.764C350.329 440.764 354.28 442.475 356.975 443.976C359.67 445.477 365.59 446.154 368.532 445.81C372.003 445.404 375.609 443.349 376.175 441.946C376.741 440.543 375.99 439.005 367.793 435.51C367.719 435.51 356.396 431.818 352.421 427.425L342.329 427.265Z" fill="#263238"/>
<path d="M342.329 423.967C342.329 423.967 342.329 426.231 342.329 427.524C342.329 428.816 343.855 430.748 347.818 430.613C350.6 430.514 352.532 429.764 352.421 427.474V424.164L342.329 423.967Z" fill="#FFA8A7"/>
<path d="M315.609 366.843C316.289 361.434 317.497 356.105 319.215 350.931C319.215 350.931 318.132 337.21 317.603 324.203C317.037 310.149 317.603 292.478 317.369 288.983C317.369 288.983 362.723 279.803 363.535 296.046C364.347 312.29 361.738 353.638 361.209 360.776C360.68 367.913 359.436 374.226 357.96 385.794C356.483 397.362 352.421 424.164 352.421 424.164C350.852 424.963 349.111 425.364 347.35 425.329C345.59 425.295 343.865 424.827 342.329 423.967C342.329 423.967 339.141 391.479 339.474 383.247C339.733 377.131 340.784 371.076 342.6 365.231L340.987 340.188C340.224 328.534 339.424 322.96 339.24 317.877L338.267 317.385C338.267 317.385 337.27 337.493 336.741 344.63C336.212 351.768 335.067 358.61 333.049 371.864C331.252 383.357 325.923 407.686 325.923 407.686C320.741 410.492 317.652 407.329 317.652 407.329C317.652 407.329 314.231 376.811 315.609 366.843Z" fill="#455A64"/>
<path d="M339.24 317.914C339.24 317.914 328.237 312.487 322.735 307.602C322.735 307.602 327.843 314.801 334.563 318C334.563 318 336.95 342.969 336.938 342.477L338.317 317.865L339.24 317.914Z" fill="#37474F"/>
<path d="M349.036 225.521L346.353 240.288L333.012 239.316L335.806 222.567L349.036 225.521Z" fill="#FFA8A7"/>
<path d="M318.92 238.233C320.236 234.221 325.332 229.853 330.427 230.849C338.005 232.131 345.474 233.995 352.766 236.424C357.43 238.085 361.676 242.122 362.07 257.48L364.433 303.209L358.784 304.439L356.815 294.077L355.904 304.439C349.996 305.916 339.744 304.698 333.012 303.209C318.981 300.144 317.295 294.324 317.295 294.324C317.295 294.324 317.11 268.592 317.529 257.48C317.923 247.979 318.009 240.94 318.92 238.233Z" fill="#37474F"/>
<path d="M358.907 208.022C358.907 208.022 362.144 212.81 361.725 213.314C360.977 213.819 360.143 214.181 359.264 214.385L358.907 208.022Z" fill="#FFA8A7"/>
<path d="M349.036 192.861C352.15 194.436 357.529 197.34 359.005 208.723C360.532 220.414 358.525 224.18 356.95 225.73C355.879 226.776 350.07 226.838 347.166 225.964C343.473 224.869 335.326 221.755 331.584 215.75C327.178 208.686 326.193 199.223 331.166 195.457C338.144 190.166 346.402 191.532 349.036 192.861Z" fill="#FFA8A7"/>
<path d="M359.658 196.774C358.636 199.58 356.913 206.447 349.75 209.314C349.75 209.314 348.729 204.933 345.049 205.401C341.369 205.868 340.741 210.557 343.006 213.473C345.27 216.39 347.461 215.331 347.461 215.331C347.461 215.331 347.953 221.608 343.769 224.45C343.769 224.45 338.71 227.65 333.356 225.189C330.895 224.081 327.535 218.31 325.541 213.572C321.307 203.555 320.704 195.519 327.092 192.984C327.88 188.431 329.935 186.72 334.058 185.871C342.932 184.037 349.639 189.87 357.098 188.849C360.999 188.308 360.827 193.575 359.658 196.774Z" fill="#37474F"/>
<path d="M326.944 194.511L322.76 191.926C322.922 191.636 323.141 191.382 323.404 191.179C323.667 190.976 323.969 190.828 324.29 190.745C324.612 190.661 324.947 190.644 325.275 190.694C325.604 190.743 325.919 190.859 326.202 191.033C326.484 191.208 326.729 191.438 326.92 191.709C327.111 191.981 327.246 192.288 327.315 192.613C327.385 192.938 327.388 193.274 327.324 193.6C327.26 193.926 327.131 194.236 326.944 194.511Z" fill="#37474F"/>
<path d="M348.052 230.898L349.578 235.316C349.578 235.316 348.458 237.285 343.695 237.384C338.932 237.482 333.849 235.968 332.273 233.938C331.915 233.54 331.649 233.068 331.496 232.555C331.343 232.042 331.306 231.501 331.387 230.972C331.387 230.972 333.283 226.788 335.08 226.973L334.784 228.794C334.784 228.794 335.19 230.283 339.51 231.428C346.23 233.212 348.052 230.898 348.052 230.898Z" fill="#455A64"/>
<path d="M386.329 260.26C388.249 258.058 388.987 253.172 391.547 249.825C394.107 246.478 395.055 244.029 396.064 245.493C397.405 247.425 394.378 251.302 395.055 251.646C395.732 251.991 398.23 257.135 398.489 259.965C398.747 262.796 391.239 269.933 391.239 269.933L386.329 260.26Z" fill="#FFA8A7"/>
<path d="M348.052 230.898C348.361 230.892 348.667 230.97 348.936 231.124C349.204 231.278 349.426 231.502 349.578 231.772C350.331 233.131 351.005 234.533 351.596 235.969L349.578 235.317L348.052 230.898Z" fill="#455A64"/>
<path d="M394.845 251.252C394.845 251.252 403.916 250.465 405.233 251.252C406.55 252.04 406.156 255.966 405.233 258.378C404.31 260.789 399.682 262.352 395.387 265.257C395.387 264.814 394.845 251.252 394.845 251.252Z" fill="#FFA8A7"/>
<path d="M351.596 236.018C355.498 237.384 358.907 238.946 362.55 245.789C367.227 254.575 376.089 268.628 376.089 268.628L386.292 259.633C386.292 259.633 387.83 258.144 390.698 262.882C391.538 264.157 392.07 265.61 392.251 267.127C392.433 268.643 392.259 270.181 391.744 271.619C391.744 271.619 379.965 285.438 377.713 287.543C375.461 289.647 371.732 288.01 369.307 284.7C366.882 281.39 351.559 262.254 351.559 262.254C351.559 262.254 343.239 251.203 351.596 236.018Z" fill="#37474F"/>
<path d="M456.839 213.042H427.78C426.684 213.042 425.632 212.607 424.856 211.831C424.081 211.056 423.645 210.004 423.645 208.908V162.748C423.645 159.115 425.088 155.632 427.657 153.063C430.226 150.494 433.71 149.051 437.343 149.051H447.313C450.939 149.061 454.414 150.509 456.975 153.076C459.536 155.644 460.974 159.122 460.974 162.748V208.908C460.974 210.004 460.538 211.056 459.763 211.831C458.987 212.607 457.936 213.042 456.839 213.042Z" fill="#37474F"/>
<path d="M422.882 197.291C420.064 205.598 415.338 229.496 415.338 229.496C415.338 229.496 405.491 241.531 402.279 244.448C400.519 246.072 396.556 248.989 396.556 248.989L403.756 254.28C410.257 249.281 416.363 243.788 422.021 237.852C423.279 236.513 424.162 234.866 424.581 233.077L429.504 211.96C429.504 211.96 429.504 194.978 432.101 192.75C434.697 190.523 435.448 190.055 435.448 190.055C432.113 189.809 425.098 190.757 422.882 197.291Z" fill="#F28F8F"/>
<path d="M436.987 189.809C432.396 189.28 426.513 189.378 423.645 194.51C420.778 199.642 416.002 226.173 416.002 226.173C416.002 226.173 420.519 229.68 425.393 229.619L436.987 189.809Z" fill="#34A573"/>
<path d="M424.224 214.532C425.05 218.487 425.369 222.531 425.171 226.567C424.814 231.883 421.147 241.162 421.147 241.162C421.147 241.162 424.014 244.312 432.101 243.045C438.685 242.023 436.359 222.125 432.581 218.31C430.377 216.033 427.388 214.682 424.224 214.532Z" fill="#34A573"/>
<path opacity="0.3" d="M424.224 214.532C425.05 218.487 425.369 222.531 425.171 226.567C424.814 231.883 421.147 241.162 421.147 241.162C421.147 241.162 424.014 244.312 432.101 243.045C438.685 242.023 436.359 222.125 432.581 218.31C430.377 216.033 427.388 214.682 424.224 214.532Z" fill="black"/>
<path d="M439.436 355.065C439.488 355.973 439.261 356.875 438.784 357.65C437.566 359.661 436.134 361.534 434.513 363.237C432.236 365.698 428.827 368.59 426.378 370.719C425.024 371.949 424.975 373.697 426.919 374.324C430.544 375.207 434.369 374.674 437.614 372.835C440.076 371.531 443.498 365.452 445.516 364.59C447.842 363.544 449.134 363.027 449.922 361.957C450.518 361.348 450.889 360.556 450.977 359.709C451.064 358.862 450.861 358.01 450.402 357.293C449.307 355.25 447.657 352.112 446.981 352.469L447.19 353.109C446.661 354.77 442.131 356.702 439.805 356.247L439.436 355.065Z" fill="#37474F"/>
<path d="M463.153 285.636C464.199 274.56 467.202 256.741 464.125 243.549L423.264 245.715C422.131 258.723 420.802 299.332 422.23 303.984C423.879 309.472 438.611 347.461 439.46 355.103C439.519 356 439.291 356.892 438.808 357.65C437.592 359.666 436.16 361.544 434.537 363.25C433.43 364.48 432.076 365.711 430.648 366.941C430.529 367.117 430.457 367.32 430.439 367.532C430.439 368.763 433.541 369.144 435.362 368.615C437.634 367.813 439.591 366.309 440.95 364.32C441.996 362.93 444.347 360.259 445.873 358.253C446.382 357.634 446.816 356.957 447.165 356.235C447.573 355.334 447.642 354.316 447.362 353.368L447.264 353.06C446.465 350.569 445.969 347.991 445.787 345.381C445.22 337.001 443.78 317.644 442.451 312.487C441.528 308.73 440.126 305.107 438.279 301.707L442.944 265.417C442.944 265.417 443.436 297.413 444.888 305.571C446.033 312.106 446.476 320.277 447.817 331.488C449.048 342.219 450.476 361.121 450.476 361.121C450.512 361.127 450.55 361.127 450.587 361.121V370.153H458.23V364.911C458.23 362.544 458.427 360.181 458.82 357.847C460.051 350.71 462.611 334.38 463.14 328.854C463.977 320.092 460.814 309.079 460.814 309.079C460.814 309.079 462.131 296.44 463.153 285.636Z" fill="#FFA8A7"/>
<path d="M448.753 190.19C448.753 190.19 459.743 191.421 461.06 192.049C450.746 199.297 459.103 215.43 459.103 215.43L455.153 227.822C459.546 233.446 463.337 236.793 465.688 242.958C468.297 249.85 470.611 260.101 469.996 281.107C460.15 288.49 430.193 287.691 418.525 281.107C418.525 281.107 420.494 262.562 422.821 248.151C424.359 238.639 427.99 228.277 427.374 224.77C422.747 210.544 422.451 207.985 423.288 204.81C425.59 195.876 434.697 189.833 436.937 189.833L448.753 190.19Z" fill="#34A573"/>
<path opacity="0.6" d="M448.753 190.19C448.753 190.19 459.743 191.421 461.06 192.049C450.746 199.297 459.103 215.43 459.103 215.43L455.153 227.822C459.546 233.446 463.337 236.793 465.688 242.958C468.297 249.85 470.611 260.101 469.996 281.107C460.15 288.49 430.193 287.691 418.525 281.107C418.525 281.107 420.494 262.562 422.821 248.151C424.359 238.639 427.99 228.277 427.374 224.77C422.747 210.544 422.451 207.985 423.288 204.81C425.59 195.876 434.697 189.833 436.937 189.833L448.753 190.19Z" fill="white"/>
<path d="M450.513 366.325V365.23C449.553 368.91 447.633 372.269 444.95 374.964C442.488 377.192 439.165 379.776 438.303 382.274C437.442 384.772 442.254 385.892 445.43 385.572C448.507 385.196 451.341 383.713 453.405 381.4C455.423 379.087 455.386 377.512 456.322 376.232C457.257 374.952 459.436 373.549 459.94 372.072C460.098 370.694 459.946 369.299 459.497 367.987C459.14 366.621 458.746 365.107 458.266 365.23V366.079C457.159 366.95 455.786 367.415 454.377 367.396C453.306 367.421 450.5 367.187 450.513 366.325Z" fill="#37474F"/>
<path d="M458.23 366.055C457.122 366.926 455.749 367.391 454.34 367.372C453.208 367.372 450.451 367.187 450.463 366.326V365.23C449.503 368.91 447.584 372.269 444.9 374.964L443.042 376.626C441.737 378.078 442.107 379.345 445.171 379.604C448.236 379.862 450.931 378.016 453.245 375.174C455.218 372.315 456.888 369.259 458.23 366.055Z" fill="#FFA8A7"/>
<path d="M429.774 156.595C427.805 157.764 425.368 162.748 425.602 173.11C425.811 181.921 428.667 184.099 430.107 184.727C431.547 185.354 434.304 184.973 436.987 184.53V189.809C436.987 189.809 433.294 194.128 433.504 196.553C433.713 198.977 438.87 199.543 442.353 197.18C444.867 195.231 447.032 192.867 448.753 190.191L448.691 178.045C448.691 178.045 450.279 179.57 452.962 177.232C455.177 175.3 455.916 172.027 454.193 170.279C453.745 169.859 453.204 169.551 452.613 169.383C452.023 169.214 451.401 169.188 450.799 169.309C450.196 169.429 449.632 169.692 449.152 170.075C448.672 170.458 448.29 170.95 448.039 171.51C448.039 171.51 446.55 167.363 440.359 165.357C434.771 163.499 431.731 161.395 429.774 156.595Z" fill="#FFA8A7"/>
<path d="M435.448 170.907C435.448 171.124 435.512 171.336 435.632 171.517C435.751 171.698 435.922 171.84 436.121 171.925C436.321 172.01 436.541 172.035 436.754 171.996C436.968 171.957 437.165 171.856 437.322 171.706C437.478 171.556 437.588 171.363 437.636 171.152C437.684 170.94 437.669 170.719 437.593 170.516C437.516 170.313 437.382 170.137 437.206 170.01C437.031 169.882 436.822 169.809 436.605 169.8C436.456 169.796 436.308 169.822 436.17 169.876C436.031 169.93 435.904 170.011 435.797 170.114C435.69 170.217 435.603 170.34 435.544 170.476C435.484 170.612 435.451 170.759 435.448 170.907Z" fill="#37474F"/>
<path d="M435.153 178.364L432.581 179.189C432.626 179.361 432.705 179.521 432.814 179.662C432.923 179.802 433.059 179.918 433.215 180.005C433.37 180.091 433.541 180.145 433.717 180.163C433.894 180.182 434.072 180.164 434.242 180.112C434.589 179.994 434.878 179.746 435.047 179.42C435.217 179.095 435.255 178.717 435.153 178.364Z" fill="#F28F8F"/>
<path d="M426.365 167.499L428.605 165.948C428.51 165.796 428.386 165.666 428.239 165.564C428.093 165.462 427.927 165.391 427.752 165.356C427.577 165.32 427.396 165.32 427.221 165.356C427.046 165.393 426.881 165.464 426.734 165.566C426.434 165.778 426.228 166.097 426.159 166.458C426.09 166.818 426.164 167.192 426.365 167.499Z" fill="#37474F"/>
<path d="M438.673 168.335L436.42 166.784C436.515 166.633 436.64 166.503 436.786 166.401C436.932 166.299 437.098 166.227 437.272 166.191C437.447 166.154 437.627 166.153 437.802 166.187C437.977 166.221 438.143 166.291 438.291 166.391C438.589 166.606 438.794 166.927 438.865 167.288C438.936 167.649 438.867 168.023 438.673 168.335Z" fill="#37474F"/>
<path d="M426.882 170.095C426.88 170.312 426.942 170.525 427.06 170.708C427.178 170.89 427.347 171.034 427.547 171.121C427.746 171.208 427.966 171.234 428.181 171.197C428.395 171.159 428.593 171.06 428.751 170.91C428.909 170.761 429.019 170.568 429.069 170.356C429.118 170.144 429.103 169.923 429.027 169.719C428.952 169.515 428.817 169.338 428.641 169.21C428.466 169.082 428.256 169.009 428.039 168.999C427.741 168.993 427.452 169.104 427.235 169.309C427.018 169.514 426.892 169.797 426.882 170.095Z" fill="#37474F"/>
<path d="M432.101 169.467L431.928 176.138L428.421 175.055L432.101 169.467Z" fill="#F28F8F"/>
<path d="M436.987 184.53C439.817 184.149 445.602 182.475 446.562 180.173C446.197 181.339 445.484 182.365 444.519 183.115C442.771 184.604 436.987 186.29 436.987 186.29V184.53Z" fill="#F28F8F"/>
<path d="M457.06 221.066L449.294 231.576L455.153 227.822L457.06 221.066Z" fill="#34A573"/>
<path d="M395.879 248.988C394.218 251.13 393.196 255.289 392.322 256.692C391.448 258.095 390.402 259.313 392.322 259.571C394.242 259.83 397.048 256.077 398.094 253.8C398.624 252.516 399.623 251.482 400.888 250.908C399.99 250.6 400.457 246.995 399.83 246.49C399.83 246.49 396.556 247.832 395.879 248.988Z" fill="#F28F8F"/>
<path d="M395.387 265.232C397.122 263.94 397.184 262.353 397.516 259.83C397.849 257.307 404.802 254.575 405.024 256.458C405.245 258.341 405.873 259.916 403.793 262.205C401.713 264.494 398.562 266.93 395.387 265.232Z" fill="#F28F8F"/>
<path d="M448.753 190.19C448.753 190.19 459.042 191.089 461.06 192.049C463.079 193.009 466.439 198.817 463.436 207.247C460.433 215.676 457.7 225.595 458.008 227.588C458.316 229.582 465.491 239.894 465.491 239.894C463.512 241.355 461.273 242.428 458.894 243.057L455.202 235.033L456.064 243.561C452.355 244.463 448.544 244.877 444.728 244.792C444.728 244.792 441.245 212.034 448.753 190.19Z" fill="#34A573"/>
<path d="M474.107 230.37C474.931 225.521 474.107 223.934 472.408 219.184L463.793 224.758C464.499 226.551 464.915 228.446 465.024 230.37C464.95 231.773 463.042 245.678 461.257 250.527C460.936 251.389 460.304 252.1 459.485 252.52C457.71 253.604 456.102 254.939 454.71 256.483C453.393 257.714 452.334 257.935 452.47 258.353C452.673 258.807 453.037 259.17 453.491 259.372C453.945 259.574 454.458 259.601 454.931 259.449C456.003 259.101 457.032 258.63 457.996 258.046C457.141 259.856 456.003 261.517 454.624 262.968C451.461 266.34 451.177 268.531 457.085 268.986C460.777 269.269 463.867 267.201 467.202 259.264C468.236 256.354 469.086 253.383 469.75 250.367C471.547 243.488 473.294 235.255 474.107 230.37Z" fill="#FFA8A7"/>
<path d="M461.06 192.049C465.208 193.907 466.39 197.574 467.928 202.964C469.467 208.354 474.291 224.524 474.291 224.524C474.291 224.524 470.156 229.447 464.445 228.068L457.06 210.139C457.06 210.139 453.614 198.436 461.06 192.049Z" fill="#34A573"/>
</svg>
